<?xml version="1.0" encoding="utf-8"?>
<!-- Generator: Adobe Illustrator 12.0.0, SVG Export Plug-In . SVG Version: 6.00 Build 51448)  -->
<!DOCTYPE svg PUBLIC "-//W3C//DTD SVG 1.1//EN" "http://www.w3.org/Graphics/SVG/1.1/DTD/svg11.dtd" [
	<!ENTITY ns_svg "http://www.w3.org/2000/svg">
	<!ENTITY ns_xlink "http://www.w3.org/1999/xlink">
]>
<svg  version="1.1" id="Layer_1" xmlns="&ns_svg;" xmlns:xlink="&ns_xlink;" width="373.798" height="497.568"
	 viewBox="0 0 373.798 497.568" overflow="visible" enable-background="new 0 0 373.798 497.568" xml:space="preserve">
<g>
	<g>
		<path fill-rule="evenodd" clip-rule="evenodd" fill="#FFFFFF" d="M261.224,37.939c1.825,0.455,2.219,2.342,3.109,3.732
			C262.476,43.217,261.586,39.813,261.224,37.939z"/>
		<path fill-rule="evenodd" clip-rule="evenodd" fill="#FFFFFF" d="M264.333,42.293c3.204,0.942,2.566,5.727,3.732,8.708
			C266.014,48.906,264.216,46.557,264.333,42.293z"/>
		<path fill-rule="evenodd" clip-rule="evenodd" d="M139.319,54.11c0.862-1.418,4.329-0.231,6.219-0.622
			C144.676,54.907,141.209,53.721,139.319,54.11z"/>
		<path fill-rule="evenodd" clip-rule="evenodd" fill="#FFFFFF" d="M181.612,68.416c0.633-0.404,0.643-1.43,1.866-1.244
			c1.17,1.524,2.11,3.28,2.488,5.598c-5.354-3.248-9.717-5.629-11.817-13.062C176.449,62.623,182.493,64.301,181.612,68.416z"/>
		<path fill-rule="evenodd" clip-rule="evenodd" d="M220.796,86.453c-0.595-2.241,2.685-1.103,3.11-0.622
			C224.206,87.05,221.054,87.834,220.796,86.453z"/>
		<path fill-rule="evenodd" clip-rule="evenodd" fill="#FFFFFF" d="M295.432,98.892c-1.191,4.619-5.896,11.101-9.952,14.927
			c-0.035-2.66-0.834-4.556-1.243-6.842C287.489,103.804,291.301,101.188,295.432,98.892z"/>
		<path fill-rule="evenodd" clip-rule="evenodd" fill="#FFFFFF" d="M214.576,138.075c-1.503,2.059-1.425-2.672-3.731-1.866
			C212.234,134.264,214.122,137.03,214.576,138.075z"/>
		<path fill-rule="evenodd" clip-rule="evenodd" fill="#FFFFFF" d="M299.785,140.563c2.247-0.589,0.867,2.45,1.244,3.732
			C298.781,144.884,300.161,141.845,299.785,140.563z"/>
		<path fill-rule="evenodd" clip-rule="evenodd" fill="#FFFFFF" d="M251.272,149.893c-1.339,2.808-1.638,6.655-3.732,8.708
			c-1.899,0.795-5.192,0.197-5.598,2.488c-4.89-3.982-5.18-12.225-1.244-17.415C245.683,142.11,248.405,147.352,251.272,149.893z"/>
		<path fill-rule="evenodd" clip-rule="evenodd" fill="#FFFFFF" d="M169.173,164.198c0.913-1.468,4.801-0.704,3.731,1.866
			C171.012,166.091,170.486,164.75,169.173,164.198z"/>
		<path fill-rule="evenodd" clip-rule="evenodd" fill="#FFFFFF" d="M174.149,164.819c1.264,0.454,2.54,1.872,1.244,3.11
			C173.239,168.365,173.162,165.749,174.149,164.819z"/>
		<path fill-rule="evenodd" clip-rule="evenodd" fill="#FFFFFF" d="M186.588,175.393c-3.973,0.441-8.013-4.42-10.573-7.463
			C181.36,168.596,182.606,173.362,186.588,175.393z"/>
		<path fill-rule="evenodd" clip-rule="evenodd" d="M146.161,193.43c1.168-0.932,0.721,6.245,0,7.463
			C144.891,199.582,146.932,196.305,146.161,193.43z"/>
		<path fill-rule="evenodd" clip-rule="evenodd" fill="#FFFFFF" d="M279.26,199.027c1.026,0.276,1.026,4.699,0,4.976
			C276.302,203.708,280.009,201.072,279.26,199.027z"/>
		<path fill-rule="evenodd" clip-rule="evenodd" fill="#FFFFFF" d="M238.211,235.723c-7.098,9.98,3.531,18.821,5.598,27.366
			c-9.492-17.46-20.844-33.059-26.744-54.111c6.88-1.181,8.531,14.878,14.305,21.769
			C233.202,232.934,235.972,234.184,238.211,235.723z"/>
		<path fill-rule="evenodd" clip-rule="evenodd" d="M187.832,212.71c0.192-0.844,1.557-0.516,2.488-0.622
			c0.999,1.141-0.574,2.106,1.244,3.11c-0.529,1.825-1.565-0.809-3.11,0C188.719,213.547,190.81,213.099,187.832,212.71z"/>
		<path fill-rule="evenodd" clip-rule="evenodd" fill="#FFFFFF" d="M204.625,215.198c2.335,2.848,1.976,8.39,3.732,11.817
			c-2.851-2.332-5.567-4.799-6.842-8.708C203.633,218.353,203.832,216.479,204.625,215.198z"/>
		<path fill-rule="evenodd" clip-rule="evenodd" fill="#FFFFFF" d="M193.43,219.552c1.613,0.742,1.177,2.129,0.622,3.731
			c-0.817-0.22-0.979-1.095-1.866-1.244C191.733,220.343,193.422,220.788,193.43,219.552z"/>
		<path fill-rule="evenodd" clip-rule="evenodd" fill="#FFFFFF" d="M272.419,220.174c1.7,2.875,2.814,5.605,1.243,8.708
			c2.007,0.689,3.184,2.208,6.22,1.866c0.863,7.815,3.563,18.698,3.11,29.854c-6.638-3.936-12.053-9.095-18.659-13.062
			C265.743,237.133,269.78,229.354,272.419,220.174z"/>
		<path fill-rule="evenodd" clip-rule="evenodd" fill="#FFFFFF" d="M289.212,228.259c2.274-0.409,2.386,1.346,4.354,1.244
			C292.826,230.799,289.017,229.955,289.212,228.259z"/>
		<path fill-rule="evenodd" clip-rule="evenodd" d="M177.881,233.857c-2.487-1.044-6.19,1.952-6.22-0.622
			C172.538,232.669,178.034,231.467,177.881,233.857z"/>
		<path fill-rule="evenodd" clip-rule="evenodd" fill="#FFFFFF" d="M204.625,290.456c2.09-0.639,0.968,1.934,1.244,3.11
			C204.643,293.075,203.633,291.39,204.625,290.456z"/>
		<path fill-rule="evenodd" clip-rule="evenodd" fill="#FFFFFF" d="M215.82,338.968c-0.588-3.351-4.761-3.117-4.976-6.841
			c-1.175,0.466-0.432,1.856-1.866,0.622c-0.174-1.814,0.15-2.138,1.244-1.244c-0.517-1.557-1.704-2.442-1.866-4.354
			c-1.812,0.872,1.103,2.143,0.622,3.731c-3.675-0.886-3.067-6.055-4.976-8.708c1.548,0.94,2.844,2.132,3.11,4.354
			c-0.66-3.798-4.846-7.619-3.11-13.061c9.524-4.573,18.096-10.1,27.988-14.305c2.379,14.08-4.068,27.767-9.33,34.208
			c-0.626,1.871,1.386,1.103,2.488,1.244c-0.745,1.744-0.684,4.292-0.622,6.841c-2.867-0.24-4.406-2.999-7.463-1.244
			c1.281,1.414,3.007,2.383,2.488,5.598c-0.896,0.348-1.518,0.97-1.866,1.866C216.391,345.952,211.805,340.094,215.82,338.968z"/>
		<path fill-rule="evenodd" clip-rule="evenodd" fill="#FFFFFF" d="M50.379,307.871c4.403,0.157,7.08,2.042,10.573,3.11
			c-1.017,6.032-6.483,7.614-11.195,9.951C46.222,317.162,49.456,312.278,50.379,307.871z"/>
		<path fill-rule="evenodd" clip-rule="evenodd" fill="#FFFFFF" d="M75.879,330.883c0.817,0.22,0.978,1.095,1.866,1.244
			c-1.61,0.8-1.196,2.044-0.622,3.731C74.713,335.144,75.714,332.451,75.879,330.883z"/>
		<path fill-rule="evenodd" clip-rule="evenodd" fill="#FFFFFF" d="M206.491,338.968c-0.15-1.603-1.07,0.854-2.488,0
			c0.061-3.501,0.561-2.718,0.622-6.219c2.255-0.182-0.06,4.206,3.11,3.109c-0.849,2.405,0.271,2.454-0.622,4.354
			C206.399,339.993,205.536,339.118,206.491,338.968z"/>
		<path fill-rule="evenodd" clip-rule="evenodd" fill="#FFFFFF" d="M213.333,366.335c-4.762-6.849-8.007-15.213-9.33-25.5
			c4.355-0.762,5.79,2.541,8.708,0C221.168,348.701,208.242,353.967,213.333,366.335z"/>
		<path fill-rule="evenodd" clip-rule="evenodd" d="M254.382,0c0.207,0,0.415,0,0.622,0c1.815,9.794,4.322,18.897,7.464,27.366
			c1.968,0.102,2.078-1.653,4.354-1.244c1.427,1.76,2.116,2.875,1.244,5.598c1.733,1.456,3.599-0.827,4.354,1.866
			c3.671-4.207,5.267-10.49,8.707-14.927c-2.839-5.246-5.826-10.344-7.464-16.793c2.201,2.781,3.873,11.465,7.464,14.927
			c1.973-0.264,1.532-4.998,3.731-3.11c-1.408,5.068-6.297,11.909-8.707,18.037c6.452,0.229,10.553-7.273,18.659-7.463
			c0.782-0.154,0.627-1.237,0-1.244c6.569,1.324,14.753-8.146,24.878-3.732C328.485,13.566,337.68,8.248,343.944,0
			c0.207,0,0.414,0,0.622,0c-6.497,7.601-13.812,14.384-23.013,19.281c6.431,1.033,10.196,4.731,16.171,6.22
			c-1.215,5.824,8.15,8.244,7.464,13.683c-5.722-8.336-13.749-20.345-24.257-18.659c-4.522,0.726-10.688,6.296-16.793,9.329
			c-7.775,3.863-13.649,6.842-21.146,9.33c15.457,1.979,27.572-4.769,42.915-4.976c1.512,1.152-4.1,0.419-5.598,0.622
			c-9.394,1.68-20.54,5.798-31.72,6.22c-4.96,0.187-11.172-2.525-13.684,1.866c1.122,3.647,6.594,2.944,6.842,7.464
			c-2.963,5.144-2.923,12.869-1.244,18.659c-4.595,5.541-2.923,18.186,0,24.256c1.403-0.463,0.243-3.488,0.622-4.976
			c7.094-3.065,9.852-10.466,14.306-16.171c0.746-0.871,0.242-0.054,0,0.622c-3.533,6.833-8.634,12.099-13.684,17.415
			c-0.132,5.877,0.021,8.932,1.866,14.927c2.824-1.529,5.403-3.304,6.841-6.22c13.779-2.197,18.276-19.032,29.854-25.5
			c4.352-10.576,8.173-21.682,13.062-31.72c0-1.866,0-3.732,0-5.598c3.88,0.992,3.338,1.529,7.463,3.11
			c-0.628,1.751-2.642-0.172-3.731,0c-5.558,7.296-6.874,18.833-11.817,26.744c0.018,0.605,0.762,0.483,1.244,0.622
			c-5.699,9.585-11.332,21.338-14.305,31.72c12.738-11.103,23.409-24.274,39.805-31.72c-0.43,1.229-1.658,1.658-3.109,1.866
			c-0.105,1.557,0.955,1.947,1.866,2.488c-4.091-2.267-14.501,3.984-14.306,9.952c-0.729-0.101-0.524-1.134-0.622-1.866
			c-3.339-0.372-3.443,3.909-4.354,4.976c-4.015,4.708-9.313,5.607-12.439,11.195c0.622,0,1.244,0,1.866,0
			c-6.442,2.68-10.763,7.481-12.439,14.927c7.163,0.939,17.564-0.262,23.635-2.488c0.408-4.982,0.858-9.922,1.866-14.305
			c0.34-0.904-0.728-3.214,0.621-3.11c0.001,1.037,0,2.073,0,3.11c-0.88,4.718-1.667,9.528-1.865,14.927
			c6.613-0.66,19.582-2.578,23.635-2.488c3.341,0.074,1.606,0.654-1.866,1.244c-4.174,0.709-6.661-0.563-11.195,0.622
			c0.271,0.765,0.796,1.277,1.866,1.244c-12.116-4.704-15.737,11.06-23.013,13.061c1.659,7.057,9.265,12.407,13.683,18.659
			c10.937-1.042,23.141,3.313,37.317,3.732c-12.33,0.803-25.555-3.065-36.073-3.11c0.173,2.467,3.637,4.511,3.109,8.708
			c-1.077-0.804-2.282-6.828-4.354-8.708c-10.385,1.847-23.715,0.749-27.366,9.33c-2.15,0.492-2.626-0.691-3.731-1.244
			c0.246,6.388,4.583,8.686,8.085,11.817c4.484,14.382,18.783,18.95,16.172,40.427c0.628,1.751,2.641-0.171,3.731,0
			c2.691,3.501,4.122,10.212,1.244,14.305c0.776,1.504,2.549,2.012,4.354,2.488c6.079,10.146,3.213,25.796-0.622,37.318
			c-9.921,19.933-29.858,29.85-42.915,46.647c-0.09,9.211,0.035,18.208,2.487,24.878c0.541,0.938,0.932-0.171,2.488,0.622
			c-0.072,1.587-0.117,3.2-1.866,3.11c2.538,8.55,2.557,14.617,4.976,19.903c-2.886,2.975-3.854,9.321-1.865,12.439
			c-6.751,15.015,2.733,36.893,4.976,52.867c0.771,1.301,1.809,2.337,3.109,3.109c1.083,27.552,6.495,52.438,14.927,78.367
			c-37.731,0-75.464,0-113.196,0c2.591-8.97-1.224-16.942-3.11-24.879c1.257-5.149,0.852-14.433-1.244-20.524
			c1.487-1.415,1.578-4.228,4.354-4.354c-2.746-6.167,4.521-6.863,4.976-11.817c0.266-1.718-2.319-0.584-2.488-1.866
			c-0.358-3.391,5.639-3.018,6.841-1.243c-0.574-2.854,1.556-3.005,1.244-5.598c1.636-0.645,3.817-0.744,6.22-0.622
			c1.275-17.918,4.432-36.198,3.731-58.465c-0.243,4.21-4.119,6.744-5.598,9.952c-0.693,1.504,0.059,3.797-0.622,5.598
			c-2.522,6.673-12.359,14.074-17.415,13.061c-7.973-1.598-2.37-9.533-2.488-16.171c-0.08-4.488-3.686-8.327-5.598-13.683
			c-2.846-7.974-2.081-16.555-4.976-22.391c-0.001-2.877,1.464-6.638,1.866-10.573c0.442-4.332-1.499-10.398,1.866-11.195
			c-1.316-0.757-1.806-2.34-3.731-2.488c1.156-8.479-1.978-9.809-3.732-18.037c1.529,1.728,2.698,5.207,4.354,4.976
			c1.388-2.696,0.449-3.966,1.866-6.22c-7.846-10.813-7.205-29.325-8.708-44.159c0.632-0.404,0.643-1.43,1.866-1.244
			c0.379-1.487-0.781-4.513,0.622-4.976c-0.453-1.413-1.872-1.86-3.11-2.488c-0.765,0.271-1.277,0.796-1.244,1.866
			c0.482-2.046-0.604-4.223-2.488-6.842c1.958-1.104,2.474,4.556,4.976,4.976c2.96-4.531,0.658-7.764,0.622-13.061
			c-3.428,0.096-5.699,1.35-8.707,1.866c-0.651-1.585-2.902-3.628-1.866-4.976c2.637,0.329,7.366-0.477,8.085,0
			c1.601-0.995,0.967-3.869,4.354-4.354c-2.246-4.507-6.942-4.814-9.33-6.842c-4.13-3.507-5.285-8.779-11.195-12.439
			c0.772-2.51,3.058,3.416,5.598,0c-0.456,0.581-1.131,0.942-1.866,1.244c3.698,4.639,10.184,14.314,18.659,15.549
			c-0.831-2.694-2.553-4.495-6.22-4.354c-1.449-1.214,4.222-0.542,4.976,0c-2.327-1.819-4.58-3.713-6.219-6.22
			c3.073,0.067,8.759,9.849,6.219,1.866c2.117,1.823,2.772,5.105,4.976,6.841c2.094-0.562,0.073-1.391,1.244-2.488
			c0.687,0.562,0.431,1.391,0,2.488c1.341,1.144,3.063-0.572,4.354,0.622c2.431,2.518-4.847,7.236,0,8.085
			c-0.862,1.625-5.278-0.302-6.22,1.244c3.229,18.628-1.563,39.52,6.22,54.732c3.451-2.698-1.75-5.694,1.244-8.708
			c2.749-0.054,3.157,2.234,4.354,3.732c-3.535-0.901-0.944,5.456-1.866,9.329c2.439,0.573,0.451-3.28,1.866-3.731
			c1.402-1.461-0.515,1.635,0,3.109c6.995-3.164,13.207-7.11,18.659-11.817c2.538-3.268-0.347-10.19-0.622-11.195
			c-4.652-16.989-13.749-36.094-25.5-49.135c0.988-2.33,2.826-3.809,4.354-5.598c-3.309-10.582-8.385-19.396-13.062-28.61
			c-1.106-1.589-3.393-1.998-5.598-2.488c-1.759,0.314-2.377,1.77-3.109,3.11c-1.944-1.004,1.276-1.97,1.244-3.11
			c-4.796-4.533-11.255-7.404-15.549-12.439c-2.593-0.312-2.743,1.818-5.598,1.244c-0.639-2.09,1.934-0.968,3.11-1.244
			c-8.143-7.614-17.332-14.18-25.5-21.769c-3.22-0.269-6.422-3.293-9.951-1.244c2.457,7.096,8.228,12.146,11.817,18.659
			c3.63,6.588,5.81,13.894,10.573,19.903c-1.278,1.637-2.212-2.307-3.109-3.11c-1.591,1.104-1.396,3.995-2.488,5.598
			c4.431-16.436-13.271-28.417-18.659-42.916c-1.943-0.285-1.988,1.329-1.866,3.11c0.595-0.947-6.969-10.729-8.708-10.573
			c-4.093,0.368-3.934,10.009-10.573,9.33c0.045-3.239,0.998-4.611,0-7.464c-13.049-0.525-25.792,2.913-33.586-1.866
			c8.311,2.963,19.684,1.265,32.342,1.244c1.522-0.552,0.674-3.473,3.11-3.11c-1.254,1.708,0.722,4.342,0.622,6.841
			c3.296-2.094,4.974-5.807,6.22-9.951c2.885,1.883,4.542,4.995,8.085,6.22c-0.928-6.403-2.526-17.098-4.354-18.659
			c-0.636-0.277,0.757-3.763,1.244-4.976c-1.078-0.788-1.63-2.102-3.732-1.866c0.853-10.787-14.953-16.339-13.683-25.5
			c3.372,11.141,13.23,15.795,17.415,26.123c1.244,0,2.488,0,3.732,0c-4.724,6.666,0.404,23.99,4.976,27.366
			c1.603-0.15-0.854-1.07,0-2.488c1.121,3.089,5.33,4.044,8.708,3.109c10.537,6.468,17.634,12.59,26.744,20.525
			c7.546-1.119,10.203,2.651,16.171,3.11c0.025-0.924-3.694-0.9-0.622-1.244c-2.501-2.296-6.185-11.32-11.817-10.573
			c0.02-0.898,3.911-0.943,1.866-1.866c5.318,1.941,8.585,11.315,15.549,13.683c-0.566,1.702-2.179-1.104-3.11,0.622
			c1.15,0.923,2.955,1.191,4.976,1.244c-2.78-2.495,2.104-2.833,4.354-1.866c-4.937-7.71-11.116-14.177-18.037-19.903
			c9.591,4.713,13.346,15.264,21.769,21.147c-1.73-14.311-1.346-25.729,0.622-39.806c-1.913-1.197-2.785-3.435-5.598-3.732
			c1.799-1.868,1.074-6.291-1.866-6.841c0.205-1.454,0.748-2.57,1.244-3.732c-0.006-2.689-2.934-2.457-3.732-4.354
			c-2.006,0.633-10.814,0.313-6.22-0.622c2.201-0.448,6.164-0.011,8.085,1.244c1.521-2.944-2.063-4.01-3.11-6.219
			c-1.199-1.563,1.631,1.56,2.488,1.866c-1.257-6.496-1.257-10.729-5.598-13.683c-0.467-2.125,2.527-0.79,1.866-3.11
			c0.266-1.718-2.319-0.583-2.488-1.866c-1.965-0.307-0.231,3.086-2.488,2.488c-0.271-0.765-0.796-1.277-1.866-1.244
			c-0.031-4.831,5.25-0.524,6.22-4.354c1.997-0.545,1.29,1.613,2.488,1.866c1.524-2.583-0.844-6.603-0.622-9.951
			c-2.939-3.364-5.364-4.664-10.573-6.22c-10.293-3.074-17.703-14.294-29.232-14.305c0.192-0.844,1.557-0.516,2.488-0.622
			c-1.879-2.995-6.926-1.18-5.598-5.598c2.173,2.304,0.416,3.653,3.732,1.866c7.76,7.788,19.277,11.821,29.232,17.415
			c-0.035-2.671-3.153-7.619-6.22-9.33c4.023,1.025-1.591-3.417-1.866-5.598c-4.129-5.2-9.802-8.856-13.061-14.927
			c4.137,4.778,8.11,9.719,13.061,13.683c0.249,1.617,1.856,1.876,1.866,3.732c5.78-1.597,0.282-12.045,3.11-15.549
			c-2.102-11.629,1.396,3.894,0,9.951c0.923-0.876,1.337-1.985,1.244,0.622c8.668-6.292-4.578-18.567-1.866-26.744
			c1.903,5.979,3.22,15.849,6.22,18.659c0.726,4.793,2.118,13.396,6.22,16.793c1.647-1.686,4-5.931,4.976-6.22
			c-0.897,2.834-3.475,3.989-4.354,6.841c0.861,2.042,2.22,3.585,4.976,3.732c0.462,3.063-1.443,8.492,2.488,8.085
			c2.072-4.237,1.528-8.812,1.866-13.683c4.83,1.875,0.382,8.991,0,13.061c0.01,1.856,4.609-0.877,3.732,1.866
			c-1.516-1.333-3.69,0.446-4.976,1.244c-1.078,4.417,1.146,9.727-1.866,11.817c-0.306,6.111,1.839,9.771,4.354,13.061
			c1.433,6.997,2.066,20.805,9.33,25.5c1.124,4.095,0.771,6.692,3.109,8.708c-4.44-3.839-4.509,14.19-3.731,21.146
			c0.554-0.275,1.112-0.546,1.244-1.244c-2.128,6.393,3.421,17.702,0.622,26.744c1.823,2.831,4.396,1.956,6.22,3.732
			c3.325,3.237,2.031,7.394,3.732,11.817c1.298,3.377,4.276,4.074,6.841,6.842c6.349,6.852,9.115,16.88,14.305,23.634
			c1.377-1.94,2.928-3.706,4.354-5.598c-0.847-18.418,1.684-30.233-0.622-47.269c-6.195-3.549-9.286-10.202-11.195-18.037
			c-4.993-0.193-6.025-0.251-9.952,0.622c-0.041-2.943-0.317-6.122,1.866-6.842c-4.232-6.419-6.407-5.571-11.195,0
			c-1.15,0.434,3.501-3.342,4.354-4.976c-1.461-4.758-5.786-6.653-9.33-9.33c-0.366-1.479,3.715,1.772,3.11-1.244
			c6.622,6.577,15.347,7.326,17.415,18.037c3.584-3.495,11.033-7.841,11.817-13.683c0.167-1.246-1.33-11.05-4.354-11.195
			c4.991-3.533-3.829-8.59-3.731-11.195c0.447-0.552,4.288,0.68,4.354-1.866c1.479,0.183-0.691,1.683-1.244,1.866
			c5.429,7.331,7.509,14.584,8.085,26.123c3.271,2.327,6.54,4.655,9.33,7.463c1.812-11.543,0.413-24.969-6.22-33.586
			c-4.055-0.092-4.232-4.061-6.842-5.598c-1.28,0.171-0.586,2.317-1.866,2.488c-1.247,1.516,0.883-2.308,1.244-3.11
			c-4.138-7.493-10.392-16.116-13.683-22.391c2.965,1.714,7.995,6.349,8.085,11.817c1.995,1.805,7.039,5.201,8.086,9.952
			c1.835,0.516,2.518-1.083,4.354,1.244c0.929-11.404,8.429-18.029,12.439-27.988c0.107-5.965-0.842-17.201-1.866-21.769
			c1.55-2.596,3.937-4.355,6.22-6.219c0.34-0.375-4.656,4.384,0,6.219c1.019,1.525-2.068-2.087-3.11-2.488
			c-3.657,3.616,1.348,10.949,0.622,17.415c-0.132-3.298,6.051-10.046,4.976-13.061c-0.006-0.017-1.184-0.771-1.243-0.622
			c0.347-0.867,7.347-6.619,0.621-8.085c0.665-1.93-1.871-8.021-4.976-9.952c-3.378-0.045-8.007,1.924-6.841,4.354
			c-9.073,7.959-23.792,15.576-31.099,27.366c3.637-12.743,23.846-17.617,28.61-29.232c2.116-0.223,5.483-3.3,9.329-3.732
			c0.566-3.135-3.412-4.065-1.865-6.22c1.651-1.662,2.956,0.2,4.354,0.622C264.406,27.719,255.152,13.264,254.382,0z M296.675,25.5
			c-9.12-1.861-12.723,7.177-21.769,7.463c-2.207,3.011,0.976,3.992-1.244,6.22c17.378-1.863,33.033-10.383,44.781-19.903
			C308.177,18.021,300.518,22.375,296.675,25.5z M302.895,92.672c0.382,0.862,2.395,0.094,2.488,1.244
			c-1.758,0.514-1.611-0.876-3.11-0.622c-5.848,9.287-14.758,15.511-16.793,28.61c3.608,3.441,6.704,7.394,11.817,9.329
			c1.85-1.791-1.557-1.079-1.244-3.109c3.399-2.413,5.421-7.768,7.464-8.085c-1.929-0.974-3.069-2.735-4.976-3.732
			c1.589-0.48,2.859,2.434,3.731,0.622c-1.629-2.727,1.811-5.018,1.244-9.952c5.715-0.712,5.533-7.321,6.842-12.439
			c-1.094-0.358-3.654,0.751-3.731-0.622c1.451,0,2.902,0,4.354,0c1-6.505,8.186-13.319,6.842-18.037
			C313.011,81.642,306.889,86.092,302.895,92.672z M284.857,123.148c0.499,2.157-0.926,2.391-0.621,4.354
			c2.281,1.324,3.867,4.111,4.354,8.708c2.893,1.382,3.551,2.557,5.598,3.731c1.96-0.942,2.071-3.733,3.109-5.598
			C294.678,131.251,289.167,126.535,284.857,123.148z M310.358,136.209c0.021,2.466,2.4,2.575,3.731,3.731
			c-1.533-0.082-2.996-0.094-3.731,0.622c0.379,1.487-0.781,4.513,0.622,4.976c6.251-3.623,16.033-4.432,23.634-4.976
			c-3.435-5.687-9.482-8.761-11.816-15.549C318.59,128.685,315.123,133.096,310.358,136.209z M192.186,222.04
			c0.888,0.149,1.049,1.024,1.866,1.244c0.555-1.602,0.991-2.989-0.622-3.731C193.422,220.788,191.733,220.343,192.186,222.04z
			 M205.869,279.882c-1.697-0.453-1.252,1.236-2.488,1.244c2.194,1.893,0.541,7.088,0.622,8.085c0.348-1.292,0.97-1.317,1.866-0.622
			C206.065,282.981,204.436,283.023,205.869,279.882z M201.515,218.308c1.275,3.908,3.991,6.375,6.842,8.708
			c-1.756-3.428-1.397-8.97-3.732-11.817C203.832,216.479,203.633,218.353,201.515,218.308z M174.149,59.708
			c2.101,7.433,6.464,9.814,11.817,13.062c-0.378-2.317-1.317-4.073-2.488-5.598c-1.223-0.187-1.233,0.84-1.866,1.244
			C182.493,64.301,176.449,62.623,174.149,59.708z M173.527,56.599c4.198,2.331,6.625,8.7,12.439,7.463
			c1.281,3.28,0.758,8.364,3.731,9.951c0.14-3.25-0.01-6.209-0.622-8.708c-6.702-3.042-7.141-12.347-11.195-18.037
			C177.064,51.014,173.686,52.196,173.527,56.599z M210.845,136.209c2.307-0.807,2.229,3.925,3.731,1.866
			C214.122,137.03,212.234,134.264,210.845,136.209z M240.698,143.673c-3.936,5.19-3.646,13.433,1.244,17.415
			c0.405-2.291,3.698-1.692,5.598-2.488c2.095-2.052,2.394-5.9,3.732-8.708C248.405,147.352,245.683,142.11,240.698,143.673z
			 M264.333,41.671c-0.891-1.39-1.284-3.277-3.109-3.732C261.586,39.813,262.476,43.217,264.333,41.671z M268.065,51.001
			c-1.166-2.981-0.528-7.766-3.732-8.708C264.216,46.557,266.014,48.906,268.065,51.001z M273.041,110.709
			c-4.605-11.109-5.296-25.825-4.354-39.184c0.343-4.856,1.194-9.475-1.865-12.439c-6.188,10.47-6.28,22.448-11.195,32.964
			c-2.908,6.221-9.646,10.233-6.842,21.146c2.19,1.957,3.409,4.884,5.598,6.842c0.792-2.733,0.901-6.148,2.488-8.085
			c-1.741,7.914-0.312,15.363,0.621,20.524c0.737,4.073,0.432,10.079,0.622,13.061c0.418,6.547-3.77,10.084-4.976,18.037
			c-1.404,9.263,2.239,19.797,3.732,29.854c-1.33,6.062-0.966,18.501,1.243,24.878c2.315-10.332,7.422-17.872,9.952-27.988
			c-1.722-0.559-5.839,1.278-5.598-1.244c1.031,1.041,3.651,0.495,5.598,0.622c2.243-15.638,7.021-35.582,1.865-49.757
			c-0.069-2.203-2.056,1.322-1.865-0.622c0.387-1.687,2.598-1.548,2.487-3.732c-1.856-7.209,1.011-15.208,1.244-19.903
			c0.229-4.611-6.917-6.473-8.708-13.061C266.346,105.38,266.669,111.068,273.041,110.709z M284.236,106.977
			c0.409,2.286,1.208,4.182,1.243,6.842c4.056-3.827,8.761-10.309,9.952-14.927C291.301,101.188,287.489,103.804,284.236,106.977z
			 M330.883,109.465c-7.752,0.748-15.3,1.701-23.013,2.488c-0.002,13.763-9.004,21.936-2.487,33.585
			c0.405-14.187,11.704-15.849,16.793-24.878c0.311-1.216-1.356-3.969,0-2.488C325.224,117.894,330.794,114.773,330.883,109.465z
			 M301.029,144.295c-0.377-1.282,1.003-4.321-1.244-3.732C300.161,141.845,298.781,144.884,301.029,144.295z M314.712,238.211
			c-3.088-16.387-6.927-31.047-3.109-47.891c-1.482-12.408-12.755-15.026-13.062-28.61c-5.992-4.374-8.425-12.308-13.684-17.415
			c0.815,21.033-3.979,39.272-4.354,59.708c3.598-1.305,1.119-4.878,4.354-6.22c-0.697-2.224-3.701-5.395-2.487-7.463
			c1.306,5.306,3.314,7.211,5.598,10.573c1.207,7.75-3.474,8.501-9.329,9.33c-0.075,4.014,2.957,4.92,3.731,8.085
			c3.858-3.609,8.77-9.47,13.062-10.573c-1.666,5.013-9.362,5.462-11.195,12.439c4.666,5.016,13.263,10.197,21.146,4.976
			c-0.554,1.147-4.666,1.913-3.11,3.11c3.895-0.99,6.934,5.447,7.464,8.085c-0.735-0.089-1.41-1.107-1.866,0
			c2.364,1.575,1.406,6.473,4.354,7.464c0.41-1.87,2.39-2.171,1.865-4.976c-2.09,0.017-3.29-0.856-4.354-1.866
			C311.715,237.062,312.473,238.377,314.712,238.211z M306.627,233.857c-2.017-4.75-7.856-1.88-11.817-4.354
			c-0.653,3.348,3.636,1.754,4.354,3.732c-3.579,0.429-5.091-3.16-9.951-3.11c-0.179,9.18,4.249,18.907,4.354,29.854
			c6.622-4.366,13.694-8.282,17.415-15.549c-2.011-1.722-2.621-4.843-3.11-8.086c-1.854-0.219-3.787-0.359-4.354-1.866
			C305.47,235.17,305.16,234.771,306.627,233.857z M293.565,229.503c-1.968,0.102-2.079-1.653-4.354-1.244
			C289.017,229.955,292.826,230.799,293.565,229.503z M172.905,166.063c1.069-2.569-2.819-3.334-3.731-1.866
			C170.486,164.75,171.012,166.091,172.905,166.063z M175.393,167.929c1.295-1.238,0.02-2.656-1.244-3.11
			C173.162,165.749,173.239,168.365,175.393,167.929z M176.015,167.929c2.561,3.043,6.6,7.904,10.573,7.463
			C182.606,173.362,181.36,168.596,176.015,167.929z M192.186,178.502c0.448-2.87,3.131-3.503,5.598-4.354c0-0.829,0-1.659,0-2.488
			c-1.92-2.557-10.504-3.966-13.061-1.866c0.652-2.959-4.8-3.042-6.22-1.866C183.626,170.892,186.098,176.505,192.186,178.502z
			 M279.26,204.003c1.026-0.276,1.026-4.699,0-4.976C280.009,201.072,276.302,203.708,279.26,204.003z M231.369,230.747
			c-5.773-6.891-7.424-22.949-14.305-21.769c5.9,21.052,17.252,36.65,26.744,54.111c-2.066-8.545-12.696-17.386-5.598-27.366
			C235.972,234.184,233.202,232.934,231.369,230.747z M264.333,247.54c6.606,3.967,12.021,9.125,18.659,13.062
			c0.453-11.157-2.247-22.04-3.11-29.854c-3.036,0.342-4.213-1.177-6.22-1.866c1.571-3.102,0.457-5.833-1.243-8.708
			C269.78,229.354,265.743,237.133,264.333,247.54z M205.869,293.565c-0.276-1.176,0.846-3.749-1.244-3.11
			C203.633,291.39,204.643,293.075,205.869,293.565z M217.686,347.676c0.348-0.896,0.97-1.518,1.866-1.866
			c0.519-3.215-1.207-4.184-2.488-5.598c3.058-1.755,4.597,1.004,7.463,1.244c-0.062-2.55-0.123-5.098,0.622-6.841
			c-1.103-0.142-3.115,0.627-2.488-1.244c5.261-6.44,11.708-20.127,9.33-34.208c-9.893,4.205-18.464,9.732-27.988,14.305
			c-1.736,5.442,2.45,9.263,3.11,13.061c-0.266-2.222-1.562-3.414-3.11-4.354c1.909,2.653,1.301,7.821,4.976,8.708
			c0.481-1.589-2.434-2.859-0.622-3.731c0.162,1.911,1.349,2.797,1.866,4.354c-1.094-0.894-1.418-0.57-1.244,1.244
			c1.435,1.234,0.691-0.156,1.866-0.622c0.215,3.724,4.387,3.491,4.976,6.841C211.805,340.094,216.391,345.952,217.686,347.676z
			 M212.71,340.834c-2.917,2.541-4.352-0.762-8.708,0c1.323,10.287,4.568,18.652,9.33,25.5
			C208.242,353.967,221.168,348.701,212.71,340.834z M207.113,340.212c0.893-1.9-0.227-1.949,0.622-4.354
			c-3.169,1.096-0.855-3.291-3.11-3.109c-0.061,3.501-0.561,2.718-0.622,6.219c1.418,0.854,2.338-1.603,2.488,0
			C205.536,339.118,206.399,339.993,207.113,340.212z"/>
		<path fill-rule="evenodd" clip-rule="evenodd" fill="#FFFFFF" d="M254.382,0c0.771,13.264,10.024,27.719,6.22,36.074
			c-1.397-0.422-2.702-2.284-4.354-0.622c-1.547,2.155,2.432,3.084,1.865,6.22c-3.846,0.432-7.213,3.509-9.329,3.732
			c-4.765,11.615-24.974,16.489-28.61,29.232c7.307-11.791,22.025-19.407,31.099-27.366c-1.166-2.43,3.463-4.399,6.841-4.354
			c3.104,1.93,5.641,8.021,4.976,9.952c6.726,1.467-0.274,7.218-0.621,8.085c0.06-0.149,1.237,0.605,1.243,0.622
			c1.075,3.015-5.107,9.763-4.976,13.061c0.726-6.466-4.279-13.799-0.622-17.415c1.042,0.401,4.129,4.013,3.11,2.488
			c-4.656-1.835,0.34-6.594,0-6.219c-2.283,1.864-4.67,3.624-6.22,6.219c1.024,4.567,1.974,15.804,1.866,21.769
			c-4.011,9.959-11.511,16.584-12.439,27.988c-1.836-2.327-2.519-0.728-4.354-1.244c-1.047-4.75-6.091-8.146-8.086-9.952
			c-0.091-5.468-5.121-10.103-8.085-11.817c3.291,6.274,9.545,14.897,13.683,22.391c-0.361,0.802-2.491,4.625-1.244,3.11
			c1.28-0.171,0.586-2.317,1.866-2.488c2.609,1.537,2.787,5.506,6.842,5.598c6.633,8.617,8.031,22.042,6.22,33.586
			c-2.79-2.808-6.059-5.137-9.33-7.463c-0.576-11.538-2.656-18.792-8.085-26.123c0.553-0.183,2.723-1.683,1.244-1.866
			c-0.066,2.546-3.906,1.314-4.354,1.866c-0.097,2.605,8.722,7.662,3.731,11.195c3.024,0.146,4.521,9.949,4.354,11.195
			c-0.784,5.842-8.233,10.188-11.817,13.683c-2.068-10.711-10.793-11.46-17.415-18.037c0.605,3.016-3.476-0.236-3.11,1.244
			c3.544,2.676,7.869,4.571,9.33,9.33c-0.853,1.634-5.503,5.409-4.354,4.976c4.788-5.571,6.962-6.419,11.195,0
			c-2.183,0.72-1.906,3.898-1.866,6.842c3.927-0.873,4.958-0.815,9.952-0.622c1.909,7.835,5,14.488,11.195,18.037
			c2.306,17.035-0.225,28.851,0.622,47.269c-1.426,1.892-2.977,3.658-4.354,5.598c-5.19-6.754-7.956-16.782-14.305-23.634
			c-2.565-2.768-5.543-3.465-6.841-6.842c-1.701-4.423-0.407-8.58-3.732-11.817c-1.824-1.776-4.397-0.901-6.22-3.732
			c2.799-9.042-2.75-20.351-0.622-26.744c-0.131,0.698-0.69,0.968-1.244,1.244c-0.777-6.957-0.708-24.985,3.731-21.146
			c-2.338-2.016-1.986-4.613-3.109-8.708c-7.264-4.696-7.897-18.503-9.33-25.5c-2.515-3.29-4.66-6.95-4.354-13.061
			c3.013-2.091,0.788-7.4,1.866-11.817c1.286-0.797,3.459-2.577,4.976-1.244c0.877-2.743-3.722-0.01-3.732-1.866
			c0.382-4.07,4.83-11.186,0-13.061c-0.337,4.872,0.206,9.446-1.866,13.683c-3.931,0.406-2.026-5.023-2.488-8.085
			c-2.756-0.147-4.115-1.69-4.976-3.732c0.879-2.853,3.457-4.007,4.354-6.841c-0.975,0.289-3.329,4.534-4.976,6.22
			c-4.102-3.397-5.494-12-6.22-16.793c-3-2.81-4.317-12.68-6.22-18.659c-2.712,8.177,10.534,20.453,1.866,26.744
			c0.093-2.607-0.321-1.498-1.244-0.622c1.396-6.058-2.102-21.581,0-9.951c-2.828,3.504,2.67,13.952-3.11,15.549
			c-0.01-1.856-1.617-2.115-1.866-3.732c-4.951-3.964-8.924-8.905-13.061-13.683c3.259,6.071,8.932,9.728,13.061,14.927
			c0.275,2.181,5.889,6.623,1.866,5.598c3.066,1.71,6.185,6.658,6.22,9.33c-9.955-5.594-21.472-9.627-29.232-17.415
			c-3.316,1.787-1.559,0.438-3.732-1.866c-1.328,4.417,3.718,2.603,5.598,5.598c-0.931,0.106-2.295-0.222-2.488,0.622
			c11.529,0.011,18.939,11.231,29.232,14.305c5.209,1.556,7.634,2.855,10.573,6.22c-0.222,3.349,2.146,7.368,0.622,9.951
			c-1.198-0.253-0.491-2.411-2.488-1.866c-0.97,3.83-6.25-0.477-6.22,4.354c1.07-0.033,1.595,0.479,1.866,1.244
			c2.257,0.599,0.522-2.795,2.488-2.488c0.169,1.282,2.754,0.148,2.488,1.866c0.661,2.32-2.333,0.984-1.866,3.11
			c4.341,2.954,4.34,7.187,5.598,13.683c-0.857-0.306-3.688-3.429-2.488-1.866c1.047,2.209,4.63,3.275,3.11,6.219
			c-1.921-1.255-5.884-1.691-8.085-1.244c-4.594,0.935,4.214,1.255,6.22,0.622c0.798,1.897,3.726,1.664,3.732,4.354
			c-0.497,1.162-1.04,2.278-1.244,3.732c2.94,0.55,3.665,4.974,1.866,6.841c2.813,0.297,3.685,2.535,5.598,3.732
			c-1.968,14.076-2.352,25.495-0.622,39.806c-8.423-5.883-12.177-16.434-21.769-21.147c6.921,5.726,13.1,12.193,18.037,19.903
			c-2.25-0.968-7.134-0.629-4.354,1.866c-2.021-0.052-3.826-0.32-4.976-1.244c0.931-1.726,2.544,1.08,3.11-0.622
			c-6.964-2.368-10.23-11.742-15.549-13.683c2.045,0.922-1.846,0.968-1.866,1.866c5.632-0.747,9.315,8.277,11.817,10.573
			c-3.072,0.344,0.647,0.32,0.622,1.244c-5.968-0.459-8.625-4.229-16.171-3.11c-9.11-7.935-16.207-14.057-26.744-20.525
			c-3.377,0.935-7.587-0.021-8.708-3.109c-0.854,1.417,1.603,2.338,0,2.488c-4.571-3.376-9.7-20.701-4.976-27.366
			c-1.244,0-2.488,0-3.732,0c-4.185-10.328-14.043-14.982-17.415-26.123c-1.27,9.161,14.536,14.714,13.683,25.5
			c2.102-0.236,2.654,1.078,3.732,1.866c-0.487,1.213-1.88,4.699-1.244,4.976c1.828,1.562,3.426,12.256,4.354,18.659
			c-3.543-1.225-5.201-4.336-8.085-6.22c-1.246,4.144-2.924,7.857-6.22,9.951c0.1-2.499-1.876-5.133-0.622-6.841
			c-2.436-0.363-1.588,2.558-3.11,3.11c-12.658,0.021-24.031,1.719-32.342-1.244c7.793,4.778,20.537,1.341,33.586,1.866
			c0.998,2.853,0.045,4.225,0,7.464c6.639,0.68,6.48-8.961,10.573-9.33c1.738-0.156,9.303,9.626,8.708,10.573
			c-0.123-1.781-0.077-3.395,1.866-3.11c5.388,14.499,23.089,26.479,18.659,42.916c1.093-1.603,0.897-4.494,2.488-5.598
			c0.897,0.803,1.831,4.747,3.109,3.11c-4.763-6.009-6.943-13.315-10.573-19.903c-3.589-6.513-9.36-11.563-11.817-18.659
			c3.529-2.05,6.731,0.975,9.951,1.244c8.168,7.588,17.358,14.155,25.5,21.769c-1.176,0.276-3.749-0.846-3.11,1.244
			c2.854,0.574,3.005-1.556,5.598-1.244c4.294,5.036,10.752,7.906,15.549,12.439c0.032,1.14-3.188,2.106-1.244,3.11
			c0.732-1.34,1.351-2.796,3.109-3.11c2.205,0.49,4.492,0.899,5.598,2.488c4.676,9.214,9.753,18.028,13.062,28.61
			c-1.528,1.789-3.366,3.268-4.354,5.598c11.752,13.041,20.849,32.146,25.5,49.135c0.275,1.005,3.16,7.927,0.622,11.195
			c-5.452,4.707-11.664,8.653-18.659,11.817c-0.515-1.475,1.402-4.57,0-3.109c-1.415,0.451,0.573,4.304-1.866,3.731
			c0.922-3.873-1.668-10.23,1.866-9.329c-1.197-1.498-1.605-3.786-4.354-3.732c-2.994,3.013,2.208,6.009-1.244,8.708
			c-7.783-15.213-2.991-36.104-6.22-54.732c0.941-1.546,5.357,0.381,6.22-1.244c-4.847-0.849,2.431-5.568,0-8.085
			c-1.291-1.194-3.013,0.522-4.354-0.622c0.431-1.097,0.687-1.926,0-2.488c-1.171,1.097,0.851,1.926-1.244,2.488
			c-2.204-1.736-2.859-5.019-4.976-6.841c2.54,7.982-3.146-1.799-6.219-1.866c1.64,2.507,3.893,4.4,6.219,6.22
			c-0.753-0.542-6.425-1.214-4.976,0c3.667-0.142,5.389,1.66,6.22,4.354c-8.475-1.234-14.96-10.91-18.659-15.549
			c0.735-0.302,1.41-0.663,1.866-1.244c-2.54,3.416-4.825-2.51-5.598,0c5.911,3.66,7.065,8.932,11.195,12.439
			c2.387,2.027,7.083,2.335,9.33,6.842c-3.387,0.484-2.753,3.359-4.354,4.354c-0.72-0.477-5.449,0.329-8.085,0
			c-1.036,1.348,1.215,3.391,1.866,4.976c3.008-0.516,5.279-1.77,8.707-1.866c0.037,5.297,2.338,8.53-0.622,13.061
			c-2.502-0.419-3.018-6.079-4.976-4.976c1.884,2.619,2.97,4.795,2.488,6.842c-0.033-1.07,0.479-1.595,1.244-1.866
			c1.238,0.628,2.657,1.075,3.11,2.488c-1.403,0.463-0.243,3.489-0.622,4.976c-1.223-0.187-1.233,0.84-1.866,1.244
			c1.502,14.834,0.862,33.347,8.708,44.159c-1.417,2.253-0.479,3.524-1.866,6.22c-1.655,0.231-2.825-3.248-4.354-4.976
			c1.754,8.228,4.888,9.558,3.732,18.037c1.925,0.147,2.416,1.731,3.731,2.488c-3.365,0.797-1.424,6.863-1.866,11.195
			c-0.401,3.936-1.867,7.696-1.866,10.573c2.895,5.836,2.13,14.417,4.976,22.391c1.912,5.355,5.518,9.194,5.598,13.683
			c0.118,6.638-5.485,14.573,2.488,16.171c5.056,1.014,14.893-6.388,17.415-13.061c0.68-1.801-0.072-4.094,0.622-5.598
			c1.479-3.208,5.354-5.742,5.598-9.952c0.7,22.267-2.456,40.547-3.731,58.465c-2.403-0.122-4.583-0.022-6.22,0.622
			c0.312,2.593-1.818,2.743-1.244,5.598c-1.202-1.774-7.199-2.147-6.841,1.243c0.169,1.282,2.754,0.148,2.488,1.866
			c-0.454,4.954-7.722,5.65-4.976,11.817c-2.776,0.126-2.867,2.938-4.354,4.354c2.096,6.092,2.501,15.375,1.244,20.524
			c1.886,7.937,5.701,15.909,3.11,24.879c-35.037,0-70.074,0-105.111,0c-3.261-3.765-4.261-8.605-6.842-14.927
			c-0.901-2.208-2.838-4.69-3.11-6.22c-1.49-8.406,2.575-17.151,5.598-23.635c-0.559-10.303,2.569-16.919,3.732-25.5
			c16.938-7.318,20.049-28.464,24.256-48.514c0.366-2.231-0.723-3.009-1.244-4.354c1.228-9.057,3.465-18.389,6.219-29.232
			c2.072-8.156,2.559-18.491,6.22-23.634c2.626-3.691,7.588-5.032,9.33-10.573c2.99-9.518,1.896-21.252,8.085-29.854
			c-2.002-5.322-6.408-3.148-11.817-1.866c2.444,0.674-0.056-8.145,0.622-9.33c0.455-0.795,2.976-0.955,3.11,1.244
			c-0.079-1.287-2.669-2.355-3.11-3.732c-1.013-3.163,1.096-8.912,0.622-13.683c-0.576-5.786-2.665-10.172-4.354-14.927
			c1.045-7.739,0.995-12.264,1.866-18.659c3.998,0.768-0.542,0.084,0-2.488c-4.278,0.167-7.844-10.124-11.195-14.927
			c0.563,6.075,7.115,11.541,9.329,18.037c0.633-0.404,0.643-1.43,1.866-1.244c-6.658,12.564,3.436,29.141,0,42.915
			c1.035-1.843-1.774-0.986-1.244-3.11c-1.15,0.094-0.382,2.106-1.244,2.488c0.478,2.929,1.721,1.855,3.732,2.488
			c-0.896,2.546-3.324-2.187-4.354,1.866c-2.082-0.562-0.543-1.392,0-2.488c-1.672-0.429-1.202,1.286-1.866,1.866
			c-2.247-1.308,1.239-2.007,1.244-3.11c-2.579,0.532-5.879,2.956-8.708,1.244c-1.604,0.149,0.854,1.07,0,2.488
			c-2.671-2.8-9.451-4.537-13.061-4.354c7.133,3.647,16.032,5.529,23.012,9.33c0.556,6.36-1.939,9.67-6.219,11.195
			c3.368,3.126,3.978,5.996,9.951,4.354c-2.441,6.979-2.537,15.042-6.22,22.391c-2.771-0.512-2.804-2.804-6.219-1.244
			c-0.505,2.151,1.161,2.625,0,3.731c-7.519,11.577-8.222,27.771-13.683,43.538c-2.3-3.196-8.31-8.78-13.683-8.086
			c-5.77,0.746-6.273,8.908-11.817,9.951c-0.499-2.157,0.926-2.39,0.622-4.354c-1.445-1.651-1.665,1.651-3.11,0
			c0.261-19.75-16.904-22.072-26.745-31.72c-0.479-11.406,2.456-16.955,7.464-23.635c5.489,1.352,9.397,4.287,12.439,8.086
			c-0.946-3.693-7.07-7.385-12.439-8.708c-0.54-3.954,2.846-5.549,1.866-8.085c-1.389,2.004-3.89,6.966-2.488,9.329
			c-1.98,0.227-4.459-0.535-6.22,2.488c1.755-0.625,1.559-0.911,2.488-1.244c2.814,3-4.056,6.002-3.11,9.329
			c-2.088-0.568-0.308-1.156-0.622-3.109c-1.014,1.059-1.026,3.12-2.488,3.731c-4.474-0.502-6.842-3.11-11.817-3.11
			c-1.823-9.165-6.765-15.211-6.842-26.122c3.949-7.454,11.461-11.344,15.549-18.659c0.735-7.163-4.107-8.747-3.732-15.549
			c-0.399,9.561-0.153,18.811-8.085,22.391c-5.37-5.243-9.186,0.009-15.549,0c-0.931,2.805-0.713,5.379,1.866,6.842
			c0.715,1.824-2.983,2.31-1.244,3.109c-3.012,0.306-5.81-4.962-7.463-8.085c-0.83,3.124,4.596,5.346,4.976,9.33
			c-2.556,0.346-4.231,1.573-5.598,3.11c0.324,0.92,0.92,1.567,1.244,2.488c2.815-0.087,3.038-2.768,6.22-2.488
			c1.7,2.044,4.532,6.231,2.488,9.951c3.293,5.459,3.851,12.108,3.109,17.415c-7.199-2.459-13.059,5.585-16.792,10.573
			c5.135,2.914,8.928,7.181,14.927,10.573c-6.005,4.361-13.105,7.627-18.037,13.062c-0.19,1.943,1.797-1.581,1.866,0.622
			c2.685-4.891,11.006-9.229,17.415-12.439c12.222,17.311,31.907,33.479,26.744,64.062c-1.482,1.616-2.742,1.604-4.354,1.866
			c1.067,2.579,2.216,2.666,1.244,6.22c-1.506,1.432-3.021-0.634-4.976-0.622c0.705,2.819,4.682,2.367,7.463,3.109
			c1.099,4.499,6.512,4.685,7.464,9.33c-9.565,9.716-25.49,13.072-34.208,23.634c-0.052-0.984,0.299-2.372-0.622-2.487
			c-2.852,0.051-1.623,4.182-1.866,6.842c-3.323,4.887-5.492,13.117-12.439,12.438c-0.964,6.354,3.812,6.969,6.22,9.952
			c-4.059,8.227,4.516,14.981,0.622,22.391c0.581,3.15,1.743,5.72,2.488,8.707c-10.159,0-20.317,0-30.476,0C0,331.712,0,165.856,0,0
			C84.794,0,169.588,0,254.382,0z M223.906,85.831c-0.425-0.48-3.705-1.619-3.11,0.622C221.054,87.834,224.206,87.05,223.906,85.831
			z M190.942,307.871c0.345,0.002,0.706-0.504,0-0.622c-0.167,1.94-4.262-1.829-2.488,0c1.857,0.859,4.035,4.644,4.976,4.354
			C193.042,309.916,190.831,310.054,190.942,307.871z M103.867,254.382c2.582,4.181,11.903,7.824,16.171,6.22
			C113.126,257.579,110.29,258.018,103.867,254.382z M183.479,28.61C185.014,23.496,182.324,21.503,183.479,28.61L183.479,28.61z
			 M145.539,53.489c-1.89,0.39-5.357-0.796-6.219,0.622C141.209,53.721,144.676,54.907,145.539,53.489z M174.149,143.673
			c-1.004-3.042-6.873-7.494-6.842-7.463C169.407,138.878,171.966,141.088,174.149,143.673z M180.991,199.027
			c-3.724-1.545-2.431-9.665-2.488-9.951c-1.198,0.253-0.491,2.411-2.488,1.866c-0.848-0.447-3.96-3.679-3.11-1.866
			C176.553,191.032,177.342,199.143,180.991,199.027z M146.161,200.893c0.721-1.218,1.168-8.395,0-7.463
			C146.932,196.305,144.891,199.582,146.161,200.893z M188.454,215.198c1.544-0.809,2.581,1.825,3.11,0
			c-1.818-1.004-0.245-1.969-1.244-3.11c-0.931,0.106-2.295-0.222-2.488,0.622C190.81,213.099,188.719,213.547,188.454,215.198z
			 M195.917,220.174c0.931-0.106,2.295,0.222,2.488-0.622c-2.164-0.644,3.968-1.285,1.244-2.488
			C199.263,218.958,196.304,218.28,195.917,220.174z M138.697,225.771c2.169-0.138,4.29-3.552,3.731-4.354
			C141.569,223.253,139.557,223.936,138.697,225.771z M135.587,226.394c-1.544-0.093-2.581,0.321-3.11,1.244
			c2.32,1.058,0.984-0.368,3.11-0.622c2.344,2.632,3.777,6.174,5.598,9.329c0.897-1.125-1.952-4.79-1.866-4.976
			c1.128-2.448,2.078,1.685-0.622-0.622c-2.082-1.778-1.449-7.064-4.976-8.707C133.564,224.271,135.589,224.318,135.587,226.394z
			 M126.88,230.125c2.506,0.325,7.875,0.768,9.33,0C131.991,229.631,117.955,228.966,126.88,230.125z M171.661,233.235
			c0.03,2.573,3.732-0.423,6.22,0.622C178.034,231.467,172.538,232.669,171.661,233.235z M100.758,251.894
			c-1.665-1.462-4.923-4.591-6.842-3.732C96.494,248.711,99.304,252.289,100.758,251.894z M179.747,302.273
			c0.809-1.368,3.904,3.496,5.598,1.244C183.269,303.366,178.869,299.704,179.747,302.273z M184.1,305.383
			c-2.28-0.027-4.509-3.333-6.841-1.244C180.636,303.069,182.308,306.932,184.1,305.383z M190.942,305.383
			c-0.993-0.507-3.795-2.358-4.976-0.622C188.125,304.412,189.417,306.23,190.942,305.383z"/>
		<path fill-rule="evenodd" clip-rule="evenodd" d="M193.43,311.602c-0.94,0.291-3.119-3.495-4.976-4.354
			c-1.774-1.829,2.321,1.94,2.488,0c0.706,0.118,0.345,0.624,0,0.622C190.831,310.054,193.042,309.916,193.43,311.602z"/>
		<path fill-rule="evenodd" clip-rule="evenodd" d="M30.476,497.568c-0.745-2.987-1.907-5.557-2.488-8.707
			c3.894-7.409-4.681-14.164-0.622-22.391c-2.408-2.983-7.184-3.598-6.22-9.952c6.947,0.679,9.117-7.552,12.439-12.438
			c0.243-2.66-0.986-6.791,1.866-6.842c0.921,0.115,0.57,1.503,0.622,2.487c8.718-10.562,24.643-13.918,34.208-23.634
			c-0.952-4.646-6.365-4.831-7.464-9.33c-2.781-0.742-6.758-0.29-7.463-3.109c1.954-0.012,3.47,2.054,4.976,0.622
			c0.973-3.554-0.177-3.641-1.244-6.22c1.612-0.263,2.871-0.25,4.354-1.866c5.163-30.582-14.522-46.751-26.744-64.062
			c-6.409,3.21-14.73,7.548-17.415,12.439c-0.069-2.203-2.056,1.322-1.866-0.622c4.932-5.435,12.031-8.701,18.037-13.062
			c-5.999-3.393-9.792-7.659-14.927-10.573c3.733-4.988,9.593-13.033,16.792-10.573c0.742-5.307,0.184-11.956-3.109-17.415
			c2.044-3.72-0.788-7.907-2.488-9.951c-3.182-0.28-3.405,2.4-6.22,2.488c-0.324-0.92-0.92-1.567-1.244-2.488
			c1.366-1.537,3.042-2.764,5.598-3.11c-0.38-3.984-5.806-6.206-4.976-9.33c1.653,3.124,4.452,8.391,7.463,8.085
			c-1.739-0.799,1.959-1.286,1.244-3.109c-2.579-1.462-2.796-4.037-1.866-6.842c6.363,0.009,10.179-5.243,15.549,0
			c7.933-3.58,7.687-12.83,8.085-22.391c-0.375,6.802,4.467,8.387,3.732,15.549c-4.088,7.314-11.6,11.205-15.549,18.659
			c0.077,10.911,5.019,16.958,6.842,26.122c4.976,0,7.343,2.608,11.817,3.11c1.461-0.611,1.474-2.672,2.488-3.731
			c0.313,1.953-1.466,2.541,0.622,3.109c-0.946-3.327,5.924-6.329,3.11-9.329c-0.929,0.333-0.732,0.619-2.488,1.244
			c1.76-3.023,4.24-2.261,6.22-2.488c-1.402-2.363,1.099-7.325,2.488-9.329c0.98,2.537-2.406,4.131-1.866,8.085
			c5.369,1.322,11.493,5.015,12.439,8.708c-3.042-3.799-6.95-6.734-12.439-8.086c-5.008,6.68-7.943,12.229-7.464,23.635
			c9.841,9.647,27.006,11.97,26.745,31.72c1.445,1.651,1.665-1.651,3.11,0c0.304,1.963-1.121,2.197-0.622,4.354
			c5.544-1.043,6.047-9.205,11.817-9.951c5.374-0.694,11.383,4.89,13.683,8.086c5.461-15.767,6.164-31.96,13.683-43.538
			c1.161-1.106-0.505-1.581,0-3.731c3.416-1.56,3.448,0.732,6.219,1.244c3.683-7.349,3.778-15.411,6.22-22.391
			c-5.974,1.643-6.583-1.228-9.951-4.354c4.28-1.525,6.775-4.835,6.219-11.195c-6.98-3.8-15.879-5.682-23.012-9.33
			c3.61-0.183,10.39,1.554,13.061,4.354c0.854-1.418-1.604-2.338,0-2.488c2.829,1.712,6.128-0.712,8.708-1.244
			c-0.005,1.103-3.491,1.802-1.244,3.11c0.664-0.58,0.194-2.294,1.866-1.866c-0.543,1.096-2.082,1.926,0,2.488
			c1.029-4.053,3.458,0.68,4.354-1.866c-2.011-0.632-3.254,0.441-3.732-2.488c0.862-0.382,0.094-2.394,1.244-2.488
			c-0.53,2.124,2.279,1.267,1.244,3.11c3.436-13.774-6.658-30.351,0-42.915c-1.223-0.187-1.233,0.84-1.866,1.244
			c-2.214-6.496-8.767-11.961-9.329-18.037c3.352,4.803,6.917,15.093,11.195,14.927c-0.542,2.572,3.998,3.256,0,2.488
			c-0.871,6.396-0.821,10.92-1.866,18.659c1.689,4.755,3.778,9.141,4.354,14.927c0.474,4.771-1.635,10.521-0.622,13.683
			c0.441,1.377,3.031,2.445,3.11,3.732c-0.134-2.199-2.655-2.039-3.11-1.244c-0.678,1.185,1.822,10.004-0.622,9.33
			c5.41-1.283,9.815-3.456,11.817,1.866c-6.189,8.603-5.095,20.336-8.085,29.854c-1.741,5.542-6.703,6.882-9.33,10.573
			c-3.661,5.144-4.148,15.479-6.22,23.634c-2.754,10.843-4.992,20.175-6.219,29.232c0.521,1.345,1.61,2.122,1.244,4.354
			c-4.208,20.05-7.318,41.195-24.256,48.514c-1.163,8.581-4.291,15.197-3.732,25.5c-3.022,6.483-7.088,15.229-5.598,23.635
			c0.271,1.529,2.208,4.012,3.11,6.22c2.581,6.321,3.581,11.162,6.842,14.927C80.647,497.568,55.562,497.568,30.476,497.568z
			 M47.891,272.418c3.467-3.582,6.806-7.292,9.951-11.195c-1.138-1.556,0.048-2.393-0.622-4.976
			c-2.623,0.072-2.061,3.329-2.488,5.598c-1.63,3.138-5.458,4.078-6.841,7.464c1.07-0.034,1.594,0.479,1.866,1.244
			C48.544,270.259,46.576,272.227,47.891,272.418z M143.051,271.175c-1.871-1.905,0.789-1.361,0.622-1.866
			c-0.879-2.663-6.94-2.962-4.976-4.976c-1.247,1.034-4.613-0.052-5.598,1.244C136.702,266.422,143.417,270.475,143.051,271.175z
			 M49.757,320.932c4.712-2.337,10.178-3.919,11.195-9.951c-3.493-1.068-6.17-2.953-10.573-3.11
			C49.456,312.278,46.222,317.162,49.757,320.932z M51.623,322.175c9.537,8.708,14.553,21.936,23.013,31.72
			c1.212-3.615-0.438-6.19,0-9.951c0.211-1.814,2.692-5.612,2.488-6.842c-0.834-5.008-10.805-6.826-13.061-10.573
			c-0.232,3.024-1.392,6.514-1.244,8.085c-2.491-1.815,0.763-5.471,0.622-8.708c-0.973-1.335-3.657-4.185-1.866-6.22
			c0.7,8.214,8.831,8.999,13.061,13.683c-0.043-1.637,1.45-2.095,0.622-3.731c-1.223-0.187-1.233,0.84-1.866,1.244
			c-0.595-1.158,1.863-2.079,0-2.488c-0.131,0.698-0.69,0.968-1.244,1.244c0.236-2.498-1.078-2.842-1.866-1.244
			c-0.906-3.792-1.715-1.625-3.732-4.976c-0.183,0.553-1.683,2.723-1.866,1.244c0.781-0.255,1.271-0.802,1.244-1.866
			c-2.896-1.261-3.949-6.578-3.11-9.951C60.535,317.404,54.388,318.1,51.623,322.175z M77.123,335.858
			c-0.574-1.688-0.988-2.931,0.622-3.731c-0.888-0.149-1.049-1.024-1.866-1.244C75.714,332.451,74.713,335.144,77.123,335.858z
			 M94.538,366.335c-3.03,0.542-4.125-0.851-6.22-1.244c2.783,12.973,7.085,24.428,11.817,35.452
			c2.878,0.19,2.476-2.681,4.354-4.354c1.421-1.266,5.039-1.987,6.22-3.731c2.021-2.984,0.574-6.144,1.244-9.951
			c0.21-1.2,1.575-2.555,1.866-3.732c1.908-7.727,3.119-16.636,5.598-23.012c-3.989-0.811-6.242,0.468-8.708-1.866
			c-1.729,1.479-3.021,2.382-4.976,0.622c0.162,1.82-1.406,1.911-1.244,3.731c2.09-0.017,3.29,0.856,4.354,1.866
			c-2.474,0.192-3.125-1.437-5.598-1.244C100.804,361.924,94.516,365.583,94.538,366.335z"/>
		<path fill-rule="evenodd" clip-rule="evenodd" d="M120.039,260.602c-4.268,1.604-13.589-2.039-16.171-6.22
			C110.29,258.018,113.126,257.579,120.039,260.602z"/>
		<path fill-rule="evenodd" clip-rule="evenodd" fill="#FFFFFF" d="M324.041,497.568c-8.432-25.929-13.844-50.815-14.927-78.367
			c-1.301-0.772-2.338-1.809-3.109-3.109c-2.242-15.975-11.727-37.853-4.976-52.867c-1.989-3.118-1.021-9.464,1.865-12.439
			c-2.419-5.286-2.438-11.353-4.976-19.903c1.749,0.09,1.794-1.523,1.866-3.11c-1.557-0.793-1.947,0.316-2.488-0.622
			c-2.452-6.67-2.577-15.667-2.487-24.878c13.057-16.797,32.994-26.714,42.915-46.647c3.835-11.521,6.701-27.171,0.622-37.318
			c-1.805-0.476-3.577-0.984-4.354-2.488c2.878-4.093,1.447-10.804-1.244-14.305c-1.091-0.171-3.104,1.751-3.731,0
			c2.611-21.478-11.688-26.045-16.172-40.427c-3.502-3.131-7.839-5.43-8.085-11.817c1.105,0.553,1.581,1.736,3.731,1.244
			c3.651-8.581,16.981-7.483,27.366-9.33c2.071,1.879,3.276,7.904,4.354,8.708c0.527-4.197-2.937-6.241-3.109-8.708
			c10.519,0.044,23.743,3.913,36.073,3.11c-14.177-0.419-26.381-4.774-37.317-3.732c-4.418-6.252-12.023-11.602-13.683-18.659
			c7.275-2.001,10.896-17.765,23.013-13.061c-1.07,0.033-1.595-0.479-1.866-1.244c4.534-1.185,7.021,0.087,11.195-0.622
			c3.473-0.59,5.207-1.169,1.866-1.244c-4.053-0.09-17.021,1.828-23.635,2.488c0.198-5.399,0.985-10.209,1.865-14.927
			c0-1.037,0.001-2.073,0-3.11c-1.349-0.104-0.281,2.206-0.621,3.11c-1.008,4.383-1.458,9.323-1.866,14.305
			c-6.07,2.226-16.472,3.427-23.635,2.488c1.677-7.445,5.997-12.247,12.439-14.927c-0.622,0-1.244,0-1.866,0
			c3.127-5.588,8.425-6.488,12.439-11.195c0.91-1.067,1.015-5.348,4.354-4.976c0.098,0.732-0.106,1.766,0.622,1.866
			c-0.195-5.967,10.215-12.218,14.306-9.952c-0.911-0.541-1.972-0.931-1.866-2.488c1.451-0.208,2.68-0.637,3.109-1.866
			c-16.396,7.446-27.066,20.617-39.805,31.72c2.973-10.382,8.605-22.135,14.305-31.72c-0.482-0.139-1.227-0.017-1.244-0.622
			c4.943-7.911,6.26-19.448,11.817-26.744c1.09-0.172,3.104,1.751,3.731,0c-4.125-1.581-3.583-2.118-7.463-3.11
			c0,1.866,0,3.732,0,5.598c-4.889,10.038-8.71,21.144-13.062,31.72c-11.578,6.468-16.075,23.303-29.854,25.5
			c-1.438,2.916-4.017,4.69-6.841,6.22c-1.845-5.996-1.998-9.05-1.866-14.927c5.05-5.316,10.15-10.582,13.684-17.415
			c0.242-0.676,0.746-1.493,0-0.622c-4.454,5.705-7.212,13.106-14.306,16.171c-0.379,1.487,0.781,4.513-0.622,4.976
			c-2.923-6.07-4.595-18.716,0-24.256c-1.679-5.79-1.719-13.515,1.244-18.659c-0.248-4.52-5.72-3.817-6.842-7.464
			c2.512-4.391,8.724-1.679,13.684-1.866c11.18-0.421,22.326-4.54,31.72-6.22c1.498-0.202,7.109,0.531,5.598-0.622
			c-15.343,0.207-27.458,6.955-42.915,4.976c7.497-2.487,13.371-5.467,21.146-9.33c6.105-3.033,12.271-8.604,16.793-9.329
			c10.508-1.686,18.535,10.323,24.257,18.659c0.687-5.439-8.679-7.859-7.464-13.683c-5.975-1.489-9.74-5.187-16.171-6.22
			c9.201-4.897,16.516-11.68,23.013-19.281c9.744,0,19.488,0,29.231,0c0,165.856,0,331.712,0,497.568
			C357.213,497.568,340.627,497.568,324.041,497.568z M373.176,113.819c-3.842-3.674-12.351-1.875-19.28-1.866
			C360.744,112.337,369.047,112.528,373.176,113.819z"/>
		<path fill-rule="evenodd" clip-rule="evenodd" fill="#FFFFFF" d="M205.869,288.59c-0.896-0.696-1.518-0.671-1.866,0.622
			c-0.081-0.998,1.572-6.193-0.622-8.085c1.236-0.008,0.791-1.697,2.488-1.244C204.436,283.023,206.065,282.981,205.869,288.59z"/>
		<path fill-rule="evenodd" clip-rule="evenodd" d="M183.479,28.61C182.324,21.503,185.014,23.496,183.479,28.61L183.479,28.61z"/>
		<path fill-rule="evenodd" clip-rule="evenodd" d="M353.896,111.953c6.93-0.009,15.438-1.809,19.28,1.866
			C369.047,112.528,360.744,112.337,353.896,111.953z"/>
		<path fill-rule="evenodd" clip-rule="evenodd" fill="#FFFFFF" d="M317.822,75.879c1.344,4.718-5.842,11.532-6.842,18.037
			c-1.451,0-2.902,0-4.354,0c0.077,1.374,2.638,0.264,3.731,0.622c-1.309,5.118-1.127,11.727-6.842,12.439
			c0.566,4.934-2.873,7.225-1.244,9.952c-0.872,1.812-2.143-1.103-3.731-0.622c1.906,0.997,3.047,2.758,4.976,3.732
			c-2.043,0.318-4.064,5.673-7.464,8.085c-0.313,2.03,3.094,1.318,1.244,3.109c-5.113-1.936-8.209-5.888-11.817-9.329
			c2.035-13.1,10.945-19.324,16.793-28.61c1.499-0.254,1.353,1.136,3.11,0.622c-0.094-1.15-2.106-0.382-2.488-1.244
			C306.889,86.092,313.011,81.642,317.822,75.879z"/>
		<path fill-rule="evenodd" clip-rule="evenodd" fill="#FFFFFF" d="M297.297,134.343c-1.038,1.865-1.149,4.656-3.109,5.598
			c-2.047-1.174-2.705-2.35-5.598-3.731c-0.486-4.596-2.072-7.383-4.354-8.708c-0.305-1.963,1.12-2.196,0.621-4.354
			C289.167,126.535,294.678,131.251,297.297,134.343z"/>
		<path fill-rule="evenodd" clip-rule="evenodd" d="M167.307,136.209c-0.031-0.031,5.838,4.421,6.842,7.463
			C171.966,141.088,169.407,138.878,167.307,136.209z"/>
		<path fill-rule="evenodd" clip-rule="evenodd" fill="#FFFFFF" d="M322.798,125.014c2.334,6.788,8.382,9.862,11.816,15.549
			c-7.601,0.544-17.383,1.353-23.634,4.976c-1.403-0.463-0.243-3.488-0.622-4.976c0.735-0.716,2.198-0.704,3.731-0.622
			c-1.331-1.156-3.71-1.265-3.731-3.731C315.123,133.096,318.59,128.685,322.798,125.014z"/>
		<path fill-rule="evenodd" clip-rule="evenodd" d="M172.905,189.076c-0.85-1.813,2.262,1.418,3.11,1.866
			c1.997,0.545,1.29-1.613,2.488-1.866c0.057,0.287-1.235,8.406,2.488,9.951C177.342,199.143,176.553,191.032,172.905,189.076z"/>
		<path fill-rule="evenodd" clip-rule="evenodd" fill="#FFFFFF" d="M309.736,236.967c1.063,1.01,2.264,1.883,4.354,1.866
			c0.524,2.805-1.455,3.105-1.865,4.976c-2.948-0.991-1.99-5.889-4.354-7.464c0.456-1.107,1.131-0.089,1.866,0
			c-0.53-2.639-3.569-9.076-7.464-8.085c-1.556-1.197,2.557-1.963,3.11-3.11c-7.884,5.222-16.48,0.041-21.146-4.976
			c1.833-6.977,9.529-7.426,11.195-12.439c-4.292,1.104-9.203,6.964-13.062,10.573c-0.774-3.165-3.807-4.072-3.731-8.085
			c5.855-0.829,10.536-1.58,9.329-9.33c-2.283-3.362-4.292-5.268-5.598-10.573c-1.214,2.068,1.79,5.24,2.487,7.463
			c-3.234,1.342-0.756,4.915-4.354,6.22c0.375-20.436,5.169-38.675,4.354-59.708c5.259,5.107,7.691,13.041,13.684,17.415
			c0.307,13.584,11.579,16.202,13.062,28.61c-3.817,16.844,0.021,31.504,3.109,47.891
			C312.473,238.377,311.715,237.062,309.736,236.967z"/>
		<path fill-rule="evenodd" clip-rule="evenodd" d="M199.649,217.064c2.724,1.203-3.408,1.844-1.244,2.488
			c-0.192,0.844-1.557,0.516-2.488,0.622C196.304,218.28,199.263,218.958,199.649,217.064z"/>
		<path fill-rule="evenodd" clip-rule="evenodd" d="M142.429,221.418c0.559,0.802-1.563,4.215-3.731,4.354
			C139.557,223.936,141.569,223.253,142.429,221.418z"/>
		<path fill-rule="evenodd" clip-rule="evenodd" d="M133.722,222.04c3.526,1.643,2.894,6.929,4.976,8.707
			c2.7,2.307,1.75-1.826,0.622,0.622c-0.086,0.186,2.763,3.851,1.866,4.976c-1.82-3.155-3.254-6.697-5.598-9.329
			c-2.125,0.254-0.79,1.68-3.11,0.622c0.529-0.923,1.565-1.337,3.11-1.244C135.589,224.318,133.564,224.271,133.722,222.04z"/>
		<path fill-rule="evenodd" clip-rule="evenodd" fill="#FFFFFF" d="M49.757,270.553c-0.271-0.765-0.796-1.277-1.866-1.244
			c1.383-3.386,5.211-4.326,6.841-7.464c0.427-2.269-0.135-5.526,2.488-5.598c0.67,2.583-0.516,3.42,0.622,4.976
			c-3.146,3.903-6.484,7.613-9.951,11.195C46.576,272.227,48.544,270.259,49.757,270.553z"/>
		<path fill-rule="evenodd" clip-rule="evenodd" fill="#FFFFFF" d="M133.1,265.577c0.984-1.296,4.351-0.21,5.598-1.244
			c-1.965,2.014,4.096,2.313,4.976,4.976c0.167,0.504-2.493-0.039-0.622,1.866C143.417,270.475,136.702,266.422,133.1,265.577z"/>
		<path fill-rule="evenodd" clip-rule="evenodd" d="M136.209,230.125c-1.454,0.768-6.824,0.325-9.33,0
			C117.955,228.966,131.991,229.631,136.209,230.125z"/>
		<path fill-rule="evenodd" clip-rule="evenodd" fill="#FFFFFF" d="M303.517,234.479c0.566,1.507,2.5,1.647,4.354,1.866
			c0.489,3.243,1.1,6.364,3.11,8.086c-3.721,7.267-10.793,11.183-17.415,15.549c-0.104-10.947-4.532-20.674-4.354-29.854
			c4.86-0.05,6.372,3.539,9.951,3.11c-0.718-1.978-5.007-0.384-4.354-3.732c3.961,2.473,9.801-0.397,11.817,4.354
			C305.16,234.771,305.47,235.17,303.517,234.479z"/>
		<path fill-rule="evenodd" clip-rule="evenodd" d="M93.916,248.162c1.918-0.859,5.177,2.27,6.842,3.732
			C99.304,252.289,96.494,248.711,93.916,248.162z"/>
		<path fill-rule="evenodd" clip-rule="evenodd" d="M185.344,303.517c-1.693,2.252-4.789-2.612-5.598-1.244
			C178.869,299.704,183.269,303.366,185.344,303.517z"/>
		<path fill-rule="evenodd" clip-rule="evenodd" d="M177.259,304.139c2.332-2.088,4.561,1.217,6.841,1.244
			C182.308,306.932,180.636,303.069,177.259,304.139z"/>
		<path fill-rule="evenodd" clip-rule="evenodd" d="M185.966,304.761c1.18-1.736,3.982,0.115,4.976,0.622
			C189.417,306.23,188.125,304.412,185.966,304.761z"/>
		<path fill-rule="evenodd" clip-rule="evenodd" fill="#FFFFFF" d="M62.818,312.846c-0.839,3.374,0.214,8.69,3.11,9.951
			c0.027,1.064-0.462,1.611-1.244,1.866c0.183,1.479,1.683-0.691,1.866-1.244c2.017,3.35,2.826,1.184,3.732,4.976
			c0.788-1.598,2.102-1.254,1.866,1.244c0.554-0.276,1.112-0.546,1.244-1.244c1.863,0.409-0.595,1.33,0,2.488
			c0.633-0.404,0.644-1.43,1.866-1.244c0.828,1.637-0.666,2.095-0.622,3.731c-4.23-4.685-12.361-5.469-13.061-13.683
			c-1.792,2.035,0.893,4.885,1.866,6.22c0.141,3.236-3.113,6.893-0.622,8.708c-0.147-1.571,1.012-5.061,1.244-8.085
			c2.256,3.748,12.227,5.565,13.061,10.573c0.205,1.229-2.277,5.028-2.488,6.842c-0.438,3.761,1.212,6.336,0,9.951
			c-8.46-9.784-13.476-23.013-23.013-31.72C54.388,318.1,60.535,317.404,62.818,312.846z"/>
		<path fill-rule="evenodd" clip-rule="evenodd" fill="#FFFFFF" d="M103.246,358.871c2.473-0.192,3.124,1.437,5.598,1.244
			c-1.064-1.01-2.264-1.883-4.354-1.866c-0.162-1.82,1.406-1.911,1.244-3.731c1.955,1.76,3.247,0.857,4.976-0.622
			c2.465,2.334,4.718,1.055,8.708,1.866c-2.479,6.376-3.69,15.286-5.598,23.012c-0.291,1.178-1.655,2.532-1.866,3.732
			c-0.67,3.808,0.776,6.967-1.244,9.951c-1.181,1.744-4.799,2.466-6.22,3.731c-1.877,1.674-1.476,4.545-4.354,4.354
			c-4.732-11.024-9.034-22.479-11.817-35.452c2.094,0.394,3.189,1.786,6.22,1.244C94.516,365.583,100.804,361.924,103.246,358.871z"
			/>
		<path fill-rule="evenodd" clip-rule="evenodd" fill="#FFFFFF" d="M255.004,0c29.646,0,59.293,0,88.94,0
			c-6.265,8.248-15.459,13.566-24.257,19.281c-10.125-4.415-18.309,5.056-24.878,3.732c0.627,0.007,0.782,1.09,0,1.244
			c-8.106,0.19-12.207,7.692-18.659,7.463c2.41-6.127,7.299-12.968,8.707-18.037c-2.199-1.888-1.759,2.846-3.731,3.11
			c-3.591-3.462-5.263-12.146-7.464-14.927c1.638,6.449,4.625,11.547,7.464,16.793c-3.44,4.438-5.036,10.72-8.707,14.927
			c-0.755-2.693-2.62-0.411-4.354-1.866c0.872-2.722,0.183-3.837-1.244-5.598c-2.275-0.409-2.386,1.346-4.354,1.244
			C259.326,18.897,256.819,9.794,255.004,0z"/>
		<path fill-rule="evenodd" clip-rule="evenodd" fill="#FFFFFF" d="M318.443,19.281c-11.748,9.52-27.403,18.04-44.781,19.903
			c2.22-2.228-0.963-3.208,1.244-6.22c9.046-0.287,12.648-9.324,21.769-7.463C300.518,22.375,308.177,18.021,318.443,19.281z"/>
		<path fill-rule="evenodd" clip-rule="evenodd" fill="#FFFFFF" d="M177.881,47.269c4.054,5.69,4.493,14.995,11.195,18.037
			c0.611,2.498,0.762,5.458,0.622,8.708c-2.973-1.587-2.451-6.671-3.731-9.951c-5.814,1.237-8.242-5.133-12.439-7.463
			C173.686,52.196,177.064,51.014,177.881,47.269z"/>
		<path fill-rule="evenodd" clip-rule="evenodd" fill="#FFFFFF" d="M322.176,118.172c-1.356-1.481,0.311,1.271,0,2.488
			c-5.089,9.029-16.388,10.691-16.793,24.878c-6.517-11.649,2.485-19.823,2.487-33.585c7.713-0.788,15.261-1.74,23.013-2.488
			C330.794,114.773,325.224,117.894,322.176,118.172z"/>
		<path fill-rule="evenodd" clip-rule="evenodd" fill="#FFFFFF" d="M178.502,167.929c1.42-1.176,6.872-1.093,6.22,1.866
			c2.557-2.1,11.141-0.691,13.061,1.866c0,0.829,0,1.659,0,2.488c-2.467,0.85-5.15,1.484-5.598,4.354
			C186.098,176.505,183.626,170.892,178.502,167.929z"/>
		<path fill-rule="evenodd" clip-rule="evenodd" fill="#FFFFFF" d="M263.089,102.624c1.791,6.588,8.937,8.45,8.708,13.061
			c-0.233,4.695-3.101,12.693-1.244,19.903c0.11,2.184-2.101,2.045-2.487,3.732c-0.19,1.943,1.796-1.581,1.865,0.622
			c5.155,14.175,0.378,34.119-1.865,49.757c-1.946-0.127-4.566,0.419-5.598-0.622c-0.241,2.521,3.876,0.685,5.598,1.244
			c-2.53,10.117-7.637,17.657-9.952,27.988c-2.209-6.377-2.573-18.816-1.243-24.878c-1.493-10.057-5.137-20.591-3.732-29.854
			c1.206-7.953,5.394-11.49,4.976-18.037c-0.19-2.982,0.115-8.988-0.622-13.061c-0.933-5.162-2.362-12.61-0.621-20.524
			c-1.587,1.938-1.696,5.353-2.488,8.085c-2.188-1.958-3.407-4.885-5.598-6.842c-2.804-10.914,3.934-14.925,6.842-21.146
			c4.915-10.516,5.007-22.494,11.195-32.964c3.06,2.964,2.208,7.583,1.865,12.439c-0.941,13.359-0.251,28.074,4.354,39.184
			C266.669,111.068,266.346,105.38,263.089,102.624z"/>
	</g>
</g>
</svg>
