<?xml version="1.0" encoding="utf-8"?>
<!-- Generator: Adobe Illustrator 12.0.0, SVG Export Plug-In . SVG Version: 6.00 Build 51448)  -->
<!DOCTYPE svg PUBLIC "-//W3C//DTD SVG 1.1//EN" "http://www.w3.org/Graphics/SVG/1.1/DTD/svg11.dtd" [
	<!ENTITY ns_svg "http://www.w3.org/2000/svg">
	<!ENTITY ns_xlink "http://www.w3.org/1999/xlink">
]>
<svg  version="1.1" id="Layer_1" xmlns="&ns_svg;" xmlns:xlink="&ns_xlink;" width="458.044" height="453"
	 viewBox="0 0 458.044 453" overflow="visible" enable-background="new 0 0 458.044 453" xml:space="preserve">
<g>
	<g>
		<path fill-rule="evenodd" clip-rule="evenodd" fill="#FFFFFF" d="M373.044,72c-0.341,6.39-9.414-0.971-13,3
			C357.872,71.454,369.943,73.597,373.044,72z"/>
		<path fill-rule="evenodd" clip-rule="evenodd" fill="#FFFFFF" d="M358.044,78c2.393-1.347,11.625-0.992,13,2
			C365.367,80.676,362.843,78.201,358.044,78z"/>
		<path fill-rule="evenodd" clip-rule="evenodd" fill="#FFFFFF" d="M371.044,82C364.591,85.177,363.028,78.096,371.044,82
			L371.044,82z"/>
		<path fill-rule="evenodd" clip-rule="evenodd" fill="#FFFFFF" d="M284.044,135c3.383-0.487,0.206,7.632-1,9
			C278.549,143.375,285.139,138.668,284.044,135z"/>
		<path fill-rule="evenodd" clip-rule="evenodd" fill="#FFFFFF" d="M280.044,138c2.85,1.645-0.48,5.426-1,7
			C274.844,143.77,279.626,140.515,280.044,138z"/>
		<path fill-rule="evenodd" clip-rule="evenodd" fill="#FFFFFF" d="M324.044,138c0,1.667,0,3.333,0,5c-2.928,0.261-3.072-2.261-6-2
			C318.952,138.908,320.995,137.951,324.044,138z"/>
		<path fill-rule="evenodd" clip-rule="evenodd" fill="#FFFFFF" d="M326.044,157c-0.843,3.571-5.048,7.712-8,6
			C317.736,158.026,320.885,156.507,326.044,157z"/>
		<path fill-rule="evenodd" clip-rule="evenodd" fill="#FFFFFF" d="M375.044,205c-2.341-2.408,1.968-6.649,4-8
			C378.593,200.549,375.669,201.625,375.044,205z"/>
		<path fill-rule="evenodd" clip-rule="evenodd" fill="#FFFFFF" d="M376.044,203c3.856-0.585,1.455,6.585-1,6
			C374.321,205.944,376.066,205.356,376.044,203z"/>
		<path fill-rule="evenodd" clip-rule="evenodd" fill="#FFFFFF" d="M339.044,218c-1.746-3.792,2.132-6.016,5-7
			C344.335,215.291,339.332,214.288,339.044,218z"/>
		<path fill-rule="evenodd" clip-rule="evenodd" fill="#FFFFFF" d="M320.044,245c0.932-2.699,2.881,11.04-1,10
			C320.079,252.369,320.24,248.863,320.044,245z"/>
		<path fill-rule="evenodd" clip-rule="evenodd" fill="#FFFFFF" d="M1.044,0c152.333,0,304.667,0,457,0c0,151,0,302,0,453
			c-152.667,0-305.333,0-458,0c0-150,0-300,0-450C-0.042,1.581-0.121,0.168,1.044,0z M326.044,86c-0.212,1.122-1.109,1.557-2,2
			c-3.265-2.026-16.619-7.853-14-6c2.785,3.215,8.755,3.245,11,7c-2.867-0.516-6.698-5.235-9-3c3.059,2.607,9.099,2.235,10,7
			c-1.428-0.239-1.687-1.646-3-2c2.12,4.214-2.124,6.881-6,8c-3.144-3.856-3.364-10.636-7-14c-3.456,3.24-6.4,9.62-13,5
			c-3.021,0.646-2.791,4.542-5,6c-4.333,0-8.667,0-13,0c0.858,6.121-3.928,7.734-1,11c-3.978,1.09-1.404,2.527-4,5
			c1.72,0.395,2.563-1.484,3,0c-1.987,0.013-1.271,2.729-4,2c-1.738-0.995-7.072-3.505-8-2c1.613,1.387,5.155,0.845,6,3
			c-4.328-0.04-9.163-4.792-12-3c1.182,0.485,2.267,1.066,3,2c-4.837-1.802-8.487,0.712-14-1c-1.555,3.555,3.396,0.604,3,3
			c-7-0.31-8.11-1.784-13,2c8.32,0.552-4.481,0.816-1,2c9.803,0.08-3.132,2.392-1,3c2.072,0.595,6.569-1.236,7,1
			c-8.715,1.897-18.106,3.004-4,3c-1.182,1.151-3.535,1.132-6,1c-0.525,3.475-3.352,4.648-5,7c1.125,0.903-0.063,2.237,2,4
			c-1.177,0.157-2.838-0.172-3,1c6.095,2.165-1.72,11.837,1,17c0.677-1.105,3.323-5.188,4-3c-1.167,1.5-2.888,2.445-3,5
			c0.667,0,1.333,0,2,0c0.057,0.61,0.149,1.184,1,1c0.547-1.453-1.168-5.168,1-5c0.508,3.492,0.45,7.55,2,10
			c3.208-4.125,5.563-9.103,7-15c0.157,1.177-0.172,2.838,1,3c3.769-6.231,9.307-10.693,12-18c-0.244,3.35-2.152,6.304,1,8
			c1.167-2.833,1.387-6.613,4-8c-0.495,2.888-4.399,7.534-2,10c1.708-2.996,2.924-10.563,6-9c-1.433-3.681,1.273-2.645,3-7
			c0.248,5.275-4.551,10.746-2,15c0.772-2.561,0.998-5.669,3-7c-3.522,12.066,0.378,4.623,3-2c1.687,3.282-0.531,4.409-2,7
			c4.437,0.104,3.111-5.556,6-7c-0.957,1.862,2.995,3.342,0,4c-0.224-0.776-0.027-1.973-1-2c0.138,1.862,0.658,3.342,2,4
			c1.479-4.361,2.921-8.844,3-12c2.649,3.078-2.306,7.579,2,9c-0.147-2.48-0.186-4.853,2-5c-0.862,4.138-2.683,7.317-3,12
			c-9.621,6.355-19.097,14.665-28,25c1.72,0.395,2.563-1.484,3,0c-1.964,1.703-4.998,2.335-6,5c4.059-0.941,5.356-4.644,9-6
			c-2.65,4.35-7.615,6.385-11,10c1.882,3.018,4.629-3.808,6-1c-2.647,1.702-6.516,6.55-3,6c-4.261,5.919-3.462,21.613-2,30
			c-0.105-4.105-0.164-8.164,2-10c1.352,4.327,0.469,6.346,0,11c3.987-3.302,3.699-12.931,5-16c0.138,1.862,0.658,3.342,2,4
			c-0.147-5.911,0.108-8.56,2-3c1.212-4.69-3.625-10.06,1-12c0.818,1.915,0.638,9.939,2,8c0.627-3.04-1.28-8.613,1-10
			c0.018,3.982,0.957,7.043,3,9c4.263-6.817-2.977-10.498,1-13c4.541-2.857-6.245,11.617,1,3c1.535-1.826-2.078-4.242,1-5
			c0.609,2.391-1.255,7.255,1,8c3.26-4.62-2.3-14.1,2-16c-0.16,4.493,0.811,7.856,3,10c-0.514-7.332,3.359-5.785,4-13
			c0.17,1.496-0.357,3.69,1,4c-0.197-5.376-2.157-10.285,1-14c0.785,4.118-1.535,5.132-1,9c5.894,0.227,3.005-8.329,6-11
			c1.433,6.041-3.188,15.769-1,16c0.546-5.646,3.29-3.576,6-6c0.956,1.862-2.995,3.342,0,4c1.858-2.476,1.033-7.634,3-10
			c0.157,1.177-0.172,2.838,1,3c0.211-1.208,1.11-0.615,2,0c-1.112-2.784-0.857-7.491,2-9c-0.319,1.225,0.161,6.176,1,3
			c0.575-1.758-1.208-5.875,1-6c-0.169,5.164,0.619,11.286-1,15c-0.708,4.665,1.708,4.665,1,0c1.84-4.16,1.094-10.906,4-14
			c-0.045,5.777,2.111-3.856,3,0c-1.22,1.514-1.963,8.614,0,10c1.69-3.438-1.569-6.025,1-9c2.716-0.715-0.716,4.715,2,4
			c2.206-5.072-1.584-7.153-1-9c1.89,2.444,3.821,4.846,5,8c-2.055,0.872-1.996-5.088-3-2c0.294,2.039,2.706,1.961,3,4
			c-5.085-0.166-5.516,0.266-2,2c-7.773,5.56-12.366,14.3-23,17c-0.192,5.451-8.453,8.854-11,15c5.976-2.25,4.224-6.295,9-9
			c-1.24,2.711-3.86,2.489-2,6c-85.069,87.931-186.648,159.352-270,249c5.352,2.648,14.015,1.985,22,2
			c9.021-9.175,19.031-16.889,27-26c16.022-18.318,31.085-34.477,49-50c22.407-19.416,47.065-37.563,68-58
			c26.079-25.459,51.981-51.382,78-75c-1.777,2.495-5.19,7.767,0,4c-5.091,6.242-3.088,19.578-8,26c6.597-5.069,6.22-17.113,12-23
			c-0.526,2.555-1.326,3.5,1,5c1.414-8.299-0.941-14.228,3-20c1.054,2.21,1.881,9.781-1,5c1.709,4.333-0.895,9.749,2,11
			c0.575-1.758-1.208-5.875,1-6c-0.1,3.1,0.453,5.547,2,7c1.756-6.246-0.58-2.188-1-7c0.614,1.387,3.85,0.15,4,2
			c-1.84,2.827-2.981,6.352-5,9c-0.224-0.776-0.027-1.973-1-2c0.766,5.105,1.582,3.198,4,1c1.914,4.041-0.707,8.698,4,7
			c1.397,2.874-2.726,5.08,0,6c0.74-2.927,2.418-4.915,4-7c-0.166,3.499,0.266,6.401,2,8c-0.069-3.611-0.312-8.009,2-4
			c1.253-5.136-3.437-10.048,2-11c0.183-2.595-3.196-6.697-1-8c0.877,3.456,1.739,6.928,4,9c0.581-3.914-0.86-5.807-2-8
			c4.63,1.19-1.752-4.215,2-5c-0.154,1.337,1.571,5.513,2,3c-0.27-1.824-3.6-5.605-1-7c0.776,2.224,0.578,5.423,3,6
			c2.082-3.281-2.49-10.646-1-13c1.509,1.824,1.061,5.605,3,7c0.036-3.48-0.561-9.514,2-5c-0.183-4.514-3.964-10.662-2-14
			c-0.15,2.483,0.517,4.15,2,5c0.224-0.776,0.027-1.973,1-2c0.224,0.776,0.027,1.973,1,2c-0.453-8.539-2.459-13.21,0-16
			c1.094,1.001,1.656,7.55,3,5c-0.168-1.613-3.356-5.155-1-6c3.735,1.541,3.012,6.695,6,5c-1.383-0.712-3.497-5.708-2-6
			c5.077,11.451,2.814,2.24,3-4c1.876,1.125,2.124,3.875,4,5c-0.261-3.073-2.17-4.497-3-7c1.182-0.144,2.267-1.781,3,0
			c-0.239,1.875-1.646-0.567-2,1c1.763,0.692,3.097,1.105,4,0c-1.85-0.15-0.613-3.386-2-4c2.917,0.25,3.45-1.883,5-3
			c1.02,0.163,0.98,6.104,2,3c0.409-2.409-1.826-2.174-1-5c2.091-0.576,2.854-2.479,6-2c-0.225,2.188-4.511,5.383-2,7
			c1.004-1.329,0.945-3.721,3-4c0.016,4.044,2.843,4.562,4,5c-0.39,1.427-1.2,1.687,0,3c-1.184-1.272-3.777-0.424-5,1
			c5.912,5.675-6.82,19.038-1,18c-3.345,1.683-11.094,4.203-10,7c2.302-2.365,6.133-3.2,9-5c-0.319,2.348-3.095,2.238-4,4
			c1.182,0.485,2.267,1.066,3,2c-0.886,0.297-5.081,2.003-2,3c0.111-0.795,3.306-3.031,3-1c-0.497,3.07-8.442,6.705-8,10
			c2.4-2.415,6.6-5.382,9-6c-3.425,3.923-11.903,8.077-12,12c1.833-1.763,4.402-6.098,7-4c0.472-3.567,5.093-8.189,7-7
			c2.726,3.483-4.896,3.602-3,2c-5.372,4.535-10.929,17.695-12,21c1.762-0.905,1.652-3.681,4-4c-2.422,3.203-1.215,3.526,0,7
			c-2.63-0.296-0.787,3.88-4,3c2.305,2.717-1.904,4.684,0,6c0.212-1.122,1.109-1.557,2-2c-1.742,2.885-2.517,5.935-1,8
			c0.212-1.122,1.109-1.557,2-2c-1.794,3.215-2.495,4.916,1,2c-0.655,3.296-2.864,3.484-4,4c3.805,1.656-2.572,6.575,0,7
			c2.864-2.469,3.447-7.22,7-9c-2.092,5.115-8.301,12.831-2,13c0.145,2.557-4.429,5.465-2,7c0.224-0.776,0.027-1.973,1-2
			c0.224,0.776,0.027,1.973,1,2c4.209-5.175-2.608-11.811,5-14c-1.968,7.168-0.521,15.255-1,21c1.991-3.502,2.283,2.935,4,3
			c-1.91-16.059-3.189-27.156,0-41c-0.535,14.202,0.609,26.724,1,40c2.719,1.232,3.581,2.768,4,4c3.223-1.256-0.368-8.358,2-10
			c1.427,0.239,1.687,1.646,3,2c-0.058-5.275-3.897-6.77-5-11c1.889,0.194,5.421,6.861,4,4c-0.22-3.78-3.144-4.856-4-8
			c3.087,2.148,5.753,4.02,8,4c-2.995-2.005-4.214-5.786-6-9c1.332-0.149,3.019,4.065,4,1c-1.397-0.697-4.653-4.553-3-5
			c2.063,2.305,5.937,8.018,8,7c-2.727-2.94-4.607-6.727-7-10c2.092,0.003,3.759,5.447,5,3c-4.034-3.3-2.356-3.505,0-3
			c-1.036-1.376-4.909-4.984-3-6c1.703,1.964,2.335,4.998,5,6c0.539-3.872-2.549-4.118-3-7c1.889,0.194,5.421,6.861,4,4
			c-0.234-3.766-3.766-4.234-4-8c3.066,0.644,4.526,8.082,7,6c-4.315-4.018-6.809-9.858-10-15c3.965,1.063,5.939,9.357,9,8
			c-3.883-2.451-4.301-8.365-7-12c2.423,0.311,4.423,6.154,6,4c-2.083-1.917-4.167-3.833-5-7c1.986,0.854,7.332,7.298,6,5
			c-2.912-3.754-6.453-6.881-9-11c2.754,1.825,5.088,5.362,7,3c-1.714-1.286-3.933-2.067-4-5c2.423,0.311,4.423,6.154,6,4
			c-3.065-2.427,1.149-0.623,1-2c-4.806-3.527-8.546-8.121-12-13c2.999-1.256,6.245,3.912,8,3c-1.352-0.981-1.998-2.668-3-4
			c1.332-0.149,3.019,4.065,4,1c-1.378-1.035-5.929-3.965-4-5c2.126,1.541,3.724,3.609,6,5c2.02-2.313,3.323-5.344,7-6
			c0.395,1.721-1.484,2.563,0,3c-0.003-0.556,0.81-1.135,1,0c-1.444,1.223-1.517,3.816-3,5c4.988,2.384,10.119-0.458,8-3
			c1.442,4.393,4.896,0.912,8,4c0.658-3.658-2.164-3.836-2-7c2.542-0.76,1.678,6.833,4,3c-1.486-0.847-1.447-3.22-2-5
			c3.936,1.602,0.348-4.319,3-4c1.175,2.651-1.917,5.889,0,6c0.212-1.122,1.109-1.557,2-2c-0.319,3.319,2.222,3.778,3,6
			c0.17-1.496-0.357-3.69,1-4c0.143,3.406-0.781,10.881,2,6c0.011,2.656-0.378,5.711,1,7c3.72,1.053,1.961-3.372,4-4
			c-1.064,10.81,5.434,9.097,5,23c1.721,0.395,2.563-1.484,3,0c-1.78,0.485,0.434,1.066,1,2c-0.438,8.643,2.172,11.906,5,22
			c2.993-26.73-18.395-48.674-7-68c0.728,3.916-4.83,13.499-2,10c1.868-3.132,3.049-6.951,5-10c-0.473,3.14,2.691,2.642,3,5
			c-3.02,10.263-0.269,1.888,3-2c0.467,4.834-5.412,8.542-3,12c2.09-6.221-0.909,5.937,1,2c1.871-2.129,1.632-6.368,4-8
			c-1.174,4.192-2.897,8.57-1,11c0.485-1.182,1.066-2.267,2-3c0.826,2.826-1.409,2.591-1,5c1.624,2.68,1.728,2.689,2,5
			c0.958,8.132-0.657,1.415,4-5c-1.786,7.098-2.962,14.341,2,17c-1.473-3.264,0.235-2.89,2-5c0.156,1.177-0.172,2.839,1,3
			c0.553-1.78,0.514-4.153,2-5c-0.354,3.646-1.767,6.233-3,9c-0.156-1.177,0.172-2.839-1-3c1.373,2.279-2.578,3.759,0,4
			c1.386-3.724,0.15,2.943,2,2c0.317-3.35,1.03-6.304,3-8c-0.553,4.113-2.866,6.468-3,11c1.377-0.043,2.196,0.471,3,1
			c0.485-1.182,1.066-2.267,2-3c-0.389,3.473-1.74,5.292,0,8c0.138-1.862,0.658-3.342,2-4c-1.258,3.65-1.17,8.296,0,10
			c0.138-1.862,0.658-3.342,2-4c1.326,4.674,1.151,10.849,4,14c-0.282-2.615,0.365-4.302,3-4c-0.26-4.107-3.581-10.373-1-14
			c0.441,7.518,1.448,17.58,5,14c-1.406-0.261-1.14-2.193-2-3c1.427,0.239,1.687,1.646,3,2c-0.113-2.946-4.296-11.379,0-7
			c0.745-3.078-2.745-1.922-2-5c1.44-0.534,2.44,3.896,3,1c-3.025-3.234-4.711-2.781-4-7c1.912,1.471,4.088,7.846,6,6
			c-1.775-4.441-3.837-3.102-6-10c1.555,1.445,3.896,2.104,6,3c-6.259-30.556-34.202-52.744-55-75c-1.377-0.043-2.196,0.471-3,1
			c2.129-2.422-2.228-4.422-4-6c1.32,2.503-3.953,3.13-1,4c0.613-3.342,7.051,0.678,3,2c0.374-5.322-3.809,3.882-1,4
			c0.156-1.177-0.172-2.838,1-3c3.808,7.173-0.123,9.9,0,16c2.891-3.165,3.537-9.085,4-12c3.27,6.08-3.843,12.771,2,16
			c0.334-2.333,1.025-4.309,3-5c-1.506,4.247-3.494,10.774-5,12c-6.764-11.569-13.748-22.918-21-34c5.196-0.335,2.007-1.462,5-4
			c1.896,0.424,5.054,8.036,4,5c0.224-1.891-1.127-2.206-1-4c2.263-0.168,4.397,4.809,6,2c-2.222-3.085-0.755-13.555,0-14
			c1.497,2.168,4.174,1.962,5,1c-1.376-1.282-2.96-4.761,0-5c0.88,2.454,0.9,5.767,4,6c1.373-2.279-2.578-3.759,0-4
			c0.485,1.78,1.066-0.434,2-1c-0.753,3.753,3.82,2.18,4,5c-1.321,0.012-0.914,1.753-2,2c1.561-4.294-0.717-1.539-3-5
			c3.553,7.114,10.325,11.008,13,19c0.575-1.758-1.209-5.875,1-6c1.386,0.614,0.15,3.85,2,4c-0.476-4.427,1.376-4.973,0-8
			c2.306-0.306,1.111,2.889,3,3c0.409-2.409-1.826-2.174-1-5c3.235,1.236,0.765-3.236,4-2c-0.15,2.483,0.517,4.15,2,5
			c1.084-2.561-3.038-4.767,0-6c0.329,1.147,1.202,6.604,2,4c-0.072-2.661-2.896-7.682-1-9c-0.054,1.871,0.77,2.117,2,1
			c0.317,3.35,1.03,6.304,3,8c0.138-4.153,0.658-0.202,2,0c1.373-2.279-2.578-3.759,0-4c2.982,1.728-1.432,6.182,1,7
			c0.766-5.208,1.582,3.549,4,3c1.386-0.614,0.15-3.85,2-4c0.105,2.561,0.566,4.767,2,6c0.17-1.496-0.357-3.69,1-4
			c-0.604,3.937,1.474,5.193,3,7c1.308-3.402-2.228-6.978,0-8c1.894,11.036,1.64,4.96,2-1c1.995,2.004-0.106,8.106,3,9
			c1.298-2.48-2.231-4.853,0-5c1.004,1.329,0.945,3.721,3,4c2.627-2.516-3.688-6.79,1-5c0.186-4.261-8.751-5.248-4-8
			c-4.721-0.769-7.354-6.144-8-8c-1.093,0.116-10.912-4.017-9-7c-3.061-0.606-5.21-2.123-8-3c2.867-2.985-2.913-2.963-2-7
			c1.763,0.873,3.097,3.347,4,0c-1.177-0.157-2.839,0.172-3-1c1.716-2.555-1.146-3.5,1-5c1.716,2.555-1.146,3.5,1,5
			c0.057-0.61,0.149-1.184,1-1c0.057,0.61,0.149,1.184,1,1c-2.183-9.158-8.169-19.822-14-22c2.055,1.329,6.084,5.85,5,7
			c-2.624-3.607-8.77-8.246-8-12c6.084,3.925,11.751,13.571,17,15c-1.731-0.905-2.762-3.681,0-4c-1.545,2.522,4.835,4.035,7,6
			c1.925-5.346,3.156,4.01,5-1c-0.15,2.483,0.517,4.15,2,5c-0.041-3.016-2.69-8.566,0-11c-0.292,5.292,1.735,8.265,2,13
			c3.146,1.146,2.43-1.57,4-2c0.353,2.981,0.578,6.089,3,7c1.093-5.131-1.728-11.554,0-14c-0.027,3.36,1.377,5.29,3,7
			c1.004-2.822,1.465-2.506,2-4c0.697,1.397,4.553,4.653,5,3c-2.977-1.39-4.152-5.176-6-5c1.321-0.012,0.914-1.753,2-2
			c-0.169,1.615,5.085,2.301,2,1c-3.856-3.281-1.928-5.429-7-7c1.453-0.547,5.169,1.168,5-1c-2.562-0.105-4.768-0.566-6-2
			c5.304-0.105,1.182-0.566,0-2c1.314,0.132,7.235,0.151,4-1c-3.74,0.074-6.913-0.421-9-2c2.071-0.595,6.569,1.236,7-1
			c-1.871,0.054-2.117-0.77-1-2c-2.391-0.609-7.256,1.255-8-1c2.04,0.857,5.51-1.574,3-2c-0.722,0.978-8.204,0.262-10-1
			c3.63-0.036,7.895,0.561,9-2c-3.399-1.095-7.591,2.646-5-1c-4.634,0.394-11.451,3.846-15,2c3.057,0.149,4.9-1.409,7-2
			c15.277-4.302-5.073,1.535-9,0c4.212-0.788,7.555-2.446,10-5c-4.41,0.009-6.832,3.688-7,0c-2.213,1.44,1.259,2.44-1,3
			c-4.615-0.677,1.53-3.323-1-4c-6.338,3.663-11.33,8.67-19,11c1.828-3.981-5.419-6.135-7-12c4.738-0.599,13.525-6.979,15,1
			c4.485-8.864-3.665-8.294-1-14c2.595,1.072,6.697,0.636,8,3c-0.003,1.003,0.81,1.19,1,2c0.888,13.148,0.29-2.995,2-6
			c2.842,4.151,10.409,9.635,15,11c-2.631-2.074-8.19-5.296-5-10c-7.16,1.334-4.02-1.166-2-2c-7.503,1.503-9.954-2.046-14-4
			c-2.039,0.294-1.961,2.706-4,3c0.306-2.306-2.889-1.111-3-3c1.453-0.547,5.169,1.168,5-1c-9.003-0.771-13.319,1.946-18,2
			c1.22,0.113,2.367,0.299,2,2c-2.803-1.131-11.762,4.646-17,1c4.646-0.354,8.717-1.284,12-3c-3.74-1.328-6.913,2.981-9,0
			c-0.505-3.563,7.489-3.767,5-6c-2.652,2.015-5.608,3.725-9,5c0.688-3.023,9.177-3.432,6-7c-0.294,0.889-2.706,4.378-3,2
			c2.092-1.242,3.759-2.908,5-5c-3.12-0.505-4.842,2.357-3-1c-3.954,1.056-4.448,2.963-2-1c-6.628,4.632-9.033,7.037-12,12
			c0.294-0.889,2.706-4.378,3-2c-4.772,9.435-2.194,20.51-8,28c-1.67-6.278,4.646-14.311,2-15c-0.445,2.555-1.402,4.598-3,6
			c-0.543-2.955,2.835-7.059,1-8c-0.239,1.086-1.646,2.401-2,1c1.434-2.909,0.767-1.125-2-1c0.447-2.286,3.527-7.05,1-9
			c-0.711,2.955-0.275,7.059-3,8c-0.594-3.035-3.879-7.283-5-4c-0.248-2.885-1.708-4.492-2-6c-2.207-11.397,1.114-5.56-2,4
			c0.035-4.368,0.369-9.035-2-11c-0.485,1.182-1.066,2.267-2,3c0.279-2.279-0.241-3.759-2-4c-0.598,1.78,2.931,4.153,0,5
			c-1.514-3.486-1.827-8.173-5-10c-0.101,2.833,3.964,6.613,2,8c-1.843-3.152-3.959-7.947-4-10c-1.286,1.38-2.067,0.267-5,0
			c-0.395,1.72,1.484,2.563,0,3c-2.121-3.711-6.569-5.323-9-2c-2.705-4.216-0.033,2.182-4-2c0.282,4.06-0.365,2.257-3,2
			c-3.14,5.199,0.248,6.909-2,13c10.639,1.028,16.688,6.646,24,11c-2.901,0.489-5.752-4.142-7-2
			C314.548,78.163,321.078,81.299,326.044,86z M310.044,218c1.884,1.899,5.196,0.121,6-2c-1.182-0.145-2.267-1.78-3,0
			C316.052,217.938,309.615,214.252,310.044,218z M360.044,172c-0.858-1.875-1.822-8.755-4-6
			C358.885,168.141,357.064,171.966,360.044,172z M300.044,167c-0.771-3.091,2.701-10.388,0-9
			C300.339,160.615,297.455,168.5,300.044,167z"/>
		<path fill-rule="evenodd" clip-rule="evenodd" d="M310.044,73c1.248-2.142,4.099,2.489,7,2c-7.313-4.354-13.361-9.972-24-11
			c2.248-6.091-1.14-7.801,2-13c2.635,0.257,3.282,2.06,3-2c3.967,4.182,1.295-2.216,4,2c2.431-3.323,6.879-1.711,9,2
			c1.484-0.437-0.395-1.28,0-3c2.933,0.267,3.714,1.38,5,0c0.041,2.053,2.157,6.848,4,10c1.964-1.387-2.101-5.167-2-8
			c3.173,1.827,3.486,6.514,5,10c2.931-0.847-0.598-3.22,0-5c1.759,0.241,2.279,1.721,2,4c0.934-0.733,1.515-1.818,2-3
			c2.369,1.965,2.035,6.632,2,11c3.114-9.56-0.207-15.397,2-4c0.292,1.508,1.752,3.115,2,6c1.121-3.283,4.406,0.965,5,4
			c2.725-0.941,2.289-5.045,3-8c2.527,1.95-0.553,6.714-1,9c2.767-0.125,3.434-1.909,2,1c0.354,1.401,1.761,0.086,2-1
			c1.835,0.941-1.543,5.045-1,8c1.598-1.402,2.555-3.445,3-6c2.646,0.689-3.67,8.722-2,15c5.806-7.49,3.228-18.565,8-28
			c-0.294-2.378-2.706,1.111-3,2c2.967-4.963,5.372-7.368,12-12c-2.448,3.963-1.954,2.056,2,1c-1.842,3.357-0.12,0.495,3,1
			c-1.241,2.092-2.908,3.758-5,5c0.294,2.378,2.706-1.111,3-2c3.177,3.568-5.313,3.977-6,7c3.392-1.275,6.348-2.985,9-5
			c2.489,2.233-5.505,2.438-5,6c2.087,2.981,5.26-1.328,9,0c-3.283,1.716-7.354,2.646-12,3c5.238,3.646,14.197-2.131,17-1
			c0.367-1.701-0.78-1.887-2-2c4.681-0.054,8.997-2.771,18-2c0.169,2.168-3.547,0.453-5,1c0.111,1.889,3.306,0.694,3,3
			c2.039-0.294,1.961-2.706,4-3c4.046,1.954,6.497,5.503,14,4c-2.02,0.834-5.16,3.334,2,2c-3.19,4.704,2.369,7.926,5,10
			c-4.591-1.365-12.158-6.849-15-11c-1.71,3.005-1.112,19.148-2,6c-0.19-0.81-1.003-0.997-1-2c-1.303-2.364-5.405-1.928-8-3
			c-2.665,5.706,5.485,5.136,1,14c-1.475-7.979-10.262-1.599-15-1c1.581,5.865,8.828,8.019,7,12c7.67-2.33,12.662-7.337,19-11
			c2.53,0.677-3.615,3.323,1,4c2.259-0.56-1.213-1.56,1-3c0.168,3.688,2.59,0.009,7,0c-2.445,2.554-5.788,4.212-10,5
			c3.927,1.535,24.277-4.302,9,0c-2.1,0.591-3.943,2.149-7,2c3.549,1.846,10.366-1.606,15-2c-2.591,3.646,1.601-0.095,5,1
			c-1.105,2.561-5.37,1.964-9,2c1.796,1.262,9.278,1.978,10,1c2.51,0.426-0.96,2.857-3,2c0.744,2.255,5.609,0.391,8,1
			c-1.117,1.23-0.871,2.054,1,2c-0.431,2.236-4.929,0.405-7,1c2.087,1.579,5.26,2.074,9,2c3.235,1.151-2.686,1.132-4,1
			c1.182,1.434,5.304,1.895,0,2c1.232,1.434,3.438,1.895,6,2c0.169,2.168-3.547,0.453-5,1c5.072,1.571,3.144,3.719,7,7
			c3.085,1.301-2.169,0.615-2-1c-1.086,0.247-0.679,1.988-2,2c1.848-0.176,3.023,3.61,6,5c-0.447,1.653-4.303-1.603-5-3
			c-0.535,1.494-0.996,1.178-2,4c-1.623-1.71-3.027-3.64-3-7c-1.728,2.446,1.093,8.869,0,14c-2.422-0.911-2.647-4.019-3-7
			c-1.57,0.43-0.854,3.146-4,2c-0.265-4.735-2.292-7.708-2-13c-2.69,2.434-0.041,7.984,0,11c-1.483-0.85-2.15-2.517-2-5
			c-1.844,5.01-3.075-4.346-5,1c-2.165-1.965-8.545-3.478-7-6c-2.762,0.319-1.731,3.095,0,4c-5.249-1.429-10.916-11.075-17-15
			c-0.77,3.754,5.376,8.393,8,12c1.084-1.15-2.945-5.671-5-7c5.831,2.178,11.817,12.842,14,22c-0.851,0.184-0.943-0.39-1-1
			c-0.851-0.184-0.943,0.39-1,1c-2.146-1.5,0.716-2.445-1-5c-2.146,1.5,0.716,2.445-1,5c0.161,1.172,1.823,0.843,3,1
			c-0.903,3.347-2.237,0.873-4,0c-0.913,4.037,4.867,4.015,2,7c2.79,0.877,4.939,2.394,8,3c-1.912,2.983,7.907,7.116,9,7
			c0.646,1.856,3.279,7.231,8,8c-4.751,2.752,4.186,3.739,4,8c-4.688-1.79,1.627,2.484-1,5c-2.055-0.279-1.996-2.671-3-4
			c-2.231,0.147,1.298,2.52,0,5c-3.106-0.894-1.005-6.996-3-9c-0.36,5.96-0.106,12.036-2,1c-2.228,1.022,1.308,4.598,0,8
			c-1.526-1.807-3.604-3.063-3-7c-1.357,0.31-0.83,2.504-1,4c-1.434-1.233-1.895-3.439-2-6c-1.85,0.15-0.614,3.386-2,4
			c-2.418,0.549-3.234-8.208-4-3c-2.432-0.818,1.982-5.272-1-7c-2.578,0.241,1.373,1.721,0,4c-1.342-0.202-1.862-4.153-2,0
			c-1.97-1.696-2.683-4.65-3-8c-1.23,1.117-2.054,0.871-2-1c-1.896,1.318,0.928,6.339,1,9c-0.798,2.604-1.671-2.853-2-4
			c-3.038,1.233,1.084,3.439,0,6c-1.483-0.85-2.15-2.517-2-5c-3.235-1.236-0.765,3.236-4,2c-0.826,2.826,1.409,2.591,1,5
			c-1.889-0.111-0.694-3.306-3-3c1.376,3.027-0.476,3.573,0,8c-1.85-0.15-0.614-3.386-2-4c-2.209,0.125-0.425,4.242-1,6
			c-2.675-7.992-9.447-11.886-13-19c2.283,3.461,4.561,0.706,3,5c1.086-0.247,0.679-1.988,2-2c-0.18-2.82-4.753-1.247-4-5
			c-0.934,0.566-1.515,2.78-2,1c-2.578,0.241,1.373,1.721,0,4c-3.1-0.233-3.12-3.546-4-6c-2.96,0.239-1.376,3.718,0,5
			c-0.826,0.962-3.503,1.168-5-1c-0.755,0.445-2.222,10.915,0,14c-1.603,2.809-3.737-2.168-6-2c-0.127,1.794,1.224,2.109,1,4
			c1.054,3.036-2.104-4.576-4-5c-2.993,2.538,0.196,3.665-5,4c7.252,11.082,14.236,22.431,21,34c1.506-1.226,3.494-7.753,5-12
			c-1.975,0.691-2.666,2.667-3,5c-5.843-3.229,1.27-9.92-2-16c-0.463,2.915-1.109,8.835-4,12c-0.123-6.1,3.808-8.827,0-16
			c-1.172,0.162-0.844,1.823-1,3c-2.809-0.118,1.374-9.322,1-4c4.051-1.322-2.387-5.342-3-2c-2.953-0.87,2.32-1.497,1-4
			c1.772,1.578,6.129,3.578,4,6c0.804-0.529,1.623-1.043,3-1c20.798,22.256,48.741,44.444,55,75c-2.104-0.896-4.445-1.555-6-3
			c2.163,6.898,4.225,5.559,6,10c-1.912,1.846-4.088-4.529-6-6c-0.711,4.219,0.975,3.766,4,7c-0.56,2.896-1.56-1.534-3-1
			c-0.745,3.078,2.745,1.922,2,5c-4.296-4.379-0.113,4.054,0,7c-1.313-0.354-1.573-1.761-3-2c0.86,0.807,0.594,2.739,2,3
			c-3.552,3.58-4.559-6.482-5-14c-2.581,3.627,0.74,9.893,1,14c-2.635-0.302-3.282,1.385-3,4c-2.849-3.151-2.674-9.326-4-14
			c-1.342,0.658-1.862,2.138-2,4c-1.17-1.704-1.258-6.35,0-10c-1.342,0.658-1.862,2.138-2,4c-1.74-2.708-0.389-4.527,0-8
			c-0.934,0.733-1.515,1.818-2,3c-0.804-0.529-1.623-1.043-3-1c0.134-4.532,2.447-6.887,3-11c-1.97,1.696-2.683,4.65-3,8
			c-1.85,0.943-0.614-5.724-2-2c-2.578-0.241,1.373-1.721,0-4c1.172,0.161,0.844,1.823,1,3c1.233-2.767,2.646-5.354,3-9
			c-1.486,0.847-1.447,3.22-2,5c-1.172-0.161-0.844-1.823-1-3c-1.765,2.11-3.473,1.736-2,5c-4.962-2.659-3.786-9.902-2-17
			c-4.657,6.415-3.042,13.132-4,5c-0.272-2.311-0.376-2.32-2-5c-0.409-2.409,1.826-2.174,1-5c-0.934,0.733-1.515,1.818-2,3
			c-1.897-2.43-0.174-6.808,1-11c-2.368,1.632-2.129,5.871-4,8c-1.909,3.937,1.09-8.221-1-2c-2.412-3.458,3.467-7.166,3-12
			c-3.269,3.888-6.02,12.263-3,2c-0.309-2.358-3.473-1.86-3-5c-1.951,3.049-3.132,6.868-5,10c-2.83,3.499,2.728-6.084,2-10
			c-11.395,19.326,9.993,41.27,7,68c-2.828-10.094-5.438-13.357-5-22c-0.566-0.934-2.78-1.515-1-2c-0.437-1.484-1.279,0.395-3,0
			c0.434-13.903-6.064-12.19-5-23c-2.039,0.628-0.28,5.053-4,4c-1.378-1.289-0.989-4.344-1-7c-2.781,4.881-1.857-2.594-2-6
			c-1.357,0.31-0.83,2.504-1,4c-0.778-2.222-3.319-2.681-3-6c-0.891,0.443-1.788,0.878-2,2c-1.917-0.111,1.175-3.349,0-6
			c-2.652-0.319,0.936,5.602-3,4c0.553,1.78,0.514,4.153,2,5c-2.322,3.833-1.458-3.76-4-3c-0.164,3.164,2.658,3.342,2,7
			c-3.104-3.088-6.558,0.393-8-4c2.119,2.542-3.012,5.384-8,3c1.483-1.184,1.556-3.777,3-5c-0.19-1.135-1.003-0.556-1,0
			c-1.484-0.437,0.395-1.279,0-3c-3.677,0.656-4.98,3.687-7,6c-2.276-1.391-3.874-3.459-6-5c-1.929,1.035,2.622,3.965,4,5
			c-0.981,3.065-2.668-1.149-4-1c1.002,1.332,1.648,3.019,3,4c-1.755,0.912-5.001-4.256-8-3c3.454,4.879,7.194,9.473,12,13
			c0.149,1.377-4.065-0.427-1,2c-1.577,2.154-3.577-3.689-6-4c0.067,2.933,2.286,3.714,4,5c-1.912,2.362-4.246-1.175-7-3
			c2.547,4.119,6.088,7.246,9,11c1.332,2.298-4.014-4.146-6-5c0.833,3.167,2.917,5.083,5,7c-1.577,2.154-3.577-3.689-6-4
			c2.699,3.635,3.117,9.549,7,12c-3.061,1.357-5.035-6.938-9-8c3.191,5.142,5.685,10.982,10,15c-2.474,2.082-3.934-5.356-7-6
			c0.234,3.766,3.766,4.234,4,8c1.421,2.861-2.111-3.806-4-4c0.451,2.882,3.539,3.128,3,7c-2.665-1.002-3.297-4.036-5-6
			c-1.909,1.016,1.964,4.624,3,6c-2.356-0.505-4.034-0.3,0,3c-1.241,2.447-2.908-2.997-5-3c2.393,3.273,4.273,7.06,7,10
			c-2.063,1.018-5.937-4.695-8-7c-1.653,0.447,1.603,4.303,3,5c-0.981,3.065-2.668-1.149-4-1c1.786,3.214,3.005,6.995,6,9
			c-2.247,0.02-4.913-1.852-8-4c0.856,3.144,3.78,4.22,4,8c1.421,2.861-2.111-3.806-4-4c1.103,4.23,4.942,5.725,5,11
			c-1.313-0.354-1.573-1.761-3-2c-2.368,1.642,1.223,8.744-2,10c-0.419-1.232-1.281-2.768-4-4c-0.391-13.276-1.535-25.798-1-40
			c-3.189,13.844-1.91,24.941,0,41c-1.717-0.065-2.009-6.502-4-3c0.479-5.745-0.968-13.832,1-21c-7.608,2.189-0.791,8.825-5,14
			c-0.973-0.027-0.776-1.224-1-2c-0.973,0.027-0.776,1.224-1,2c-2.429-1.535,2.145-4.443,2-7c-6.301-0.169-0.092-7.885,2-13
			c-3.553,1.78-4.136,6.531-7,9c-2.572-0.425,3.805-5.344,0-7c1.136-0.516,3.345-0.704,4-4c-3.495,2.916-2.794,1.215-1-2
			c-0.891,0.443-1.788,0.878-2,2c-1.517-2.065-0.742-5.115,1-8c-0.891,0.443-1.788,0.878-2,2c-1.904-1.316,2.305-3.283,0-6
			c3.213,0.88,1.37-3.296,4-3c-1.215-3.474-2.422-3.797,0-7c-2.348,0.319-2.238,3.095-4,4c1.071-3.305,6.628-16.465,12-21
			c-1.896,1.602,5.726,1.483,3-2c-1.907-1.189-6.528,3.433-7,7c-2.598-2.098-5.167,2.237-7,4c0.097-3.923,8.575-8.077,12-12
			c-2.4,0.618-6.6,3.585-9,6c-0.442-3.295,7.503-6.93,8-10c0.306-2.031-2.889,0.205-3,1c-3.081-0.997,1.114-2.703,2-3
			c-0.733-0.934-1.818-1.515-3-2c0.905-1.762,3.681-1.652,4-4c-2.867,1.8-6.698,2.635-9,5c-1.094-2.797,6.655-5.317,10-7
			c-5.82,1.038,6.912-12.325,1-18c1.223-1.424,3.816-2.272,5-1c-1.2-1.313-0.39-1.573,0-3c-1.157-0.438-3.984-0.956-4-5
			c-2.055,0.279-1.996,2.671-3,4c-2.511-1.617,1.775-4.812,2-7c-3.146-0.479-3.909,1.424-6,2c-0.826,2.826,1.409,2.591,1,5
			c-1.02,3.104-0.98-2.837-2-3c-1.55,1.117-2.083,3.25-5,3c1.387,0.614,0.15,3.85,2,4c-0.903,1.105-2.237,0.692-4,0
			c0.354-1.567,1.761,0.875,2-1c-0.733-1.781-1.818-0.144-3,0c0.83,2.503,2.739,3.927,3,7c-1.876-1.125-2.124-3.875-4-5
			c-0.186,6.24,2.077,15.451-3,4c-1.497,0.292,0.617,5.288,2,6c-2.988,1.695-2.265-3.459-6-5c-2.356,0.845,0.832,4.387,1,6
			c-1.344,2.55-1.906-3.999-3-5c-2.459,2.79-0.453,7.461,0,16c-0.973-0.027-0.776-1.224-1-2c-0.973,0.027-0.776,1.224-1,2
			c-1.483-0.85-2.15-2.517-2-5c-1.964,3.338,1.817,9.486,2,14c-2.561-4.514-1.964,1.52-2,5c-1.939-1.395-1.491-5.176-3-7
			c-1.49,2.354,3.082,9.719,1,13c-2.422-0.577-2.224-3.776-3-6c-2.6,1.395,0.73,5.176,1,7c-0.429,2.513-2.154-1.663-2-3
			c-3.752,0.785,2.63,6.19-2,5c1.14,2.193,2.581,4.086,2,8c-2.261-2.072-3.123-5.544-4-9c-2.196,1.303,1.183,5.405,1,8
			c-5.437,0.952-0.747,5.864-2,11c-2.312-4.009-2.069,0.389-2,4c-1.734-1.599-2.166-4.501-2-8c-1.582,2.085-3.26,4.073-4,7
			c-2.726-0.92,1.397-3.126,0-6c-4.707,1.698-2.086-2.959-4-7c-2.418,2.198-3.234,4.105-4-1c0.973,0.027,0.776,1.224,1,2
			c2.019-2.648,3.16-6.173,5-9c-0.15-1.85-3.386-0.613-4-2c0.42,4.812,2.756,0.754,1,7c-1.547-1.453-2.1-3.9-2-7
			c-2.208,0.125-0.425,4.242-1,6c-2.895-1.251-0.291-6.667-2-11c2.881,4.781,2.054-2.79,1-5c-3.941,5.772-1.586,11.701-3,20
			c-2.326-1.5-1.526-2.445-1-5c-5.78,5.887-5.403,17.931-12,23c4.912-6.422,2.909-19.758,8-26c-5.19,3.767-1.777-1.505,0-4
			c-26.019,23.618-51.921,49.541-78,75c-20.935,20.437-45.593,38.584-68,58c-17.915,15.523-32.978,31.682-49,50
			c-7.969,9.111-17.979,16.825-27,26c-7.985-0.015-16.648,0.648-22-2c83.352-89.648,184.931-161.069,270-249
			c-1.86-3.511,0.76-3.289,2-6c-4.776,2.705-3.024,6.75-9,9c2.547-6.146,10.808-9.549,11-15c10.634-2.7,15.227-11.44,23-17
			c-3.516-1.734-3.085-2.166,2-2c-0.294-2.039-2.706-1.961-3-4c1.004-3.088,0.945,2.872,3,2c-1.179-3.154-3.11-5.556-5-8
			c-0.584,1.847,3.206,3.928,1,9c-2.716,0.715,0.716-4.715-2-4c-2.569,2.975,0.69,5.563-1,9c-1.963-1.386-1.22-8.486,0-10
			c-0.889-3.856-3.045,5.777-3,0c-2.906,3.094-2.16,9.84-4,14c0.708,4.665-1.708,4.665-1,0c1.619-3.714,0.831-9.836,1-15
			c-2.208,0.125-0.425,4.242-1,6c-0.839,3.176-1.319-1.775-1-3c-2.857,1.509-3.112,6.216-2,9c-0.89-0.615-1.789-1.208-2,0
			c-1.172-0.162-0.843-1.823-1-3c-1.967,2.366-1.142,7.524-3,10c-2.995-0.658,0.956-2.138,0-4c-2.71,2.424-5.454,0.354-6,6
			c-2.188-0.231,2.433-9.959,1-16c-2.995,2.671-0.106,11.227-6,11c-0.535-3.868,1.785-4.882,1-9c-3.157,3.715-1.197,8.624-1,14
			c-1.357-0.31-0.83-2.504-1-4c-0.641,7.215-4.514,5.668-4,13c-2.189-2.144-3.16-5.507-3-10c-4.3,1.9,1.26,11.38-2,16
			c-2.255-0.745-0.391-5.609-1-8c-3.078,0.758,0.535,3.174-1,5c-7.245,8.617,3.541-5.857-1-3c-3.977,2.502,3.263,6.183-1,13
			c-2.043-1.957-2.982-5.018-3-9c-2.28,1.387-0.373,6.96-1,10c-1.362,1.939-1.182-6.085-2-8c-4.625,1.94,0.212,7.31-1,12
			c-1.892-5.56-2.147-2.911-2,3c-1.342-0.658-1.862-2.138-2-4c-1.301,3.069-1.013,12.698-5,16c0.469-4.654,1.352-6.673,0-11
			c-2.164,1.836-2.105,5.895-2,10c-1.462-8.387-2.261-24.081,2-30c-3.516,0.55,0.353-4.298,3-6c-1.371-2.808-4.118,4.018-6,1
			c3.385-3.615,8.35-5.65,11-10c-3.644,1.356-4.941,5.059-9,6c1.002-2.665,4.036-3.297,6-5c-0.437-1.484-1.28,0.395-3,0
			c8.903-10.335,18.379-18.645,28-25c0.317-4.683,2.138-7.862,3-12c-2.186,0.147-2.147,2.52-2,5c-4.306-1.421,0.649-5.922-2-9
			c-0.079,3.156-1.521,7.639-3,12c-1.342-0.658-1.862-2.138-2-4c0.973,0.027,0.776,1.224,1,2c2.995-0.658-0.957-2.138,0-4
			c-2.889,1.444-1.563,7.104-6,7c1.469-2.591,3.687-3.718,2-7c-2.622,6.623-6.522,14.066-3,2c-2.002,1.331-2.228,4.439-3,7
			c-2.551-4.254,2.248-9.725,2-15c-1.727,4.355-4.433,3.319-3,7c-3.076-1.563-4.292,6.004-6,9c-2.399-2.466,1.505-7.112,2-10
			c-2.613,1.387-2.833,5.167-4,8c-3.152-1.696-1.244-4.65-1-8c-2.693,7.307-8.231,11.769-12,18c-1.172-0.162-0.843-1.823-1-3
			c-1.437,5.897-3.792,10.875-7,15c-1.55-2.45-1.492-6.508-2-10c-2.168-0.168-0.453,3.547-1,5c-0.851,0.184-0.943-0.39-1-1
			c-0.667,0-1.333,0-2,0c0.112-2.555,1.833-3.5,3-5c-0.677-2.188-3.323,1.895-4,3c-2.72-5.163,5.095-14.835-1-17
			c0.162-1.172,1.823-0.843,3-1c-2.063-1.763-0.875-3.097-2-4c1.648-2.352,4.475-3.525,5-7c2.465,0.132,4.818,0.151,6-1
			c-14.106,0.004-4.715-1.103,4-3c-0.431-2.236-4.928-0.405-7-1c-2.132-0.608,10.803-2.92,1-3c-3.481-1.184,9.32-1.448,1-2
			c4.89-3.784,6-2.31,13-2c0.396-2.396-4.555,0.555-3-3c5.513,1.712,9.163-0.802,14,1c-0.733-0.934-1.818-1.515-3-2
			c2.837-1.792,7.672,2.96,12,3c-0.845-2.155-4.387-1.613-6-3c0.928-1.505,6.262,1.005,8,2c2.729,0.729,2.013-1.987,4-2
			c-0.437-1.484-1.28,0.395-3,0c2.596-2.473,0.022-3.91,4-5c-2.928-3.266,1.858-4.879,1-11c4.333,0,8.667,0,13,0
			c2.209-1.458,1.979-5.354,5-6c6.6,4.62,9.544-1.76,13-5c3.636,3.364,3.856,10.144,7,14c3.876-1.119,8.12-3.786,6-8
			c1.313,0.354,1.572,1.761,3,2c-0.901-4.765-6.941-4.393-10-7c2.302-2.235,6.133,2.484,9,3c-2.245-3.755-8.215-3.785-11-7
			c-2.619-1.853,10.735,3.974,14,6c0.891-0.443,1.788-0.878,2-2C321.078,81.299,314.548,78.163,310.044,73z M379.044,197
			c-2.032,1.351-6.341,5.592-4,8C375.669,201.625,378.593,200.549,379.044,197z M375.044,209c2.455,0.585,4.856-6.585,1-6
			C376.066,205.356,374.321,205.944,375.044,209z M381.044,200c0.041,4.488-7.019,9.88-3,12
			C377.702,207.291,383.813,203.814,381.044,200z M344.044,211c-2.868,0.984-6.746,3.208-5,7
			C339.332,214.288,344.335,215.291,344.044,211z M360.044,75c3.586-3.971,12.659,3.39,13-3
			C369.943,73.597,357.872,71.454,360.044,75z M371.044,80c-1.375-2.992-10.607-3.347-13-2
			C362.843,78.201,365.367,80.676,371.044,80z M371.044,82C363.028,78.096,364.591,85.177,371.044,82L371.044,82z M354.044,84
			c2.443,0.89,4.336,2.331,8,2c-1.555-3.555,3.396-0.604,3-3C361.263,85.082,356.458,82.265,354.044,84z M291.044,120
			c5.811,1.522,9.785,4.882,17,5c1.194-3.502,5.614-9.012,4-12c-1.827,2.506-2.081,6.586-5,8c2.123-3.629,3.967-10.302,7-10
			c-3.51-0.275,2.51-3.725-1-4c-1.485,2.876-11.112,4.633-13,7c-0.859,1.077,0.876,3.932-1,4c-0.738,0.027,0.559-6.31-1-3
			c-1.443,3.064,2.916,6.195-2,6c1.914-6.587-0.451-17.543,0-23c0.399,6.787-5.055-2.164-3,1
			C295.506,105.784,292.166,113.651,291.044,120z M368.044,103c3.65,1.87,8.296,0.853,10-2
			C373.829,104.247,371.932,98.811,368.044,103z M281.044,117c2.811,1.189,5.75,2.25,9,3c-0.395-4.729,0.321-8.346,1-12
			c-2.271,0.489-1.772-6.739-3-4C287.129,109.751,282.172,111.461,281.044,117z M392.044,117c-1.436-3.923-6.74-9.227-9-9
			C386.685,110.36,387.064,115.979,392.044,117z M252.044,123c3.033-0.967,5.326-2.674,8-4
			C255.681,118.637,253.861,120.817,252.044,123z M322.044,122c-1.987,4.617-4.73-2.524-6,2
			C318.831,125.04,324.616,124.977,322.044,122z M335.044,135c-0.914-1.753-0.344-4.99-2-6c-0.294,3.484-2.706-0.084-3,2
			C332.855,131.188,332.781,134.263,335.044,135z M283.044,144c1.206-1.368,4.383-9.487,1-9
			C285.139,138.668,278.549,143.375,283.044,144z M279.044,145c0.52-1.574,3.85-5.355,1-7
			C279.626,140.515,274.844,143.77,279.044,145z M318.044,141c2.928-0.261,3.072,2.261,6,2c0-1.667,0-3.333,0-5
			C320.995,137.951,318.952,138.908,318.044,141z M317.044,142c-2.688-0.689-1.933,2.067-3,3c0.776,0.224,1.973,0.027,2,1
			c-1.387,0.614-0.15,3.85-2,4c-0.171-1.496,0.357-3.69-1-4c-2.769,2.753,0.898,4.177,1,7c-1.003-0.003-1.19,0.81-2,1
			c0.15-2.483-0.517-4.15-2-5c-0.723,3.056,1.022,3.644,1,6c5.334-1.333,9.651-3.682,14-6c-0.145,1.182-1.78,2.267,0,3
			c0.41-1.705,1.29,0.21,3,0c-0.586-6.292-8.344-8.896-12-9C316.654,142.943,317.228,142.851,317.044,142z M230.044,153
			c0.967-2.151,5.051-10.325,3-9C232.077,146.151,227.993,154.325,230.044,153z M362.044,163c1.753-1.954-7.551-7.791-6-6
			C358.974,157.453,358.874,166.104,362.044,163z M318.044,163c2.952,1.712,7.157-2.429,8-6
			C320.885,156.507,317.736,158.026,318.044,163z M320.044,239c1.534,0.239,0.146,1.646-1,2c-2.859-3.493,2.22-8.621,0-11
			c-3.175,7.768-3.384,11.97-3,15c0.586-3.581,2.102,4.894,3,1C316.477,244.625,325.111,237.182,320.044,239z M319.044,255
			c3.881,1.04,1.932-12.699,1-10C320.24,248.863,320.079,252.369,319.044,255z M315.044,255c4.605,1.872,3.233-7.344,3-7
			C317.464,250.753,315.555,252.177,315.044,255z"/>
		<path fill-rule="evenodd" clip-rule="evenodd" d="M313.044,216c0.733-1.78,1.818-0.145,3,0c-0.804,2.121-4.116,3.899-6,2
			C309.615,214.252,316.052,217.938,313.044,216z"/>
		<path fill-rule="evenodd" clip-rule="evenodd" d="M356.044,166c2.178-2.755,3.142,4.125,4,6
			C357.064,171.966,358.885,168.141,356.044,166z"/>
		<path fill-rule="evenodd" clip-rule="evenodd" fill="#FFFFFF" d="M365.044,83c0.396,2.396-4.555-0.555-3,3
			c-3.664,0.331-5.557-1.11-8-2C356.458,82.265,361.263,85.082,365.044,83z"/>
		<path fill-rule="evenodd" clip-rule="evenodd" fill="#FFFFFF" d="M293.044,99c-2.055-3.164,3.399,5.787,3-1
			c-0.451,5.457,1.914,16.413,0,23c4.916,0.195,0.557-2.936,2-6c1.559-3.31,0.262,3.027,1,3c1.876-0.068,0.141-2.923,1-4
			c1.888-2.367,11.515-4.124,13-7c3.51,0.275-2.51,3.725,1,4c-3.033-0.302-4.877,6.371-7,10c2.919-1.414,3.173-5.494,5-8
			c1.614,2.988-2.806,8.498-4,12c-7.215-0.118-11.189-3.478-17-5C292.166,113.651,295.506,105.784,293.044,99z"/>
		<path fill-rule="evenodd" clip-rule="evenodd" fill="#FFFFFF" d="M378.044,101c-1.704,2.853-6.35,3.87-10,2
			C371.932,98.811,373.829,104.247,378.044,101z"/>
		<path fill-rule="evenodd" clip-rule="evenodd" fill="#FFFFFF" d="M383.044,108c2.26-0.227,7.564,5.077,9,9
			C387.064,115.979,386.685,110.36,383.044,108z"/>
		<path fill-rule="evenodd" clip-rule="evenodd" fill="#FFFFFF" d="M260.044,119c-2.674,1.326-4.967,3.033-8,4
			C253.861,120.817,255.681,118.637,260.044,119z"/>
		<path fill-rule="evenodd" clip-rule="evenodd" fill="#FFFFFF" d="M316.044,124c1.27-4.524,4.013,2.617,6-2
			C324.616,124.977,318.831,125.04,316.044,124z"/>
		<path fill-rule="evenodd" clip-rule="evenodd" fill="#FFFFFF" d="M330.044,131c0.294-2.084,2.706,1.484,3-2
			c1.656,1.01,1.086,4.247,2,6C332.781,134.263,332.855,131.188,330.044,131z"/>
		<path fill-rule="evenodd" clip-rule="evenodd" fill="#FFFFFF" d="M316.044,143c3.656,0.104,11.414,2.708,12,9
			c-1.71,0.21-2.59-1.705-3,0c-1.78-0.733-0.145-1.818,0-3c-4.349,2.318-8.666,4.667-14,6c0.022-2.356-1.723-2.944-1-6
			c1.483,0.85,2.15,2.517,2,5c0.81-0.19,0.997-1.003,2-1c-0.102-2.823-3.769-4.247-1-7c1.357,0.31,0.829,2.504,1,4
			c1.85-0.15,0.613-3.386,2-4c-0.027-0.973-1.224-0.776-2-1c1.067-0.933,0.312-3.689,3-3
			C317.228,142.851,316.654,142.943,316.044,143z"/>
		<path fill-rule="evenodd" clip-rule="evenodd" fill="#FFFFFF" d="M233.044,144c2.051-1.325-2.033,6.849-3,9
			C227.993,154.325,232.077,146.151,233.044,144z"/>
		<path fill-rule="evenodd" clip-rule="evenodd" fill="#FFFFFF" d="M356.044,157c-1.551-1.791,7.753,4.046,6,6
			C358.874,166.104,358.974,157.453,356.044,157z"/>
		<path fill-rule="evenodd" clip-rule="evenodd" d="M300.044,158c2.701-1.388-0.771,5.909,0,9
			C297.455,168.5,300.339,160.615,300.044,158z"/>
		<path fill-rule="evenodd" clip-rule="evenodd" fill="#FFFFFF" d="M378.044,212c-4.019-2.12,3.041-7.512,3-12
			C383.813,203.814,377.702,207.291,378.044,212z"/>
		<path fill-rule="evenodd" clip-rule="evenodd" fill="#FFFFFF" d="M319.044,246c-0.898,3.894-2.414-4.581-3-1
			c-0.384-3.03-0.175-7.232,3-15c2.22,2.379-2.859,7.507,0,11c1.146-0.354,2.534-1.761,1-2
			C325.111,237.182,316.477,244.625,319.044,246z"/>
		<path fill-rule="evenodd" clip-rule="evenodd" fill="#FFFFFF" d="M318.044,248c0.233-0.344,1.605,8.872-3,7
			C315.555,252.177,317.464,250.753,318.044,248z"/>
		<path fill-rule="evenodd" clip-rule="evenodd" fill="#FFFFFF" d="M288.044,104c1.228-2.739,0.729,4.489,3,4
			c-0.679,3.654-1.395,7.271-1,12c-3.25-0.75-6.189-1.811-9-3C282.172,111.461,287.129,109.751,288.044,104z"/>
	</g>
</g>
</svg>
