<?xml version="1.0" encoding="utf-8"?>
<!-- Generator: Adobe Illustrator 12.0.0, SVG Export Plug-In . SVG Version: 6.00 Build 51448)  -->
<!DOCTYPE svg PUBLIC "-//W3C//DTD SVG 1.1//EN" "http://www.w3.org/Graphics/SVG/1.1/DTD/svg11.dtd" [
	<!ENTITY ns_svg "http://www.w3.org/2000/svg">
	<!ENTITY ns_xlink "http://www.w3.org/1999/xlink">
]>
<svg  version="1.1" id="Layer_1" xmlns="&ns_svg;" xmlns:xlink="&ns_xlink;" width="510.5" height="211.522"
	 viewBox="0 0 510.5 211.522" overflow="visible" enable-background="new 0 0 510.5 211.522" xml:space="preserve">
<g>
	<path fill-rule="evenodd" clip-rule="evenodd" fill="#FFFFFF" d="M427.111,51.864c-1.308-2.844-2.103,3.204-5.084,2.034
		c-0.029-0.989-1.245-0.789-2.034-1.017c0-1.695,0-3.39,0-5.084c2.735,4.679,3.029,0.067,9.152,2.034
		c-1.693,2.021,0.091,1.293,0,4.068c-1.825-0.129-2.146,1.245-4.067,1.017C425.951,54.094,425.682,52.129,427.111,51.864
		L427.111,51.864z"/>
	<path fill-rule="evenodd" clip-rule="evenodd" fill="#FFFFFF" d="M174.912,61.016c-0.023-2.396,1.752-2.994,1.017-6.102
		C179.935,54.402,177.784,61.987,174.912,61.016L174.912,61.016z"/>
	<path fill-rule="evenodd" clip-rule="evenodd" fill="#FFFFFF" d="M245.081,55.931c-1.124,2.604-5.46,1.997-9.152,2.034
		C238.404,54.666,240.198,55.305,245.081,55.931L245.081,55.931z"/>
	<path fill-rule="evenodd" clip-rule="evenodd" fill="#FFFFFF" d="M170.845,55.931c4.158,1.845,2.002,3.958,3.051,8.136
		C171.124,63.109,171.569,58.937,170.845,55.931L170.845,55.931z"/>
	<path fill-rule="evenodd" clip-rule="evenodd" fill="#FFFFFF" d="M324.401,55.931c-2.127,2.281-5.675,3.138-8.136,5.085
		C313.043,57.395,320.599,55.901,324.401,55.931L324.401,55.931z"/>
	<path fill-rule="evenodd" clip-rule="evenodd" fill="#FFFFFF" d="M313.215,69.151c3.802,3.043,5.449-4.666,4.068-7.119
		c3.393,0.003,3.471-3.308,7.118-3.051c3.671,4.588-4.935,6.074-2.034,10.169c-5.392-0.406-2.844,0.813-4.067,4.068
		c-1.183-0.166-1.809,0.225-2.034,1.017C314.257,73.533,313.554,71.523,313.215,69.151L313.215,69.151z"/>
	<path fill-rule="evenodd" clip-rule="evenodd" fill="#FFFFFF" d="M457.619,58.982c2.034,0,4.068,0,6.102,0
		c-0.569,2.113-1.586,2.154-3.051,1.017c-2.675-0.301-0.8,3.945-4.067,3.051C456.473,61.226,457.848,60.905,457.619,58.982
		L457.619,58.982z"/>
	<path fill-rule="evenodd" clip-rule="evenodd" fill="#FFFFFF" d="M250.166,66.101c2.441-3.351-0.562,7.26,2.034,7.119
		c-0.669,3.045-2.174-0.973-4.068,0C250.318,72.356,250.489,69.475,250.166,66.101L250.166,66.101z"/>
	<path fill-rule="evenodd" clip-rule="evenodd" fill="#FFFFFF" d="M188.132,76.27c2.853,1.626-1.428,4.578,0,8.135
		c-2.388-0.324-2.277-3.147-4.067-4.067C184.704,78.264,189.204,80.052,188.132,76.27L188.132,76.27z"/>
	<path fill-rule="evenodd" clip-rule="evenodd" fill="#FFFFFF" d="M173.896,77.287c2.836,2.248,3.611,6.559,5.084,10.169
		c-3.427-1.503-2.949-3.045-6.102-3.051C172.381,81.196,174.712,80.814,173.896,77.287L173.896,77.287z"/>
	<path fill-rule="evenodd" clip-rule="evenodd" fill="#FFFFFF" d="M311.182,86.439c-0.405,2.984-3.337,3.442-4.068,6.102
		C304.35,90.364,308.437,86.475,311.182,86.439L311.182,86.439z"/>
	<path fill-rule="evenodd" clip-rule="evenodd" fill="#FFFFFF" d="M4.068,91.524c0.852,2.538,4.639,2.141,4.067,6.102
		C6.405,98,6.217,96.833,6.102,95.592c-0.989,0.028-0.789,1.245-1.017,2.034C2.839,97.499,4.653,93.312,4.068,91.524L4.068,91.524z"
		/>
	<path fill-rule="evenodd" clip-rule="evenodd" fill="#FFFFFF" d="M0,96.608c0-1.017,0-2.034,0-3.051
		c1.3-0.055,1.408-1.303,3.051-1.017c0,2.373,0,4.746,0,7.119C0.706,99.971,1.921,96.721,0,96.608L0,96.608z"/>
	<path fill-rule="evenodd" clip-rule="evenodd" fill="#FFFFFF" d="M385.417,116.947c4.07,0.637-2.494,6.537-1.017,11.186
		C381.342,125.007,384.84,119.81,385.417,116.947L385.417,116.947z"/>
	<path fill-rule="evenodd" clip-rule="evenodd" fill="#FFFFFF" d="M380.333,126.1c2.952,1.369,1.196,3.403,4.067,6.102
		C381.733,134.569,379.998,129.842,380.333,126.1L380.333,126.1z"/>
	<path fill-rule="evenodd" clip-rule="evenodd" d="M396.604,139.32c2.702,2.382,7.414,2.755,9.152,6.102
		c1.034-0.661,1.052-2.338,3.051-2.034c-1.689,6.618-11.136-0.446-15.254-1.017C393.866,138.341,397.083,143.508,396.604,139.32
		L396.604,139.32z"/>
	<path fill-rule="evenodd" clip-rule="evenodd" d="M449.484,154.574c-1.336-1.037-3.749-0.997-5.085-2.034
		c0.193-0.824,1.02-1.015,1.017-2.034C447.702,152.858,447.704,150.138,449.484,154.574L449.484,154.574z"/>
	<path fill-rule="evenodd" clip-rule="evenodd" fill="#FFFFFF" d="M500.331,160.675c0.727-1.648-4.795-1.648-4.068,0
		c-0.402,0.178-0.214,8.145,2.034,7.119c-0.156-2.819-2.096-5.986,1.017-4.068c0.044-1.399-0.479-2.234-1.017-3.051
		C499.959,160.583,502.721,162.369,500.331,160.675L500.331,160.675z M466.771,154.574c3.657,4.963,6.479,8.514,5.085,12.203
		c0.244-1.908,1.675,0.578,2.034-1.017c-1.734-0.417,0.214-1.311,0-3.051c-4.074,0.557-0.004-4.391,1.017-5.085
		c-1.795,0.227-6.01-3.755-4.067-1.017c1.104,0.244,2.441,1.675,1.017,2.034c-1.354-1.019-3.069-1.676-4.067-3.051
		c2.813-0.917,4.786-2.669,6.102-5.085C469.105,149.449,471.465,155.538,466.771,154.574L466.771,154.574z M457.619,151.523
		c-0.16-2.766,4.153-1.643,6.102-1.017C463.112,146.486,454.131,148.915,457.619,151.523L457.619,151.523z M486.094,132.201
		c0.688-2.023,3.379,1.005,4.067-1.017c-2.522-0.528-3.623-2.479-5.084-4.067c0.304,2-1.374,2.017-2.034,3.051
		c1.399,0.043,2.232-0.479,3.051-1.017C486.495,130.899,484.584,131.758,486.094,132.201L486.094,132.201z M487.11,128.133
		c1.811-0.607,4.223,2.981,5.085,0c-6.806-1.162,5.48-3.156,1.017-5.084C491.411,124.977,488.911,126.204,487.11,128.133
		L487.11,128.133z M451.518,144.404c1.278,0.417,2.079,1.311,2.034,3.051c-0.617-0.585-4.824-2.379-5.085,0
		c1.345,0.012,0.93,1.782,2.034,2.034c0.228-0.79,0.028-2.005,1.017-2.034c0.013,1.344,1.782,0.93,2.034,2.034
		c-1.81,0.563-4.223,0.521-5.085,2.034c1.4-0.043,2.232,0.478,3.051,1.017c0.229-0.79,0.028-2.005,1.018-2.034
		c0.529,1.506,1.504,2.563,2.033,4.068c-0.789,0.228-2.006,0.029-2.033,1.017c8.449-0.624-0.271-4.154,2.033-11.187
		C452.819,144.806,451.962,142.895,451.518,144.404L451.518,144.404z M445.416,150.506c0.003,1.02-0.823,1.21-1.017,2.034
		c1.336,1.037,3.749,0.997,5.085,2.034C447.704,150.138,447.702,152.858,445.416,150.506L445.416,150.506z M463.721,159.658
		c-1.894,0.972-3.398-3.045-4.067,0c5.611-0.279-2.947,4.021,0,4.068c2.585-3.917,1.705,5.158,4.067,1.017
		c-3.588-0.299,3.588-2.751,0-3.051C461.417,164.674,461.417,160.013,463.721,159.658L463.721,159.658z M393.553,142.371
		c4.118,0.571,13.564,7.635,15.254,1.017c-1.999-0.305-2.017,1.373-3.051,2.034c-1.738-3.346-6.45-3.72-9.152-6.102
		C397.083,143.508,393.866,138.341,393.553,142.371L393.553,142.371z M283.724,61.016c3.142-2.339,0.424-7.079-1.017-7.119
		c1.979-2.242,2.874-3.369,5.085-7.119c-3.987-1.276-3.151-0.777-4.068,1.017c-0.012-1.344-1.782-0.93-2.034-2.034
		c4.199-1.892-0.386-2.635-1.017-3.051c1.468-1.244,1.542-3.881,3.051-5.085c-1.771-0.076-3.164,0.227-4.068,1.017
		c-1.129-3.192-0.475-2.687,1.017-5.084c-2.774-0.741-2.047,2.021-4.068,2.034c-2.491-1.352,1.118-3.784-1.017-4.068
		c-0.216,1.141-1.13,1.583-2.034,2.034c0.18-4.2-3.435-3.022-4.067-4.068c3.042-3.674-0.313-2.555,0-8.136
		c1.197-0.159,2.886,0.175,3.051-1.017c-3.3-2.792-3.839,3.691-6.102,5.084c0.779-2.598,1.499-4.675-1.017-6.102
		c-1.298,2.545,0.516,3.183-1.017,4.068c-1.344-0.012-0.93-1.782-2.034-2.034c0.054,1.75-0.783,2.607-2.034,3.051
		c-0.494-1.202-1.084-2.305-2.034-3.051c0.547,4.918-0.862,3.869-3.051,2.034c-0.044,1.399,0.479,2.233,1.017,3.051
		c-3.98-1.606-2.106,2.64-4.068,3.051c-1.599-3.718-1.52,2.362-4.068,1.017c-0.006-2.8-1.828-5.384-4.067-3.051
		c-2.125-1.92,0.925-8.277-1.017-6.102c-1.944,3.17-3.64-2.366-5.085-3.051c-0.94,2.449-1.855,4.924-3.051,7.119
		c-0.159-1.197,0.175-2.887-1.017-3.051c-0.305,4.865-1.614,4.502-7.119,4.068c1.892,4.199-0.772,3.021-2.034,4.067
		c1.45,0.397,1.715,1.221,3.051,0c-2.039,2.071-0.266,2.709,1.017,4.068c-3.438-0.386-4.339,1.763-6.102,3.051
		c1.521,0.173,3.753-0.363,4.068,1.017c-3.198-1.165-2.471,1.597-4.068,2.034c-1.074-2.867-4.03-1.269-2.034-5.084
		c-3.419,1.918-3.333-4.604-5.084-1.017c1.81,0.493-0.441,1.084-1.017,2.034c3.924,1.839,7.098,4.426,10.169,7.118
		c-3.517-1.68,1.066,4.34,2.034,8.136c-4.518,1.245-5.625,5.899-10.169,7.118c1.14,0.215,1.583,1.129,2.034,2.034
		c-9.04-5.104,10.44,20.362,15.254,10.169c-5.077,5.271-5.054,11.455,2.034,16.271c2.232-2.982,4.168-0.363,7.119-3.051
		c-0.712,3.13-0.712,1.955,0,5.085c4.684,1.293,1.621-5.158,4.068-6.102c-1.077,2.579,2.141,5.796,3.051,3.051
		c-2.194-1.305,1.554-4.059-2.034-5.085c2.976,0.753,5,2.459,7.119,4.068c-1.105,0.244-2.442,1.674-1.017,2.034
		c1.77-3.327,4.591,6.12,7.119,2.034c-4.547-2.079,5.328-1.739,3.051-6.102c-0.31,1.232,2.938,3.506,3.051,1.017
		c-4.612-3.075,1.133-0.261,2.034-2.034c-1.279-0.417-2.079-1.312-2.034-3.051c1.451-0.396,1.715-1.221,3.051,0
		c0.242-3.371-2.024-4.411-1.017-6.102c0.648,0.854,4.753,3.183,5.084,1.017c-3.886,0.752-1.161-3.748,0-4.068
		c17.221,4.403-11.373-5.364-11.187-5.085c0.792,0.225,1.183,0.852,1.017,2.034c-1.02-0.003-1.21,0.824-2.034,1.017
		c-1.781-3.304-4.571-5.599-8.136-7.118c2.042-3.543-0.45,0.085-1.017-2.034c0.216-1.141,1.129-1.583,2.034-2.034
		c10.784,2.184,14.633,2.164,18.305,11.186c1.307-1.743,2.103-3.999,5.085-4.067c-0.113,1.921-3.361,0.706-3.051,3.051
		c1.399,0.043,2.233-0.479,3.051-1.017c-2.092,2.834,4.053,4.229,5.084,7.119c-0.283-2.318,0.245-3.823,2.034-4.068
		c-3.1,8.093,5.959,11.124,11.187,18.305c0.747-1.706,3.085-6.977,5.085-4.067c-7.73,2.763,2.598,15.418,4.067,10.169
		c0.458,5.738,8.536,7.682,12.203,10.169c19.481,13.219,47.101,31.055,74.236,36.61c-0.62,0.057-1.204,0.152-1.018,1.017
		c6.641-5.073,8.784-0.416,16.271,1.017c0.305-2-1.373-2.017-2.034-3.051c5.671-0.924,2.898,6.593,6.102,8.135
		c-1.793-0.888-3.148-3.403-4.067,0c15.236,8.424,37.937,13.469,46.778,22.373c2.545,1.343,3.184-4.02,4.068-1.017
		c15.363,4.889,28.229,14.49,42.711,17.288c-3.829-0.441-4.306-4.231-8.136-2.034c0.244-1.451,1.675-1.715,2.034-3.051
		c-4.349,1.569-5.184-5.573-7.118-3.051c1.332,0.016,1.295,2.821,0,3.051c-3.203-5.004-14.574-8.024-8.136-12.203
		c-2.756,0.04-6.283,0.216-9.152,3.051c-3.649-4.73-11.491-6.331-16.271-7.119c2.087,1.165,4.848-1.597,2.034-2.034
		c-0.919,2.775-2.274-3.093-4.067,0c-1.838-2.569-1.598-7.217-6.102-7.119c-0.896,3.268,3.353,1.394,3.051,4.067
		c-3.768,0.589-6.291-2.741-4.068-5.084c-6.358,2.569-9.674-2-12.203-6.102c2.916,0.524,5.316,6.819,8.136,4.068
		c-2.082,0.269-4.709-3.946-3.051-4.068c1.752,0.96,1.664,3.759,5.085,3.051c0.305-2-1.373-2.017-2.034-3.051
		c0.789-0.228,2.005-0.029,2.034-1.017c-3.03-2.232-3.717-0.21-4.068,1.017c-0.571-4.174-5.909-3.582-8.135-6.102
		c-0.452-3.435,3.956,1.262,2.033-4.068c1.793,1.915,3.149-1.39,4.068,2.034c-0.113,1.921-3.361,0.707-3.051,3.051
		c5.065-0.955,4.991,1.332,9.152,3.051c2.857-2.771-5.912-7.771,1.017-9.152c-1.361,3.972,1.448,6.455,3.051,9.152
		c0.591-3.98-0.877-5.903-2.034-8.136c3.191,1.151,2.686-0.292,5.085,1.017c3.024-3.371-3.216-4.412-1.017-6.102
		c2.024,3.356,4.343-2.521,5.084,0c0.059,0.62,0.152,1.204,1.018,1.017c-1.552-3.186,0.283-5.615,3.051-7.118
		c-1.919,4.705,1.248-1.535,4.067-1.017c-1.82,3.942-5.38,6.144-7.118,10.169c4.481-1.483,9.387-12.71,10.169-11.187
		c-3.799,1.087-2.898-2.525-6.102-2.034c0.268,3.318-3.163,2.938-4.067,5.084c0.395-4.013,4.134-4.679,6.102-7.118
		c-5.395,2.988-11.814,5.916-15.254,11.186c-3.131-2.391-0.405-0.604,0-4.068c-1.479-0.556-5.256,1.189-5.085-1.017
		c5.655,1.686,2.075-5.705,8.136-3.051c-2.503-1.581-2.99,3.453-1.018,3.051c2.272-2.958,11.634-6.335,15.254-8.136
		c0.092,1.603,2.595,0.796,2.034,3.051c-1.352-1.321-3.784-1.341-4.067,1.017c2.881,2.333,6.725-2.194,8.135,2.034
		c-1.749-0.054-2.606,0.783-3.051,2.034c4.198-0.209,4.846-3.969,8.136-5.085c-2.522,6.104,7.708-7,9.152,0
		c-10.692,0.031-10.939,7.488-20.339,7.119c-0.446,0.967-5.103,9.474-7.118,9.152c2.131,0.919,0.361,5.74,3.051,6.102
		c1.745-2.598-1.165-3.559,1.017-5.084c-1.628,2.831,4.393,2.813,4.068,1.017c-1.197-0.159-2.887,0.175-3.051-1.017
		c3.81-3.3,7.675,8.175,5.084,2.034c1.018,0,2.034,0,3.051,0c-0.324,2.358,0.163,3.904,1.018,5.085c8.691-0.059,4.331-0.47,0-2.034
		c3.092-1.018,1.298-1.676,0-3.051c2.344,0.31,1.129-2.938,3.051-3.051c2.25,1.464-1.28,2.481,1.017,3.051
		c2.953-2.86-1.526-2.783-2.034-5.084c1.021,0.002,1.211-0.824,2.034-1.017c0.125,2.587,1.48,3.943,4.067,4.068
		c14.561-4.476-2.521,1.215-6.102-5.085c-0.012,1.344-1.782,0.93-2.033,2.034c1.005,2.173-0.491,1.075-1.018,5.084
		c-2.751-2.096-6.564-4.699-8.135-5.084c0.261-2.112,4.468-0.278,5.084-2.034c-0.888,1.793-3.402,3.149,0,4.068
		c-0.24-4.307,2.967-5.169,4.068-8.135c-3.141-0.032-5.254,6.193-8.136,3.051c1.514-4.951,15.814-6.246,15.254-2.034
		c1.679-0.016,0.569-2.82,2.034-3.051c2.25,1.465-1.28,2.481,1.017,3.051c-1.316-9.51,9.654-6.526,15.254-10.169
		c-0.002,1.02,0.824,1.21,1.018,2.034c-3.344-0.742-1.558,2.021,0,2.034c-0.055-1.749,0.782-2.607,2.033-3.051
		c0.401,1.75-1.509,2.607,0,3.051c0.845-3.596,4.903-4.584,8.136-3.051c1.107-4.158-3.5-2.602-4.067-5.084
		c-2.428,4.878-7.864,2.19-10.17,2.034c-19.189-1.308-72.396-5.378-80.337-9.152c-18.431,2.306-38.521-7.387-55.932-6.102
		c-11.722-3.103-19.566-7.947-30.508-12.203c-15.64-6.084-22.779-14.066-31.525-21.355c-1.943-1.62-4.048-0.748-5.084,0
		c2.337-3.332-4.714-4.305-6.102-7.119C284.953,62.834,284.349,61.921,283.724,61.016L283.724,61.016z M303.046,31.525
		c0.778,8.336,0.866,10.92,2.034,18.305c-1.735-1.225-7.787-0.257-10.17,1.017c1.365,0.668,1.894,2.173,2.034,4.068
		c-1.521,0.173-3.753-0.364-4.067,1.017c0.116,1.517,1.333,4.566,3.051,7.119c2.545-0.127,3.183-1.941,4.067,1.017
		c-4.364-1.458,3.502,6.99-3.051,8.135c3.237,1.308,7.917,3.221,10.169,0c0.178,4.217,5.034-0.942,7.119,2.034
		c-0.003,2.127-5.539,3.822-3.051,5.084c2.022-2.507,3.685,4.984,3.051,5.084c4.599-4.262,0.897,2.794,4.067,2.034
		c5.228-1.253,5.094-13.774,11.187-12.203c-2.532,2.908-4.708,10.97,0,6.102c-0.547,7.332,2.043-0.694,3.051,5.084
		c3.788-0.082,3.282-1.524,5.084,1.017c0.273-4.236,6.279-1.441,2.034-5.085c1.771,0.076,3.163-0.227,4.067-1.017
		c-2.058,2.089,0.415,2.029,2.034,3.051c-0.001-3.694,1.753-2.636,5.085-2.034c-1.429-3.558,2.852-6.509,0-8.135
		c0.254,1.283-3.72-1.586-5.085-2.034c0.865-1.508,2.56-2.186,5.085-2.034c0.895-3.267-3.353-1.394-3.051-4.068
		c6.485,0.532,11.479,0.599,18.305-4.067c12.706,6.615,31.898,6.745,46.779,11.186c-3.997,2.775,2.715,3.575,0,8.136
		c4.387-1.535,6.006,4.71,10.169,3.051c-0.147,1.202-1.812,2.305,0,3.051c0.215-1.141,1.128-1.583,2.034-2.034
		c-1.892,5.796,0.771-0.101,2.033,2.034c-2.317,2.301,0.69,4.471,2.034,6.102c0.228-0.79,0.027-2.006,1.017-2.034
		c1.142-0.103,1.584,1.479,2.034,0c-0.139-2.61-0.287-7.658,3.051-10.169c2.09,0.284,2.03,2.716,3.051,4.067
		c-1.374-0.32-1.942-1.447-4.067-1.017c1.981,3.631,2.338,4.029,0,8.135c5.166-1.892,0.222,0.772,4.067,2.034
		c0.228-0.789,0.027-2.006,1.017-2.034c0.514,2.984,1.923,0.582,3.051,4.068c0.118-5.405,0.192-0.818,3.051-1.017
		c0.174-1.521-0.362-3.753,1.018-4.068c0.417,1.278,1.311,2.079,3.051,2.034c2.772-2.757-2.63-2.531-2.034-6.102
		c2.071,0.302,2.709,2.036,4.067,3.051c1.179-3.882,5.776,1.018,5.085-4.068c-0.055,1.749,0.782,2.607,2.034,3.051
		c0.492-1.202,1.084-2.305,2.033-3.051c14.707,3.255,29.427,9.128,46.779,12.203c0-4.068,0-8.135,0-12.203
		c-12.772-1.113-28.073-9.445-38.644-6.102c0.003-1.021-0.823-1.21-1.017-2.034c2.188,1.061,5.787-1.723,4.067-3.051
		c2.923,0.21,5.166-0.258,6.102-2.034c-3.193-0.697-4.155,0.117-5.085-1.017c1.94-1.909,1.841,0.604,5.085,0
		c-0.214-4.225-6.329-3.156-7.118-4.067c8.929-5.119,23.78,2.797,36.609,3.051c0-2.034,0-4.068,0-6.102
		c-9.762-2.102-21.589-2.14-29.491-6.102c6.102,0.028-1.373-1.4,3.051-3.051c-5.301,0.091-3.913-4.248-5.085-6.102
		c-0.112,0.809-3.36,3.083-3.051,1.017c5.243-3.257-1.267-2.181,5.085-6.102c-1.203-2.504-3.841,2.083-5.085-1.017
		c1.278-0.417,2.079-1.312,2.034-3.051c-3.059,1.024-1.802-2.266-2.034-4.068c-2.545-1.343-3.183,4.021-4.067,1.017
		c0.792-0.225,1.183-0.852,1.017-2.034c-1.24-0.115-2.407-0.304-2.033-2.034c0.563,0.003,1.154-0.824,0-1.017
		c-1.478,2.59-5.405,2.729-7.119,5.085c0.182-5.711-3.435,3.534-4.067,0c3.083-2.41,0.71-6.841,3.051-10.169
		c-2.525-1.323-4.22,2.983-5.085,0c2.098,0.894,3.853-3.352,2.034-3.051c-1.309,1.743-2.103,3.999-5.085,4.067
		c-0.31-2.345,2.938-1.129,3.051-3.051c-4.128-0.228-6.456,2.711-7.118,5.085c-0.678,0-1.355,0-2.034,0
		c4.924-7.177,0.726,0.666-2.033-3.051c-0.174,1.521,0.362,3.753-1.018,4.067c-0.569-1.464-1.586-2.481-3.051-3.051
		c-1.619,6.635-9.597,5.535-14.236,1.017c-0.973,1.894,3.045,3.399,0,4.068c0.054-1.75-0.783-2.607-2.034-3.051
		c-1.397,2.318,2.622,3.823,0,4.068c-0.862-2.981-3.274,0.607-5.085,0c1.461,5.527-3.191,4.943-3.051,9.152
		c1.305,1.746,6.08,0.021,6.102,3.051c-3.467-1.998-2.418-0.589-2.033,3.051c-2.677,1.701-3.426,4.145-6.102,1.017
		c-3.41,3.5-2.825,7.08-6.103,7.119c1.776,0.936,2.245,3.179,2.034,6.102c-17.152,0.196-31.358-6.137-45.762-7.119
		c5.752,1.646,9.1,2.884,11.187,4.068c-1.02-0.003-1.211,0.824-2.034,1.017c-8.771-4.346-8.472-1.491-16.271-2.034
		c1.921-0.451,6.129,1.383,5.084-2.034c-2.537,0.716-4.179,1.001-6.102-1.017c3.602-0.112-2.161-3.362,1.018-3.051
		c0.861,1.512,3.274,1.472,5.084,2.034c0.393-3.049,4.88-7.256,3.051-9.152c-0.225,0.792-0.852,1.182-2.033,1.017
		c1.773-2.073-0.758-1.994,1.017-4.067c-3.914-1.885-6.934-6.385-4.067-10.169c-5.099,2.965-3.745-1.43-6.103,3.051
		c-0.529-1.505-1.504-2.563-2.033-4.068c5.792,2.061,1.537-2.4,4.067-5.084c-1.521,2.205-4.243,1.995-5.085,1.017
		c1.713-0.002,5.193-5.54,3.051-3.051c-2.024-0.212-4.343,4.312-5.084,2.034c1.511-1.865,2.73-3.443,0-5.085
		c-0.174,1.521,0.362,3.753-1.018,4.068c-2.493-1.354,1.833-3.069-1.017-4.068c0.131,1.826-1.01,2.38-3.051,2.034
		c-0.47-5.106-3.426-5.141-6.102-3.051c-0.972-1.895,3.046-3.399,0-4.068c-1.64-0.847-7.385,4.965-5.085,1.017
		c-3.396,0.206-2.694,5.133-5.084,1.017c-0.854,1.181-1.342,2.727-1.018,5.085c-1.399-0.044-2.233,0.479-3.051,1.017
		c1.125-3.167,0.657-3.635-2.033-2.034c-0.152-1.354,4.134-3.069,1.017-4.068c-0.569,2.946-1.586-1.56-3.051-1.017
		c1.662,3.34,0.882,4.998-2.034,6.102c1.201,0.493,2.306,1.084,3.051,2.034c-1.02-0.003-1.21,0.824-2.033,1.017
		c-0.627-5.259-2.019,2.37-4.068,2.034c-0.972-1.894,3.046-3.399,0-4.068c-0.663,5.974-4.332-0.409-6.102,2.034
		C306.409,27.745,306.997,32.754,303.046,31.525L303.046,31.525z M0,142.371c37.946-8.833,73.311-20.246,101.693-38.644
		c2.571,4.304,9.578-0.092,9.152-5.084c2.362,0.445,2.722,4.49,5.084,2.034c-0.028-0.989-1.245-0.789-2.034-1.017
		c0.413-2.533,3.942-0.061,3.051,2.034c1.192-0.164,0.858-1.854,1.017-3.051c3.201,6.35,3.727-2.125,5.084,4.068
		c6.532-2.775-2.647-5.491,5.084-4.068c1.328-1.396-3.382-5.381-3.051-9.152c0.625-1.41,3.915-0.153,4.068-2.034
		c2.782,0.926-1.805,3.563,1.017,5.085c1.36-0.703-0.502-2.712,1.017-5.085c3.002,1.463,6.006-4.464,12.204-3.051
		c-1.958,3.618,3.354,5.182,2.034,7.119c1.427,2.336,4.115-2.583,5.084-4.068c0.803-0.382,0.347,6.353,3.051,3.051
		c2.553,0.433-0.977,2.906-3.051,2.034c3.505,1.693,2.82,1.885,0,4.067c4.439,1.389,2.165-3.938,6.102-3.051
		c-2.424,2.751,6.552,1.777,3.051,6.102c1.307,1.403,2.103,0.271,5.085,0c1.087,3.799-2.524,2.898-2.034,6.102
		c2.386,0.248,6.107,0.756,4.068-3.051c2.647,1.732,5.195,2.375,2.034,5.084c3.576-1.645,3.919-1.988,6.102-6.102
		c0.989,0.028,0.79,1.245,1.017,2.034c0.961-3.784,5.204-4.288,7.119-7.119c0.949,0.746,1.541,1.849,2.034,3.051
		c0.755-0.098,0.755-3.97,0-4.068c5.342,2.733,6.913,2.447,12.203,2.034c3.046-0.668-0.972-2.173,0-4.068
		c0.82,0.875,2.786,0.604,3.051,2.034c1.052-2.037-1.238-2.971-2.034-6.102c1.505,0.529,2.563,1.505,4.068,2.034
		c0.13-3.858-4.604-2.854-5.085-6.102c3.199,0.508,3.976-2.217,6.102,0c-3.872-2.513,1.3-3.009-1.017-5.084
		c5.955-1.668,2.431-6.499,8.135-8.136c-0.246-2.622-1.75,1.396-4.067,0c0.992-1.041,2.009-2.058,3.051-3.051
		c-1.136-1.576-3.306-2.118-3.051-5.084c-3.247,2.173-3.02,1.488-6.102,0c-0.073-3.463,2.991-3.789,5.085-5.085
		c-0.669-3.045-2.174,0.973-4.068,0c2.373-4.975-1.401-5.819-2.034-12.203c-0.904,0.451-1.818,0.893-2.034,2.034
		c-1.818,0.301-0.063-3.945,2.034-3.051c-1.467-2.031-4.095,1.591-3.051-4.068c-1.197,1.936-2.553,2.355-4.068,0
		c-2.484,7.26-2.419-0.977-5.084,6.102c0.22-3.288-1.087-3.775-2.034-7.119c-1.837,4.786-4.859-2.466-3.051-4.067
		c-3.427,0.293-4.682,1.07-5.084-3.051c-1.187,1.925-2.937,2.739-3.051-1.017c-0.95,0.746-1.541,1.849-2.034,3.051
		c-2.244-0.807-1.322-4.78-4.067-5.085c3.249,3.278-3.765,2.768-1.017,6.102c-0.96,2.497-4-1.307-4.068-3.051
		c0.107,4.637-1.1,4.461-1.017,9.152c-1.193-1.519-4.227-1.198-4.068-4.068c-1.867,2.506-2.536,3.667-5.084,1.017
		c0.961,5.711,0.458,1.971-2.034,5.084c1.977,2.953,3.357,2.638,2.034,7.119c-4.401-3.179-3.919,8.73-8.136,6.102
		c-2.316,3.278-4.517,8.505,3.051,10.169c-0.438,2.274-5.011,0.412-7.119,1.017c1.579,3.057,4.423,5.97,8.136,4.068
		c-1.862,4.142-4.294,1.667-7.119,4.068c-4.204-0.882-5.688-4.482-7.119-8.136c-1.251,0.444-2.088,1.302-2.034,3.051
		c-2.241-1.148-5.61-1.169-6.102-4.068c13.329,2.382,13.353-7.979,11.186-15.254c-0.627-1.192-4.432,1.254-3.051-4.067
		c-1.625,1.426-2.598,3.503-3.051,6.102c-1.729-4.267-3.12,1.997-6.102-1.017c0.193-1.155,1.021-0.565,1.017,0
		c3.401,0.243,0.445-3.777,3.051-6.102c-1.488,2.359-3.223-1.987-3.051,2.034c-0.352-7.258-4.484-6.802-7.119-13.22
		c-3.433,0.295-3.633,3.825-8.135,3.051c1.14,3.203,0.092,2.302,0,6.102c-3.33,0.28-9.149,1.693-9.152-4.068
		c-1.167,0.359-2.578,1.79-1.017,2.034c-2.018,0.174-3.43-6.117-7.119-11.186c-1.403,0.894,2.687,4.085,0,7.119
		c0.989-0.028,0.79-1.245,1.017-2.034c2.757,0.9-1.618,6.646-2.034,2.034c-2.066-0.312,0.208,2.938,1.017,3.051
		c-1.69,1.924-2.73-0.343-6.102-1.017c-1.147,0.239,0.104,6.596,3.051,6.102c-5.838,3.853-5.765,6.315-11.186,6.102
		c-0.996,2.162-0.435,3.787-3.051,6.102c3.73-1.692,1.58,2.9-1.017,2.034c0.574,4.79,10.454,9.02,14.237,4.068
		c3.837,1.653-6.002,3.301-3.051,4.068c-0.754,1.015-6.529-1.549-9.153-2.034c-0.963,3.675,4.006,1.418,6.102,2.034
		c-17.456,3.561-34.512,7.521-54.915,8.135c0.317-2.9,5.378-0.354,2.034-4.067c1.028-1.685,4.319-1.104,6.102-2.034
		c0.485-4.407-8.686-2.774-5.084-7.119c-2.318-0.284-3.823,0.245-4.068,2.034c0.337-2.037-3.703-3.043-3.051-8.136
		C17.063,58.613,9.6,50.916,2.034,49.83c0.451,0.905,0.893,1.819,2.034,2.034C3.183,54.867,2.545,49.504,0,50.847
		C0,33.898,0,16.949,0,0c170.167,0,340.333,0,510.5,0c0,70.507,0,141.015,0,211.522c-170.167,0-340.333,0-510.5,0
		C0,188.471,0,165.421,0,142.371L0,142.371z"/>
	<path fill-rule="evenodd" clip-rule="evenodd" d="M5.084,97.625c0.228-0.789,0.028-2.006,1.017-2.034
		C6.217,96.833,6.405,98,8.135,97.625c0.572-3.961-3.215-3.564-4.067-6.102C4.653,93.312,2.839,97.499,5.084,97.625L5.084,97.625z
		 M69.151,81.354c-6.362-2.182-23.085,2.595-31.525,5.085c0.156,2.979,0.493,3.118,3.051,5.084
		c-1.959,0.413-0.803,3.942-4.068,3.051c-2.569-1.499-4.543-3.592-8.135-4.068c-0.735,3.108,1.04,3.707,1.017,6.102
		c-1.452-0.244-1.716-1.674-3.051-2.034c-1.381,4.432,2.422,3.679,3.051,6.102c-2.56,6.601-3.876,7.842-5.085,12.203
		c-1.356,0-2.712,0-4.067,0c0.599-3.65-1.182-4.92-2.034-7.118c-4.014,3.612-5.529-3.851-8.135-1.017
		c4.407,0.747,0.914,3.084,4.067,5.084c0.228-0.789,0.028-2.006,1.017-2.034c0,1.356,0,2.712,0,4.068
		c-3.362-1.979-4.275-1.063-3.051,3.051c-2.136-2.5-5.21,3.288-8.135,0c16.406,3.258,43.296-4.077,57.965-9.152
		c9.412,0.586,26.426-5.426,29.491-11.187c-0.266,1.43-2.23,1.159-3.051,2.034c0.32-1.375,1.447-1.942,1.017-4.067
		c-4.25,3.165-5.015-6.002-6.102-8.136c-0.919,1.793-2.275,3.149-4.068,4.068c0.185-3.899-0.833-0.369-3.051-1.017
		c0.84-2.874-1.434-2.634-1.017-5.084c1.749-0.401,2.607,1.509,3.051,0c-1.278-0.417-2.078-1.312-2.034-3.051
		c0.789-0.228,2.006-0.028,2.034-1.017c-3.461-0.265-9.197,4.135-5.084,0C69.955,77.412,71.11,80.941,69.151,81.354L69.151,81.354z
		 M172.878,84.405c3.153,0.005,2.674,1.548,6.102,3.051c-1.474-3.61-2.248-7.921-5.084-10.169
		C174.712,80.814,172.381,81.196,172.878,84.405L172.878,84.405z M184.065,80.338c1.791,0.92,1.68,3.743,4.067,4.067
		c-1.428-3.558,2.853-6.509,0-8.135C189.204,80.052,184.704,78.264,184.065,80.338L184.065,80.338z M108.812,86.439
		c-0.111-2.53-1.905-3.148,0-5.085c-1.999-0.304-2.017,1.373-3.051,2.034c0.801-3.512-0.951-4.473-3.051-5.085
		c-0.138,2.315-6.121,3.939-3.051,6.102c0.932-2.521-0.261,4.62,5.085,3.051C105.029,80.814,110.935,89.156,108.812,86.439
		L108.812,86.439z M99.659,75.253c-0.265,1.43-2.23,1.159-3.051,2.034c-0.172,2.545,1.563,3.183,3.051,4.067
		c-0.212-2.024,4.312-4.344,2.034-5.084c-0.325,1.177-3.147,4.79-4.068,2.034C99.72,79.196,102.192,75.666,99.659,75.253
		L99.659,75.253z M99.659,65.083c-1.044-3.417,3.163-1.583,5.085-2.034c-0.044-1.399,0.479-2.233,1.017-3.051
		c-1.399,0.044-2.233-0.479-3.051-1.017c2.857,4.973-6.686,2.384-8.135,3.051C96.373,62.947,97.543,64.488,99.659,65.083
		L99.659,65.083z M173.896,64.067c-1.048-4.178,1.107-6.291-3.051-8.136C171.569,58.937,171.124,63.109,173.896,64.067
		L173.896,64.067z M175.929,54.915c0.735,3.107-1.04,3.706-1.017,6.102C177.784,61.987,179.935,54.402,175.929,54.915
		L175.929,54.915z M0,50.847c2.545-1.343,3.183,4.021,4.068,1.017c-1.141-0.215-1.583-1.129-2.034-2.034
		c7.566,1.086,15.03,8.783,22.373,9.152c-0.652,5.093,3.388,6.099,3.051,8.136c0.245-1.789,1.75-2.318,4.068-2.034
		c-3.601,4.344,5.569,2.712,5.084,7.119c-1.782,0.93-5.074,0.35-6.102,2.034c3.344,3.714-1.717,1.167-2.034,4.067
		c20.402-0.614,37.458-4.575,54.915-8.135c-2.096-0.616-7.065,1.641-6.102-2.034c2.624,0.485,8.398,3.049,9.153,2.034
		c-2.952-0.767,6.888-2.415,3.051-4.068c-3.783,4.952-13.663,0.722-14.237-4.068c2.597,0.867,4.747-3.726,1.017-2.034
		c2.616-2.314,2.055-3.939,3.051-6.102c5.421,0.213,5.348-2.249,11.186-6.102c-2.947,0.495-4.198-5.863-3.051-6.102
		c3.372,0.674,4.412,2.941,6.102,1.017c-0.809-0.113-3.083-3.362-1.017-3.051c0.416,4.612,4.791-1.134,2.034-2.034
		c-0.228,0.789-0.028,2.006-1.017,2.034c2.687-3.034-1.403-6.225,0-7.119c3.689,5.069,5.101,11.36,7.119,11.186
		c-1.561-0.244-0.149-1.674,1.017-2.034c0.003,5.761,5.823,4.348,9.152,4.068c0.092-3.799,1.14-2.899,0-6.102
		c4.502,0.774,4.702-2.756,8.135-3.051c2.634,6.418,6.767,5.962,7.119,13.22c-0.172-4.021,1.563,0.326,3.051-2.034
		c-2.606,2.325,0.35,6.345-3.051,6.102c0.003-0.565-0.824-1.155-1.017,0c2.982,3.014,4.373-3.25,6.102,1.017
		c0.453-2.598,1.426-4.676,3.051-6.102c-1.381,5.321,2.423,2.875,3.051,4.067c2.167,7.275,2.143,17.636-11.186,15.254
		c0.491,2.899,3.86,2.919,6.102,4.068c-0.054-1.749,0.783-2.607,2.034-3.051c1.431,3.654,2.915,7.253,7.119,8.136
		c2.824-2.401,5.257,0.074,7.119-4.068c-3.712,1.902-6.557-1.011-8.136-4.068c2.107-0.605,6.681,1.257,7.119-1.017
		c-7.567-1.664-5.367-6.891-3.051-10.169c4.217,2.629,3.734-9.281,8.136-6.102c1.323-4.481-0.057-4.166-2.034-7.119
		c2.492-3.113,2.995,0.626,2.034-5.084c2.549,2.65,3.217,1.489,5.084-1.017c-0.159,2.87,2.875,2.549,4.068,4.068
		c-0.083-4.691,1.124-4.516,1.017-9.152c0.068,1.744,3.108,5.547,4.068,3.051c-2.748-3.334,4.266-2.824,1.017-6.102
		c2.746,0.305,1.824,4.278,4.067,5.085c0.494-1.202,1.084-2.305,2.034-3.051c0.114,3.756,1.864,2.942,3.051,1.017
		c0.402,4.121,1.657,3.344,5.084,3.051c-1.809,1.602,1.214,8.854,3.051,4.067c0.947,3.344,2.254,3.831,2.034,7.119
		c2.666-7.078,2.601,1.159,5.084-6.102c1.515,2.355,2.871,1.936,4.068,0c-1.044,5.659,1.583,2.037,3.051,4.068
		c-2.098-0.895-3.852,3.352-2.034,3.051c0.216-1.141,1.13-1.583,2.034-2.034c0.633,6.384,4.407,7.229,2.034,12.203
		c1.894,0.973,3.399-3.045,4.068,0c-2.094,1.296-5.158,1.622-5.085,5.085c3.082,1.488,2.855,2.173,6.102,0
		c-0.255,2.967,1.915,3.509,3.051,5.084c-1.042,0.993-2.059,2.01-3.051,3.051c2.317,1.396,3.822-2.622,4.067,0
		c-5.704,1.637-2.18,6.468-8.135,8.136c2.317,2.075-2.855,2.572,1.017,5.084c-2.125-2.217-2.903,0.508-6.102,0
		c0.481,3.248,5.215,2.243,5.085,6.102c-1.505-0.529-2.563-1.505-4.068-2.034c0.796,3.131,3.086,4.065,2.034,6.102
		c-0.265-1.43-2.23-1.159-3.051-2.034c-0.972,1.895,3.046,3.399,0,4.068c-5.291,0.413-6.861,0.7-12.203-2.034
		c0.755,0.098,0.755,3.97,0,4.068c-0.493-1.202-1.084-2.306-2.034-3.051c-1.915,2.831-6.157,3.335-7.119,7.119
		c-0.228-0.789-0.028-2.006-1.017-2.034c-2.183,4.113-2.525,4.457-6.102,6.102c3.161-2.71,0.613-3.353-2.034-5.084
		c2.039,3.807-1.682,3.298-4.068,3.051c-0.49-3.203,3.121-2.303,2.034-6.102c-2.982,0.271-3.778,1.403-5.085,0
		c3.501-4.325-5.475-3.351-3.051-6.102c-3.937-0.887-1.662,4.44-6.102,3.051c2.82-2.182,3.505-2.374,0-4.067
		c2.074,0.872,5.604-1.601,3.051-2.034c-2.704,3.302-2.248-3.433-3.051-3.051c-0.969,1.484-3.657,6.404-5.084,4.068
		c1.321-1.937-3.992-3.501-2.034-7.119c-6.198-1.414-9.202,4.514-12.204,3.051c-1.519,2.373,0.343,4.382-1.017,5.085
		c-2.822-1.521,1.765-4.159-1.017-5.085c-0.153,1.881-3.443,0.625-4.068,2.034c-0.331,3.771,4.379,7.757,3.051,9.152
		c-7.732-1.423,1.447,1.293-5.084,4.068c-1.357-6.193-1.884,2.282-5.084-4.068c-0.159,1.197,0.175,2.887-1.017,3.051
		c0.892-2.094-2.638-4.567-3.051-2.034c0.789,0.228,2.006,0.027,2.034,1.017c-2.362,2.457-2.722-1.588-5.084-2.034
		c0.426,4.993-6.581,9.388-9.152,5.084C73.311,122.125,37.946,133.537,0,142.371c0-15.254,0-30.508,0-45.762
		c1.921,0.113,0.706,3.362,3.051,3.051c0-2.373,0-4.746,0-7.119C1.408,92.254,1.3,93.502,0,93.558c0-6.44,0-12.881,0-19.321
		c1.512,0.861,1.472,3.274,2.034,5.084c1.134-0.996,3.493-5.869,1.017-7.119c-3.045,0.669,0.973,2.174,0,4.068
		C1.129,76.157,2.345,72.908,0,73.219C0,65.762,0,58.304,0,50.847L0,50.847z"/>
	<path fill-rule="evenodd" clip-rule="evenodd" d="M433.213,68.134c1.894,0.14,3.399,0.669,4.068,2.034
		c-1.338-0.134-7.358-0.154-4.068,1.017c4.286-0.175,0.698,2.277,0,3.051c2.638,1.303,0.457,4.841,2.034,5.084
		c-0.676-4.919,3.229-4.678,7.118-7.119c3.174,1.813-0.325,3.984,2.034,6.102c0.998-1.375,2.713-2.032,4.067-3.051
		c0.244,1.451,1.676,1.715,2.034,3.051c-1.082-0.043-2.582,0.479-1.017,1.017c2.073-0.299,1.994-2.751,4.067-3.051
		c-0.528,1.853,4.468,2.123,7.118,1.017c-2.199,2.751,2.712,0.516,4.068,4.067c0.225-0.792,0.852-1.182,2.033-1.017
		c-0.299-5.118-4.51-0.421-4.067-4.068c-1.131,2.145-4.024-3.03-5.085,1.017c0.701-3.383-2.103-1.639-3.051-1.017
		c-0.158-1.197,0.175-2.887-1.017-3.051c-0.265,1.429-2.229,1.159-3.051,2.034c0.741-2.758-9.956-5.856-13.22-3.051
		c0.113-5.823,4.848-7.521-1.018-6.102C438.191,70.137,433.669,64.037,433.213,68.134L433.213,68.134z M456.603,63.05
		c3.268,0.895,1.393-3.352,4.067-3.051c1.465,1.137,2.481,1.096,3.051-1.017c-2.033,0-4.067,0-6.102,0
		C457.848,60.905,456.473,61.226,456.603,63.05L456.603,63.05z M328.469,69.151c0.789,0.228,2.005,0.028,2.034,1.017
		c-1.024,0.012-1.279,1.782,0,2.034c2.683-1.896-0.479-9.685-2.034-7.119C331.091,65.329,327.072,66.833,328.469,69.151
		L328.469,69.151z M331.52,61.016c-0.604,5.239,1.676,8.718,2.034,10.169c0.153-1.881,3.444-0.624,4.067-2.034
		c-0.938-5.656-0.039-3.26-3.051-6.102c0.79-0.228,2.005-0.028,2.034-1.017c-1.37,0.517,0.886-5.61-2.034-2.034
		C336.72,61.492,333.502,62.146,331.52,61.016L331.52,61.016z M316.266,61.016c2.461-1.947,6.009-2.804,8.136-5.085
		C320.599,55.901,313.043,57.395,316.266,61.016L316.266,61.016z M425.078,54.915c1.922,0.228,2.242-1.146,4.067-1.017
		c0.091-2.775-1.693-2.047,0-4.068c-6.123-1.967-6.417,2.645-9.152-2.034c0,1.695,0,3.39,0,5.084
		c0.789,0.228,2.005,0.028,2.034,1.017c2.981,1.17,3.776-4.878,5.084-2.034C425.682,52.129,425.951,54.094,425.078,54.915
		L425.078,54.915z M445.416,53.897c0.769-5.09,2.354-3.682,6.102-3.051c0.495-5.481-3.596-0.061-5.084-3.051
		c0.563,0.003,1.154-0.824,0-1.017C446.158,48.634,442.772,52.479,445.416,53.897L445.416,53.897z M336.604,46.779
		c1.399-0.043,2.232,0.479,3.051,1.017c-0.466-4.172,2.173,0.415,5.085-1.017c-0.107-2.604-0.576-4.848-2.034-6.102
		c-1.418,1.633-5.02,1.083-6.102,3.051c-0.401-1.749,1.51-2.607,0-3.051c-0.243,1.908-1.675-0.577-2.034,1.017
		C336.079,42.559,336.757,44.254,336.604,46.779L336.604,46.779z M316.266,74.236c0.226-0.792,0.852-1.183,2.034-1.017
		c1.224-3.255-1.324-4.474,4.067-4.068c-2.9-4.095,5.705-5.582,2.034-10.169c-3.647-0.257-3.726,3.054-7.118,3.051
		c1.381,2.453-0.267,10.162-4.068,7.119C313.554,71.523,314.257,73.533,316.266,74.236L316.266,74.236z M307.113,26.44
		c1.77-2.443,5.438,3.94,6.102-2.034c3.046,0.669-0.972,2.174,0,4.068c2.05,0.336,3.441-7.292,4.068-2.034
		c0.823-0.193,1.014-1.021,2.033-1.017c-0.745-0.949-1.85-1.541-3.051-2.034c2.916-1.104,3.696-2.761,2.034-6.102
		c1.465-0.543,2.481,3.963,3.051,1.017c3.117,0.999-1.169,2.713-1.017,4.068c2.69-1.602,3.158-1.133,2.033,2.034
		c0.817-0.538,1.651-1.061,3.051-1.017c-0.324-2.358,0.164-3.904,1.018-5.085c2.39,4.116,1.688-0.811,5.084-1.017
		c-2.3,3.948,3.445-1.864,5.085-1.017c3.046,0.668-0.972,2.173,0,4.068c2.676-2.09,5.632-2.055,6.102,3.051
		c2.041,0.346,3.182-0.208,3.051-2.034c2.85,0.999-1.477,2.713,1.017,4.068c1.38-0.314,0.844-2.546,1.018-4.068
		c2.73,1.642,1.511,3.22,0,5.085c0.741,2.277,3.06-2.247,5.084-2.034c2.143-2.489-1.338,3.048-3.051,3.051
		c0.842,0.979,3.563,1.188,5.085-1.017c-2.53,2.684,1.725,7.145-4.067,5.084c0.529,1.505,1.504,2.563,2.033,4.068
		c2.357-4.48,1.004-0.085,6.103-3.051c-2.866,3.784,0.153,8.284,4.067,10.169c-1.774,2.073,0.757,1.994-1.017,4.067
		c1.182,0.166,1.809-0.224,2.033-1.017c1.829,1.896-2.658,6.104-3.051,9.152c-1.81-0.563-4.223-0.522-5.084-2.034
		c-3.179-0.311,2.584,2.938-1.018,3.051c1.923,2.018,3.564,1.733,6.102,1.017c1.045,3.417-3.163,1.583-5.084,2.034
		c7.799,0.543,7.499-2.312,16.271,2.034c0.823-0.193,1.015-1.021,2.034-1.017c-2.087-1.184-5.435-2.422-11.187-4.068
		c14.403,0.981,28.609,7.314,45.762,7.119c0.211-2.922-0.258-5.166-2.034-6.102c3.277-0.039,2.692-3.619,6.103-7.119
		c2.676,3.128,3.425,0.685,6.102-1.017c-0.385-3.64-1.434-5.048,2.033-3.051c-0.021-3.03-4.797-1.305-6.102-3.051
		c-0.141-4.209,4.512-3.625,3.051-9.152c1.811,0.607,4.223-2.981,5.085,0c2.622-0.245-1.397-1.75,0-4.068
		c1.251,0.443,2.088,1.301,2.034,3.051c3.045-0.669-0.973-2.174,0-4.068c4.64,4.518,12.617,5.618,14.236-1.017
		c1.465,0.57,2.481,1.586,3.051,3.051c1.38-0.314,0.844-2.546,1.018-4.067c2.759,3.716,6.957-4.126,2.033,3.051
		c0.679,0,1.356,0,2.034,0c0.662-2.374,2.99-5.313,7.118-5.085c-0.112,1.921-3.36,0.706-3.051,3.051
		c2.982-0.069,3.776-2.324,5.085-4.067c1.818-0.301,0.063,3.945-2.034,3.051c0.865,2.983,2.56-1.323,5.085,0
		c-2.341,3.328,0.032,7.76-3.051,10.169c0.633,3.534,4.249-5.711,4.067,0c1.714-2.355,5.642-2.495,7.119-5.085
		c1.154,0.193,0.563,1.021,0,1.017c-0.374,1.73,0.793,1.918,2.033,2.034c0.166,1.183-0.225,1.81-1.017,2.034
		c0.885,3.003,1.522-2.36,4.067-1.017c0.232,1.802-1.024,5.092,2.034,4.068c0.045,1.739-0.756,2.633-2.034,3.051
		c1.244,3.1,3.882-1.487,5.085,1.017c-6.352,3.92,0.158,2.844-5.085,6.102c-0.31,2.066,2.938-0.208,3.051-1.017
		c1.172,1.854-0.216,6.192,5.085,6.102c-4.424,1.65,3.051,3.079-3.051,3.051c7.902,3.962,19.729,4,29.491,6.102
		c0,2.034,0,4.067,0,6.102c-12.829-0.253-27.681-8.17-36.609-3.051c0.789,0.911,6.904-0.158,7.118,4.067
		c-3.244,0.604-3.145-1.909-5.085,0c0.93,1.134,1.892,0.32,5.085,1.017c-0.936,1.776-3.179,2.245-6.102,2.034
		c1.72,1.328-1.88,4.111-4.067,3.051c0.193,0.823,1.02,1.013,1.017,2.034c10.57-3.343,25.871,4.989,38.644,6.102
		c0,4.068,0,8.135,0,12.203c-17.353-3.075-32.072-8.948-46.779-12.203c-0.949,0.746-1.541,1.849-2.033,3.051
		c-1.252-0.443-2.089-1.302-2.034-3.051c0.691,5.085-3.906,0.186-5.085,4.068c-1.358-1.015-1.996-2.749-4.067-3.051
		c-0.596,3.57,4.807,3.345,2.034,6.102c-1.74,0.044-2.634-0.756-3.051-2.034c-1.38,0.314-0.844,2.546-1.018,4.068
		c-2.858,0.199-2.933-4.388-3.051,1.017c-1.128-3.486-2.537-1.084-3.051-4.068c-0.989,0.028-0.789,1.245-1.017,2.034
		c-3.846-1.261,1.099-3.925-4.067-2.034c2.338-4.106,1.981-4.504,0-8.135c2.125-0.431,2.693,0.697,4.067,1.017
		c-1.021-1.351-0.961-3.784-3.051-4.067c-3.338,2.511-3.189,7.559-3.051,10.169c-0.45,1.479-0.893-0.103-2.034,0
		c-0.989,0.028-0.789,1.245-1.017,2.034c-1.344-1.63-4.352-3.8-2.034-6.102c-1.262-2.135-3.925,3.762-2.033-2.034
		c-0.906,0.451-1.819,0.893-2.034,2.034c-1.812-0.746-0.147-1.849,0-3.051c-4.163,1.659-5.782-4.585-10.169-3.051
		c2.715-4.561-3.997-5.361,0-8.136c-14.881-4.441-34.073-4.571-46.779-11.186c-6.826,4.666-11.819,4.599-18.305,4.067
		c-0.302,2.674,3.945,0.801,3.051,4.068c-2.525-0.152-4.22,0.526-5.085,2.034c1.365,0.448,5.339,3.317,5.085,2.034
		c2.852,1.626-1.429,4.578,0,8.135c-3.332-0.602-5.086-1.66-5.085,2.034c-1.619-1.022-4.092-0.961-2.034-3.051
		c-0.904,0.79-2.296,1.093-4.067,1.017c4.245,3.644-1.761,0.849-2.034,5.085c-1.802-2.541-1.296-1.099-5.084-1.017
		c-1.008-5.778-3.598,2.247-3.051-5.084c-4.708,4.869-2.532-3.193,0-6.102c-6.093-1.571-5.959,10.95-11.187,12.203
		c-3.17,0.76,0.531-6.296-4.067-2.034c0.634-0.101-1.028-7.591-3.051-5.084c-2.488-1.263,3.048-2.958,3.051-5.084
		c-2.085-2.976-6.941,2.183-7.119-2.034c-2.252,3.221-6.932,1.308-10.169,0c6.553-1.145-1.313-9.593,3.051-8.135
		c-0.885-2.958-1.522-1.144-4.067-1.017c-1.718-2.553-2.935-5.602-3.051-7.119c0.314-1.38,2.546-0.843,4.067-1.017
		c-0.141-1.895-0.669-3.399-2.034-4.068c2.383-1.274,8.435-2.242,10.17-1.017c-1.168-7.385-1.256-9.969-2.034-18.305
		C306.997,32.754,306.409,27.745,307.113,26.44L307.113,26.44z"/>
	<path fill-rule="evenodd" clip-rule="evenodd" d="M423.044,149.489c2.558-1.172,6.976-0.482,7.118-4.068c-0.678,0-1.355,0-2.033,0
		c-0.62,0.057-1.204,0.152-1.018,1.017C430.395,148.185,421.825,146.458,423.044,149.489L423.044,149.489z M436.264,134.235
		c1.138-1.464,1.097-2.481-1.017-3.051c0,1.356,0,2.712,0,4.068c5.063-0.658,4.327-0.494,8.136,1.017
		c-1.397-2.318,2.621-3.823,0-4.068C442.964,136.187,438.547,131.198,436.264,134.235L436.264,134.235z M395.587,137.286
		c-1.64-2.429-2.697-5.438-6.102-6.102c0.302,2.794,1.33,8.896,4.067,5.085C393.797,137.375,395.228,138.71,395.587,137.286
		L395.587,137.286z M384.4,132.201c-2.871-2.699-1.115-4.732-4.067-6.102C379.998,129.842,381.733,134.569,384.4,132.201
		L384.4,132.201z M402.705,126.1c9.391-1.087-0.202-4.096,7.118-6.102c-1.355,0-2.711,0-4.067,0
		C405.74,123.033,403.111,123.456,402.705,126.1L402.705,126.1z M412.875,125.083c-0.519-2.019,5.609-2.326,2.033-4.067
		c-2.648,2.595-3.886,4.947-1.017,8.135c-1.354,0.151-3.069-4.134-4.068-1.017c1.811,0.494-0.44,1.084-1.017,2.034
		c2.097,0.277,0.242,4.503,3.051,4.067c0.972-1.895-3.045-3.399,0-4.067c0.277,0.925,4.504,2.7,4.068,1.017
		c-2.807,0.212,4.659-4.311,1.017-2.034C413.847,129.535,415.216,125.454,412.875,125.083L412.875,125.083z M422.027,119.998
		c1.141,0.214,1.583,1.128,2.033,2.034c-1.354,0.151-3.069-4.134-4.067-1.017c1.277,0.417,2.079,1.311,2.034,3.051
		c-2.021-0.013-1.294-2.775-4.068-2.034c-0.156,3.162,5.208,0.661,1.018,4.068c1.061,2.331,3.953,2.826,5.084,5.084
		c-1.9-0.812-3.725-1.699-6.102-2.034c-2.113,2.411,0.882,5.882,1.018,9.152c-4.739-0.893,1.4,2.638-2.034,3.051
		c-0.996-1.133-5.869-3.493-7.119-1.017c1.345,0.012,0.93,1.782,2.034,2.034c-0.495-4.137,3.597,0.791,5.085,1.017
		c-1.142,0.216-1.584,1.129-2.034,2.034c5.558,1.217,2.565,6.439,7.119,7.119c3.351-2.362-5.086-4.297-1.018-7.119
		c1.18,0.853,2.727,1.341,5.085,1.017c-0.077-1.771,0.227-3.164,1.017-4.068c-1.999-0.305-2.017,1.373-3.051,2.034
		c-0.044-1.399,0.479-2.234,1.018-3.051c-0.79-0.228-2.007-0.029-2.034-1.017c2.698-0.49,6.979,2.933,6.102,1.017
		c-3.013-1.393-5.413-3.427-2.034-6.102c-4.229,1.773-3.779,2.182-6.102,5.085c0.134-2.507,0.154-4.901-1.017-6.102
		c1.399,0.044,2.232-0.479,3.051-1.017c-1.138,1.464-1.097,2.481,1.017,3.051c0.301-5.42,4.509-0.313,5.085-2.034
		c-0.906-2.353-0.477-6.369,2.034-8.135c-1.337,5.391,3.625-3.717,5.084-5.084c-4.546,1.217-7.362,4.163-10.169,7.118
		c0.291-1.792-4.788-3.148-2.034-4.067c1.922,0.112,0.707,3.362,3.051,3.051c0.758-3.13-2.791-1.955-2.033-5.085
		c3.047,1.332,5.16-5.573,3.051-3.051C426.901,124.499,424.049,116.191,422.027,119.998L422.027,119.998z M384.4,128.133
		c-1.478-4.649,5.087-10.549,1.017-11.186C384.84,119.81,381.342,125.007,384.4,128.133L384.4,128.133z M386.435,124.066
		c3.286-0.327-0.625,8.67,4.067,5.084c-1.104-0.244-2.441-1.675-1.017-2.034c1.521-0.02,4.159,3.778,5.084,1.017
		c-1.256-0.67,4.105-3.284,5.085-5.084c-1.24-0.115-2.407-0.305-2.034-2.034c1.301,0.056,1.409,1.303,3.051,1.017
		c1.803-3.264,2.662-4.443,3.051-7.118c-3.148-0.07-3.949-1.782-6.102,0c1.575,0.666-3.45,3.249-5.084,4.067
		c-0.003-1.02,0.823-1.21,1.017-2.034c-1.923-0.228-2.243,1.146-4.067,1.017c2.441,4.261-1.363,1.815-3.051,4.067
		c3.938,0.633,4.188,0.842,7.118-1.017c-1.298,2.644-2.232,3.066-1.017,6.102c-0.679,0-1.356,0-2.034,0
		C391.771,124.037,387.12,121.844,386.435,124.066L386.435,124.066z M374.231,116.947c-0.056,1.3-1.304,1.409-1.018,3.051
		c1.399,0.043,2.232-0.479,3.051-1.017c0.228,0.79,0.028,2.006,1.018,2.034c-0.181-2.481,3.908-7.799,0-5.085
		c0.492-1.202,1.084-2.305,2.033-3.051c0.215,1.14,1.129,1.584,2.034,2.034c-0.401-1.75,1.51-2.607,0-3.051
		c-0.059,0.62-0.152,1.204-1.017,1.017c0.131-1.826-1.011-2.381-3.051-2.034c0.376,4.506-3.376,4.155-4.068,5.084
		C373.834,115.989,374.418,116.083,374.231,116.947L374.231,116.947z M370.163,112.879c-2.74-2.399-4.886,1.953-3.051,0
		c3.246,0.84,7.896,2.321,9.152-2.034c-2.524,1.323-4.22-2.983-5.084,0C373.986,113.313,366.52,109.129,370.163,112.879
		L370.163,112.879z M363.045,109.829c0.146-1.202,1.812-2.305,0-3.051c0.31,2.345-2.938,1.129-3.051,3.051
		c5.859,0.951-5.524,3.133-1.017,6.102c-1.355-2.493-3.069,1.833-4.068-1.017c1.278-0.417,2.079-1.313,2.034-3.051
		c-0.678,0-1.356,0-2.034,0c-0.619,0.058-1.203,0.152-1.017,1.017c0.792,0.224,1.183,0.852,1.017,2.034
		c-1.24,0.115-2.407,0.303-2.034,2.034c3.88,1.274,4.898-0.899,8.136,1.017c0.949-5.493,4.565-8.316,8.136-11.187
		c-2.318,1.396-3.823-2.622-4.067,0C367.496,107.077,363.948,109.529,363.045,109.829L363.045,109.829z M307.113,92.541
		c0.731-2.659,3.663-3.118,4.068-6.102C308.437,86.475,304.35,90.364,307.113,92.541L307.113,92.541z M248.131,73.219
		c1.894-0.973,3.399,3.045,4.068,0c-2.595,0.142,0.408-10.469-2.034-7.119C250.489,69.475,250.318,72.356,248.131,73.219
		L248.131,73.219z M245.081,65.083c3.268,0.895,1.394-3.352,4.068-3.051c-0.146,1.202-1.81,2.306,0,3.051
		c1.321-1.351,1.341-3.784-1.017-4.067C248.433,63.69,244.186,61.816,245.081,65.083L245.081,65.083z M242.03,65.083
		c0.709-2.681,4.63-2.149,5.085-5.084C244.06,59.724,240.071,63.711,242.03,65.083L242.03,65.083z M235.928,57.965
		c3.692-0.037,8.028,0.57,9.152-2.034C240.198,55.305,238.404,54.666,235.928,57.965L235.928,57.965z M252.199,46.779
		c-0.787-2.598,3.979-4.675,1.017-6.102c-1.41,0.625-0.153,3.915-2.034,4.068c0.003-1.02-0.823-1.21-1.017-2.034
		c1.429-0.266,1.159-2.23,2.034-3.051c-1.399,0.043-2.233-0.479-3.051-1.017c-1.31,2.398,0.134,1.892-1.017,5.084
		C250.202,44.03,250.841,45.765,252.199,46.779L252.199,46.779z M304.063,92.541c-0.621-0.058-1.203-0.152-1.017-1.017
		c-0.826-3.809,4.617-6.539,0-8.135C302.324,87.499,299.996,94.35,304.063,92.541L304.063,92.541z M405.756,127.117
		c-4.015-1.303-2.46,2.963-5.085,3.051c-0.102-3.153,1.244-4.858,2.034-7.119c-1.826-0.131-2.379,1.009-2.034,3.051
		c-1.017,0-2.033,0-3.051,0c0.206,3.185,2.622,4.157,4.068,6.102c-5.302,0.67,0.651,3.734,1.017,5.085
		c-3.732-0.671-3.896,0.064-6.102-3.051c0.662,5.363,5.677,5.493,8.136,5.085c-3.181-2.857-0.037-6.596-3.051-6.102
		C404.923,130.884,403.169,128.85,405.756,127.117L405.756,127.117z M436.264,156.607c3.604-0.214,2.009,4.771,6.102,4.068
		c1.056-6.522,1.894-3.25-3.051-2.034c0.056-1.3,1.303-1.409,1.018-3.051C438.811,155.764,436.579,155.228,436.264,156.607
		L436.264,156.607z M436.264,136.269c0.114,2.598,1.864,3.559,3.051,5.084c-0.076-1.77,0.227-3.163,1.018-4.067
		C438.957,136.965,438.389,135.839,436.264,136.269L436.264,136.269z M283.724,63.05c1.388,2.814,8.439,3.787,6.102,7.119
		c1.037-0.748,3.141-1.62,5.084,0c8.746,7.289,15.886,15.271,31.525,21.355c10.941,4.256,18.786,9.1,30.508,12.203
		c17.411-1.286,37.501,8.407,55.932,6.102c7.94,3.774,61.147,7.844,80.337,9.152c2.306,0.156,7.742,2.844,10.17-2.034
		c0.567,2.483,5.175,0.927,4.067,5.084c-3.232-1.533-7.291-0.545-8.136,3.051c-1.509-0.443,0.401-1.301,0-3.051
		c-1.251,0.444-2.088,1.302-2.033,3.051c-1.558-0.013-3.344-2.775,0-2.034c-0.193-0.824-1.02-1.014-1.018-2.034
		c-5.6,3.643-16.57,0.659-15.254,10.169c-2.297-0.569,1.233-1.586-1.017-3.051c-1.465,0.23-0.355,3.035-2.034,3.051
		c0.561-4.212-13.74-2.917-15.254,2.034c2.882,3.142,4.995-3.083,8.136-3.051c-1.102,2.966-4.309,3.828-4.068,8.135
		c-3.402-0.919-0.888-2.275,0-4.068c-0.616,1.756-4.823-0.078-5.084,2.034c1.57,0.385,5.384,2.988,8.135,5.084
		c0.526-4.009,2.022-2.912,1.018-5.084c0.251-1.104,2.021-0.69,2.033-2.034c3.58,6.3,20.662,0.609,6.102,5.085
		c-2.587-0.125-3.942-1.48-4.067-4.068c-0.823,0.193-1.014,1.02-2.034,1.017c0.508,2.301,4.987,2.225,2.034,5.084
		c-2.297-0.569,1.233-1.586-1.017-3.051c-1.922,0.113-0.707,3.361-3.051,3.051c1.298,1.375,3.092,2.033,0,3.051
		c4.331,1.564,8.691,1.976,0,2.034c-0.854-1.181-1.342-2.727-1.018-5.085c-1.017,0-2.033,0-3.051,0
		c2.591,6.142-1.274-5.333-5.084-2.034c0.164,1.192,1.854,0.858,3.051,1.017c0.324,1.795-5.696,1.814-4.068-1.017
		c-2.182,1.525,0.729,2.487-1.017,5.084c-2.689-0.361-0.92-5.183-3.051-6.102c2.016,0.322,6.672-8.186,7.118-9.152
		c9.399,0.37,9.646-7.088,20.339-7.119c-1.444-7-11.675,6.104-9.152,0c-3.29,1.116-3.938,4.875-8.136,5.085
		c0.444-1.251,1.302-2.088,3.051-2.034c-1.41-4.228-5.254,0.299-8.135-2.034c0.283-2.358,2.716-2.338,4.067-1.017
		c0.561-2.255-1.942-1.448-2.034-3.051c-3.62,1.801-12.981,5.178-15.254,8.136c-1.973,0.402-1.485-4.632,1.018-3.051
		c-6.061-2.654-2.48,4.736-8.136,3.051c-0.171,2.206,3.606,0.461,5.085,1.017c-0.405,3.464-3.131,1.677,0,4.068
		c3.439-5.27,9.859-8.198,15.254-11.186c-1.968,2.439-5.707,3.105-6.102,7.118c0.904-2.146,4.335-1.766,4.067-5.084
		c3.203-0.491,2.303,3.121,6.102,2.034c-0.782-1.524-5.688,9.704-10.169,11.187c1.738-4.025,5.298-6.228,7.118-10.169
		c-2.819-0.518-5.986,5.722-4.067,1.017c-2.768,1.503-4.603,3.933-3.051,7.118c-0.865,0.187-0.959-0.397-1.018-1.017
		c-0.741-2.521-3.06,3.356-5.084,0c-2.199,1.689,4.041,2.73,1.017,6.102c-2.399-1.31-1.894,0.134-5.085-1.017
		c1.157,2.232,2.625,4.155,2.034,8.136c-1.603-2.697-4.412-5.18-3.051-9.152c-6.929,1.381,1.841,6.381-1.017,9.152
		c-4.161-1.719-4.087-4.006-9.152-3.051c-0.311-2.344,2.938-1.13,3.051-3.051c-0.919-3.424-2.275-0.12-4.068-2.034
		c1.923,5.33-2.485,0.633-2.033,4.068c2.226,2.52,7.563,1.928,8.135,6.102c0.352-1.228,1.038-3.25,4.068-1.017
		c-0.029,0.988-1.245,0.79-2.034,1.017c0.661,1.034,2.339,1.051,2.034,3.051c-3.421,0.708-3.333-2.091-5.085-3.051
		c-1.658,0.122,0.969,4.336,3.051,4.068c-2.819,2.751-5.22-3.543-8.136-4.068c2.529,4.102,5.845,8.67,12.203,6.102
		c-2.223,2.344,0.301,5.674,4.068,5.084c0.302-2.673-3.946-0.799-3.051-4.067c4.504-0.098,4.264,4.55,6.102,7.119
		c1.793-3.093,3.148,2.775,4.067,0c2.813,0.437,0.053,3.199-2.034,2.034c4.78,0.788,12.622,2.389,16.271,7.119
		c2.869-2.835,6.396-3.011,9.152-3.051c-6.438,4.179,4.933,7.199,8.136,12.203c1.295-0.229,1.332-3.035,0-3.051
		c1.935-2.522,2.77,4.62,7.118,3.051c-0.359,1.336-1.79,1.6-2.034,3.051c3.83-2.197,4.307,1.593,8.136,2.034
		c-14.482-2.798-27.348-12.399-42.711-17.288c-0.885-3.003-1.523,2.359-4.068,1.017c-8.842-8.903-31.542-13.948-46.778-22.373
		c0.919-3.403,2.274-0.888,4.067,0c-3.203-1.542-0.431-9.06-6.102-8.135c0.661,1.034,2.339,1.051,2.034,3.051
		c-7.487-1.433-9.631-6.09-16.271-1.017c-0.187-0.865,0.397-0.96,1.018-1.017c-27.136-5.555-54.755-23.391-74.236-36.61
		c-3.667-2.487-11.745-4.431-12.203-10.169c-1.47,5.25-11.798-7.406-4.067-10.169c-2-2.909-4.338,2.361-5.085,4.067
		c-5.228-7.181-14.286-10.211-11.187-18.305c-1.789,0.245-2.317,1.75-2.034,4.068c-1.032-2.89-7.177-4.284-5.084-7.119
		c-0.817,0.539-1.651,1.061-3.051,1.017c-0.31-2.345,2.938-1.129,3.051-3.051c-2.982,0.069-3.778,2.324-5.085,4.067
		c-3.672-9.022-7.521-9.002-18.305-11.186c-0.904,0.451-1.818,0.893-2.034,2.034c0.566,2.12,3.059-1.509,1.017,2.034
		c3.565,1.52,6.354,3.814,8.136,7.118c0.824-0.193,1.014-1.02,2.034-1.017c0.166-1.183-0.225-1.81-1.017-2.034
		c-0.187-0.279,28.408,9.488,11.187,5.085c-1.161,0.32-3.886,4.82,0,4.068c-0.331,2.166-4.436-0.164-5.084-1.017
		c-1.008,1.69,1.259,2.73,1.017,6.102c-1.336-1.221-1.6-0.396-3.051,0c-0.045,1.739,0.755,2.634,2.034,3.051
		c-0.901,1.773-6.646-1.042-2.034,2.034c-0.112,2.49-3.36,0.216-3.051-1.017c2.277,4.363-7.598,4.023-3.051,6.102
		c-2.528,4.086-5.349-5.361-7.119-2.034c-1.425-0.359-0.088-1.79,1.017-2.034c-2.119-1.609-4.143-3.315-7.119-4.068
		c3.588,1.026-0.16,3.78,2.034,5.085c-0.91,2.746-4.127-0.472-3.051-3.051c-2.447,0.944,0.616,7.395-4.068,6.102
		c-0.712-3.13-0.712-1.955,0-5.085c-2.95,2.688-4.887,0.069-7.119,3.051c-7.087-4.816-7.11-11-2.034-16.271
		c-4.813,10.193-24.294-15.272-15.254-10.169c-0.452-0.905-0.894-1.819-2.034-2.034c4.544-1.219,5.651-5.874,10.169-7.118
		c-0.968-3.796-5.551-9.815-2.034-8.136c-3.071-2.692-6.246-5.279-10.169-7.118c0.576-0.95,2.827-1.541,1.017-2.034
		c1.751-3.587,1.665,2.936,5.084,1.017c-1.996,3.816,0.96,2.217,2.034,5.084c1.597-0.437,0.87-3.198,4.068-2.034
		c-0.314-1.38-2.546-0.844-4.068-1.017c1.763-1.288,2.664-3.437,6.102-3.051c-1.282-1.358-3.056-1.997-1.017-4.068
		c-1.335,1.221-1.601,0.397-3.051,0c1.261-1.046,3.925,0.132,2.034-4.067c5.505,0.434,6.813,0.797,7.119-4.068
		c1.191,0.164,0.858,1.854,1.017,3.051c1.196-2.194,2.11-4.67,3.051-7.119c1.445,0.685,3.141,6.221,5.085,3.051
		c1.942-2.175-1.108,4.182,1.017,6.102c2.24-2.333,4.061,0.25,4.067,3.051c2.548,1.346,2.469-4.735,4.068-1.017
		c1.962-0.411,0.088-4.657,4.068-3.051c-0.539-0.818-1.061-1.651-1.017-3.051c2.189,1.835,3.598,2.884,3.051-2.034
		c0.949,0.746,1.54,1.849,2.034,3.051c1.251-0.443,2.088-1.301,2.034-3.051c1.104,0.252,0.69,2.022,2.034,2.034
		c1.533-0.885-0.281-1.523,1.017-4.068c2.516,1.426,1.795,3.504,1.017,6.102c2.263-1.393,2.802-7.876,6.102-5.084
		c-0.165,1.191-1.854,0.858-3.051,1.017c-0.313,5.581,3.042,4.462,0,8.136c0.633,1.046,4.248-0.132,4.067,4.068
		c0.904-0.451,1.818-0.894,2.034-2.034c2.134,0.284-1.474,2.716,1.017,4.068c2.021-0.013,1.294-2.775,4.068-2.034
		c-1.492,2.398-2.146,1.892-1.017,5.084c0.904-0.79,2.297-1.093,4.068-1.017c-1.508,1.204-1.583,3.841-3.051,5.085
		c0.631,0.416,5.216,1.159,1.017,3.051c0.251,1.104,2.022,0.689,2.034,2.034c0.917-1.794,0.081-2.293,4.068-1.017
		c-2.211,3.75-3.106,4.877-5.085,7.119c1.441,0.04,4.159,4.779,1.017,7.119C284.349,61.921,284.953,62.834,283.724,63.05
		L283.724,63.05z"/>
	<path fill-rule="evenodd" clip-rule="evenodd" d="M463.721,161.692c3.588,0.299-3.588,2.751,0,3.051
		c-2.362,4.141-1.482-4.934-4.067-1.017c-2.947-0.046,5.611-4.347,0-4.068c0.669-3.045,2.174,0.972,4.067,0
		C461.417,160.013,461.417,164.674,463.721,161.692L463.721,161.692z"/>
	<path fill-rule="evenodd" clip-rule="evenodd" d="M454.568,144.404c-2.304,7.033,6.416,10.563-2.033,11.187
		c0.027-0.988,1.244-0.79,2.033-1.017c-0.529-1.505-1.504-2.562-2.033-4.068c-0.989,0.029-0.789,1.245-1.018,2.034
		c-0.818-0.539-1.65-1.061-3.051-1.017c0.862-1.512,3.275-1.471,5.085-2.034c-0.252-1.104-2.021-0.69-2.034-2.034
		c-0.988,0.029-0.789,1.245-1.017,2.034c-1.104-0.252-0.689-2.022-2.034-2.034c0.261-2.379,4.468-0.585,5.085,0
		c0.045-1.74-0.756-2.633-2.034-3.051C451.962,142.895,452.819,144.806,454.568,144.404L454.568,144.404z"/>
	<path fill-rule="evenodd" clip-rule="evenodd" d="M493.212,123.049c4.464,1.928-7.822,3.922-1.017,5.084
		c-0.862,2.981-3.274-0.607-5.085,0C488.911,126.204,491.411,124.977,493.212,123.049L493.212,123.049z"/>
	<path fill-rule="evenodd" clip-rule="evenodd" fill="#FFFFFF" d="M440.332,137.286c-0.791,0.904-1.094,2.297-1.018,4.067
		c-1.187-1.525-2.937-2.487-3.051-5.084C438.389,135.839,438.957,136.965,440.332,137.286L440.332,137.286z"/>
	<path fill-rule="evenodd" clip-rule="evenodd" fill="#FFFFFF" d="M440.332,155.591c0.285,1.642-0.962,1.75-1.018,3.051
		c4.944-1.217,4.106-4.489,3.051,2.034c-4.093,0.703-2.497-4.282-6.102-4.068C436.579,155.228,438.811,155.764,440.332,155.591
		L440.332,155.591z"/>
	<path fill-rule="evenodd" clip-rule="evenodd" fill="#FFFFFF" d="M401.688,133.218c3.014-0.494-0.13,3.244,3.051,6.102
		c-2.459,0.408-7.474,0.278-8.136-5.085c2.205,3.116,2.369,2.38,6.102,3.051c-0.365-1.351-6.318-4.415-1.017-5.085
		c-1.446-1.945-3.862-2.917-4.068-6.102c1.018,0,2.034,0,3.051,0c-0.345-2.042,0.208-3.182,2.034-3.051
		c-0.79,2.26-2.136,3.966-2.034,7.119c2.625-0.087,1.07-4.354,5.085-3.051C403.169,128.85,404.923,130.884,401.688,133.218
		L401.688,133.218z"/>
	<path fill-rule="evenodd" clip-rule="evenodd" fill="#FFFFFF" d="M303.046,83.389c4.617,1.596-0.826,4.327,0,8.135
		c-0.187,0.865,0.396,0.959,1.017,1.017C299.996,94.35,302.324,87.499,303.046,83.389L303.046,83.389z"/>
	<path fill-rule="evenodd" clip-rule="evenodd" fill="#FFFFFF" d="M0,74.236c0-0.339,0-0.678,0-1.017
		c2.345-0.311,1.129,2.938,3.051,3.051c0.973-1.894-3.045-3.399,0-4.068c2.476,1.25,0.117,6.123-1.017,7.119
		C1.472,77.51,1.512,75.098,0,74.236L0,74.236z"/>
	<path fill-rule="evenodd" clip-rule="evenodd" fill="#FFFFFF" d="M248.131,43.728c1.151-3.192-0.292-2.687,1.017-5.084
		c0.817,0.538,1.651,1.061,3.051,1.017c-0.875,0.82-0.604,2.785-2.034,3.051c0.194,0.823,1.02,1.014,1.017,2.034
		c1.881-0.153,0.624-3.443,2.034-4.068c2.962,1.426-1.804,3.504-1.017,6.102C250.841,45.765,250.202,44.03,248.131,43.728
		L248.131,43.728z"/>
	<path fill-rule="evenodd" clip-rule="evenodd" fill="#FFFFFF" d="M334.57,41.694c0.359-1.594,1.791,0.891,2.034-1.017
		c1.51,0.444-0.401,1.302,0,3.051c1.082-1.968,4.684-1.417,6.102-3.051c1.458,1.254,1.927,3.497,2.034,6.102
		c-2.912,1.432-5.551-3.155-5.085,1.017c-0.818-0.538-1.651-1.061-3.051-1.017C336.757,44.254,336.079,42.559,334.57,41.694
		L334.57,41.694z"/>
	<path fill-rule="evenodd" clip-rule="evenodd" fill="#FFFFFF" d="M446.434,46.779c1.154,0.193,0.563,1.021,0,1.017
		c1.488,2.99,5.579-2.431,5.084,3.051c-3.748-0.631-5.333-2.039-6.102,3.051C442.772,52.479,446.158,48.634,446.434,46.779
		L446.434,46.779z"/>
	<path fill-rule="evenodd" clip-rule="evenodd" fill="#FFFFFF" d="M247.115,59.999c-0.455,2.935-4.376,2.404-5.085,5.084
		C240.071,63.711,244.06,59.724,247.115,59.999L247.115,59.999z"/>
	<path fill-rule="evenodd" clip-rule="evenodd" fill="#FFFFFF" d="M248.131,61.016c2.358,0.284,2.338,2.716,1.017,4.067
		c-1.81-0.745-0.146-1.849,0-3.051c-2.674-0.301-0.8,3.945-4.068,3.051C244.186,61.816,248.433,63.69,248.131,61.016L248.131,61.016
		z"/>
	<path fill-rule="evenodd" clip-rule="evenodd" fill="#FFFFFF" d="M94.575,62.033c1.449-0.667,10.992,1.922,8.135-3.051
		c0.818,0.539,1.651,1.061,3.051,1.017c-0.538,0.818-1.061,1.651-1.017,3.051c-1.922,0.451-6.129-1.383-5.085,2.034
		C97.543,64.488,96.373,62.947,94.575,62.033L94.575,62.033z"/>
	<path fill-rule="evenodd" clip-rule="evenodd" fill="#FFFFFF" d="M334.57,59.999c2.92-3.577,0.664,2.551,2.034,2.034
		c-0.029,0.989-1.244,0.79-2.034,1.017c3.012,2.842,2.113,0.446,3.051,6.102c-0.623,1.41-3.914,0.153-4.067,2.034
		c-0.358-1.451-2.639-4.93-2.034-10.169C333.502,62.146,336.72,61.492,334.57,59.999L334.57,59.999z"/>
	<path fill-rule="evenodd" clip-rule="evenodd" fill="#FFFFFF" d="M328.469,65.083c1.555-2.566,4.717,5.223,2.034,7.119
		c-1.279-0.251-1.024-2.022,0-2.034c-0.029-0.989-1.245-0.789-2.034-1.017C327.072,66.833,331.091,65.329,328.469,65.083
		L328.469,65.083z"/>
	<path fill-rule="evenodd" clip-rule="evenodd" fill="#FFFFFF" d="M436.264,66.101c5.865-1.42,1.131,0.279,1.018,6.102
		c3.264-2.806,13.961,0.292,13.22,3.051c0.821-0.875,2.786-0.604,3.051-2.034c1.191,0.164,0.858,1.854,1.017,3.051
		c0.948-0.622,3.752-2.366,3.051,1.017c1.061-4.047,3.954,1.127,5.085-1.017c-0.442,3.646,3.769-1.05,4.067,4.068
		c-1.182-0.166-1.809,0.224-2.033,1.017c-1.356-3.552-6.268-1.316-4.068-4.067c-2.65,1.106-7.646,0.836-7.118-1.017
		c-2.073,0.299-1.994,2.751-4.067,3.051c-1.565-0.538-0.065-1.061,1.017-1.017c-0.358-1.335-1.79-1.6-2.034-3.051
		c-1.354,1.019-3.069,1.676-4.067,3.051c-2.359-2.118,1.14-4.289-2.034-6.102c-3.889,2.441-7.794,2.2-7.118,7.119
		c-1.577-0.243,0.604-3.781-2.034-5.084c0.698-0.774,4.286-3.227,0-3.051c-3.29-1.171,2.73-1.151,4.068-1.017
		c-0.669-1.365-2.175-1.894-4.068-2.034C433.669,64.037,438.191,70.137,436.264,66.101L436.264,66.101z"/>
	<path fill-rule="evenodd" clip-rule="evenodd" fill="#FFFFFF" d="M97.625,78.304c0.92,2.756,3.743-0.856,4.068-2.034
		c2.277,0.741-2.247,3.06-2.034,5.084c-1.488-0.884-3.223-1.522-3.051-4.067c0.82-0.875,2.786-0.604,3.051-2.034
		C102.192,75.666,99.72,79.196,97.625,78.304L97.625,78.304z"/>
	<path fill-rule="evenodd" clip-rule="evenodd" fill="#FFFFFF" d="M104.744,87.456c-5.346,1.569-4.153-5.572-5.085-3.051
		c-3.07-2.162,2.913-3.787,3.051-6.102c2.1,0.612,3.852,1.573,3.051,5.085c1.034-0.661,1.052-2.338,3.051-2.034
		c-1.905,1.937-0.111,2.555,0,5.085C110.935,89.156,105.029,80.814,104.744,87.456L104.744,87.456z"/>
	<path fill-rule="evenodd" clip-rule="evenodd" fill="#FFFFFF" d="M73.219,78.304c-4.112,4.135,1.623-0.265,5.084,0
		c-0.028,0.989-1.245,0.79-2.034,1.017c-0.044,1.739,0.756,2.634,2.034,3.051c-0.443,1.509-1.302-0.401-3.051,0
		c-0.417,2.45,1.857,2.21,1.017,5.084c2.218,0.648,3.235-2.882,3.051,1.017c1.793-0.919,3.149-2.275,4.068-4.068
		c1.086,2.134,1.852,11.3,6.102,8.136c0.43,2.125-0.697,2.692-1.017,4.067c0.82-0.875,2.785-0.604,3.051-2.034
		c-3.065,5.761-20.08,11.772-29.491,11.187c-14.668,5.075-41.559,12.411-57.965,9.152c2.925,3.288,5.999-2.5,8.135,0
		c-1.225-4.114-0.311-5.029,3.051-3.051c0-1.356,0-2.712,0-4.068c-0.989,0.028-0.789,1.245-1.017,2.034
		c-3.154-2,0.34-4.338-4.067-5.084c2.606-2.833,4.121,4.629,8.135,1.017c0.852,2.198,2.633,3.468,2.034,7.118
		c1.355,0,2.711,0,4.067,0c1.209-4.361,2.525-5.602,5.085-12.203c-0.628-2.422-4.432-1.669-3.051-6.102
		c1.335,0.359,1.599,1.79,3.051,2.034c0.022-2.395-1.752-2.994-1.017-6.102c3.592,0.476,5.566,2.569,8.135,4.068
		c3.265,0.892,2.109-2.638,4.068-3.051c-2.558-1.966-2.895-2.106-3.051-5.084c8.44-2.49,25.163-7.267,31.525-5.085
		C71.11,80.941,69.955,77.412,73.219,78.304L73.219,78.304z"/>
	<path fill-rule="evenodd" clip-rule="evenodd" fill="#FFFFFF" d="M365.079,106.778c0.244-2.622,1.749,1.396,4.067,0
		c-3.57,2.871-7.187,5.694-8.136,11.187c-3.237-1.916-4.256,0.257-8.136-1.017c-0.373-1.73,0.794-1.918,2.034-2.034
		c0.166-1.183-0.225-1.81-1.017-2.034c-0.187-0.864,0.397-0.958,1.017-1.017c0.678,0,1.356,0,2.034,0
		c0.045,1.738-0.756,2.633-2.034,3.051c0.999,2.85,2.713-1.477,4.068,1.017c-4.508-2.969,6.876-5.151,1.017-6.102
		c0.112-1.921,3.36-0.706,3.051-3.051c1.812,0.746,0.146,1.849,0,3.051C363.948,109.529,367.496,107.077,365.079,106.778
		L365.079,106.778z"/>
	<path fill-rule="evenodd" clip-rule="evenodd" fill="#FFFFFF" d="M371.181,110.846c0.864-2.983,2.56,1.323,5.084,0
		c-1.256,4.355-5.906,2.874-9.152,2.034c-1.835,1.953,0.311-2.399,3.051,0C366.52,109.129,373.986,113.313,371.181,110.846
		L371.181,110.846z"/>
	<path fill-rule="evenodd" clip-rule="evenodd" fill="#FFFFFF" d="M373.214,115.93c0.692-0.929,4.444-0.579,4.068-5.084
		c2.04-0.347,3.182,0.208,3.051,2.034c0.864,0.187,0.958-0.397,1.017-1.017c1.51,0.443-0.401,1.301,0,3.051
		c-0.905-0.45-1.819-0.894-2.034-2.034c-0.949,0.746-1.541,1.849-2.033,3.051c3.908-2.714-0.181,2.604,0,5.085
		c-0.989-0.028-0.79-1.245-1.018-2.034c-0.818,0.538-1.651,1.061-3.051,1.017c-0.286-1.642,0.962-1.75,1.018-3.051
		C374.418,116.083,373.834,115.989,373.214,115.93L373.214,115.93z"/>
	<path fill-rule="evenodd" clip-rule="evenodd" fill="#FFFFFF" d="M396.604,116.947c0.786,2.598-3.979,4.675-1.017,6.102
		c-0.125-3.233,5.69-5.754,4.067-7.119C399.483,117.115,398.047,117.035,396.604,116.947L396.604,116.947z M390.502,127.117
		c0.678,0,1.355,0,2.034,0c-1.216-3.035-0.281-3.458,1.017-6.102c-2.931,1.859-3.181,1.65-7.118,1.017
		c1.688-2.252,5.492,0.193,3.051-4.067c1.824,0.128,2.145-1.245,4.067-1.017c-0.193,0.824-1.02,1.014-1.017,2.034
		c1.634-0.818,6.659-3.401,5.084-4.067c2.152-1.782,2.953-0.07,6.102,0c-0.389,2.675-1.248,3.854-3.051,7.118
		c-1.642,0.286-1.75-0.961-3.051-1.017c-0.373,1.729,0.794,1.918,2.034,2.034c-0.979,1.801-6.341,4.415-5.085,5.084
		c-0.925,2.761-3.563-1.037-5.084-1.017c-1.425,0.359-0.088,1.79,1.017,2.034c-4.692,3.586-0.781-5.412-4.067-5.084
		C387.12,121.844,391.771,124.037,390.502,127.117L390.502,127.117z"/>
	<path fill-rule="evenodd" clip-rule="evenodd" d="M399.654,115.93c1.623,1.364-4.192,3.885-4.067,7.119
		c-2.962-1.426,1.803-3.503,1.017-6.102C398.047,117.035,399.483,117.115,399.654,115.93L399.654,115.93z"/>
	<path fill-rule="evenodd" clip-rule="evenodd" fill="#FFFFFF" d="M428.129,118.981c2.109-2.522-0.004,4.383-3.051,3.051
		c-0.758,3.13,2.791,1.955,2.033,5.085c-2.344,0.311-1.129-2.938-3.051-3.051c-2.754,0.919,2.325,2.275,2.034,4.067
		c2.807-2.955,5.623-5.901,10.169-7.118c-1.459,1.368-6.421,10.475-5.084,5.084c-2.511,1.767-2.94,5.783-2.034,8.135
		c-0.576,1.722-4.784-3.386-5.085,2.034c-2.113-0.569-2.154-1.586-1.017-3.051c-0.818,0.538-1.651,1.061-3.051,1.017
		c1.171,1.201,1.15,3.595,1.017,6.102c2.322-2.903,1.872-3.312,6.102-5.085c-3.379,2.675-0.979,4.708,2.034,6.102
		c0.877,1.916-3.403-1.507-6.102-1.017c0.027,0.988,1.244,0.789,2.034,1.017c-0.538,0.817-1.062,1.651-1.018,3.051
		c1.034-0.661,1.052-2.338,3.051-2.034c-0.79,0.904-1.094,2.297-1.017,4.068c-2.358,0.324-3.905-0.165-5.085-1.017
		c-4.068,2.822,4.368,4.756,1.018,7.119c-4.554-0.679-1.562-5.902-7.119-7.119c0.45-0.904,0.893-1.818,2.034-2.034
		c-1.488-0.227-5.58-5.154-5.085-1.017c-1.104-0.251-0.689-2.022-2.034-2.034c1.25-2.476,6.123-0.117,7.119,1.017
		c3.435-0.413-2.705-3.943,2.034-3.051c-0.136-3.271-3.131-6.741-1.018-9.152c2.377,0.335,4.201,1.222,6.102,2.034
		c-1.131-2.259-4.023-2.754-5.084-5.084c4.19-3.407-1.174-0.906-1.018-4.068c2.774-0.741,2.047,2.021,4.068,2.034
		c0.045-1.74-0.757-2.634-2.034-3.051c0.998-3.117,2.713,1.168,4.067,1.017c-0.45-0.905-0.893-1.819-2.033-2.034
		C424.049,116.191,426.901,124.499,428.129,118.981L428.129,118.981z"/>
	<path fill-rule="evenodd" clip-rule="evenodd" fill="#FFFFFF" d="M416.942,129.15c3.643-2.277-3.823,2.246-1.017,2.034
		c0.436,1.683-3.791-0.091-4.068-1.017c-3.045,0.668,0.972,2.173,0,4.067c-2.809,0.436-0.954-3.791-3.051-4.067
		c0.576-0.95,2.827-1.54,1.017-2.034c0.999-3.117,2.714,1.168,4.068,1.017c-2.869-3.188-1.632-5.54,1.017-8.135
		c3.576,1.741-2.552,2.048-2.033,4.067C415.216,125.454,413.847,129.535,416.942,129.15L416.942,129.15z"/>
	<path fill-rule="evenodd" clip-rule="evenodd" fill="#FFFFFF" d="M405.756,119.998c1.356,0,2.712,0,4.067,0
		c-7.32,2.006,2.272,5.015-7.118,6.102C403.111,123.456,405.74,123.033,405.756,119.998L405.756,119.998z"/>
	<path fill-rule="evenodd" clip-rule="evenodd" d="M486.094,129.15c-0.818,0.538-1.651,1.061-3.051,1.017
		c0.66-1.034,2.338-1.051,2.034-3.051c1.461,1.589,2.562,3.539,5.084,4.067c-0.688,2.022-3.379-1.006-4.067,1.017
		C484.584,131.758,486.495,130.899,486.094,129.15L486.094,129.15z"/>
	<path fill-rule="evenodd" clip-rule="evenodd" fill="#FFFFFF" d="M393.553,136.269c-2.737,3.811-3.766-2.291-4.067-5.085
		c3.404,0.664,4.462,3.673,6.102,6.102C395.228,138.71,393.797,137.375,393.553,136.269L393.553,136.269z"/>
	<path fill-rule="evenodd" clip-rule="evenodd" fill="#FFFFFF" d="M443.383,132.201c2.621,0.245-1.397,1.75,0,4.068
		c-3.809-1.511-3.073-1.675-8.136-1.017c0-1.356,0-2.712,0-4.068c2.113,0.57,2.154,1.586,1.017,3.051
		C438.547,131.198,442.964,136.187,443.383,132.201L443.383,132.201z"/>
	<path fill-rule="evenodd" clip-rule="evenodd" fill="#FFFFFF" d="M427.111,146.438c-0.187-0.865,0.397-0.96,1.018-1.017
		c0.678,0,1.355,0,2.033,0c-0.143,3.586-4.561,2.896-7.118,4.068C421.825,146.458,430.395,148.185,427.111,146.438L427.111,146.438z
		"/>
	<path fill-rule="evenodd" clip-rule="evenodd" d="M463.721,150.506c-1.948-0.626-6.262-1.749-6.102,1.017
		C454.131,148.915,463.112,146.486,463.721,150.506L463.721,150.506z"/>
	<path fill-rule="evenodd" clip-rule="evenodd" d="M473.891,150.506c-1.315,2.416-3.289,4.168-6.102,5.085
		c0.998,1.375,2.713,2.032,4.067,3.051c1.425-0.359,0.088-1.791-1.017-2.034c-1.942-2.738,2.272,1.244,4.067,1.017
		c-1.021,0.694-5.091,5.642-1.017,5.085c0.214,1.74-1.734,2.633,0,3.051c-0.359,1.594-1.79-0.892-2.034,1.017
		c1.395-3.689-1.428-7.24-5.085-12.203C471.465,155.538,469.105,149.449,473.891,150.506L473.891,150.506z"/>
	<path fill-rule="evenodd" clip-rule="evenodd" d="M498.297,160.675c0.537,0.817,1.061,1.651,1.017,3.051
		c-3.112-1.918-1.173,1.249-1.017,4.068c-2.248,1.026-2.437-6.941-2.034-7.119c-0.727-1.648,4.795-1.648,4.068,0
		C502.721,162.369,499.959,160.583,498.297,160.675L498.297,160.675z"/>
</g>
</svg>
