<?xml version="1.0" encoding="utf-8"?>
<!-- Generator: Adobe Illustrator 12.0.0, SVG Export Plug-In . SVG Version: 6.00 Build 51448)  -->
<!DOCTYPE svg PUBLIC "-//W3C//DTD SVG 1.1//EN" "http://www.w3.org/Graphics/SVG/1.1/DTD/svg11.dtd" [
	<!ENTITY ns_svg "http://www.w3.org/2000/svg">
	<!ENTITY ns_xlink "http://www.w3.org/1999/xlink">
]>
<svg  version="1.1" id="Layer_1" xmlns="&ns_svg;" xmlns:xlink="&ns_xlink;" width="366.75" height="367.5"
	 viewBox="0 0 366.75 367.5" overflow="visible" enable-background="new 0 0 366.75 367.5" xml:space="preserve">
<g>
	<g>
		<path fill-rule="evenodd" clip-rule="evenodd" fill="#FFFFFF" d="M298.5,38.25c-2.836,1.086-1.439-2.061-3.75-1.5
			C295.175,34.101,298.278,36.368,298.5,38.25z"/>
		<path fill-rule="evenodd" clip-rule="evenodd" fill="#FFFFFF" d="M279,43.5c1.218,1.283,2.271,2.729,2.25,5.25
			C279.527,47.96,277.363,45.357,279,43.5z"/>
		<path fill-rule="evenodd" clip-rule="evenodd" fill="#FFFFFF" d="M309.75,51c1.002,0.748,1.473,2.027,3,2.25
			c-0.636,1.115-2.415,1.085-3.75,1.5c0.275-1.276-0.585-1.415-1.5-1.5C307.271,51.521,309.667,52.417,309.75,51z"/>
		<path fill-rule="evenodd" clip-rule="evenodd" fill="#FFFFFF" d="M276,73.5c-0.331,2.169-1.581,3.419-3.75,3.75
			C271.719,74.219,272.969,72.969,276,73.5z"/>
		<path fill-rule="evenodd" clip-rule="evenodd" fill="#FFFFFF" d="M282.75,76.5c0.75,0,1.5,0,2.25,0
			c-2.564,4.625,0.672,1.678-0.75,6.75C280.077,83.164,283.153,79.236,282.75,76.5z"/>
		<path fill-rule="evenodd" clip-rule="evenodd" fill="#FFFFFF" d="M287.25,79.5c2.442,0.254,1.722,6.153,0.75,7.5
			C287.078,85.225,285.769,81.356,287.25,79.5z"/>
		<path fill-rule="evenodd" clip-rule="evenodd" fill="#FFFFFF" d="M139.5,170.25c0.75,0,1.5,0,2.25,0
			c-2.715,1.611,2.182,7.993,1.5,3c1.626-0.126,0.34,2.66,0.75,3.75c-1.335,0.448-3.115-2.198-3.75,0
			C138.403,174.74,139.489,173.447,139.5,170.25z"/>
		<path fill-rule="evenodd" clip-rule="evenodd" fill="#FFFFFF" d="M120,173.25c-0.196,2.195,1.696,2.305,1.5,4.5
			c-4.015-0.628-3.251-1.373-4.5-4.5C118.49,174.499,117.954,173.183,120,173.25z"/>
		<path fill-rule="evenodd" clip-rule="evenodd" fill="#FFFFFF" d="M92.25,222.75c0.135,1.207,3.564-1.222,3,2.25
			c-2.859-0.142-4.935-1.065-5.25-3.75c3.102,0.195,3.017-0.891,2.25-3c2.853-1.103,0.147,3.353,3,2.25
			C95.041,222.041,93.247,221.997,92.25,222.75z"/>
		<path fill-rule="evenodd" clip-rule="evenodd" fill="#FFFFFF" d="M78.75,228c-1.955,6.951-0.42,6.371,0,14.25
			c-1.064-0.064-2.124-0.124-2.25,0.75c-1.626,0.126-0.34-2.66-0.75-3.75c-2.25,0-4.5,0-6.75,0
			C72.974,236.022,72.881,227.135,78.75,228z"/>
		<path fill-rule="evenodd" clip-rule="evenodd" fill="#FFFFFF" d="M52.5,249.75c-0.737,1.704-3.755,1.858-3.75-0.75
			C50.311,247.373,51.174,249.092,52.5,249.75z"/>
		<path fill-rule="evenodd" clip-rule="evenodd" fill="#FFFFFF" d="M39,256.5c0.763,0.487,0.775,1.725,2.25,1.5
			c-0.358,3.393,1.34,8.84-3,8.25C38.013,263.668,36.909,259.176,39,256.5z"/>
		<path fill-rule="evenodd" clip-rule="evenodd" fill="#FFFFFF" d="M32.25,261.75C29.229,267.851,28.284,257.045,32.25,261.75
			L32.25,261.75z"/>
		<path fill-rule="evenodd" clip-rule="evenodd" fill="#FFFFFF" d="M366.75,0c0,122.5,0,245,0,367.5c-122.25,0-244.5,0-366.75,0
			C0,245,0,122.5,0,0C122.25,0,244.5,0,366.75,0z M336,81.75c3.608,0.358,5.108-1.392,6.75-3c-3.625,0.875-2.453-3.047-4.5-3.75
			c1.5,0,3,0,4.5,0c0.703-3.297,3.184-4.816,3-9c4.175,0.425,3.873-3.627,6.75-4.5c4.744,0.755,6.281,4.719,10.5,6
			c0-1.25,0-2.5,0-3.75c-4.829-0.421-7.124-3.376-8.25-7.5c-2.608,0.358-4.64,0.14-3.75-3c-1.25,0-2.5,0-3.75,0
			c-1.014-7.486-13.069-3.931-13.5-12c-4.718,1.473-9.207,3.746-10.5-2.25c1,0,2,0,3,0c2.445-6.393-2.801-7.711-3.75-12.75
			c-5.077-3.535-7.627-14.131-16.5-7.5c3.104,2.323-4.896,5.943-6,9c-4.115,1.116-3.291-2.709-6-3c-2.14,1.407-8,1.348-7.5-2.25
			c0.01-1.49,2.046-0.954,1.5-3c-2.708-0.042-3.631-1.87-6-2.25c0.776,1.92,2.704,5.17,0.75,7.5c1.122,0.128,2.768-0.268,3,0.75
			c0,1.25,0,2.5,0,3.75c-10.715-0.37-3.735,9.862-9.75,12c0.057-1.306-0.167-2.333-0.75-3c-3.82,0.989-6.656,1.421-9.75,1.5
			c4.007,5.493,11.384,7.616,12.75,15.75c-1.236,2.674-2.301,7.608-6.75,6c0.756-1.494,1.874-2.626,3-3.75
			c-2.195,0.196-2.305-1.696-4.5-1.5c-0.956,1.544-1.196,3.804-3.75,3.75c1.487-2.81-8.686-0.369-9,2.25
			c0.709,1.871,3.864-2.017,3.75,1.5c-4.408-0.658-6.799,0.701-7.5,3.75c3.851,0.444-1.507,5.461,3,5.25
			c-0.112-1.862,0.388-3.112,1.5-3.75c2.009,2.679,3.405-1.536,6-0.75c2.835,5.255-1.865,7.658-3.75,10.5
			c2.048,1.959,1.911-2.497,4.5-2.25c1.609,3.496,1.352,1.125,3.75,0c0.589,3.089-1.151,3.849-0.75,6.75
			c1.122,0.128,2.768-0.268,3,0.75c0.049,6.336-6.026,8.176-3,13.5c0.332-4.792,5.992,1.764,6.75,3.75
			c0.381-1.869-0.024-4.524,2.25-4.5c1.223,0.349,1.237,5.667,3,3c-2.485-0.732,0.838-1.482,0.75-2.25
			c-0.915-0.085-1.775-0.224-1.5-1.5c1.529-1.506,1.471,0.332,3,0.75c-0.124-2.624,0.199-4.801,1.5-6
			c3.144,0.112,1.806-0.388,0.75-1.5c2.721,0.029,2.41,3.089,4.5,3.75c-1.185,3.082-4.657,7.82-2.25,12
			c4.797-2.279,6.62,4.867,10.5,6c0.478-5.198-0.826-4.8-2.25-10.5c2.164,2.239,1.773,0.499,3.75-0.75
			c-2.12,2.209,0.741,3.666,2.25,4.5c0.927-2.427-2.427-0.573-1.5-3c1.729,1.488,0.833-0.188,2.25-0.75
			c-1.717,7.636,8.727,2.68,11.25,6c0.128-1.122-0.268-2.768,0.75-3c6.449,0.136,12.332,15.102,15,22.5
			c9.258,25.671,24.751,57.861,36,80.25c-1.088-4.325,0.332-6.71,0-12c-13.2-23.523-23.527-50.833-35.25-77.25
			c-3.293-7.421-6.908-16.577-8.25-24.75c1.877,0.094,2.348,1.432,3-0.75c-1.335-0.364,0.325-0.8,0.75-1.5
			c-0.875-1.125-2.166-1.834-2.25-3.75c2.868,0.381,2.447,4.052,6.75,3c0.759,1.991,1.233,4.267,3.75,4.5
			C336.379,87.499,335.461,86.645,336,81.75z M171.75,110.25c1.314,0.686,3.742,0.258,4.5,1.5c0.568,5.7-5.591,0.012-5.25,5.25
			c2.155-0.155,3.81,0.19,4.5,1.5c0.82,4.353-1.271,2.292-1.5,4.5c2.071-0.5,2.339,4.565,3,3c0.552-3.845,0.855-5.032,1.5-7.5
			c2.036-0.536-0.536,3.536,1.5,3c-0.173-2.447,2.638-3.024,4.5-5.25c1.544,0.956,3.804,1.196,3.75,3.75
			c-1.475,0.225-1.487-1.013-2.25-1.5c-1.019,3.925,1.787,2.121,2.25,3c-2.501,6.444-4.061,8.565-9.75,15
			c2.659,3.297,3.458,7.305,2.25,12.75c4.641-0.169,8.956,1.238,12.75,3.75c-0.505-2.834-0.919-4.032,2.25-4.5
			c0.472,1.278,2.266,1.234,3,2.25c3.826,18.234,4.325,26.51,9.75,42.75c7.836,47.443,25.771,119.1,39,173.25c1.5,0,3,0,4.5,0
			c-14.208-56.583-28.394-123.152-42.75-177c-0.369-13.48-7.833-27.088-6.75-41.25c-0.98,2.316,2.128,4.255,3,2.25
			c-3.433-0.994-0.783-3.612-2.25-6c2.4-0.85,2.687-3.813,4.5-5.25c-1.537-1.066-3.15-2.316-0.75-3.75
			c0.949,2.051,1.188,4.813,2.25,6.75c2.641-4.865,9.266,0.035,10.5-3.75c-1.313-0.645-7.091-5.04-5.25-10.5
			c-0.967-1.033-3.258-0.742-5.25-0.75c0.047-2.936-1.448-6.018-0.75-8.25c4.555-1.189,5.513-0.54,12-1.5
			c-0.582-3.22,1.883-4.832-0.75-6c0.999-0.751,2.264-1.236,3-2.25c-6.159,0.855,0.633-3.198-3-3.75
			c-7.928-2.544-13.434,3.118-16.5,6.75c-1.163-2.971-2.544-5.578,0-8.25c1.08-0.4,1.83,2.923,2.25,0.75
			c-0.842-0.159-1.168-0.833-1.5-1.5c2.451-1.996,3.031-0.31,5.25-1.5c-2.115-1.02-4.253,0.212-1.5-2.25
			c-2.362-0.362-1.698,2.302-4.5,1.5c0.823-3.83-0.1-5.542-1.5-7.5c-2.722-0.722-0.63,3.37-3,3c-0.364-0.886-0.8-1.7-1.5-2.25
			c-1.689,0.748,1.622,4.089-0.75,5.25c-2.365-0.815-0.131-10.251-2.25-6c-1.839-0.999,1.352-2.264-0.75-3
			c-0.158,0.841-0.832,1.167-1.5,1.5c-0.686-1.314-0.258-3.742-1.5-4.5c-1.026,3.473-1.675,7.325-3.75,9.75
			c0.11-1.86,0.14-3.64-1.5-3.75c1.76,3.843-1.412,1.215-1.5,3.75c1.993,3.433,0.796,8.428,2.25,14.25c1.027-4.03,1.74,4.659,3-0.75
			c1.66,0.54,3.058,5.17,0.75,5.25C183.808,114.551,177.846,104.774,171.75,110.25z M169.5,141.75c-0.04-1.403,0.577-1.588,1.5-0.75
			c-0.21-2.188,0.181-2.578,1.5-1.5c-1.027-6.954,6.133-1.253,5.25-8.25c-1.396,0.717-2.507-2.246-3,0
			c1.487,1.055-4.411,1.039-5.25,2.25c0,1,0,2,0,3C173.967,136.942,166.727,140.68,169.5,141.75z M126.75,159.75
			c2.218,1.785-0.931,4.519-1.5,6c-1.8-2.927,3.246-4.959-1.5-6c-0.268,6.608,0.75,11.123-0.75,17.25
			c-1.471-0.339-0.238-7.182-2.25-4.5c0.756,0.009,0.943,1.314,0,1.5c-2.2-3.271,2.228-4.399,2.25-6
			c-2.718-0.505-7.432-12.603-15-10.5c-0.906,4.147-0.991,2.89-1.5,6.75c1.09,0.41,3.876-0.876,3.75,0.75
			c-0.79,5.29,1.325,7.675,1.5,12c-1.862,0.976-3.112-2.2-3.75,0c3.063,1.154-0.421,7.83-3,8.25c0.75-4.358,2.322-6.133,2.25-7.5
			c-1.287-1.72-2.211,3.239-3.75,3.75c0.254-2.867-7.061,0.077-9-2.25c-0.226,3.624-0.892,4.03-1.5,8.25
			c4.293,2.294,6.128-1.214,9,2.25c-1.772,1.761,0.122,3.685,0,6c-0.75,0-1.5,0-2.25,0c1.555,5.646,4.219,12.134-1.5,15
			c-3.875,1.942-6.442,3.457-9.75,0c-0.075-2.325,0.917-3.583,1.5-5.25c-4.286,0.964-6.313,4.188-9.75,6
			c-1.984-1.291-1.005-5.991-1.5-6.75c-1.084,1.166-1.577,2.923-2.25,4.5c3.928,2.442,5.54,7.219,3.75,12
			c-3.053,0.053-3.229-2.771-3-6c-4.789-0.343-2.442-3.16-6-4.5c-4.409,1.202-5.913,1.417-9,4.5c2.881,0.869,3.901,3.6,6,5.25
			c-2.348,0.386-3.348-2.051-3,1.5c1.125,2.479,1.834-1.559,3.75-0.75c0.128,1.122-0.268,2.768,0.75,3
			c-0.127-2.075,1.152-2.575,2.25-1.5c-2.51,8.569-10.017,6.717-14.25,12c-1.585-3.868-3.702-3.781-8.25-3.75
			c0.112-1.862-0.388-3.112-1.5-3.75c-0.659,1.326-2.377,2.189-0.75,3.75c-1.869,1.131-3.68,2.32-6,3
			c-0.296-2.454-3.675-1.825-6-2.25c-1.168,1.582-2.78,2.72-6,2.25c0.62,2.12-1.057,1.943-0.75,3.75c1.299,0.895,4.597,1.415,3,3
			c2.472-1.275,3.748-0.043,5.25,1.5c0.546,2.046-1.49,1.51-1.5,3c1.475,0.225,1.487-1.013,2.25-1.5c0.4,4.15-2.532,4.968-3.75,7.5
			c0.997,1.837,2.791-0.824,3,0.75c-2.531,1.521-5.061,2.813-8.25,5.25c1.975-3.775,4.452-7.048,6.75-10.5
			c-3.404-0.403-2.002,3.997-5.25,3.75c1.055-1.945,1.039-4.961,2.25-6.75c-7.345-4.753-11.277,0.019-12.75,8.25
			c3.412-1.346,5.938-4.193,9-2.25c-2.842,1.879-6.591,1.578-6.75,7.5c2.803,0.994,4.295-3.125,5.25-1.5
			c-1.4,1.334,0.609,1.906,0,4.5c-3.116,1.648-5.154,8.327-4.5,11.25c0.56-2.94,2.966-4.034,5.25-5.25
			c-0.832,2.028-0.582,4.287,0.75,6c0.679-0.429,2.761-3.093,3-1.5c-1.405,1.429-0.082,1.885,0,3.75c4.286,1.173,4.39-0.213,7.5-1.5
			c4.636,10.007,0.407,22.033-0.75,33.75c-1.902,19.25-3.447,39.442-6.75,55.5c-0.95,1.3-2.535,1.965-2.25,4.5
			c2.28-0.471,6.46,0.96,7.5-0.75c1.869-28.132,2.694-63.805,8.25-90.75c2.558,3.626,6.88-0.813,9-1.5
			c2.51-0.813-1.171,1.921,1.5-0.75c1.771-1.771,4.926-3.133,5.25-6.75c-4.069-0.682-2.863-6.637-6-8.25
			c1.527-1.504,1.998-0.195,3,0.75c1.249-1.49-0.068-0.954,0-3c1.337,2.341,2.938-0.24,4.5,1.5c-0.815,0.18-1.801,1.235-0.75,1.5
			c1.112-2.944,1.167-0.145,2.25,0.75c1.653-0.852,2.484-3.571,5.25-2.25c-1.836-3.115,1.82-3.65,1.5-5.25
			c2.617,1.379,3.18,0.144,5.25-0.75c5.989,43.724,2.94,68.634,0,115.5c1.5,0,3,0,4.5,0c1.681-36.386,0.164-80.254,1.5-117.75
			c-1.487-2.417-0.54-7.729,2.25-8.25c0.192,3.662-1.258,5.08,0.75,7.5c0.364-1.335,0.8,0.325,1.5,0.75
			c1.112-0.888,1.167-2.833,2.25-3.75c3.461,1.906,0.101,6.648,3,8.25c0.353-2.085,0.368-2.101,3-3c1.628-5.8-6.669-8.242-2.25-12
			c0.493,1.007,1.603,1.396,3,1.5c0.832-3.092,1.401-2.101,3-3.75c-0.844-4.047-6.68-4.025-9-4.5c1.16-1.09,0.661-3.84,0.75-6
			c3.323,0.89,4.042-0.142,7.5,2.25c-0.629,0.87-0.989,2.011-0.75,3.75c4.751-2.74,6.96,2.069,10.5,0.75
			c-0.302-3.926-0.177-3.858-2.25-7.5c-2.123,2.304-4.293,0.532-7.5,2.25c-3.046-2.784,1.146-9.846-2.25-9
			c1.515-3.735,2.674-7.825,7.5-8.25c-1.734-1.542,2.047-3.909,0.75-7.5c4.45-1.176,2.449-0.926,4.5-4.5
			c2.192,4.366,0.793-4.61,3.75-1.5c0.41-1.09-0.876-3.876,0.75-3.75c0.129,3.229,4.681-5.016,6-3c-1.282,2.097-5.468,13.446-3,9.75
			c-0.831,3.919-2.895,6.605-3,11.25c1.475,0.225,1.487-1.013,2.25-1.5c0.609,1.701-1.4,5.021,0,3c2.037,0.536-0.537-3.536,1.5-3
			c-0.376,3.126,2.192,3.308,1.5,6.75c2.602-0.624,1.201-3.374,3.75-0.75c0.62-2.286,0.089-3.818,0.75-4.5
			c15.108,44.749,14.523,101.246,18.75,156c1.5,0,3,0,4.5,0c-4.543-49.784-6.462-94.124-13.5-136.5
			c-3.003-6.381-6.792-21.323-6-31.5c1.709,0.21,2.819-0.181,3-1.5c-0.983-0.012-0.956-2.08,0-2.25
			c1.326,0.658,2.189,2.377,3.75,0.75c0.927-2.427-2.427-0.573-1.5-3c1.07,0.18,1.265,1.235,2.25,1.5
			c-0.911-1.34-0.137-4.363-1.5-5.25c-1.322,2.465-4.846-0.012-6.75,0.75c1.3-3.317,3.416-2.351,3-5.25
			c2.355-0.379,3.064,1.768,3.75-0.75c-1.127-1.453-3.158,1.312-3.75-1.5c3.286,0.546-0.604-1.49,1.5-1.5
			c3.351,1.148,3.613,5.387,6,7.5c0.35-1.435-2.312-3.229,0.75-3c-0.714,8.168-3.229,10.338-0.75,18.75
			c-1.851,0.042-2.446-4.975-4.5-2.25c2.696,1.463-2.012,5.666,1.5,6c0.168-0.582,0.021-1.479,0.75-1.5c1.354,2.646,0.892,7.108,3,9
			c1.229-2.545-1.578-7.921,1.5-6.75c-1.281-2.447-3.901-5.826,0.75-6.75c1.317,2.683,1.721,6.278,4.5,7.5
			c2.517-1.936-1.302-6.194,0-6.75c1.655,0.595,0.975,3.525,3,3.75c-1.496-5.014,1.125-1.247,2.25-2.25
			c-1.379-2.258-2.353-2.068-1.5-5.25c-1.827-0.424-3.858-0.643-3.75-3c1.28-0.72,1.644-2.356,2.25-3.75
			c-1.614-0.636-2.653-1.847-2.25-4.5c2.766-0.229,3.597,5.354,5.25,3.75c-0.841-0.158-1.167-0.832-1.5-1.5
			c1.493-2.476,3.204,1.858,3.75,0c-0.868-0.239-3.533-2.321-1.5-3c0.411,1.918,2.273,0.841,3,3.75c1.322-4.246-5.24-4.584-1.5-6.75
			c-1.775-1.975-6.181-1.319-6-5.25c3.007-1.437,7.684,1.721,9.75,0c-0.874-0.126-0.814-1.186-0.75-2.25
			c-4.646-0.021-6.137-1.233-9-1.5c2.378-2.653-1.029-2.747,1.5-5.25c-1.681-1.319-3.694-2.306-6-3c1.111-0.14,0.688-1.813,0.75-3
			c0.98,0.992,3.97,0.163,4.5-1.5c-4.221-0.17-5.605,2.268-9.75,3.75c-0.163-3.688-4.808-0.114-4.5-5.25
			c-0.09-1.899,3.168-4.253,1.5-5.25C131.148,157.395,128.773,160.202,126.75,159.75z M362.25,362.25
			c-1.928,1.248-7.84-0.122-9.75,3.75c1.921,1.023,8.472,0.701,13.5,0.75c0.057-3.307-0.054-6.446-2.25-7.5
			c-0.072,2.797-2.928,0.051-3,1.5C361.592,360.908,361.918,361.582,362.25,362.25z"/>
		<path fill-rule="evenodd" clip-rule="evenodd" d="M333,93.75c-2.517-0.233-2.991-2.509-3.75-4.5c-4.303,1.052-3.882-2.619-6.75-3
			c0.084,1.916,1.375,2.625,2.25,3.75c-0.425,0.7-2.085,1.136-0.75,1.5c-0.652,2.182-1.123,0.844-3,0.75
			c1.342,8.173,4.957,17.329,8.25,24.75c11.723,26.417,22.05,53.727,35.25,77.25c0.332,5.29-1.088,7.675,0,12
			c-11.249-22.389-26.742-54.579-36-80.25c-2.668-7.398-8.551-22.364-15-22.5c-1.018,0.232-0.622,1.878-0.75,3
			c-2.523-3.32-12.967,1.636-11.25-6c-1.417,0.562-0.521,2.238-2.25,0.75c-0.927,2.427,2.427,0.573,1.5,3
			c-1.509-0.834-4.37-2.291-2.25-4.5c-1.977,1.249-1.586,2.989-3.75,0.75c1.424,5.7,2.728,5.302,2.25,10.5
			c-3.88-1.133-5.703-8.279-10.5-6c-2.407-4.18,1.065-8.918,2.25-12c-2.09-0.661-1.779-3.721-4.5-3.75
			c1.056,1.112,2.394,1.612-0.75,1.5c-1.301,1.199-1.624,3.376-1.5,6c-1.529-0.418-1.471-2.256-3-0.75
			c-0.275,1.276,0.585,1.415,1.5,1.5c0.088,0.768-3.235,1.518-0.75,2.25c-1.763,2.667-1.777-2.651-3-3
			c-2.274-0.024-1.869,2.631-2.25,4.5c-0.758-1.986-6.418-8.542-6.75-3.75c-3.026-5.324,3.049-7.164,3-13.5
			c-0.232-1.018-1.878-0.622-3-0.75c-0.401-2.901,1.339-3.661,0.75-6.75c-2.398,1.125-2.141,3.496-3.75,0
			c-2.589-0.247-2.452,4.209-4.5,2.25c1.885-2.842,6.585-5.245,3.75-10.5c-2.595-0.786-3.991,3.429-6,0.75
			c-1.112,0.638-1.612,1.888-1.5,3.75c-4.507,0.211,0.851-4.806-3-5.25c0.701-3.049,3.092-4.408,7.5-3.75
			c0.114-3.517-3.041,0.371-3.75-1.5c0.314-2.619,10.487-5.06,9-2.25c2.554,0.054,2.794-2.206,3.75-3.75
			c2.195-0.196,2.305,1.696,4.5,1.5c-1.126,1.124-2.244,2.256-3,3.75c4.449,1.608,5.514-3.326,6.75-6
			c-1.366-8.134-8.743-10.257-12.75-15.75c3.094-0.079,5.93-0.511,9.75-1.5c0.583,0.667,0.807,1.694,0.75,3
			c6.015-2.138-0.965-12.37,9.75-12c0-1.25,0-2.5,0-3.75c-0.232-1.018-1.878-0.622-3-0.75c1.954-2.33,0.026-5.58-0.75-7.5
			c2.369,0.38,3.292,2.208,6,2.25c0.546,2.046-1.49,1.51-1.5,3c-0.5,3.598,5.36,3.657,7.5,2.25c2.709,0.291,1.885,4.116,6,3
			c1.104-3.057,9.104-6.677,6-9c8.873-6.631,11.423,3.965,16.5,7.5c0.949,5.039,6.195,6.357,3.75,12.75c-1,0-2,0-3,0
			c1.293,5.996,5.782,3.723,10.5,2.25c0.431,8.069,12.486,4.514,13.5,12c1.25,0,2.5,0,3.75,0c-0.89,3.14,1.142,3.358,3.75,3
			c1.126,4.124,3.421,7.079,8.25,7.5c0,1.25,0,2.5,0,3.75c-4.219-1.281-5.756-5.245-10.5-6c-2.877,0.873-2.575,4.925-6.75,4.5
			c0.184,4.184-2.297,5.703-3,9c-1.5,0-3,0-4.5,0c2.047,0.703,0.875,4.625,4.5,3.75c-1.642,1.608-3.142,3.358-6.75,3
			C335.461,86.645,336.379,87.499,333,93.75z M294.75,36.75c2.311-0.561,0.914,2.586,3.75,1.5
			C298.278,36.368,295.175,34.101,294.75,36.75z M281.25,48.75c0.021-2.521-1.032-3.967-2.25-5.25
			C277.363,45.357,279.527,47.96,281.25,48.75z M307.5,53.25c0.915,0.085,1.775,0.224,1.5,1.5c1.335-0.415,3.114-0.385,3.75-1.5
			c-1.527-0.223-1.998-1.502-3-2.25C309.667,52.417,307.271,51.521,307.5,53.25z M315.75,74.25c-0.098-2.903-2.48-3.519-3.75-5.25
			c-0.296,1.29,1.113,1.923,0,2.25c-2.676-1.324-4.133-3.867-6.75-5.25c-0.559,4.809,4.176,4.324,3,9.75c3.133-0.169,3.542,1.22,6,0
			c0.116-1.866-1.178-2.322-1.5-3.75c0.5,0,1,0,1.5,0C314.321,73.179,314.149,74.601,315.75,74.25z M269.25,76.5
			c2.84,0.709,3.019-7.954,2.25-6C269.755,71.505,270.341,74.841,269.25,76.5z M272.25,77.25c2.169-0.331,3.419-1.581,3.75-3.75
			C272.969,72.969,271.719,74.219,272.25,77.25z M292.5,81c-0.717,1.397,2.246,2.507,0,3c-1.688-0.312,0.112-4.112-2.25-3.75
			c-0.831,3.169-0.864,7.136-0.75,11.25c3.281-0.531,5.108,0.392,6,2.25c3.018-1.811,0.498-5.402,3-6.75
			c1.742,0.258,3.515,0.485,3,3c1.958-0.092,4.224-3.708,2.25-5.25c-2.118,2.559-1.459-2.731-0.75-3.75
			c-5.494,1.244-1.27-7.23-6-6.75c0.574,2.858-2.758,10.497-1.5,6C294.082,80.082,293.846,81.095,292.5,81z M284.25,83.25
			c1.422-5.072-1.814-2.125,0.75-6.75c-0.75,0-1.5,0-2.25,0C283.153,79.236,280.077,83.164,284.25,83.25z M288,87
			c0.972-1.347,1.692-7.246-0.75-7.5C285.769,81.356,287.078,85.225,288,87z"/>
		<path fill-rule="evenodd" clip-rule="evenodd" fill="#FFFFFF" d="M314.25,72c-0.5,0-1,0-1.5,0c0.322,1.428,1.616,1.884,1.5,3.75
			c-2.458,1.22-2.867-0.169-6,0c1.176-5.426-3.559-4.941-3-9.75c2.617,1.383,4.074,3.926,6.75,5.25c1.113-0.327-0.296-0.96,0-2.25
			c1.27,1.731,3.652,2.347,3.75,5.25C314.149,74.601,314.321,73.179,314.25,72z"/>
		<path fill-rule="evenodd" clip-rule="evenodd" fill="#FFFFFF" d="M271.5,70.5c0.769-1.954,0.59,6.709-2.25,6
			C270.341,74.841,269.755,71.505,271.5,70.5z"/>
		<path fill-rule="evenodd" clip-rule="evenodd" fill="#FFFFFF" d="M295.5,80.25c-1.258,4.497,2.074-3.142,1.5-6
			c4.73-0.48,0.506,7.994,6,6.75c-0.709,1.019-1.368,6.309,0.75,3.75c1.974,1.542-0.292,5.158-2.25,5.25
			c0.515-2.515-1.258-2.742-3-3c-2.502,1.348,0.018,4.939-3,6.75c-0.892-1.858-2.719-2.781-6-2.25
			c-0.114-4.114-0.081-8.081,0.75-11.25c2.362-0.362,0.562,3.438,2.25,3.75c2.246-0.493-0.717-1.603,0-3
			C293.846,81.095,294.082,80.082,295.5,80.25z"/>
		<path fill-rule="evenodd" clip-rule="evenodd" d="M189.75,116.25c2.308-0.08,0.91-4.71-0.75-5.25c-1.26,5.409-1.973-3.28-3,0.75
			c-1.454-5.822-0.257-10.817-2.25-14.25c0.088-2.535,3.26,0.093,1.5-3.75c1.64,0.11,1.61,1.89,1.5,3.75
			c2.075-2.425,2.724-6.277,3.75-9.75c1.242,0.758,0.814,3.186,1.5,4.5c0.668-0.333,1.342-0.659,1.5-1.5
			c2.102,0.736-1.089,2.001,0.75,3c2.119-4.251-0.115,5.185,2.25,6c2.372-1.161-0.939-4.502,0.75-5.25
			c0.7,0.55,1.136,1.364,1.5,2.25c2.37,0.37,0.278-3.722,3-3c1.4,1.958,2.323,3.67,1.5,7.5c2.802,0.802,2.138-1.862,4.5-1.5
			c-2.753,2.462-0.615,1.23,1.5,2.25c-2.219,1.19-2.799-0.496-5.25,1.5c0.332,0.667,0.658,1.341,1.5,1.5
			c-0.42,2.173-1.17-1.15-2.25-0.75c-2.544,2.672-1.163,5.279,0,8.25c3.066-3.632,8.572-9.294,16.5-6.75
			c3.633,0.552-3.159,4.605,3,3.75c-0.736,1.014-2.001,1.499-3,2.25c2.633,1.168,0.168,2.78,0.75,6c-6.487,0.96-7.445,0.311-12,1.5
			c-0.698,2.232,0.797,5.314,0.75,8.25c1.992,0.008,4.283-0.283,5.25,0.75c-1.841,5.46,3.937,9.855,5.25,10.5
			c-1.234,3.785-7.859-1.115-10.5,3.75c-1.063-1.938-1.301-4.699-2.25-6.75c-2.4,1.434-0.787,2.684,0.75,3.75
			c-1.813,1.437-2.1,4.4-4.5,5.25c1.467,2.388-1.183,5.006,2.25,6c-0.872,2.005-3.98,0.066-3-2.25
			c-1.083,14.162,6.381,27.77,6.75,41.25c14.356,53.848,28.542,120.417,42.75,177c-1.5,0-3,0-4.5,0
			c-13.229-54.15-31.164-125.807-39-173.25c-5.425-16.24-5.924-24.516-9.75-42.75c-0.734-1.016-2.528-0.972-3-2.25
			c-3.169,0.468-2.755,1.666-2.25,4.5c-3.794-2.512-8.109-3.919-12.75-3.75c1.208-5.445,0.409-9.453-2.25-12.75
			c5.689-6.435,7.249-8.556,9.75-15c-0.463-0.879-3.269,0.925-2.25-3c0.763,0.487,0.775,1.725,2.25,1.5
			c0.054-2.554-2.206-2.794-3.75-3.75c-1.862,2.226-4.673,2.803-4.5,5.25c-2.036,0.536,0.536-3.536-1.5-3
			c-0.645,2.468-0.948,3.655-1.5,7.5c-0.661,1.565-0.929-3.5-3-3c0.229-2.208,2.32-0.147,1.5-4.5c-0.69-1.31-2.345-1.655-4.5-1.5
			c-0.341-5.238,5.818,0.45,5.25-5.25c-0.758-1.242-3.186-0.814-4.5-1.5C177.846,104.774,183.808,114.551,189.75,116.25z M196.5,108
			c-0.099-1.155-0.812-4.163-3-5.25c1.477,3.626-0.82,5.732,0,7.5c0.42-1.08,1.17-1.83,2.25-2.25
			C195.748,108.417,196.357,108.852,196.5,108z M207,123c-1.279-0.308,0.158-0.967,0-2.25c-1.672-1.828-4.755-2.245-6-4.5
			c0.338,2.088-4.088-0.588-3.75,1.5c1.796,1.454,5.297,1.203,6,3.75c-1.166-0.905-2.923-2.396-4.5-0.75
			c2.019,3.387-3.418,11.655,2.25,10.5c-1.26-1.363,0.955-4.122-1.5-3.75c1.523-0.547,2.148-3.171,0.75-4.5
			C202.755,125.612,204.892,121.651,207,123z M186.75,137.25c2.953,0.971,7.417-0.728,6.75,5.25c4.97-2.431-0.619-9.866-0.75-14.25
			C190.837,132.27,189.829,134.619,186.75,137.25z"/>
		<path fill-rule="evenodd" clip-rule="evenodd" fill="#FFFFFF" d="M195.75,108c-1.08,0.42-1.83,1.17-2.25,2.25
			c-0.82-1.768,1.477-3.874,0-7.5c2.188,1.087,2.901,4.095,3,5.25C196.357,108.852,195.748,108.417,195.75,108z"/>
		<path fill-rule="evenodd" clip-rule="evenodd" fill="#FFFFFF" d="M200.25,123c1.398,1.329,0.773,3.953-0.75,4.5
			c2.455-0.372,0.24,2.387,1.5,3.75c-5.668,1.155-0.231-7.113-2.25-10.5c1.577-1.646,3.334-0.155,4.5,0.75
			c-0.703-2.547-4.204-2.296-6-3.75c-0.338-2.088,4.088,0.588,3.75-1.5c1.245,2.255,4.328,2.672,6,4.5
			c0.158,1.283-1.279,1.942,0,2.25C204.892,121.651,202.755,125.612,200.25,123z"/>
		<path fill-rule="evenodd" clip-rule="evenodd" fill="#FFFFFF" d="M192.75,128.25c0.131,4.384,5.72,11.819,0.75,14.25
			c0.667-5.978-3.797-4.279-6.75-5.25C189.829,134.619,190.837,132.27,192.75,128.25z"/>
		<path fill-rule="evenodd" clip-rule="evenodd" d="M169.5,136.5c0-1,0-2,0-3c0.839-1.211,6.737-1.195,5.25-2.25
			c0.493-2.246,1.604,0.717,3,0c0.883,6.997-6.277,1.296-5.25,8.25c-1.319-1.078-1.71-0.688-1.5,1.5
			c-0.923-0.838-1.54-0.653-1.5,0.75C166.727,140.68,173.967,136.942,169.5,136.5z"/>
		<path fill-rule="evenodd" clip-rule="evenodd" d="M132.75,155.25c1.668,0.997-1.59,3.351-1.5,5.25
			c-0.308,5.136,4.337,1.563,4.5,5.25c4.145-1.482,5.529-3.92,9.75-3.75c-0.53,1.663-3.52,2.492-4.5,1.5
			c-0.063,1.188,0.361,2.86-0.75,3c2.306,0.694,4.319,1.681,6,3c-2.529,2.503,0.878,2.597-1.5,5.25c2.863,0.267,4.354,1.479,9,1.5
			c-0.064,1.064-0.124,2.124,0.75,2.25c-2.066,1.721-6.743-1.437-9.75,0c-0.181,3.931,4.225,3.275,6,5.25
			c-3.74,2.166,2.822,2.504,1.5,6.75c-0.727-2.909-2.589-1.832-3-3.75c-2.033,0.679,0.632,2.761,1.5,3
			c-0.546,1.858-2.257-2.476-3.75,0c0.333,0.668,0.659,1.342,1.5,1.5c-1.653,1.604-2.484-3.979-5.25-3.75
			c-0.403,2.653,0.636,3.864,2.25,4.5c-0.606,1.394-0.97,3.03-2.25,3.75c-0.108,2.357,1.923,2.576,3.75,3
			c-0.853,3.182,0.121,2.992,1.5,5.25c-1.125,1.003-3.746-2.764-2.25,2.25c-2.025-0.225-1.345-3.155-3-3.75
			c-1.302,0.556,2.517,4.814,0,6.75c-2.779-1.222-3.183-4.817-4.5-7.5c-4.651,0.924-2.031,4.303-0.75,6.75
			c-3.078-1.171-0.271,4.205-1.5,6.75c-2.108-1.892-1.646-6.354-3-9c-0.729,0.021-0.582,0.918-0.75,1.5
			c-3.512-0.334,1.196-4.537-1.5-6c2.054-2.725,2.649,2.292,4.5,2.25c-2.479-8.412,0.036-10.582,0.75-18.75
			c-3.062-0.229-0.4,1.565-0.75,3c-2.387-2.113-2.649-6.352-6-7.5c-2.104,0.01,1.786,2.046-1.5,1.5
			c0.592,2.812,2.623,0.047,3.75,1.5c-0.686,2.518-1.395,0.371-3.75,0.75c0.416,2.899-1.7,1.933-3,5.25
			c1.904-0.762,5.428,1.715,6.75-0.75c1.363,0.887,0.589,3.91,1.5,5.25c-0.985-0.265-1.18-1.32-2.25-1.5
			c-0.927,2.427,2.427,0.573,1.5,3c-1.561,1.627-2.424-0.092-3.75-0.75c-0.956,0.17-0.983,2.238,0,2.25
			c-0.181,1.319-1.291,1.71-3,1.5c-0.792,10.177,2.997,25.119,6,31.5c7.038,42.376,8.957,86.716,13.5,136.5c-1.5,0-3,0-4.5,0
			c-4.227-54.754-3.642-111.251-18.75-156c-0.661,0.682-0.13,2.214-0.75,4.5c-2.549-2.624-1.148,0.126-3.75,0.75
			c0.692-3.442-1.876-3.624-1.5-6.75c-2.037-0.536,0.537,3.536-1.5,3c-1.4,2.021,0.609-1.299,0-3c-0.763,0.487-0.775,1.725-2.25,1.5
			c0.105-4.645,2.169-7.331,3-11.25c-2.468,3.696,1.718-7.653,3-9.75c-1.319-2.016-5.871,6.229-6,3
			c-1.626-0.126-0.34,2.66-0.75,3.75c-2.957-3.11-1.558,5.866-3.75,1.5c-2.051,3.574-0.05,3.324-4.5,4.5
			c1.297,3.591-2.484,5.958-0.75,7.5c-4.826,0.425-5.985,4.515-7.5,8.25c3.396-0.846-0.796,6.216,2.25,9
			c3.207-1.718,5.377,0.054,7.5-2.25c2.073,3.642,1.948,3.574,2.25,7.5c-3.54,1.319-5.749-3.49-10.5-0.75
			c-0.239-1.739,0.121-2.88,0.75-3.75c-3.458-2.392-4.177-1.36-7.5-2.25c-0.089,2.16,0.41,4.91-0.75,6c2.32,0.475,8.156,0.453,9,4.5
			c-1.599,1.649-2.168,0.658-3,3.75c-1.397-0.104-2.507-0.493-3-1.5c-4.419,3.758,3.878,6.2,2.25,12c-2.632,0.899-2.647,0.915-3,3
			c-2.899-1.602,0.461-6.344-3-8.25c-1.083,0.917-1.138,2.862-2.25,3.75c-0.7-0.425-1.136-2.085-1.5-0.75
			c-2.008-2.42-0.558-3.838-0.75-7.5c-2.79,0.521-3.737,5.833-2.25,8.25c-1.336,37.496,0.181,81.364-1.5,117.75c-1.5,0-3,0-4.5,0
			c2.94-46.866,5.989-71.776,0-115.5c-2.07,0.894-2.633,2.129-5.25,0.75c0.32,1.6-3.336,2.135-1.5,5.25
			c-2.766-1.321-3.597,1.398-5.25,2.25c-1.083-0.895-1.138-3.694-2.25-0.75c-1.051-0.265-0.065-1.32,0.75-1.5
			c-1.562-1.74-3.163,0.841-4.5-1.5c-0.068,2.046,1.249,1.51,0,3c-1.002-0.945-1.473-2.254-3-0.75c3.137,1.613,1.931,7.568,6,8.25
			c-0.324,3.617-3.479,4.979-5.25,6.75c-2.671,2.671,1.01-0.063-1.5,0.75c-2.12,0.687-6.442,5.126-9,1.5
			c-5.556,26.945-6.381,62.618-8.25,90.75c-1.04,1.71-5.22,0.279-7.5,0.75c-0.285-2.535,1.3-3.2,2.25-4.5
			c3.303-16.058,4.848-36.25,6.75-55.5c1.157-11.717,5.386-23.743,0.75-33.75c-3.11,1.287-3.214,2.673-7.5,1.5
			c-0.082-1.865-1.405-2.321,0-3.75c-0.239-1.593-2.321,1.071-3,1.5c-1.332-1.713-1.582-3.972-0.75-6
			c-2.284,1.216-4.69,2.31-5.25,5.25c-0.654-2.923,1.384-9.602,4.5-11.25c0.609-2.594-1.4-3.166,0-4.5
			c-0.955-1.625-2.447,2.494-5.25,1.5c0.159-5.922,3.908-5.621,6.75-7.5c-3.062-1.943-5.588,0.904-9,2.25
			c1.473-8.231,5.405-13.003,12.75-8.25c-1.211,1.789-1.195,4.805-2.25,6.75c3.248,0.247,1.846-4.153,5.25-3.75
			c-2.298,3.452-4.775,6.725-6.75,10.5c3.189-2.438,5.719-3.729,8.25-5.25c-0.209-1.574-2.003,1.087-3-0.75
			c1.218-2.532,4.15-3.35,3.75-7.5c-0.763,0.487-0.775,1.725-2.25,1.5c0.01-1.49,2.046-0.954,1.5-3
			c-1.502-1.543-2.778-2.775-5.25-1.5c1.597-1.585-1.701-2.105-3-3c-0.307-1.807,1.37-1.63,0.75-3.75c3.22,0.47,4.832-0.668,6-2.25
			c2.325,0.425,5.704-0.204,6,2.25c2.32-0.68,4.131-1.869,6-3c-1.627-1.561,0.091-2.424,0.75-3.75c1.112,0.638,1.612,1.888,1.5,3.75
			c4.548-0.031,6.665-0.118,8.25,3.75c4.233-5.283,11.74-3.431,14.25-12c-1.098-1.075-2.377-0.575-2.25,1.5
			c-1.018-0.232-0.622-1.878-0.75-3c-1.916-0.809-2.625,3.229-3.75,0.75c-0.348-3.551,0.652-1.114,3-1.5
			c-2.099-1.65-3.119-4.381-6-5.25c3.087-3.083,4.591-3.298,9-4.5c3.558,1.34,1.211,4.157,6,4.5c-0.229,3.229-0.053,6.053,3,6
			c1.79-4.781,0.178-9.558-3.75-12c0.673-1.577,1.166-3.334,2.25-4.5c0.495,0.759-0.484,5.459,1.5,6.75
			c3.438-1.813,5.464-5.036,9.75-6c-0.583,1.667-1.575,2.925-1.5,5.25c3.308,3.457,5.875,1.942,9.75,0
			c5.719-2.866,3.055-9.354,1.5-15c0.75,0,1.5,0,2.25,0c0.122-2.315-1.772-4.239,0-6c-2.872-3.464-4.707,0.044-9-2.25
			c0.608-4.22,1.274-4.626,1.5-8.25c1.939,2.327,9.254-0.617,9,2.25c1.539-0.511,2.463-5.47,3.75-3.75
			c0.072,1.367-1.5,3.142-2.25,7.5c2.579-0.42,6.063-7.096,3-8.25c0.638-2.2,1.888,0.976,3.75,0c-0.175-4.325-2.29-6.71-1.5-12
			c0.126-1.626-2.66-0.34-3.75-0.75c0.509-3.86,0.594-2.603,1.5-6.75c7.568-2.103,12.282,9.995,15,10.5
			c-0.022,1.601-4.45,2.729-2.25,6c0.943-0.186,0.756-1.491,0-1.5c2.012-2.682,0.779,4.161,2.25,4.5
			c1.5-6.127,0.482-10.642,0.75-17.25c4.746,1.041-0.3,3.073,1.5,6c0.569-1.481,3.718-4.215,1.5-6
			C128.773,160.202,131.148,157.395,132.75,155.25z M117,173.25c1.249,3.127,0.485,3.872,4.5,4.5c0.196-2.195-1.696-2.305-1.5-4.5
			C117.954,173.183,118.49,174.499,117,173.25z M140.25,177c0.635-2.198,2.415,0.448,3.75,0c-0.41-1.09,0.876-3.876-0.75-3.75
			c0.682,4.993-4.215-1.389-1.5-3c-0.75,0-1.5,0-2.25,0C139.489,173.447,138.403,174.74,140.25,177z M138.75,186.75
			c0.168-0.582,0.021-1.479,0.75-1.5c-0.012-2.238-1.95-2.55-2.25-4.5c2.339-0.848,0.176-3.216,1.5-6
			c-2.782,2.526-2.688-2.938-4.5-0.75c1.868,1.389,0.044,1.374-1.5,0.75C134.957,178.11,136.951,183.162,138.75,186.75z
			 M113.25,187.5c2.331-1.42,2.987-4.513,4.5-6.75c-2.495,0.517-1.208-1.551-0.75-2.25c-1.032,0.032-1.647-0.354-2.25-0.75
			C113.522,181.455,114.43,186.634,113.25,187.5z M122.25,200.25c-2.062-1.83-0.948-2.918-0.75-8.25c-1.792,0.469-1.102,2.661-4.5,3
			c0.525,2.309,0.525,1.441,0,3.75c2.979,0.729,0.309-4.191,3-3.75c0.017,1.767-1.292,2.208-0.75,4.5
			C120.668,199.332,120.905,200.346,122.25,200.25z M95.25,220.5c-2.853,1.103-0.147-3.353-3-2.25c0.767,2.109,0.852,3.195-2.25,3
			c0.315,2.685,2.391,3.608,5.25,3.75c0.564-3.472-2.865-1.043-3-2.25C93.247,221.997,95.041,222.041,95.25,220.5z M69,239.25
			c2.25,0,4.5,0,6.75,0c0.41,1.09-0.876,3.876,0.75,3.75c0.126-0.874,1.186-0.814,2.25-0.75c-0.42-7.879-1.955-7.299,0-14.25
			C72.881,227.135,72.974,236.022,69,239.25z M84.75,231.75c0.069,3.818-3.309,4.191-3,8.25c4.05-1.789,2.477,1.287,5.25,2.25
			c-0.88-2.619,0.885-9.096,0.75-9C87.072,235.281,86.072,231.535,84.75,231.75z M58.5,249c1.189-1.745,4.067-1.959,6.75-1.5
			c0.114-2.186-3.041-2.278-3.75-1.5c0.859-2.359-1.178-1.822-1.5-3c0.42-1.559,1.17-1.589,2.25-0.75
			c-2.412-5.897-5.369,3.739-8.25,4.5c2.51-1.271,3.101-0.064,4.5,1.5C58.083,248.248,57.648,248.857,58.5,249z M66,246.75
			c0.831,3.17,4.234,3.766,7.5,4.5c-0.432-1.318,0.906-4.406-0.75-4.5c-0.131,3.463-1.726-2.122-3.75-1.5
			C69.756,247.506,67.329,246.579,66,246.75z M38.25,252.75c2.853-1.103,0.147,3.353,3,2.25c-0.491-3.418-3.269-4.553-0.75-7.5
			C36.018,247.125,39.885,251.198,38.25,252.75z M48.75,249c-0.005,2.608,3.013,2.454,3.75,0.75
			C51.174,249.092,50.311,247.373,48.75,249z M38.25,266.25c4.34,0.59,2.642-4.857,3-8.25c-1.475,0.225-1.487-1.013-2.25-1.5
			C36.909,259.176,38.013,263.668,38.25,266.25z M32.25,261.75C28.284,257.045,29.229,267.851,32.25,261.75L32.25,261.75z"/>
		<path fill-rule="evenodd" clip-rule="evenodd" fill="#FFFFFF" d="M132.75,174.75c1.544,0.624,3.368,0.639,1.5-0.75
			c1.813-2.188,1.718,3.276,4.5,0.75c-1.324,2.784,0.839,5.152-1.5,6c0.3,1.95,2.238,2.262,2.25,4.5
			c-0.729,0.021-0.582,0.918-0.75,1.5C136.951,183.162,134.957,178.11,132.75,174.75z"/>
		<path fill-rule="evenodd" clip-rule="evenodd" fill="#FFFFFF" d="M114.75,177.75c0.603,0.396,1.218,0.782,2.25,0.75
			c-0.458,0.699-1.745,2.767,0.75,2.25c-1.513,2.237-2.169,5.33-4.5,6.75C114.43,186.634,113.522,181.455,114.75,177.75z"/>
		<path fill-rule="evenodd" clip-rule="evenodd" fill="#FFFFFF" d="M119.25,199.5c-0.542-2.292,0.767-2.733,0.75-4.5
			c-2.691-0.441-0.021,4.479-3,3.75c0.525-2.309,0.525-1.441,0-3.75c3.398-0.339,2.708-2.531,4.5-3
			c-0.198,5.332-1.312,6.42,0.75,8.25C120.905,200.346,120.668,199.332,119.25,199.5z"/>
		<path fill-rule="evenodd" clip-rule="evenodd" fill="#FFFFFF" d="M87.75,233.25c0.135-0.096-1.63,6.381-0.75,9
			c-2.773-0.963-1.2-4.039-5.25-2.25c-0.309-4.059,3.069-4.432,3-8.25C86.072,231.535,87.072,235.281,87.75,233.25z"/>
		<path fill-rule="evenodd" clip-rule="evenodd" fill="#FFFFFF" d="M58.5,248.25c-1.399-1.564-1.99-2.771-4.5-1.5
			c2.881-0.761,5.838-10.397,8.25-4.5c-1.08-0.839-1.83-0.809-2.25,0.75c0.322,1.178,2.359,0.641,1.5,3
			c0.709-0.778,3.864-0.686,3.75,1.5c-2.683-0.459-5.561-0.245-6.75,1.5C57.648,248.857,58.083,248.248,58.5,248.25z"/>
		<path fill-rule="evenodd" clip-rule="evenodd" fill="#FFFFFF" d="M40.5,247.5c-2.519,2.947,0.259,4.082,0.75,7.5
			c-2.853,1.103-0.147-3.353-3-2.25C39.885,251.198,36.018,247.125,40.5,247.5z"/>
		<path fill-rule="evenodd" clip-rule="evenodd" d="M360.75,360.75c0.072-1.449,2.928,1.297,3-1.5c2.196,1.054,2.307,4.193,2.25,7.5
			c-5.028-0.049-11.579,0.273-13.5-0.75c1.91-3.872,7.822-2.502,9.75-3.75C361.918,361.582,361.592,360.908,360.75,360.75z"/>
		<path fill-rule="evenodd" clip-rule="evenodd" fill="#FFFFFF" d="M69,245.25c2.024-0.622,3.619,4.963,3.75,1.5
			c1.656,0.094,0.318,3.182,0.75,4.5c-3.266-0.734-6.669-1.33-7.5-4.5C67.329,246.579,69.756,247.506,69,245.25z"/>
	</g>
</g>
</svg>
