<?xml version="1.0" encoding="utf-8"?>
<!-- Generator: Adobe Illustrator 12.0.0, SVG Export Plug-In . SVG Version: 6.00 Build 51448)  -->
<!DOCTYPE svg PUBLIC "-//W3C//DTD SVG 1.1//EN" "http://www.w3.org/Graphics/SVG/1.1/DTD/svg11.dtd" [
	<!ENTITY ns_svg "http://www.w3.org/2000/svg">
	<!ENTITY ns_xlink "http://www.w3.org/1999/xlink">
]>
<svg  version="1.1" id="Layer_1" xmlns="&ns_svg;" xmlns:xlink="&ns_xlink;" width="351.033" height="276"
	 viewBox="0 0 351.033 276" overflow="visible" enable-background="new 0 0 351.033 276" xml:space="preserve">
<g>
	<g>
		<path fill-rule="evenodd" clip-rule="evenodd" fill="#FFFFFF" d="M286.533,60.75c1.334,1.416,2.472,3.028,2.25,6
			C287.306,65.478,286.771,63.262,286.533,60.75z"/>
		<path fill-rule="evenodd" clip-rule="evenodd" fill="#FFFFFF" d="M300.033,70.5c1.08,0.17,0.262,2.238,1.5,2.25
			c-1.715,0.785-2.657,2.343-5.25,2.25c-0.99-1.877,2.965-2.348,0.75-3C296.497,69.963,300.569,72.537,300.033,70.5z"/>
		<path fill-rule="evenodd" clip-rule="evenodd" fill="#FFFFFF" d="M70.533,96.75c1.903-2.981,2.024,4.078,0.75,4.5
			c-1.64-0.11-1.61-1.89-1.5-3.75C70.646,99.801,72.365,98.083,70.533,96.75z"/>
		<path fill-rule="evenodd" clip-rule="evenodd" fill="#FFFFFF" d="M83.283,98.25c1.729-0.229,0.833,2.167,2.25,2.25
			c-1.389,1.445-1.374,0.592-0.75,3c-0.668-0.461-1.342-0.906-1.5,0c-1.626,0.126-0.34-2.66-0.75-3.75
			C84.715,100.825,83.377,100.325,83.283,98.25z"/>
		<path fill-rule="evenodd" clip-rule="evenodd" fill="#FFFFFF" d="M85.533,118.5C79.55,120.02,82.103,112.078,85.533,118.5
			L85.533,118.5z"/>
		<path fill-rule="evenodd" clip-rule="evenodd" fill="#FFFFFF" d="M253.533,136.5c1.674,0.326,2.674,1.326,3,3
			c-0.872-0.122-1.334,0.166-1.5,0.75C253.394,140.14,253.423,138.36,253.533,136.5z"/>
		<path fill-rule="evenodd" clip-rule="evenodd" fill="#FFFFFF" d="M227.283,184.5c-1.25,0-2.5,0-3.75,0
			C223.958,182.349,227.062,181.444,227.283,184.5z"/>
		<path fill-rule="evenodd" clip-rule="evenodd" fill="#FFFFFF" d="M219.033,185.25c0.666,0.855,2.094-0.463,1.5,3
			c-0.75,0-1.5,0-2.25,0c0.033-1.283-0.558-1.942-1.5-2.25c0.493-1.007,1.604-1.397,3-1.5
			C219.921,185.138,219.49,185.208,219.033,185.25z"/>
		<path fill-rule="evenodd" clip-rule="evenodd" fill="#FFFFFF" d="M226.533,186c0.763,0.487,0.775,1.725,2.25,1.5
			c-0.583,0.667-0.807,1.694-0.75,3C226.058,189.512,225.734,188.038,226.533,186z"/>
		<path fill-rule="evenodd" clip-rule="evenodd" fill="#FFFFFF" d="M216.783,194.25c0.604,0.397,1.218,0.782,2.25,0.75
			c1.03,1.709-1.934,2.819,0,3c-2.206,1.647-2.551,1.271-6,2.25C213.336,197.303,216.33,197.047,216.783,194.25z"/>
		<path fill-rule="evenodd" clip-rule="evenodd" d="M188.283,224.25c0-0.75,0-1.5,0-2.25c2.236-0.264,4.566-0.434,5.25-2.25
			c1.764,0.236,0.445,3.555,3,3C192.703,223.994,193.058,223.644,188.283,224.25z"/>
		<path fill-rule="evenodd" clip-rule="evenodd" fill="#FFFFFF" d="M184.533,222c-0.321,1.428-1.616,1.885-1.5,3.75
			c-1.529-1.309-1.471,0.559-3-0.75c0.021-0.729,0.918-0.582,1.5-0.75C179.85,222.637,182.06,221.598,184.533,222z"/>
		<path fill-rule="evenodd" clip-rule="evenodd" d="M70.533,231c-0.584,4.128-4.581,5.513-6,6.75c-1.31-0.69-1.655-2.345-1.5-4.5
			C66.097,235.58,66.616,230.181,70.533,231z"/>
		<path fill-rule="evenodd" clip-rule="evenodd" d="M69.783,240.75c-0.252,4.613,3.294,4.103-0.75,7.5
			c-1.498-1.082,1.173-3.021-3-2.25c0.542-2.292-0.767-2.733-0.75-4.5C67.115,240.752,66.881,241.251,69.783,240.75z"/>
		<path fill-rule="evenodd" clip-rule="evenodd" fill="#FFFFFF" d="M0.783,0c116.75,0,233.5,0,350.25,0c0,92,0,184,0,276
			c-117,0-234,0-351,0c0-91.25,0-182.5,0-273.75C-0.031,1.186-0.091,0.126,0.783,0z M36.783,28.5c1.335,0.415,3.115,0.385,3.75,1.5
			c-2.833,2.917-6.917,4.583-9.75,7.5c2.656,0.083-1.594,2.479,0.75,2.25c1.591-3.659,5.049-5.451,8.25-7.5
			c0.4,1.08-2.923,1.83-0.75,2.25c-0.321-1.208,2.796-2.517,3-0.75c-2.486,0.264-3.253,2.247-4.5,3.75
			c1.371,1.93,1.959,3.238,1.5,5.25c5.115,1.548,2.237-2.107,5.25,0.75c1.125-0.875,1.834-2.166,3.75-2.25
			c0.076,0.841-1.09,1.167,0,1.5c2.038-2.337,4.444,0.088,5.25-3.75c1.147,8.947-4.677,14.496-7.5,19.5
			c3.622,2.913,4.619-2.742,7.5-3c-0.435,0.039-0.769,1.98,0,2.25c1.866,0.653,6.861,1.35,6,10.5
			c-0.668,0.439-4.278,1.576-2.25,2.25c1.749-1.284,1.917,4.885,0.75,6.75c-1.097-0.713-5.94-1.48-6-0.75
			c2.131,0.429-5.064,4.21-2.25,3c1.782-0.268,4.313-3.62,6-1.5c-5.298,1.398,1.793-0.692,2.25,0.75
			c-2.785,2.526-7.694,0.381-8.25,3.75c3.086,0.164,6.38,0.12,7.5,2.25c-12.954,60.046-17.254,128.746-28.5,190.5
			c1.25,0,2.5,0,3.75,0c3.208-26.231,9.735-65.546,12.75-96.75c4.942-8.018,2.858-19.65,3.75-28.5
			c2.991-29.669,9.39-54.165,14.25-82.5c-1.354-2.924,0.545-6.208,2.25-8.25c2.628,0.335,1.535,3.227,2.25,3.75
			c2.366-1.093,0.627-2.469-0.75-3.75c2.188,0.666,2.588,0.958,3.75-0.75c0.976,1.862-2.2,3.112,0,3.75
			c2.019-2.239-0.19-4.798-0.75-6.75c0.678-1.322,1.678-2.322,3-3c0.41,1.09-0.876,3.876,0.75,3.75c0.012-1.238,2.08-0.42,2.25-1.5
			c-0.347-0.858-0.037-4.313-2.25-5.25c-0.071,1.179,0.101,2.601-1.5,2.25c0.551-3.085,2.275-2.146,3.75-3
			c-0.317-0.888-0.656-3.694-2.25-5.25c-0.652,2.182-1.123,0.844-3,0.75c1.742-1.962-2.612-2.376-2.25-5.25
			c2.436,4.227,1.999-1.869,4.5,1.5c0.592-1.658,2.623-1.877,3.75-3c-0.495,4.871,1.653,2.703,3,6
			c1.316-1.184,1.557-3.444,3.75-3.75c1.908,0.076,1.771,2.795,0.75,3.75c2.075-0.094,2.575-1.432,1.5,0.75
			c2.354-0.833,1.981-0.351,3.75,0.75c0.941-3.268-1.517-3.458,1.5-3.75c0.081-2-6.33-2.021-3.75-6.75
			c-2.375-0.872-3.065,0.239-3.75-3c-2.924,1.502-8.863,1.372-6,3c-4.035-0.339-6.342-0.031-12-0.75
			c0.832-2.473,4.729-4.068,5.25-1.5c3.583,0.147,3.217-5.775,6-2.25c3.877-4.9,2.191-6.555,8.25-9c0.651-4.839-2.39-1.229-3-5.25
			c-4.687,0.832-6.168,0.67-9,3.75c-1.415-2.522,3.396-2.458,0.75-3.75c-0.42,2.173-1.17-1.15-2.25-0.75
			c0.036,2.287-0.682,3.819-2.25,4.5c-0.717-1.397,2.246-2.507,0-3c-1.666,1.467,3.65-3.8,0-3c1.36,0.023,2.609-3.773,1.5-3.75
			c-1.425,1.009-5.59-7.663-6-1.5c-0.306-3.226-2.566-0.997-3.75-2.25c-1.762,2.652-1.858,6.441-1.5,7.5
			c-2.285-0.638-4.681,2.196-8.25-0.75c-0.084,2.65-1.375-0.078-2.25,2.25c0.229-0.909-2.167-2.586-2.25-0.75
			c0.841,0.159,1.167,0.833,1.5,1.5c-0.748-0.823-4.089-2.815-5.25-0.75c1.31,0.69,1.655,2.345,1.5,4.5
			c2.155-0.155,3.81,0.19,4.5,1.5c-1.984,0.864-1.427,3.54,0,4.5c-2.064,0.293-7.066,2.766-3.75,0
			C43.052,28.006,37.12,28.329,36.783,28.5z M42.783,246.75c-0.042,0.457-0.112,0.888-0.75,0.75
			c4.164-43.839,15.481-96.436,27-136.5c-0.744,2.814,3.685,1.635,1.5,3.75c2.362,0.362,1.698-2.302,4.5-1.5
			c-0.154,6.734-0.089,10.702-1.5,15c0.363-1.335,0.8,0.325,1.5,0.75c1.696-1.672,5.207-6.57,6.75-3.75
			c0.117-0.883-0.129-2.129,0.75-2.25c-0.664,5.086-5.615,5.884-7.5,9.75c2.355,1.248,3.064-2.79,3.75-0.75
			c-2.344-0.229,1.906,2.167-0.75,2.25c-0.168-0.582-0.021-1.479-0.75-1.5c1.235,4.272,4.337,0.522,6-0.75
			c1.131,2.605,2.32,2.919,3,4.5c-0.42,1.694-1.17-0.91-2.25,0.75c-0.356,5.893-0.816,11.683-1.5,17.25
			c-3.023-2.863-5.417,4.27-7.5,2.25c1.137-1.791,3.774-1.963,3-5.25c0.229,0.909-2.167,2.586-2.25,0.75
			c0.168-0.582,0.021-1.479,0.75-1.5c1.341,2.741,0.605-3.659,2.25-5.25c-4.667-2.634-4.4,2.086-10.5,0
			c-0.296,1.29,1.113,1.923,0,2.25c-0.188-1.384-2.7-4.204-3.75-2.25c1.703,1.628,2.445,4.527,0.75,5.25
			c-0.071-3.774-3.031-0.311-4.5-3c0.126,2.874,2.712,3.288,3.75,5.25c-1.908-0.933-3.658-0.33-5.25,0
			c-0.561,2.311,2.586,0.914,1.5,3.75c-2.903-2.428-3.676,4.455-2.25,6c0.139-1.111,1.813-0.688,3-0.75
			c-2.048,2.071,1.098,0.704,1.5,2.25c-0.959,1.041-3.541,0.459-4.5,1.5c-0.199,3.449,2.707,3.793,3.75,6
			c0.085-0.915,0.224-1.776,1.5-1.5c-0.675,4.925,4.228,4.272,4.5,8.25c-2.035,12.465-4.999,24.001-6.75,36.75
			c-0.999-0.111-2.264,3.049-3,0.75c2.132-0.294,2.211-4.658,3-8.25c-3.354-1.123-3.75,0.656-6.75,1.5
			c2.171-2.436-3.258,0.213-4.5-2.25c-0.493,2.743,1.623,2.877,1.5,5.25c-1.769-0.231-1.396-2.604-3.75-2.25
			c1.942,5.047-3.707,10.269-2.25,18c2.794-0.794,2.421,1.579,3.75,2.25c1.083-3.841,2.67-2.653,4.5-5.25
			c-0.976,2.182-0.948,5.298,0.75,6.75c-0.188-3.232,1.412,0.495,2.25,0.75c-1.479,0.521,0.185,4.185-1.5,4.5
			c-0.432-1.318,0.906-4.406-0.75-4.5c0.108,3.959-4.366-0.009-5.25,3.75c1.09,0.41,3.876-0.876,3.75,0.75
			c-1.393,1.326,0.326,2.189,0.75,3.75c-3.689-0.089-3.096,9.069-0.75,5.25c-1.322,10.178-3.808,19.192-5.25,29.25
			c1.25,0,2.5,0,3.75,0c1.256-3.892,3.407-10.391,3-13.5c1.493,2.476,3.204-1.858,3.75,0c-2.865,3.572,0.551,8.943-1.5,13.5
			c2.642-2.857,1.256-9.744,6.75-9.75c-1.76,2.654-3.731,4.567-1.5,7.5c-1.489,0.382-1.716-4.138-3-1.5
			c2.192,1.211,0.295,2.375,1.5,3.75c1.25,0,2.5,0,3.75,0c0.071-1.179-0.101-2.601,1.5-2.25c-0.041,0.959-0.961,1.039-0.75,2.25
			c2.122-0.129,5.146,0.646,5.25-1.5c-2.244-0.006-3.152-1.348-3.75-3c3.782,0.515-0.488-7.829-1.5-9.75
			c2.24,1.449,2.732,1.604,3.75-0.75c2.022,2.111-1.33,3.077-0.75,6c2.362,0.841,1.698,0.067,4.5,0c0.427-2.427-0.228-3.772-1.5-4.5
			c1.114-2.089,3.351,1.585,3-1.5c-3.272-0.169-5.369-1.993-8.25,0.75c-0.962-5.143,4.792-4.539,3.75-6
			c-0.863,2.427-0.849-2.014-0.75-3c-3.137-1.29-4.445,0.049-7.5-0.75c0.083,2.521,1.5,3.967-0.75,5.25
			c-0.352-4.852,0.677-8.323,3.75-9.75c0.128,1.122-0.268,2.768,0.75,3c0.955-1.037-0.672-7.497-2.25-6
			c1.669-1.15,2.534-5.286-1.5-4.5c-0.683,4.784-3.31,9.163-1.5,14.25c-0.75,0-1.5,0-2.25,0c-0.559,2.309,2.059,1.441,1.5,3.75
			c-2.879-2.659-2.425,2.563-3.75,3.75c3.275-12.226,5.565-25.435,9.75-36.75c1.105,3.643-2.853,6.098-0.75,8.25
			c1.499-3.293,0.319-4.64,3-6.75c-1.098-0.652-2.377-1.123-2.25-3c5.335-18.942,13.349-36.596,18-57
			c0.071,1.179-0.101,2.601,1.5,2.25c2.704-2.542-3.822-6.899,0-8.25c-1.075,1.098-0.575,2.377,1.5,2.25
			c-3.167-6.816-1.222-24.516,3.75-30.75c0.467,2.904,0.621,3.088-0.75,5.25c5.942,0.316,3.164-6.284,4.5-9
			c0.469,3.921,1.009-1.584,3-0.75c-0.239,1.739,0.12,2.879,0.75,3.75c1.849,0.099,3.613,0.114,4.5-0.75
			c-2.012-4.14-0.26-1.242,0.75-3.75c1.166-2.666-2.547-0.453-2.25-2.25c2.353-0.896,0.258-2.568,2.25-4.5
			c-0.997-1.837-2.791,0.824-3-0.75c1.188-1.976,0.552-2.613-0.75-0.75c0.032-1.032-0.354-1.647-0.75-2.25
			c2.164,2.176,1.773-2.033,3.75-2.25c0.206,2.199-3.005,2.786,0,3.75c-0.283-3.138,2.727-0.818,3,0c0.072-1.928,2.928-1.072,3-3
			c-3.034,0.797-1.757-3.283-3.75-5.25c-1.618,0.882-3.444,1.556-5.25,2.25c0.072-3.572-2.786-4.214-3.75-6.75
			c0.875-1.125,2.166-1.834,2.25-3.75c-2.416-3.101-5.174-2.4-7.5,0c-1.88-0.777-2.372-3.401-3.75-0.75
			c-1.084-2.322,0.123-2.913,1.5-4.5c3.515,1.732,2.579-5.909,0.75-8.25c-1.396-0.717-2.507,2.246-3,0
			c0.584-0.166,0.872-0.628,0.75-1.5c0.959,0.041,1.039,0.961,2.25,0.75c1.771-2.199-1.44-2.786,0-3.75
			c0.246,2.254,4.119,0.881,4.5,3c0.548-2.985,0.548-3.015,0-6c-4.005-0.41-5.735-2.564-9,0c-0.887-0.364-1.7-0.8-2.25-1.5
			c2.535-0.868,3.2,0.53,4.5-0.75c-0.46-1.04-2.887-0.113-3-1.5c2.28-0.751,0.957-1.236,0-2.25c1.908-0.092,2.908-1.092,3-3
			c-0.906-0.159-0.461-0.833,0-1.5c-3.247,2.042-1.847-2.504-5.25-2.25c0.229,1.978-1.565,1.934-3,2.25
			c-0.63-0.871-0.989-2.011-0.75-3.75c-3.236,0.973-2.764-0.822-6-0.75c-0.085,0.915-0.225,1.776-1.5,1.5
			c-0.642,1.75,2.623,3.231,0.75,3.75c-3.233,0.121-2.583-2.02-7.5-1.5c-0.704,3.042-1.329,7.6,0,10.5
			c-3.717-2.24,0.563,4.158-0.75,3.75c-0.752,0.002-0.893-0.607-1.5-0.75c0.657,3.194-2.297,6.653,0,9
			c0.732-2.485,1.482,0.838,2.25,0.75c-0.04-1.29,0.577-1.923,1.5-2.25c0.508,2.399,2.492,1.415,3,2.25
			c-3.374,2.876-7.834,4.666-9,9.75c1.29,0.296,1.923-1.113,2.25,0c-0.438,0.8-0.762,2.275-1.5,4.5
			c3.173-0.856,1.775-0.442,0.75,1.5c3.596,0.846,2.64-2.86,4.5-3.75c1.322,1.547,2.322,0.656,3,1.5
			c-13.902,54.319-25.985,108.271-30.75,170.25c1,0,2,0,3,0C41.26,266.723,41.664,253.136,42.783,246.75z M297.783,54
			c-0.166,0.584-0.628,0.872-1.5,0.75c0.789-1.648-0.024-2.492,1.5-4.5c-3.844,1.903-1.52-2.071-1.5-4.5
			c-5.296,0.417-11.352-0.703-11.25-0.75c-1.432,0.667,0.866,5.954-2.25,2.25c1.199,5.779,0.448,2.617,0.75,7.5
			c-2.566,0.161-2.254,2.473-3.75,0c-0.41,1.09,0.876,3.876-0.75,3.75c-1.249-2.689-2.989-0.949-0.75,0.75
			c-3.111-1.786-5.217-0.151-7.5-3c-1.891,3.222-2.968,3.891-6,6.75c1.096,0.654,2.904,0.596,2.25,3c2.121,0.785,5.146-1.238,5.25,0
			c-2.957,2.293-6.329,4.17-5.25,10.5c1.71,1.03,2.819-1.934,3,0c-0.997,0.753-2.791,0.709-3,2.25c2.303,1.628,3.277,1.198,1.5,3.75
			c1.403-0.04,1.588,0.577,0.75,1.5c2.354,0.354,1.981-2.019,3.75-2.25c-1.444,1.375,0.64,2.54,1.5,3.75
			c0.166-1.884,3.856-4.077,4.5-3c-1.77,2.921-3.691,5.23-3,7.5c0.308-0.942,0.967-1.533,2.25-1.5c0.565,2.479,1.781,3.772,3,3.75
			c-1.182,1.715-2.204,3.561-0.75,6c7.731-2.729,7.368-7.095,8.25-13.5c9.361,63.68-8.764,120.866-3.75,190.5c1.25,0,2.5,0,3.75,0
			c-2.9-51.86,4.038-102.785,6-150c0.524-12.612-0.888-23.891,0-35.25c0.415,3.705,0.386-0.78,1.5-0.75c0.39,2.36,0.829,4.67,3,5.25
			c-1.602,1.065,0.098,4.626,1.5,3c-1.193,0.018,2.469-2.972,0-4.5c3.025,0.176,1.324-3.098,4.5-0.75c1.827-1.761-0.837-1.679-1.5-3
			c2.481-1.082,3.034-7.298-0.75-6.75c-0.296,1.29,1.113,1.923,0,2.25c0.391-3.796-5.859-4.931-2.25-7.5
			c1.544,0.206,0.706,2.794,2.25,3c0.277-2.723,3.664-2.336,3.75-5.25c0.801,0.7,0.233,2.767,2.25,2.25
			c0.555-1.646,4.084,0.193,3.75-3c2.221,1.914,4.396,3.727,6.75,1.5c-2.646-0.757-1.373-1.296-2.25-3
			c-1.29-0.296-1.923,1.113-2.25,0c2.767-2.096-1.388-3.553-2.25-4.5c0.883-0.117,2.129,0.129,2.25-0.75
			c-2.28-0.751-0.957-1.236,0-2.25c-3.365-0.229-8.311,3.669-8.25-1.5c2.299,3.401,1.916,0.165,5.25-0.75
			c-1.945-0.961-0.337-3.571-1.5-3.75c-0.083,0.597-2.479,2.273-2.25,0.75c1.5-4.549,3.848-3.997,6.75-7.5
			c-2.226-0.654-3.7,3.204-4.5,1.5c-0.002-0.752,0.607-0.893,0.75-1.5c-3.086,1.889-2.328-1.377-6-0.75
			c-2.225,7.03-8.413,14.081-12.75,16.5c1.488-0.705-0.236-6.248,2.25-3.75c0.559-2.309-2.059-1.441-1.5-3.75
			c2.534-0.29,2.048-1.878,4.5-2.25C293.15,58.03,299.994,54.34,297.783,54z M245.283,122.25c2.562,2.438,5.258,4.743,6,9
			c-3.093-2.265-12.115,0.229-12.75,3.75c2.357-1.541,12.771-0.18,9,4.5c0.325-4.577-4.12,0.014-2.25,0.75
			c1.359-1.552,4.655,1.302,5.25,3c0.415-1.335,0.386-3.115,1.5-3.75c-0.057,1.306,0.167,2.333,0.75,3
			c-2.407,2.261-5.682,1.688-8.25,2.25c1.627-1.561-0.092-2.424-0.75-3.75c-1.636-0.478-2.386,2.125-2.25-0.75
			c-2.128-0.128-1.464,2.536-4.5,1.5c-1.151,1.473,0.581,3.749-0.75,4.5c-0.891-0.68-3.249-3.655-4.5-1.5
			c2.468,1.303,5.266,4.265,1.5,6c-0.823-3.316-6.2-5.096-7.5-2.25c0.992,2.007,4.729,1.271,6,3c-3.963-0.162-2.153,0.795-3.75,3
			c3.384-0.698,5.215,4.1,9,3c-0.152,2.213,0.579,4.213,1.5,7.5c-0.896,1.854-2.567,2.932-4.5,3.75c2.475,6.282,2.737,5.78,6,9
			c-0.994,35.584-8.812,65.49-11.25,97.5c5.557-3.703,3.235-9.893,3.75-15c2.958-29.343,9.789-60.723,10.5-92.25
			c3.029-0.029,2.157,3.843,4.5,4.5c-0.155-2.155,0.19-3.81,1.5-4.5c0.367,2.367-1.352,2.648-0.75,5.25
			c2.467-1.318,7.138-0.556,5.25-6.75c-1.475-0.225-1.487,1.013-2.25,1.5c0.225-1.475-1.013-1.487-1.5-2.25
			c1.987-2.164,0.989-1.688,3.75-4.5c2.142,1.627,1.687,4.201,3.75,0.75c-2.143,39.277-5.837,76.837-5.25,113.25
			c3.268-6.592,2.672-13.948,3-21c1.522-32.729,1.604-67.883,6-95.25c3.714-0.031,7.742-2.497,8.25-7.5
			c-1.096-0.654-2.904-0.596-2.25-3c1.799,2.521,2.291,2.16,5.25,1.5c-0.395-3.295-1.054-3.283,0.75-3.75
			c-1.063-0.988-4.421-3.512-3-4.5c2.563-0.563,0.953,3.047,3.75,2.25c0.128-1.122-0.268-2.768,0.75-3
			c0.42,1.08,1.17,1.83,2.25,2.25c-3.047-2.454-3.08-7.92-6.75-9.75c1.168-4.947,3.893-3.68,5.25-8.25
			c-5.652-1.9-9.279-5.003-11.25,3c-2.824-0.79-3.416,3.25-4.5,0c2.372,0.453,0.064-5.261,2.25-8.25c-2.37-0.946-3.946,0.826-5.25-3
			c-3.313,1.584,1.053,6.421-3,7.5c-0.713-3.282-3.008-0.629-3-3C249.611,124.255,246.018,119.682,245.283,122.25z M230.283,167.25
			c1.045-0.955,0.326-3.674,2.25-3.75c0,1,0,2,0,3c3.143,0.643,1.643-3.357,3-4.5c-1.901-1.349-3.401-3.099-6.75-3
			c-1.216,2.284-2.007,4.994-3.75,6.75c2.953,0.35,3.895-1.572,5.25,0.75C229.867,166.498,229.432,167.107,230.283,167.25z
			 M230.283,174.75c-0.734,1.016-2.528,0.972-3,2.25c-1.901-1.832,1.581-1.598,0.75-4.5c-4.527,0.959-7.247,2.828-9.75-0.75
			c-0.423,1.993,3.085,3.819,0.75,5.25c-3.429-0.136-4.96-3.637-7.5-0.75c2.064,0.964,7.189,2.772,4.5,6
			c-1.6-2.243-4.739-1.279-7.5-0.75c-0.445,2.393,1.407,2.32,0,3.75c3.758-0.98,5.108-1.313,6.75,0
			c-2.017,0.984-4.822,1.178-5.25,3.75c0.799,1.781,3.454-1.607,4.5,0.75c0,1,0,2,0,3c-4.261-1.261-1.684,4.316-5.25,3.75
			c0.057-1.306-0.167-2.333-0.75-3c-3.004-0.003-2.486,3.514-4.5,4.5c-2.588-1.284-3.964-2.105-6,0c3.377,0.562,1.454,5.671,3,2.25
			c0.126,1.21,2.517,3.866,0.75,4.5c-2.362,0.362-1.698-2.302-4.5-1.5c-2.091,0.659-2.487,3.013-3,5.25
			c1.832,1.901,1.598-1.581,4.5-0.75c-0.833,1.463-0.352,3.836,0.75,2.25c-2.217-1.084,2.336-1.577,3-2.25
			c-2.827,2.523-1.515,3.726-0.75,6c-2.818-0.568-2.537,1.963-3.75,3c2.146,0.604,2.991,2.509,5.25,3c0.104-1.396,0.493-2.507,1.5-3
			c-0.04,1.402,0.577,1.588,1.5,0.75c-1.402,21.348-6.681,38.819-10.5,57.75c6.979-15.021,8.799-35.201,12-54
			c3.519,1.201,2.861-7.308,6.75-4.5c-0.128-2.128,2.536-1.464,1.5-4.5c-4.185,0.935-3.808-2.691-6.75-3
			c2.445-2.22,5.746-1.709,4.5-6c3.417,0.436,0.813-2.488,5.25-3c-1.166,2.666,2.547,0.453,2.25,2.25
			c-0.471,2.279,0.96,6.46-0.75,7.5c-1.738-0.209-1.724-2.004-0.75-3c-3.012,0.238-7.712-1.212-6.75,3
			c2.53-2.62,5.578-0.553,7.5,1.5c-0.144,5.175-0.25,10.371-0.75,15c-1.921,17.794-8.849,34.379-8.25,48.75
			c4.43-15.578,8.864-42.402,10.5-61.5c0.342-3.991,0.681-15.806,3-12.75c0.231-2.732-0.119-4.881-0.75-6.75
			c2.126,1.911,4.931,1.146,3,4.5c6.369-0.412,6.841-8.033,9-10.5c-2.594-0.982-3.841-4.467-3.75-6c-1.49,1.406-3.548,1.727-4.5,1.5
			c0.679-3.322,4.381-3.62,6-6C231.925,177.609,231.98,175.303,230.283,174.75z M192.783,213c-4.097-0.848-5.111,1.389-6.75,3
			c0.252-2.752-1.152-3.848-3-4.5c0.779,2.553-3.373,1.67-1.5,4.5c-1.21-0.127-3.866-2.518-4.5-0.75c1.098,0.952,4.923,3.01,3,4.5
			c-1.391-2.764-4.953-2.538-6.75-0.75c2.306,0.694,5.558,0.442,5.25,3.75c-0.985-0.963-2.765-0.963-3.75,0
			c2.504,4.922-2.335,5.464,2.25,9c0.451-1.549,1.16-2.84,3.75-2.25c-3.18,3.717,1.907,5.605,4.5,6.75
			c-0.613,14.887-5.199,25.801-7.5,39c6.514-12.986,7.333-31.667,10.5-48c-0.18-1.406-1.235,0.426-1.5-0.75
			c0.999-0.977,2.264-0.461,3,0.75c-1.359,0.84-2.738,5.489,0,6c0.158-0.906,0.832-0.461,1.5,0c0.212-2.964,6.015-4.173,2.25-7.5
			c0.703,0.809-6.524,0.348-6.75-3.75c0.01-1.49,2.046-0.953,1.5-3c-1.475-0.225-1.487,1.013-2.25,1.5
			c-0.654-2.404,1.154-2.346,2.25-3c1.045,0.955,0.326,3.674,2.25,3.75C190.018,216.769,191.288,217.873,192.783,213z
			 M196.533,222.75c-2.555,0.555-1.236-2.764-3-3c-0.684,1.816-3.014,1.986-5.25,2.25c0,0.75,0,1.5,0,2.25
			C193.058,223.644,192.703,223.994,196.533,222.75z M63.033,233.25c-0.155,2.155,0.19,3.81,1.5,4.5c1.419-1.237,5.416-2.622,6-6.75
			C66.616,230.181,66.097,235.58,63.033,233.25z M166.533,237c-0.027,3.506-2.133,1.43-4.5,1.5c-0.643,2.393,1.181,2.319,1.5,3.75
			c-1.213,1.225-3.137-0.67-6,0c0.269,2.481,4.096,1.404,4.5,3.75c-2.717,1.184-5.668,6.062-2.25,9
			c1.871,0.534,3.082-3.301,4.5-0.75c-0.319,1.431-2.143,1.357-1.5,3.75c2.169,0.331,3.419,1.581,3.75,3.75
			c-0.965,1.285-2.465,2.035-4.5,2.25c-0.976-1.862,2.2-3.112,0-3.75c-1.111,3.718-5.562-0.569-9,3
			c1.636-0.136,2.386,0.614,2.25,2.25c-3.176,0.324-4.9,2.1-6.75,3.75c2.421-0.671,1.054,2.446,2.25,3
			c-0.962-1.031-4.484-1.306-4.5,0.75c0.883,0.117,2.129-0.129,2.25,0.75c0.002,0.752-0.607,0.893-0.75,1.5
			c1.363-2.338,8.061,2.597,9.75-2.25c0.032,1.032-0.354,1.646-0.75,2.25c5.052-0.615,7.649,0.697,11.25-0.75
			c-1.154-1.283,0.262-2.729-0.75-5.25c1.572,1.055,1.593-7.696,3-11.25c-3.374,1.126-1.394,7.606-3.75,9.75
			c0.159-5.591,0.898-10.602,4.5-12.75c-0.236,1.014-1.067,1.433-0.75,3c2.832,0.332,3.521-1.479,5.25-2.25
			c-0.859,1.539,1.178,3.575,1.5,1.5c-1.387-2.118-0.158-2.713,1.5-2.25c-3.059-0.937,0.755-4.392-0.75-5.25
			c-0.345,1.478-1.462-2.451-3-2.25c0.838-1.162,2.438-1.563,2.25-3.75c-3.163,0.127,0.013-1.152,0-2.25
			c-1.866,0.116-2.321-1.178-3.75-1.5c0.671,2.619-2.446,1.281-3,0.75c-0.415,1.335-0.386,3.114-1.5,3.75
			c-0.128-1.122,0.268-2.768-0.75-3c-0.168,0.582-0.021,1.479-0.75,1.5c-0.127-2.075,1.152-2.575,2.25-1.5
			C169.071,239.462,168.046,237.987,166.533,237z M65.283,241.5c-0.017,1.767,1.292,2.208,0.75,4.5c4.173-0.771,1.502,1.168,3,2.25
			c4.044-3.397,0.498-2.887,0.75-7.5C66.881,241.251,67.115,240.752,65.283,241.5z"/>
		<path fill-rule="evenodd" clip-rule="evenodd" d="M45.033,25.5c-3.316,2.766,1.686,0.293,3.75,0c-1.427-0.96-1.984-3.636,0-4.5
			c-0.69-1.31-2.345-1.655-4.5-1.5c0.155-2.155-0.19-3.81-1.5-4.5c1.161-2.065,4.502-0.073,5.25,0.75
			c-0.333-0.667-0.659-1.341-1.5-1.5c0.083-1.836,2.479-0.159,2.25,0.75c0.875-2.328,2.166,0.4,2.25-2.25
			c3.569,2.946,5.965,0.112,8.25,0.75c-0.358-1.059-0.262-4.848,1.5-7.5c1.184,1.253,3.444-0.976,3.75,2.25
			c0.41-6.163,4.575,2.509,6,1.5c1.109-0.023-0.14,3.773-1.5,3.75c3.65-0.8-1.666,4.467,0,3c2.246,0.493-0.717,1.603,0,3
			c1.568-0.681,2.286-2.213,2.25-4.5c1.08-0.4,1.83,2.923,2.25,0.75c2.646,1.292-2.165,1.228-0.75,3.75
			c2.832-3.08,4.313-2.918,9-3.75c0.61,4.021,3.651,0.411,3,5.25c-6.059,2.445-4.373,4.1-8.25,9c-2.783-3.525-2.417,2.397-6,2.25
			c-0.521-2.568-4.418-0.973-5.25,1.5c5.658,0.719,7.965,0.411,12,0.75c-2.863-1.628,3.076-1.498,6-3
			c0.685,3.239,1.375,2.128,3.75,3c-2.58,4.729,3.831,4.75,3.75,6.75c-3.017,0.292-0.559,0.482-1.5,3.75
			c-1.769-1.101-1.396-1.583-3.75-0.75c1.075-2.182,0.575-0.844-1.5-0.75c1.021-0.955,1.158-3.674-0.75-3.75
			c-2.193,0.306-2.434,2.566-3.75,3.75c-1.347-3.297-3.495-1.129-3-6c-1.127,1.123-3.158,1.342-3.75,3
			c-2.501-3.369-2.064,2.727-4.5-1.5c-0.362,2.874,3.992,3.288,2.25,5.25c1.877,0.094,2.348,1.432,3-0.75
			c1.594,1.556,1.933,4.362,2.25,5.25c-1.475,0.854-3.199-0.085-3.75,3c1.601,0.351,1.429-1.071,1.5-2.25
			c2.213,0.937,1.903,4.392,2.25,5.25c-0.17,1.08-2.238,0.262-2.25,1.5c-1.626,0.126-0.34-2.66-0.75-3.75
			c-1.322,0.678-2.322,1.678-3,3c0.56,1.952,2.769,4.511,0.75,6.75c-2.2-0.638,0.976-1.888,0-3.75
			c-1.162,1.708-1.563,1.416-3.75,0.75c1.377,1.281,3.116,2.657,0.75,3.75c-0.715-0.523,0.378-3.415-2.25-3.75
			c-1.705,2.042-3.604,5.326-2.25,8.25c-4.86,28.335-11.259,52.831-14.25,82.5c-0.892,8.85,1.192,20.482-3.75,28.5
			c-3.015,31.204-9.542,70.519-12.75,96.75c-1.25,0-2.5,0-3.75,0c11.246-61.754,15.546-130.454,28.5-190.5
			c-1.12-2.13-4.414-2.086-7.5-2.25c0.556-3.369,5.465-1.224,8.25-3.75c-0.457-1.442-7.548,0.648-2.25-0.75
			c-1.687-2.12-4.218,1.232-6,1.5c-2.814,1.21,4.381-2.571,2.25-3c0.06-0.73,4.903,0.037,6,0.75c1.167-1.865,0.999-8.034-0.75-6.75
			c-2.028-0.674,1.582-1.811,2.25-2.25c0.861-9.15-4.134-9.847-6-10.5c-0.769-0.27-0.435-2.211,0-2.25
			c-2.881,0.258-3.878,5.913-7.5,3c2.823-5.004,8.647-10.553,7.5-19.5c-0.806,3.838-3.212,1.413-5.25,3.75
			c-1.09-0.333,0.076-0.659,0-1.5c-1.916,0.084-2.625,1.375-3.75,2.25c-3.013-2.857-0.135,0.798-5.25-0.75
			c0.459-2.012-0.129-3.32-1.5-5.25c1.247-1.503,2.014-3.486,4.5-3.75c-0.204-1.767-3.321-0.458-3,0.75
			c-2.173-0.42,1.15-1.17,0.75-2.25c-3.201,2.049-6.659,3.841-8.25,7.5c-2.344,0.229,1.906-2.167-0.75-2.25
			c2.833-2.917,6.917-4.583,9.75-7.5c-0.635-1.115-2.415-1.085-3.75-1.5C37.12,28.329,43.052,28.006,45.033,25.5z M57.033,34.5
			c2.836,1.086,1.439-2.061,3.75-1.5c0.225-1.475-1.013-1.487-1.5-2.25c1.151-0.18,0.11-1.235-0.75-1.5
			C59.274,32.32,59.335,33.166,57.033,34.5z M57.033,33c-1.329,0.171-3.756-0.756-3,1.5c2.535,0.285,3.2-1.3,4.5-2.25
			c-1.29,0.296-1.923-1.113-2.25,0C56.741,32.292,57.171,32.362,57.033,33z M71.283,37.5c-3.832-0.379,1.175-1.418,1.5-2.25
			c-1.75,0-3.5,0-5.25,0c0.168,1.504-3.346,3.037-0.75,4.5C66.254,35.585,70.685,39.23,71.283,37.5z M63.783,48.75
			c1.834-3.992-1.062,2.912,0.75,3c0.6-2.856,3.646-10.572,2.25-10.5C67.479,44.974,60.872,45.301,63.783,48.75z"/>
		<path fill-rule="evenodd" clip-rule="evenodd" d="M39.783,275.25c-1,0-2,0-3,0c4.765-61.979,16.848-115.931,30.75-170.25
			c-0.678-0.844-1.678,0.047-3-1.5c-1.86,0.89-0.904,4.596-4.5,3.75c1.025-1.942,2.423-2.356-0.75-1.5
			c0.738-2.225,1.062-3.7,1.5-4.5c-0.327-1.113-0.96,0.296-2.25,0c1.166-5.084,5.626-6.874,9-9.75c-0.508-0.835-2.492,0.149-3-2.25
			c-0.923,0.327-1.54,0.96-1.5,2.25c-0.768,0.088-1.518-3.235-2.25-0.75c-2.297-2.347,0.657-5.806,0-9
			c0.607,0.143,0.748,0.752,1.5,0.75c1.313,0.408-2.967-5.99,0.75-3.75c-1.329-2.9-0.704-7.458,0-10.5
			c4.917-0.52,4.267,1.621,7.5,1.5c1.873-0.519-1.392-2-0.75-3.75c1.275,0.276,1.415-0.585,1.5-1.5c3.236-0.072,2.764,1.723,6,0.75
			c-0.239,1.739,0.12,2.879,0.75,3.75c1.435-0.316,3.229-0.272,3-2.25c3.403-0.254,2.003,4.292,5.25,2.25
			c-0.461,0.667-0.906,1.341,0,1.5c-0.092,1.908-1.092,2.908-3,3c0.957,1.014,2.28,1.499,0,2.25c0.113,1.387,2.54,0.46,3,1.5
			c-1.3,1.28-1.965-0.118-4.5,0.75c0.55,0.7,1.363,1.136,2.25,1.5c3.265-2.564,4.995-0.41,9,0c0.548,2.985,0.548,3.015,0,6
			c-0.381-2.119-4.254-0.746-4.5-3c-1.44,0.964,1.771,1.551,0,3.75c-1.211,0.211-1.291-0.709-2.25-0.75
			c0.122,0.872-0.166,1.334-0.75,1.5c0.493,2.246,1.604-0.717,3,0c1.829,2.341,2.765,9.982-0.75,8.25
			c-1.377,1.587-2.584,2.178-1.5,4.5c1.378-2.651,1.87-0.027,3.75,0.75c2.326-2.4,5.084-3.101,7.5,0
			c-0.084,1.916-1.375,2.625-2.25,3.75c0.964,2.536,3.822,3.178,3.75,6.75c1.806-0.694,3.632-1.368,5.25-2.25
			c1.993,1.967,0.716,6.047,3.75,5.25c-0.072,1.928-2.928,1.072-3,3c-0.273-0.818-3.283-3.138-3,0c-3.005-0.964,0.206-1.551,0-3.75
			c-1.977,0.217-1.586,4.426-3.75,2.25c0.396,0.603,0.782,1.218,0.75,2.25c1.302-1.863,1.938-1.226,0.75,0.75
			c0.209,1.574,2.003-1.087,3,0.75c-1.992,1.932,0.103,3.604-2.25,4.5c-0.297,1.797,3.416-0.416,2.25,2.25
			c-1.01,2.508-2.762-0.39-0.75,3.75c-0.887,0.864-2.651,0.849-4.5,0.75c-0.63-0.871-0.989-2.011-0.75-3.75
			c-1.991-0.834-2.531,4.671-3,0.75c-1.336,2.716,1.442,9.316-4.5,9c1.371-2.162,1.217-2.346,0.75-5.25
			c-4.972,6.234-6.917,23.934-3.75,30.75c-2.075,0.127-2.575-1.152-1.5-2.25c-3.822,1.351,2.704,5.708,0,8.25
			c-1.601,0.351-1.429-1.071-1.5-2.25c-4.651,20.404-12.665,38.058-18,57c-0.127,1.877,1.152,2.348,2.25,3
			c-2.681,2.11-1.501,3.457-3,6.75c-2.103-2.152,1.855-4.607,0.75-8.25c-4.185,11.315-6.475,24.524-9.75,36.75
			c1.325-1.187,0.871-6.409,3.75-3.75c0.559-2.309-2.059-1.441-1.5-3.75c0.75,0,1.5,0,2.25,0c-1.81-5.087,0.817-9.466,1.5-14.25
			c4.034-0.786,3.169,3.35,1.5,4.5c1.578-1.497,3.205,4.963,2.25,6c-1.018-0.232-0.622-1.878-0.75-3
			c-3.073,1.427-4.102,4.898-3.75,9.75c2.25-1.283,0.833-2.729,0.75-5.25c3.055,0.799,4.363-0.54,7.5,0.75
			c-0.099,0.986-0.113,5.427,0.75,3c1.042,1.461-4.712,0.857-3.75,6c2.881-2.743,4.978-0.919,8.25-0.75
			c0.351,3.085-1.886-0.589-3,1.5c1.272,0.728,1.927,2.073,1.5,4.5c-2.802,0.067-2.138,0.841-4.5,0c-0.58-2.923,2.772-3.889,0.75-6
			c-1.018,2.354-1.51,2.199-3.75,0.75c1.012,1.921,5.282,10.265,1.5,9.75c0.598,1.652,1.506,2.994,3.75,3
			c-0.104,2.146-3.128,1.371-5.25,1.5c-0.211-1.211,0.709-1.291,0.75-2.25c-1.601-0.351-1.429,1.071-1.5,2.25c-1.25,0-2.5,0-3.75,0
			c-1.205-1.375,0.692-2.539-1.5-3.75c1.284-2.638,1.511,1.882,3,1.5c-2.231-2.933-0.26-4.846,1.5-7.5
			c-5.494,0.006-4.108,6.893-6.75,9.75c2.051-4.557-1.365-9.928,1.5-13.5c-0.546-1.858-2.257,2.476-3.75,0
			c0.407,3.109-1.744,9.608-3,13.5c-1.25,0-2.5,0-3.75,0c1.442-10.058,3.928-19.072,5.25-29.25c-2.346,3.819-2.939-5.339,0.75-5.25
			c-0.424-1.561-2.143-2.424-0.75-3.75c0.126-1.626-2.66-0.34-3.75-0.75c0.884-3.759,5.358,0.209,5.25-3.75
			c1.656,0.094,0.318,3.182,0.75,4.5c1.685-0.315,0.021-3.979,1.5-4.5c-0.838-0.255-2.438-3.982-2.25-0.75
			c-1.698-1.452-1.726-4.568-0.75-6.75c-1.83,2.597-3.417,1.409-4.5,5.25c-1.329-0.671-0.956-3.044-3.75-2.25
			c-1.457-7.731,4.192-12.953,2.25-18c2.354-0.354,1.981,2.019,3.75,2.25c0.123-2.373-1.993-2.507-1.5-5.25
			c1.242,2.463,6.671-0.186,4.5,2.25c3-0.844,3.396-2.623,6.75-1.5c-0.789,3.592-0.868,7.956-3,8.25c0.736,2.299,2.001-0.861,3-0.75
			c1.751-12.749,4.715-24.285,6.75-36.75c-0.272-3.978-5.175-3.325-4.5-8.25c-1.276-0.276-1.415,0.585-1.5,1.5
			c-1.043-2.207-3.949-2.551-3.75-6c0.959-1.041,3.541-0.459,4.5-1.5c-0.402-1.546-3.548-0.179-1.5-2.25
			c-1.188,0.063-2.861-0.361-3,0.75c-1.426-1.545-0.653-8.428,2.25-6c1.086-2.836-2.061-1.439-1.5-3.75
			c1.592-0.33,3.342-0.933,5.25,0c-1.038-1.962-3.624-2.376-3.75-5.25c1.469,2.689,4.429-0.774,4.5,3
			c1.695-0.723,0.953-3.622-0.75-5.25c1.05-1.954,3.563,0.866,3.75,2.25c1.113-0.327-0.296-0.96,0-2.25
			c6.1,2.086,5.833-2.634,10.5,0c-1.645,1.591-0.909,7.991-2.25,5.25c-0.729,0.021-0.582,0.918-0.75,1.5
			c0.083,1.836,2.479,0.159,2.25-0.75c0.774,3.287-1.863,3.459-3,5.25c2.083,2.02,4.477-5.113,7.5-2.25
			c0.684-5.567,1.144-11.357,1.5-17.25c1.08-1.66,1.83,0.944,2.25-0.75c-0.68-1.581-1.869-1.895-3-4.5
			c-1.663,1.272-4.765,5.022-6,0.75c0.729,0.021,0.582,0.918,0.75,1.5c2.656-0.083-1.594-2.479,0.75-2.25
			c-0.686-2.04-1.395,1.998-3.75,0.75c1.885-3.866,6.836-4.664,7.5-9.75c-0.879,0.121-0.633,1.367-0.75,2.25
			c-1.543-2.82-5.054,2.078-6.75,3.75c-0.7-0.425-1.137-2.085-1.5-0.75c1.411-4.298,1.346-8.266,1.5-15
			c-2.802-0.802-2.138,1.862-4.5,1.5c2.185-2.115-2.244-0.936-1.5-3.75c-11.519,40.064-22.836,92.661-27,136.5
			c0.638,0.138,0.708-0.293,0.75-0.75C41.664,253.136,41.26,266.723,39.783,275.25z M72.783,73.5c0.296,1.29-1.113,1.923,0,2.25
			c0.181-1.934,1.29,1.03,3,0c-0.015-0.838,1.737-5.239,0.75-3.75C75.111,73.215,74.205,76.387,72.783,73.5z M72.783,83.25
			c0.128,1.122-0.268,2.768,0.75,3c-0.444-3.327,6.381-0.498,3.75-4.5C76.1,84.237,74.6,84,72.783,83.25z M79.533,93
			c-2.434-0.316-2.382-3.118-4.5-3.75c-3.34,3.383,2.658,11.675,2.25,7.5c-0.043,0.458-0.112,0.888-0.75,0.75
			C77.572,96.039,79.229,95.196,79.533,93z M69.783,97.5c-0.11,1.86-0.14,3.64,1.5,3.75c1.274-0.422,1.153-7.481-0.75-4.5
			C72.365,98.083,70.646,99.801,69.783,97.5z M78.033,98.25c-0.21,1.709,0.181,2.819,1.5,3c0.152-0.955,2.18-3.674,0.75-3.75
			C79.863,99.059,79.113,99.089,78.033,98.25z M82.533,99.75c0.41,1.09-0.876,3.876,0.75,3.75c0.158-0.906,0.832-0.461,1.5,0
			c-0.624-2.408-0.639-1.555,0.75-3c-1.417-0.083-0.521-2.479-2.25-2.25C83.377,100.325,84.715,100.825,82.533,99.75z M70.533,106.5
			c0,0.75,0,1.5,0,2.25c-0.915,0.085-1.775,0.224-1.5,1.5c2.191,0.629,5.396-3.816,3.75-2.25
			C70.712,110.048,72.079,106.902,70.533,106.5z M91.533,114.75c0.032,1.032-0.354,1.647-0.75,2.25
			c1.667,0.583,2.925,1.575,5.25,1.5c-0.41-1.09,0.876-3.876-0.75-3.75c-0.897,4.284-1.053-3.636-1.5-0.75
			C92.936,114.659,93.963,116.377,91.533,114.75z M91.533,121.5c-0.751-0.999-1.236-2.264-2.25-3c0.717,1.397-2.246,2.507,0,3
			c0.666-2.02,2.094,1.299,1.5,3c1.557-0.449,2.557,3.297,3,1.5c-2.218-1.757,1.313-7.657-3-6.75
			C91.38,119.333,93.057,121.729,91.533,121.5z M85.533,118.5C82.103,112.078,79.55,120.02,85.533,118.5L85.533,118.5z
			 M68.283,165.75c-1.932-0.568-2.606-2.394-2.25-5.25c-2.718-0.718-0.763,3.237-2.25,3.75
			C66.892,162.712,66.599,168.338,68.283,165.75z M60.033,228.75c1.18-2.832,3.781-7.243,2.25-9.75c1.445-0.305,0.592-2.908,3-2.25
			c3.008-16.561,14.437-32.471,12.75-48.75c0.04,1.403-0.577,1.588-1.5,0.75c-0.17,4.256,1.556,6.381-2.25,7.5
			c-0.168-1.418,0.846-1.655,0.75-3c-4.361-0.078-1.712,3.895-2.25,4.5c-0.195-1.054-1.645-0.855-2.25-1.5
			C67.095,195.215,63.419,213.602,60.033,228.75z M53.283,261c1.211-9.542,6.329-19.166,5.25-28.5
			C57.654,242.374,52.858,252.32,53.283,261z M64.533,258.75c-1.86-1.93-2.671,0.508-3.75,1.5c0.239-0.919-0.121-4.632-0.75-2.25
			c0.847,2.978-2.029,8.944,0,8.25c-0.372-4.368,1.032-2.292,3-1.5c0.561-2.311-2.586-0.914-1.5-3.75
			c0.999-1.839,2.264,1.352,3-0.75c-0.815-0.18-1.801-1.235-0.75-1.5C63.781,259.166,64.391,259.602,64.533,258.75z"/>
		<path fill-rule="evenodd" clip-rule="evenodd" fill="#FFFFFF" d="M58.533,29.25c0.86,0.265,1.901,1.32,0.75,1.5
			c0.487,0.763,1.725,0.775,1.5,2.25c-2.311-0.561-0.914,2.586-3.75,1.5C59.335,33.166,59.274,32.32,58.533,29.25z"/>
		<path fill-rule="evenodd" clip-rule="evenodd" fill="#FFFFFF" d="M56.283,32.25c0.327-1.113,0.96,0.296,2.25,0
			c-1.3,0.95-1.965,2.535-4.5,2.25c-0.756-2.256,1.671-1.329,3-1.5C57.171,32.362,56.741,32.292,56.283,32.25z"/>
		<path fill-rule="evenodd" clip-rule="evenodd" fill="#FFFFFF" d="M66.783,39.75c-2.596-1.463,0.918-2.996,0.75-4.5
			c1.75,0,3.5,0,5.25,0c-0.325,0.832-5.332,1.871-1.5,2.25C70.685,39.23,66.254,35.585,66.783,39.75z"/>
		<path fill-rule="evenodd" clip-rule="evenodd" fill="#FFFFFF" d="M66.783,41.25c1.396-0.072-1.65,7.644-2.25,10.5
			c-1.812-0.088,1.084-6.992-0.75-3C60.872,45.301,67.479,44.974,66.783,41.25z"/>
		<path fill-rule="evenodd" clip-rule="evenodd" d="M297.783,58.5c-2.452,0.372-1.966,1.96-4.5,2.25
			c-0.559,2.309,2.059,1.441,1.5,3.75c-2.486-2.498-0.762,3.045-2.25,3.75c4.337-2.419,10.525-9.47,12.75-16.5
			c3.672-0.627,2.914,2.639,6,0.75c-0.143,0.607-0.752,0.748-0.75,1.5c0.8,1.704,2.274-2.154,4.5-1.5
			c-2.902,3.503-5.25,2.951-6.75,7.5c-0.229,1.523,2.167-0.153,2.25-0.75c1.163,0.179-0.445,2.789,1.5,3.75
			c-3.334,0.915-2.951,4.151-5.25,0.75c-0.061,5.169,4.885,1.271,8.25,1.5c-0.957,1.014-2.28,1.499,0,2.25
			c-0.121,0.879-1.367,0.633-2.25,0.75c0.862,0.947,5.017,2.404,2.25,4.5c0.327,1.113,0.96-0.296,2.25,0
			c0.877,1.704-0.396,2.243,2.25,3c-2.354,2.227-4.529,0.414-6.75-1.5c0.334,3.193-3.195,1.354-3.75,3
			c-2.017,0.517-1.449-1.55-2.25-2.25c-0.086,2.914-3.473,2.527-3.75,5.25c-1.544-0.206-0.706-2.794-2.25-3
			c-3.609,2.569,2.641,3.704,2.25,7.5c1.113-0.327-0.296-0.96,0-2.25c3.784-0.548,3.231,5.668,0.75,6.75
			c0.663,1.321,3.327,1.239,1.5,3c-3.176-2.348-1.475,0.926-4.5,0.75c2.469,1.528-1.193,4.518,0,4.5c-1.402,1.626-3.102-1.935-1.5-3
			c-2.171-0.58-2.61-2.89-3-5.25c-1.114-0.03-1.085,4.455-1.5,0.75c-0.888,11.359,0.524,22.638,0,35.25
			c-1.962,47.215-8.9,98.14-6,150c-1.25,0-2.5,0-3.75,0c-5.014-69.634,13.111-126.82,3.75-190.5
			c-0.882,6.405-0.519,10.771-8.25,13.5c-1.454-2.439-0.432-4.285,0.75-6c-1.219,0.022-2.435-1.271-3-3.75
			c-1.283-0.033-1.942,0.558-2.25,1.5c-0.691-2.27,1.23-4.579,3-7.5c-0.644-1.077-4.334,1.116-4.5,3
			c-0.86-1.21-2.944-2.375-1.5-3.75c-1.769,0.231-1.396,2.604-3.75,2.25c0.838-0.923,0.653-1.54-0.75-1.5
			c1.777-2.552,0.803-2.122-1.5-3.75c0.209-1.541,2.003-1.497,3-2.25c-0.181-1.934-1.29,1.03-3,0c-1.079-6.33,2.293-8.207,5.25-10.5
			c-0.104-1.238-3.129,0.785-5.25,0c0.654-2.404-1.154-2.346-2.25-3c3.032-2.859,4.109-3.528,6-6.75c2.283,2.849,4.389,1.214,7.5,3
			c-2.239-1.699-0.499-3.439,0.75-0.75c1.626,0.126,0.34-2.66,0.75-3.75c1.496,2.473,1.184,0.161,3.75,0
			c-0.302-4.883,0.449-1.721-0.75-7.5c3.116,3.704,0.818-1.583,2.25-2.25c-0.102,0.047,5.954,1.167,11.25,0.75
			c-0.02,2.429-2.344,6.403,1.5,4.5c-1.524,2.008-0.711,2.852-1.5,4.5c0.872,0.122,1.334-0.166,1.5-0.75
			C299.994,54.34,293.15,58.03,297.783,58.5z M275.283,71.25c-0.584-0.166-0.872-0.628-0.75-1.5c-2.987-0.237-2.031,3.469-4.5,3.75
			c0.533-2.25,4.772-4.684,3.75-6c-0.041,0.789-0.961,0.59-0.75-0.75c-3.294,0.725-7.021,4.955-4.5,9
			c1.95-1.788,8.417-1.729,7.5-5.25C275.99,70.958,275.921,71.388,275.283,71.25z M288.783,66.75c0.222-2.972-0.916-4.584-2.25-6
			C286.771,63.262,287.306,65.478,288.783,66.75z M281.283,73.5c2.982,0.232,3.768-1.732,6.75-1.5c0.229-1.979-1.565-1.934-3-2.25
			c-0.801,0.7-0.233,2.767-2.25,2.25c-2.071,0.321-0.704-2.796-2.25-3c0.032,1.032-0.354,1.647-0.75,2.25
			C281.13,71.153,281.538,71.995,281.283,73.5z M289.533,70.5c-1.995-0.755-1.823-3.677-3.75-4.5c-0.067,2.046,1.249,1.51,0,3
			C287.276,68.843,288.986,72.18,289.533,70.5z M299.283,69.75c-0.997-0.974-2.791-0.989-3,0.75c3.499,1.759,5.632-4.186,3.75-3
			C300.065,68.532,299.68,69.147,299.283,69.75z M297.033,72c2.215,0.652-1.74,1.123-0.75,3c2.593,0.093,3.535-1.465,5.25-2.25
			c-1.238-0.012-0.42-2.08-1.5-2.25C300.569,72.537,296.497,69.963,297.033,72z M283.533,75c4.389,0.523-2.438,5.083,0,6
			c0.308,0.053,4.764-1.52,2.25-3.75c0.546,1.226-1.49,3.263-1.5,1.5c1.113-0.937,3.541-4.392,2.25-5.25
			C287.069,75.537,282.997,72.963,283.533,75z"/>
		<path fill-rule="evenodd" clip-rule="evenodd" fill="#FFFFFF" d="M276.033,70.5c0.917,3.521-5.55,3.462-7.5,5.25
			c-2.521-4.045,1.206-8.275,4.5-9c-0.211,1.34,0.709,1.539,0.75,0.75c1.022,1.316-3.217,3.75-3.75,6
			c2.469-0.281,1.513-3.987,4.5-3.75c-0.122,0.872,0.166,1.334,0.75,1.5C275.921,71.388,275.99,70.958,276.033,70.5z"/>
		<path fill-rule="evenodd" clip-rule="evenodd" fill="#FFFFFF" d="M279.783,71.25c0.396-0.603,0.782-1.218,0.75-2.25
			c1.546,0.204,0.179,3.321,2.25,3c2.017,0.517,1.449-1.55,2.25-2.25c1.435,0.316,3.229,0.271,3,2.25
			c-2.982-0.232-3.768,1.732-6.75,1.5C281.538,71.995,281.13,71.153,279.783,71.25z"/>
		<path fill-rule="evenodd" clip-rule="evenodd" fill="#FFFFFF" d="M285.783,69c1.249-1.49-0.067-0.954,0-3
			c1.927,0.823,1.755,3.745,3.75,4.5C288.986,72.18,287.276,68.843,285.783,69z"/>
		<path fill-rule="evenodd" clip-rule="evenodd" fill="#FFFFFF" d="M300.033,67.5c1.882-1.186-0.251,4.759-3.75,3
			c0.209-1.739,2.003-1.724,3-0.75C299.68,69.147,300.065,68.532,300.033,67.5z"/>
		<path fill-rule="evenodd" clip-rule="evenodd" fill="#FFFFFF" d="M76.533,72c0.987-1.489-0.765,2.912-0.75,3.75
			c-1.71,1.03-2.819-1.934-3,0c-1.113-0.327,0.296-0.96,0-2.25C74.205,76.387,75.111,73.215,76.533,72z"/>
		<path fill-rule="evenodd" clip-rule="evenodd" fill="#FFFFFF" d="M286.533,73.5c1.291,0.858-1.137,4.313-2.25,5.25
			c0.01,1.763,2.046-0.274,1.5-1.5c2.514,2.23-1.942,3.803-2.25,3.75c-2.438-0.917,4.389-5.477,0-6
			C282.997,72.963,287.069,75.537,286.533,73.5z"/>
		<path fill-rule="evenodd" clip-rule="evenodd" fill="#FFFFFF" d="M77.283,81.75c2.631,4.002-4.194,1.173-3.75,4.5
			c-1.018-0.232-0.622-1.878-0.75-3C74.6,84,76.1,84.237,77.283,81.75z"/>
		<path fill-rule="evenodd" clip-rule="evenodd" fill="#FFFFFF" d="M76.533,97.5c0.638,0.138,0.707-0.292,0.75-0.75
			c0.408,4.175-5.59-4.117-2.25-7.5c2.118,0.632,2.066,3.434,4.5,3.75C79.229,95.196,77.572,96.039,76.533,97.5z"/>
		<path fill-rule="evenodd" clip-rule="evenodd" fill="#FFFFFF" d="M80.283,97.5c1.43,0.076-0.598,2.795-0.75,3.75
			c-1.319-0.181-1.71-1.291-1.5-3C79.113,99.089,79.863,99.059,80.283,97.5z"/>
		<path fill-rule="evenodd" clip-rule="evenodd" fill="#FFFFFF" d="M72.783,108c1.646-1.566-1.559,2.879-3.75,2.25
			c-0.275-1.276,0.585-1.415,1.5-1.5c0-0.75,0-1.5,0-2.25C72.079,106.902,70.712,110.048,72.783,108z"/>
		<path fill-rule="evenodd" clip-rule="evenodd" fill="#FFFFFF" d="M93.783,114c0.447-2.886,0.603,5.034,1.5,0.75
			c1.626-0.126,0.34,2.66,0.75,3.75c-2.325,0.075-3.583-0.917-5.25-1.5c0.396-0.603,0.782-1.218,0.75-2.25
			C93.963,116.377,92.936,114.659,93.783,114z"/>
		<path fill-rule="evenodd" clip-rule="evenodd" fill="#FFFFFF" d="M90.783,119.25c4.313-0.907,0.782,4.993,3,6.75
			c-0.443,1.797-1.443-1.949-3-1.5c0.594-1.701-0.834-5.02-1.5-3c-2.246-0.493,0.717-1.603,0-3c1.014,0.736,1.499,2.001,2.25,3
			C93.057,121.729,91.38,119.333,90.783,119.25z"/>
		<path fill-rule="evenodd" clip-rule="evenodd" d="M250.533,121.5c-0.008,2.371,2.287-0.282,3,3c4.053-1.079-0.313-5.916,3-7.5
			c1.304,3.826,2.88,2.054,5.25,3c-2.186,2.989,0.122,8.703-2.25,8.25c1.084,3.25,1.676-0.79,4.5,0c1.971-8.003,5.598-4.9,11.25-3
			c-1.357,4.57-4.082,3.303-5.25,8.25c3.67,1.83,3.703,7.296,6.75,9.75c-1.08-0.42-1.83-1.17-2.25-2.25
			c-1.018,0.232-0.622,1.878-0.75,3c-2.797,0.797-1.188-2.813-3.75-2.25c-1.421,0.988,1.938,3.512,3,4.5
			c-1.804,0.467-1.145,0.455-0.75,3.75c-2.959,0.66-3.451,1.021-5.25-1.5c-0.654,2.404,1.154,2.346,2.25,3
			c-0.508,5.003-4.536,7.469-8.25,7.5c-4.396,27.367-4.478,62.521-6,95.25c-0.328,7.052,0.268,14.408-3,21
			c-0.587-36.413,3.107-73.973,5.25-113.25c-2.063,3.451-1.608,0.877-3.75-0.75c-2.761,2.813-1.763,2.336-3.75,4.5
			c0.487,0.763,1.725,0.775,1.5,2.25c0.763-0.487,0.775-1.725,2.25-1.5c1.888,6.194-2.783,5.432-5.25,6.75
			c-0.602-2.602,1.117-2.883,0.75-5.25c-1.31,0.69-1.655,2.345-1.5,4.5c-2.343-0.657-1.471-4.529-4.5-4.5
			c-0.711,31.527-7.542,62.907-10.5,92.25c-0.515,5.107,1.807,11.297-3.75,15c2.438-32.01,10.256-61.916,11.25-97.5
			c-3.263-3.22-3.525-2.718-6-9c1.933-0.818,3.604-1.896,4.5-3.75c-0.921-3.287-1.652-5.287-1.5-7.5c-3.785,1.1-5.616-3.698-9-3
			c1.597-2.205-0.213-3.162,3.75-3c-1.271-1.729-5.008-0.993-6-3c1.3-2.846,6.677-1.066,7.5,2.25c3.766-1.735,0.968-4.697-1.5-6
			c1.251-2.155,3.609,0.82,4.5,1.5c1.331-0.751-0.401-3.027,0.75-4.5c3.036,1.036,2.372-1.628,4.5-1.5
			c-0.136,2.875,0.614,0.272,2.25,0.75c0.658,1.326,2.377,2.189,0.75,3.75c2.568-0.562,5.843,0.011,8.25-2.25
			c-0.583-0.667-0.807-1.694-0.75-3c-1.114,0.635-1.085,2.415-1.5,3.75c-0.595-1.698-3.891-4.552-5.25-3
			c-1.87-0.736,2.575-5.327,2.25-0.75c3.771-4.68-6.643-6.041-9-4.5c0.635-3.521,9.657-6.015,12.75-3.75
			c-0.742-4.257-3.438-6.562-6-9C246.018,119.682,249.611,124.255,250.533,121.5z M265.533,131.25
			c-1.162-0.838-1.563-2.438-3.75-2.25C260.462,131.893,265.752,131.936,265.533,131.25z M255.033,140.25
			c0.166-0.584,0.628-0.872,1.5-0.75c-0.326-1.674-1.326-2.674-3-3C253.423,138.36,253.394,140.14,255.033,140.25z M261.783,154.5
			c-0.002-0.417,0.607-0.852,0.75,0c-0.239,0.919,0.12,4.632,0.75,2.25c-0.875-2.805,1.914-8.488,0-7.5
			C264.235,152.011,259.254,152.641,261.783,154.5z M242.283,155.25c4.285,2.799-0.238,6.031,4.5,3.75c-1.829-1.37,0.908-3.106,0-3
			c-0.308-1.279-0.967,0.158-2.25,0c-1.991-0.829,1.991-3.891,0-2.25C243.646,154.114,242.833,154.55,242.283,155.25z"/>
		<path fill-rule="evenodd" clip-rule="evenodd" fill="#FFFFFF" d="M261.783,129c2.188-0.188,2.588,1.412,3.75,2.25
			C265.752,131.936,260.462,131.893,261.783,129z"/>
		<path fill-rule="evenodd" clip-rule="evenodd" fill="#FFFFFF" d="M263.283,149.25c1.914-0.988-0.875,4.695,0,7.5
			c-0.63,2.382-0.989-1.331-0.75-2.25c-0.143-0.852-0.752-0.417-0.75,0C259.254,152.641,264.235,152.011,263.283,149.25z"/>
		<path fill-rule="evenodd" clip-rule="evenodd" fill="#FFFFFF" d="M244.533,153.75c1.991-1.641-1.991,1.421,0,2.25
			c1.283,0.158,1.942-1.279,2.25,0c0.908-0.106-1.829,1.63,0,3c-4.738,2.281-0.215-0.951-4.5-3.75
			C242.833,154.55,243.646,154.114,244.533,153.75z"/>
		<path fill-rule="evenodd" clip-rule="evenodd" d="M230.283,166.5c-1.355-2.322-2.297-0.4-5.25-0.75
			c1.743-1.756,2.534-4.466,3.75-6.75c3.349-0.099,4.849,1.651,6.75,3c-1.357,1.143,0.143,5.143-3,4.5c0-1,0-2,0-3
			c-1.924,0.076-1.205,2.795-2.25,3.75C229.432,167.107,229.867,166.498,230.283,166.5z"/>
		<path fill-rule="evenodd" clip-rule="evenodd" fill="#FFFFFF" d="M63.783,164.25c1.487-0.513-0.468-4.468,2.25-3.75
			c-0.356,2.856,0.318,4.682,2.25,5.25C66.599,168.338,66.892,162.712,63.783,164.25z"/>
		<path fill-rule="evenodd" clip-rule="evenodd" fill="#FFFFFF" d="M70.533,176.25c0.605,0.645,2.055,0.446,2.25,1.5
			c0.538-0.605-2.111-4.578,2.25-4.5c0.096,1.345-0.918,1.582-0.75,3c3.806-1.119,2.08-3.244,2.25-7.5
			c0.923,0.838,1.54,0.653,1.5-0.75c1.687,16.279-9.742,32.189-12.75,48.75c-2.408-0.658-1.555,1.945-3,2.25
			c1.531,2.507-1.07,6.918-2.25,9.75C63.419,213.602,67.095,195.215,70.533,176.25z"/>
		<path fill-rule="evenodd" clip-rule="evenodd" d="M234.033,177.75c-1.619,2.38-5.321,2.678-6,6c0.952,0.227,3.01-0.094,4.5-1.5
			c-0.091,1.533,1.156,5.018,3.75,6c-2.159,2.467-2.631,10.088-9,10.5c1.931-3.354-0.874-2.589-3-4.5
			c0.631,1.869,0.981,4.018,0.75,6.75c-2.319-3.056-2.658,8.759-3,12.75c-1.636,19.098-6.07,45.922-10.5,61.5
			c-0.599-14.371,6.329-30.956,8.25-48.75c0.5-4.629,0.606-9.825,0.75-15c-1.922-2.053-4.97-4.12-7.5-1.5
			c-0.962-4.212,3.738-2.762,6.75-3c-0.974,0.996-0.988,2.791,0.75,3c1.71-1.04,0.279-5.221,0.75-7.5
			c0.297-1.797-3.416,0.416-2.25-2.25c-4.437,0.512-1.833,3.436-5.25,3c1.246,4.291-2.055,3.78-4.5,6
			c2.942,0.309,2.565,3.935,6.75,3c1.036,3.036-1.628,2.372-1.5,4.5c-3.889-2.808-3.231,5.701-6.75,4.5
			c-3.201,18.799-5.021,38.979-12,54c3.819-18.931,9.098-36.402,10.5-57.75c-0.923,0.838-1.54,0.652-1.5-0.75
			c-1.007,0.493-1.396,1.604-1.5,3c-2.259-0.491-3.104-2.396-5.25-3c1.213-1.037,0.932-3.568,3.75-3
			c-0.765-2.274-2.077-3.477,0.75-6c-0.664,0.673-5.217,1.166-3,2.25c-1.102,1.586-1.583-0.787-0.75-2.25
			c-2.902-0.831-2.668,2.651-4.5,0.75c0.513-2.237,0.909-4.591,3-5.25c2.802-0.802,2.138,1.862,4.5,1.5
			c1.767-0.634-0.624-3.29-0.75-4.5c-1.546,3.421,0.377-1.688-3-2.25c2.036-2.105,3.412-1.284,6,0c2.014-0.986,1.496-4.503,4.5-4.5
			c0.583,0.667,0.807,1.694,0.75,3c3.566,0.566,0.989-5.011,5.25-3.75c0-1,0-2,0-3c-1.046-2.357-3.701,1.031-4.5-0.75
			c0.428-2.572,3.233-2.766,5.25-3.75c-1.642-1.313-2.992-0.98-6.75,0c1.407-1.43-0.445-1.357,0-3.75
			c2.761-0.529,5.9-1.493,7.5,0.75c2.689-3.228-2.436-5.036-4.5-6c2.54-2.887,4.071,0.614,7.5,0.75
			c2.335-1.431-1.173-3.257-0.75-5.25c2.503,3.578,5.223,1.709,9.75,0.75c0.831,2.902-2.651,2.668-0.75,4.5
			c0.472-1.278,2.266-1.234,3-2.25C231.98,175.303,231.925,177.609,234.033,177.75z M223.533,184.5c1.25,0,2.5,0,3.75,0
			C227.062,181.444,223.958,182.349,223.533,184.5z M219.783,184.5c-1.396,0.103-2.507,0.493-3,1.5
			c0.942,0.308,1.533,0.967,1.5,2.25c0.75,0,1.5,0,2.25,0c0.594-3.463-0.834-2.145-1.5-3
			C219.49,185.208,219.921,185.138,219.783,184.5z M228.033,190.5c-0.057-1.306,0.167-2.333,0.75-3
			c-1.475,0.225-1.487-1.013-2.25-1.5C225.734,188.038,226.058,189.512,228.033,190.5z M213.033,200.25
			c3.449-0.979,3.794-0.603,6-2.25c-1.934-0.181,1.03-1.291,0-3c-1.032,0.032-1.646-0.353-2.25-0.75
			C216.33,197.047,213.336,197.303,213.033,200.25z M203.283,213c2.046-0.068,1.51,1.249,3,0c-0.694-2.941-1.634-2.787-0.75-6
			C203.419,207.117,204.811,210.685,203.283,213z"/>
		<path fill-rule="evenodd" clip-rule="evenodd" fill="#FFFFFF" d="M205.533,207c-0.884,3.213,0.056,3.059,0.75,6
			c-1.49,1.249-0.954-0.068-3,0C204.811,210.685,203.419,207.117,205.533,207z"/>
		<path fill-rule="evenodd" clip-rule="evenodd" fill="#FFFFFF" d="M58.533,232.5c1.079,9.334-4.039,18.958-5.25,28.5
			C52.858,252.32,57.654,242.374,58.533,232.5z"/>
		<path fill-rule="evenodd" clip-rule="evenodd" d="M169.533,241.5c-1.098-1.075-2.377-0.575-2.25,1.5
			c0.729-0.021,0.582-0.918,0.75-1.5c1.018,0.232,0.622,1.878,0.75,3c1.114-0.636,1.085-2.415,1.5-3.75
			c0.554,0.531,3.671,1.869,3-0.75c1.429,0.322,1.884,1.616,3.75,1.5c0.013,1.098-3.163,2.377,0,2.25
			c0.188,2.188-1.412,2.588-2.25,3.75c1.538-0.201,2.655,3.728,3,2.25c1.505,0.858-2.309,4.313,0.75,5.25
			c-1.658-0.463-2.887,0.132-1.5,2.25c-0.322,2.075-2.359,0.039-1.5-1.5c-1.729,0.771-2.418,2.582-5.25,2.25
			c-0.317-1.567,0.514-1.986,0.75-3c-3.602,2.148-4.341,7.159-4.5,12.75c2.356-2.144,0.376-8.624,3.75-9.75
			c-1.407,3.554-1.428,12.305-3,11.25c1.012,2.521-0.404,3.967,0.75,5.25c-3.601,1.447-6.198,0.135-11.25,0.75
			c0.396-0.604,0.782-1.218,0.75-2.25c-1.689,4.847-8.387-0.088-9.75,2.25c0.143-0.607,0.752-0.748,0.75-1.5
			c-0.121-0.879-1.367-0.633-2.25-0.75c0.016-2.056,3.538-1.781,4.5-0.75c-1.196-0.554,0.171-3.671-2.25-3
			c1.85-1.65,3.574-3.426,6.75-3.75c0.136-1.636-0.614-2.386-2.25-2.25c3.438-3.569,7.889,0.718,9-3c2.2,0.638-0.976,1.888,0,3.75
			c2.035-0.215,3.535-0.965,4.5-2.25c-0.331-2.169-1.581-3.419-3.75-3.75c-0.643-2.393,1.181-2.319,1.5-3.75
			c-1.418-2.551-2.629,1.284-4.5,0.75c-3.418-2.938-0.467-7.816,2.25-9c-0.404-2.346-4.231-1.269-4.5-3.75
			c2.863-0.67,4.787,1.225,6,0c-0.319-1.431-2.143-1.357-1.5-3.75c2.367-0.07,4.473,2.006,4.5-1.5
			C168.046,237.987,169.071,239.462,169.533,241.5z M171.783,252.75c1.4,2.565,1.929-5.983,0-6
			C172.815,249.021,171.427,249.43,171.783,252.75z M161.283,270.75c2.657-0.126,5.369-4.088,3.75-6
			C162.732,266.876,163.415,267.958,161.283,270.75z"/>
		<path fill-rule="evenodd" clip-rule="evenodd" fill="#FFFFFF" d="M171.783,246.75c1.929,0.017,1.4,8.565,0,6
			C171.427,249.43,172.815,249.021,171.783,246.75z"/>
		<path fill-rule="evenodd" clip-rule="evenodd" fill="#FFFFFF" d="M63.783,258.75c-1.051,0.265-0.065,1.32,0.75,1.5
			c-0.736,2.102-2.001-1.089-3,0.75c-1.086,2.836,2.061,1.439,1.5,3.75c-1.968-0.792-3.372-2.868-3,1.5
			c-2.029,0.694,0.847-5.272,0-8.25c0.629-2.382,0.989,1.331,0.75,2.25c1.079-0.992,1.89-3.43,3.75-1.5
			C64.391,259.602,63.781,259.166,63.783,258.75z"/>
		<path fill-rule="evenodd" clip-rule="evenodd" fill="#FFFFFF" d="M165.033,264.75c1.619,1.912-1.093,5.874-3.75,6
			C163.415,267.958,162.732,266.876,165.033,264.75z"/>
		<path fill-rule="evenodd" clip-rule="evenodd" d="M190.533,221.25c-1.924-0.076-1.205-2.795-2.25-3.75
			c-1.096,0.654-2.904,0.596-2.25,3c0.763-0.487,0.775-1.725,2.25-1.5c0.546,2.047-1.49,1.51-1.5,3
			c0.226,4.098,7.453,4.559,6.75,3.75c3.765,3.327-2.038,4.536-2.25,7.5c-0.668-0.461-1.342-0.906-1.5,0
			c-2.738-0.511-1.359-5.16,0-6c-0.736-1.211-2.001-1.727-3-0.75c0.265,1.176,1.32-0.656,1.5,0.75
			c-3.167,16.333-3.986,35.014-10.5,48c2.301-13.199,6.887-24.113,7.5-39c-2.593-1.145-7.68-3.033-4.5-6.75
			c-2.59-0.59-3.299,0.701-3.75,2.25c-4.585-3.536,0.254-4.078-2.25-9c0.985-0.963,2.765-0.963,3.75,0
			c0.308-3.308-2.944-3.056-5.25-3.75c1.797-1.788,5.359-2.014,6.75,0.75c1.923-1.49-1.902-3.548-3-4.5
			c0.634-1.768,3.29,0.623,4.5,0.75c-1.873-2.83,2.279-1.947,1.5-4.5c1.848,0.652,3.252,1.748,3,4.5c1.639-1.611,2.653-3.848,6.75-3
			C191.288,217.873,190.018,216.769,190.533,221.25z M181.533,224.25c-0.582,0.168-1.479,0.021-1.5,0.75
			c1.529,1.309,1.471-0.559,3,0.75c-0.116-1.865,1.179-2.322,1.5-3.75C182.06,221.598,179.85,222.637,181.533,224.25z"/>
	</g>
</g>
</svg>
