<?xml version="1.0" encoding="utf-8"?>
<!-- Generator: Adobe Illustrator 12.0.0, SVG Export Plug-In . SVG Version: 6.00 Build 51448)  -->
<!DOCTYPE svg PUBLIC "-//W3C//DTD SVG 1.1//EN" "http://www.w3.org/Graphics/SVG/1.1/DTD/svg11.dtd" [
	<!ENTITY ns_svg "http://www.w3.org/2000/svg">
	<!ENTITY ns_xlink "http://www.w3.org/1999/xlink">
]>
<svg  version="1.1" id="Layer_1" xmlns="&ns_svg;" xmlns:xlink="&ns_xlink;" width="303.033" height="372"
	 viewBox="0 0 303.033 372" overflow="visible" enable-background="new 0 0 303.033 372" xml:space="preserve">
<g>
	<g>
		<path fill-rule="evenodd" clip-rule="evenodd" fill="#FFFFFF" d="M216.033,68.25c1.742,0.508,2.008,2.492,3.75,3
			C218.139,73.565,215.897,70.195,216.033,68.25z"/>
		<path fill-rule="evenodd" clip-rule="evenodd" fill="#FFFFFF" d="M57.033,149.25c-1.316,1.508-4.941-1.016-7.5-0.75
			C51.29,146.551,55.754,148.236,57.033,149.25z"/>
		<path fill-rule="evenodd" clip-rule="evenodd" d="M129.033,183c3.628,0.296-0.173,3.675,0.75,6
			C128.092,188.441,129.49,184.793,129.033,183z"/>
		<path fill-rule="evenodd" clip-rule="evenodd" d="M251.283,235.5c1.703-2.836,1.329,2.584,2.25,3
			C253.312,248.684,253.057,238.051,251.283,235.5z"/>
		<path fill-rule="evenodd" clip-rule="evenodd" fill="#FFFFFF" d="M201.783,243.75c-1.512-0.987-2.538-2.462-3-4.5
			C199.132,238.469,202.146,241.337,201.783,243.75z"/>
		<path fill-rule="evenodd" clip-rule="evenodd" fill="#FFFFFF" d="M215.283,243c-0.418,1.832-2.902,1.598-2.25,4.5
			c-1.656-0.094-0.318-3.182-0.75-4.5C213.283,243,214.283,243,215.283,243z"/>
		<path fill-rule="evenodd" clip-rule="evenodd" fill="#FFFFFF" d="M215.283,243.75c2.961-0.105-0.666,4.345-0.75,6
			c2.278-0.722,1.633-4.367,3-6c5.441,4.054-4.849,6.867-5.25,12C210.287,251.733,214.068,247.05,215.283,243.75z"/>
		<path fill-rule="evenodd" clip-rule="evenodd" d="M222.783,28.5c2.192-0.558,1.451-4.049,4.5-3.75
			c-0.143,0.607-0.752,0.748-0.75,1.5c0.42,1.694,1.17-0.91,2.25,0.75c-0.757,2.467-1.297,2.193-3,0.75
			c0.319,1.431,2.143,1.357,1.5,3.75c0.668-0.461,1.342-0.906,1.5,0c2.104-0.01-1.786-2.046,1.5-1.5
			c2.391,2.611-3.494,1.494-2.25,5.25c1.531-1.255,1.772-3.057,1.5-0.75c0.323,1.677,3.696,0.304,5.25,0.75
			c0.126-1.626-2.66-0.34-3.75-0.75c0.922-3.682,4.95-0.894,6,1.5c2.616-1.945-2.702-2.239-2.25-4.5c4.215,1.535,6.247,5.253,8.25,9
			c-0.765,2.328-0.735-2.127-1.5-2.25c-3.389,2.03-5.068,1.203-9,2.25c0.186,0.943,1.491,0.756,1.5,0c0.04,1.123,1.821,1.342,0.75,3
			c2.033-0.404,1.866-0.601,4.5-1.5c2.793,1.04-2.208,0.113-1.5,1.5c0.595,1.728,3.525-0.388,3.75-1.5
			c0.945,0.875,0.609,1.96-0.75,3c0.638-0.138,0.707,0.292,0.75,0.75c2.115-0.792,0.936-2.972,3.75-1.5
			c0.275-1.276-0.585-1.415-1.5-1.5c1.564,0.575,4.925-4.756,6-9c-0.178,3.578,6.109,2.438,10.5,3.75
			c0.275,1.276-0.585,1.415-1.5,1.5c-0.123,1.231,4.623,1.231,4.5,0c1.866,2.16-4.195,2.772-6,3.75
			c0.083-1.417,2.479-0.521,2.25-2.25c-0.604,0.397-1.218,0.782-2.25,0.75c0.143-0.607,0.752-0.748,0.75-1.5
			c-2.353,0.896-0.258,2.568-2.25,4.5c3.099-0.652,5.151-2.348,8.25-3c-0.521,0.605-1.167,2.054,0,2.25
			c-0.638,2.2-1.888-0.976-3.75,0c1.283,1.217,2.729,2.271,5.25,2.25c-1.431,1.069-3.257,1.743-5.25,2.25
			c0.267,1.4,3.821-0.092,4.5-0.75c0.44,0.952-1.267,3.01,1.5,4.5c-4.649,1.599-4.314-3.607-7.5-1.5c2.273,1.04-0.188,2.125,2.25,3
			c-0.55,1.335-1.364,0.108-2.25,0c0.265,0.985,1.32,1.18,1.5,2.25c1.299-0.679,2.071-2.761,0-3c2.656-2.847,3.344,6.597,6,3.75
			c-0.053,1.307,2.028,2.946,3,5.25c-1.334-0.666-1.906-2.094-4.5-1.5c0.465,3.785,5.809,2.691,6.75,6
			c-0.367-1.703,3.253-2.329,5.25-3.75c-0.814,1.695,0.473,2.722-3,3.75c2.401,2.694,6.609,0.695,9.75,0
			c0.127,1.014-3.814,1.499-1.5,2.25c-0.736,2.102-2.001-1.089-3,0.75c0.094,1.656,3.182,0.318,4.5,0.75
			c0.771,2.52-2.333,1.167-3.75,1.5c1.237,1.763,4.854,1.146,5.25,3.75c-1.769-0.966-1.396,0.099-3.75-0.75
			c0.209,1.541,2.003,1.497,3,2.25c-0.121,0.879-1.367,0.633-2.25,0.75c0.816,1.377,4.142,1.87,2.25,3.75
			c-1.918,0.033-0.914-0.558-0.75-1.5c-0.604,0.397-1.218,0.782-2.25,0.75c0.55,0.7,1.363,1.136,2.25,1.5
			c1.786,1.635-1.533-0.375-3,0c0.55,0.7,1.363,1.136,2.25,1.5c1.36,1.852-3.26-1.178-5.25-0.75c2.226,1.774,4.813,3.188,7.5,4.5
			c-2.218,1.188-6.19-2.287-9-3c1.742,2.007,3.985,3.515,6.75,4.5c-0.206,1.769-2.794-0.069-3-0.75
			c-1.694,0.42,0.909,1.17-0.75,2.25c-1.109-0.39-1.891-1.11-3-1.5c0.327,0.923,0.96,1.54,2.25,1.5
			c-1.42,0.875-2.021,2.166,0.75,2.25c-0.113,1.866-2.54,0.219-3,0c2.904,4.86-1.062-1.268-3.75-1.5c1.711,1.289,2.39,3.61,4.5,4.5
			c-2.917,3.733-6.656-0.861-9-2.25c-0.509,1.435,0.635,3.185,2.25,5.25c0.908,1.215-4.416-3.31-6-4.5
			c1.561,1.918,8.601,9.417,3.75,4.5c-2.899-0.101-2.958-3.042-5.25-3.75c0.953,2.547,4.159,2.841,4.5,6
			c-1.742-0.508-2.008-2.492-3.75-3c1.634,1.412,2.082,3.472,2.25,4.5c-5.15-2.668-6.861-9.992-12-9
			c0.466,2.371,3.847,0.142,0.75,2.25c0.42,1.694,1.17-0.91,2.25,0.75c-1.435,1.772-3.185-0.881-5.25-2.25
			c1.277,1.473,1.752,3.749,3.75,4.5c0.798,3.952,3.628,5.873,4.5,9.75c-0.027,3.741-4.345-10.26-6.75-9
			c-1.432-1.568-2.419-3.582-3-6c1.393,4.365,2.105,15.889,7.5,18.75c-2.023,1.52-2.911-0.032-5.25,0
			c1.119,1.381,2.369,2.631,3.75,3.75c-0.934,1.366-3.83-1.619-5.25-2.25c1.871,2.629,4.76,4.24,8.25,5.25
			c-1.046,1.95-3.882-0.547-5.25-0.75c0.757,1.493,1.297,3.204,3,3.75c-0.752,1.422-3.027-1.914-4.5-2.25
			c0.555,2.195,1.813,3.687,3,5.25c0.282,1.394-4.685-2.422-2.25,0.75c-1.977,0.535-3.273-0.448-5.25-1.5
			c-1.814,0.681,1.7,2.213,0.75,4.5c-1.007-0.493-1.396-1.603-1.5-3c-0.814,0.186-0.509,1.491-1.5,1.5
			c1.112,0.409,1.167,0.463,2.25,2.25c-0.143,0.852-0.752,0.417-0.75,0c-0.638-0.138-0.707,0.292-0.75,0.75
			c-1.112-0.638-1.612-1.888-1.5-3.75c-2.198,0.635,0.448,2.415,0,3.75c-1.014-0.736-1.499-2.001-2.25-3
			c-1.673,0.11,0.974,1.89,0,3.75c-1.458-1.542-2.089-3.911-3-6c-0.879,0.121-0.633,1.367-0.75,2.25
			c-2.641-8.467-2.6-15.221-2.25-18.75c0.555-5.604-0.437-8.229-3.75-13.5c1.077,19.637-11.061,35.891-15,54.75
			c-4.147,19.852-4.545,41.924-5.25,61.5c1.448,0.802,3.065,1.435,2.25,4.5c2.719-1.031,4.226-3.274,4.5-6.75
			c2.12-0.62,1.943,1.057,3.75,0.75c-0.838-1.162-2.438-1.562-2.25-3.75c1.34-0.211,1.539,0.709,0.75,0.75
			c1.549,0.682,3.836,0.571,6,2.25c-3.555-0.295,1.445,4.34,0,6c1.64-1.617,1.61,0.192,1.5,2.25c2.16-1.507,0.722-1.215,3.75,0.75
			c0.462-2.41-2.699-1.028-0.75-3c-0.327-1.113-0.96,0.296-2.25,0c0.064-1.064,0.124-2.124-0.75-2.25c1.54-1.46,3.66-2.34,3.75-5.25
			c5.131-0.63,5.834,3.166,8.25,5.25c-0.55,1.335-1.364,0.108-2.25,0c0.11,1.64,1.89,1.61,3.75,1.5
			c-0.121,0.879-1.367,0.633-2.25,0.75c-0.852,0.143-0.416,0.752,0,0.75c-1.102,1.294-2.756-3.201-4.5-3.75
			c0.186-0.814,1.491-0.509,1.5-1.5c-0.42-2.173-1.17,1.15-2.25,0.75c0.817,1.932,1.896,3.604,3.75,4.5
			c-0.736,1.211-2.001,1.726-3,0.75c-0.115,1.866,1.178,2.322,1.5,3.75c0.604-0.397,1.218-0.782,2.25-0.75
			c-2.187,2.975-0.271,0.971,0,3c-0.327,1.113-0.96-0.296-2.25,0c0.652,1.098,1.123,2.377,3,2.25c0.977-3.262,7.352-0.037,9.75,0.75
			c-1.57,2.18-4.522,2.978-6.75,4.5c2.391,1.196,7.236-5.01,9-4.5c-0.748-1.832-0.249-1.598-0.75-4.5
			c2.855-3.431,6.471-1.493,8.25-6c0.676,1.323,0.061,1.691,3,0.75c1.368,0.583-0.449,0.806-1.5,0.75
			c5.631,1.813,6.754,3.742,9.75,5.25c-0.922,1.826-4.516,0.086-5.25-0.75c-0.348,0.995-0.356,1.987-3.75,1.5
			c0.75,1.25,3.469,0.531,3.75,2.25c-0.636,1.769-1.847-2.066-4.5-0.75c0.344,1.906,3.242,1.258,3.75,3
			c0.229,1.523-2.167-0.153-2.25-0.75c-0.984,0.508,0.828,2.492,0.75,3c-1.549,1.138-3.836,0.557-6-0.75
			c0.021,2.479,3.166,1.834,3.75,3.75c-2.205,2.143-5.045-4.545-7.5-2.25c0.752,0.445,3.027,0.678,4.5,2.25
			c-0.728,3.514,0.305,0.626,0.75,3.75c-1.184,1.616-2.684-2.767-4.5-3c1.98,3.456,3.18,5.464,3.75,6.75
			c2.202,4.972-4.697-5.095-6-8.25c-2.246,0.493,0.717,1.603,0,3c-1.461-1.039-2.305-2.696-4.5-3c2.919,2.469,2.029,19.689,1.5,6.75
			c-1.816-1.934-0.373-7.127-4.5-6.75c1.025,2.084,2.801,2.417,3,6.75c1.037,2.176-1.594-2.844-2.25-3.75
			c-2.215,0.652,1.74,1.123,0.75,3c-0.923-0.838-1.54-0.653-1.5,0.75c-0.729-0.021-0.582-0.918-0.75-1.5
			c-0.7,0.425-1.137,2.085-1.5,0.75c-2.555,5.998,6.178,7.251,12,9c-0.352-1.794,4.435-1.739,6.75-3c1.174,2.75,5.158,2.21,8.25,6
			c-0.55,1.336-1.364,0.108-2.25,0c0.223,0.664,1.502,3.811,2.25,1.5c0.715,4.722-5.728-1.83-9-2.25
			c-1.783,0.221,0.834,2.029,1.5,2.25c-0.265,1.051-1.32,0.064-1.5-0.75c-1.427,0.072,0.465,2.928,1.5,3
			c-1.948,1.182-3.809-3.824-3.75-5.25c-2.104,0.01,1.786,2.046-1.5,1.5c0.678,1.322,1.678,2.322,3,3
			c-1.211,2.344-2.375-1.539-3.75-1.5c0.869,0.289,0.869,3.643,0,1.5c-2.215,0.652,1.74,1.123,0.75,3c-2.633-2.367-5.943-4.057-6-9
			c-0.568-0.67-2.395-0.643-5.25-0.75c-2.963,2.015-3.049,7.061-1.5,11.25c0.405,1.285-3.326-5.448-4.5-7.5
			c-1.018,0.232-0.622,1.878-0.75,3c-2.34-2.16-4.263-4.737-6-7.5c-0.839-0.065-0.137,4.565,1.5,4.5
			c-4.269-0.884-1.047,8.383,0,12.75c-4.134-3.366-2.375-12.625-5.25-17.25c-0.36,4.048-0.66,9.747,0.75,16.5
			c1.626,0.126,0.34-2.66,0.75-3.75c5.82,31.127,12.259,74.097,15,113.25c-0.559,1.691-4.207,0.293-6,0.75
			c-1.965-44.226-7.171-90.507-19.5-123.75c-3.997,1.753-4.356,7.144-8.25,9c4.197,2.053,5.886,6.614,9,9.75
			c-1.885,0.562-5.092,0.656-6-2.25c-1.814,0.682,1.7,2.214,0.75,4.5c-1.897-1.268-3.325,0.16-1.5,1.5
			c-0.322,2.075-2.359,0.039-1.5-1.5c0.28,33.739,1.579,73.899-0.75,102.75c-4.75,0-9.5,0-14.25,0
			c5.425-36.193,0.989-83.241,4.5-119.25c-2.047,2.966-3.133,10.85-1.5,15c-1.578,1.04-3.328-4.143-4.5-6
			c0.623-1.527,2.055,2.374,2.25,3.75c1.323-6.677,2.266-13.734,3.75-20.25c-3.72,0.78-4.238,4.763-6,7.5
			c-0.464,2.035,0.952,5.952-0.75,6.75c0-2.5,0-5,0-7.5c1.25-1,1.165-3.335,2.25-4.5c-3.807,1.943-3.735,7.765-4.5,12.75
			c-2.414-3.444,1.535-6.942,0.75-11.25c1.975-1.524,4.422-2.578,6.75-3.75c-0.01-1.49-2.046-0.954-1.5-3
			c0.189,4.38-2.411,0.654-1.5,3c-1.808,0.131-6.692-5.724-5.25-9c-3.396-0.559,1.146,2.059-2.25,1.5
			c1.644,2.033,0.831,1.866,1.5,4.5c-2.134-2.241-2.879-1.477-4.5-4.5c0.124,3.001-5.064-2.442-6-5.25
			c1.473-1.51,3.749-1.674,4.5-0.75c2.04-0.686-1.998-1.395-0.75-3.75c1.08,0.42,1.83,1.17,2.25,2.25c2.215-0.652-1.74-1.123-0.75-3
			c1.651-1.729,3.513,2.95,3-2.25c1.532,2.468,5.946,2.054,7.5,4.5c1.051-0.265,0.065-1.32-0.75-1.5
			c1.461-1.894,3.537,1.913,5.25,2.25c1.833-0.928,0.906-5.334-2.25-3.75c1.17,0.386,4.452-3.522,5.25-6
			c-2.124,0.98-1.887-0.579-3-3.75c4-7.52-0.491-29.166,4.5-36c-1.422-19.194,7.084-45.78,14.25-65.25
			c-0.265-0.985-1.32-1.18-1.5-2.25c-0.991-0.362-0.046,3.438,0.75,3.75c-1.703,2.836-1.329-2.584-2.25-3
			c-2.155,2.123,2.788,4.34,0.75,6.75c-1.321-0.679-1.239-2.761-3-3c0.3,1.95,2.238,2.262,2.25,4.5
			c-2.182-1.075-0.844-0.575-0.75,1.5c-1.742,1.812-2.008-1.171-3.75-1.5c0.645,0.605,0.446,2.054,1.5,2.25
			c-0.221,2.646-2.029-2.646-2.25,0c0.096-1.35-1.294-3.681-2.25-6c-0.7,0.55-1.136,1.364-1.5,2.25
			c-3.146-4.119-1.519-10.27-1.5-14.25c3.413-1.664,6.654-4.65,6.75-7.5c-1.905,0.362-0.483-3.112-1.5-6.75
			c-0.832,1.479-1.871,3.501-2.25,0c-1.41,3.84-2.624,5.334-3,11.25c-0.729-0.021-0.582-0.918-0.75-1.5
			c-0.143-0.852-0.752-0.417-0.75,0c-0.401-1.12-0.747-0.883-1.5-3c-0.729,0.021-0.582,0.918-0.75,1.5
			c0.731-1.488-3.324-5.204-6-7.5c-1.814,0.681,1.7,2.213,0.75,4.5c-1.502-0.998-1.671-3.329-2.25-5.25
			c-2.376,3.288-2.102,1.927-6,4.5c0.55,0.7,1.364,1.136,2.25,1.5c-1.084,3.25-1.675-0.79-4.5,0c0.021,0.729,0.918,0.582,1.5,0.75
			c-3.336,1.56,0.61,0.802,0.75,1.5c0.129,0.641-3.391,1.407,0,1.5c-0.204,2.63-3.321-1.355-3,0.75c-1.09-0.333,0.076-0.659,0-1.5
			c-1.601-0.351-1.429,1.071-1.5,2.25c-0.292,0.312-3.241-5.219-0.75-6c-0.872-0.122-1.334,0.166-1.5,0.75
			c-1.857-1.665,1.88-4.077,3-5.25c-0.186-0.814-1.491-0.509-1.5-1.5c-0.546-2.046,1.49-1.51,1.5-3c1.772,0.209-0.86,2.003-0.75,3
			c3.84-1.315,4.447-2.918,8.25-3c-0.974-1.194-0.989-3.018,0.75-1.5c-0.896-2.238-0.207-2.55,0.75-4.5
			c1.113,0.327-0.296,0.96,0,2.25c3.829-3.171,4.898-9.102,10.5-10.5c-1.368-2.61-5.282-5.905-3.75-9
			c-1.859,3.742-3.885-1.236-4.5,3.75c0.895-2.957,3.586,1.032,2.25,2.25c-0.879-0.121-0.633-1.367-0.75-2.25
			c-3.206,2.819,2.669,2.709,5.25,4.5c0.138,0.638-0.292,0.708-0.75,0.75c-0.638-0.138-0.708,0.292-0.75,0.75
			c-2.814-3.911-10.625,4.222-12,9c0.525,4.283-1.275,4.283-0.75,0c1.217-1.283,2.271-2.729,2.25-5.25
			c1.974-0.776,2.526-2.974,4.5-3.75c-9.864-0.11-12.488,13.509-16.5,21.75c0.176-8.329,7.197-16.3,11.25-23.25c1.25,0,2.5,0,3.75,0
			c-1.597-4.154-7.416-9.271-3.75-10.5c-2.318-2.433-5.904-6.893-12.75-5.25c-2.158-0.842,5.072-1.842,0.75-3
			c0.209-1.772,2.003,0.86,3,0.75c-3.771-2.091,2.615-2.487-0.75-3c1.866-1.321,4.158,0.766,3.75-3.75
			c1.546,0.204,0.179,3.321,2.25,3c-0.55,1.335-1.364,0.108-2.25,0c0.143,0.607,0.752,0.748,0.75,1.5
			c3.308,0.558,1.412-4.088,3.75-4.5c2.173,0.42-1.15,1.17-0.75,2.25c0.265,1.051,1.32,0.065,1.5-0.75
			c2.102,0.736-1.089,2.001,0.75,3c2.936,0.742,4.354-1.657,6,0c1.113-0.327-0.296-0.96,0-2.25c0.445-0.878,1.945,3.505,4.5,3
			c-2.705-6.457-12.375-7.68-21-6c2.199-1.801,6.488-1.512,10.5-1.5c-1.4-3.726-15.533,0.763-11.25-2.25c3.25,0,6.5,0,9.75,0
			c0.683,1.317,2.628,1.372,3.75,2.25c1.09-0.333-0.076-0.659,0-1.5c-0.022-1.737,0.847,2.873,3,3c0.763-1.547-3.522-4.453-5.25-6
			c2.989,0.239,5.806-0.822,6.75,0.75c1.018-0.232,0.622-1.878,0.75-3c1.213,1.225,3.137-0.669,6,0
			c-1.099,2.149-1.987,0.839-5.25,1.5c-0.316,3.72,2.246,0.424,3,2.25c1.112-2.138,3.716-2.784,4.5-5.25
			c0.79,0.374-0.515,3.678,2.25,1.5c1.851,0.718-2.381,1.532-3,2.25c0,1.5,0,3,0,4.5c1.188-1.812,4.013-1.987,6-3
			c-1.373,4.461,2.506,12.704,1.5,15.75c0.871,2.456,4.652,2.897,5.25,0c-1.172,0.11-3.716,0.448,0-1.5
			c-1.108-3.05-0.032-3.622-0.75-6.75c-2.167,0.333,0.667,5.667-1.5,6c-0.118,1.37-0.336-8.382-4.5-5.25
			c0.619-2.843,4.325-1.18,3.75,1.5c3.232-3.282-2.953-3.51-3-6c1.879-0.129,1.821,1.679,3,2.25c4.125-2.907,3.087-7.445,3.75-12.75
			c3.353,0.856,0.956,0.442,2.25-1.5c-0.42-2.173-1.17,1.15-2.25,0.75c1.26-2.501,2.12-11.871,7.5-12.75
			C226.448,25.665,222.24,24.707,222.783,28.5z M267.783,64.5c1.659,1.08-0.944,1.83,0.75,2.25c0.043-0.458,0.112-0.888,0.75-0.75
			c0.457-0.042,0.888-0.112,0.75-0.75c-5.77-2.371-10.381-2.06-13.5-1.5C259.447,66.281,263.321,65.618,267.783,64.5z
			 M258.033,60.75c2.407-0.658,1.555,1.945,3,2.25c-0.229-1.729,2.167-0.833,2.25-2.25C260.817,60.43,260.171,60.606,258.033,60.75z
			 M237.033,246.75c1.07,0.292,1.265,0.9,2.25,0c1.109,1.641,1.463,4.037,3,5.25c-0.203-1.605,0.581-8.001-0.75-6
			C241.372,247.938,235.051,245.6,237.033,246.75z M212.283,255.75c0.401-5.133,10.691-7.946,5.25-12c-1.367,1.633-0.722,5.278-3,6
			c0.084-1.655,3.711-6.105,0.75-6C214.068,247.05,210.287,251.733,212.283,255.75z M212.283,243c0.432,1.318-0.906,4.406,0.75,4.5
			c-0.652-2.902,1.832-2.668,2.25-4.5C214.283,243,213.283,243,212.283,243z M211.533,74.25c-10.38-1.63-12.575,4.925-15.75,10.5
			c2.825-1.254,3.416,3.489,4.5,1.5c-1.335-0.364,0.325-0.8,0.75-1.5c-1.862,0.112-3.112-0.388-3.75-1.5
			c2.813-0.52,4.99,3.453,6,2.25c-2.767-2.982,1.388-2.475,2.25-3c-0.886-0.364-1.7-0.8-2.25-1.5c6.749,0.999,8.45-3.05,12-5.25
			c-0.871-0.629-2.011-0.989-3.75-0.75c-1.287,1.916,0.859,2.625-0.75,3.75C209.182,77.218,210.994,75.782,211.533,74.25z
			 M198.033,72c-2.393-0.989-5.329-7.563-5.25-4.5C192.517,66.634,194.919,74.454,198.033,72z M207.783,46.5
			c0.92-2.96,2.327-0.57,3,0.75c-0.056-1.306,0.167-2.333,0.75-3c-1.25,0-2.5,0-3.75,0C208.079,45.54,206.67,46.173,207.783,46.5z
			 M262.533,45.75c-2.367,0.367-2.648-1.352-5.25-0.75c-0.117,0.883,0.129,2.129-0.75,2.25c0.002-0.417-0.607-0.852-0.75,0
			C259.276,47.975,258.033,45.581,262.533,45.75z M219.783,57c-0.432-1.318,0.906-4.406-0.75-4.5c-0.985,2.328,0.203,2.141,0,5.25
			c2.229,0.893,3.222-3.161,1.5-3.75C220.405,55.122,220.801,56.768,219.783,57z M194.283,57c2.626,0.126,2.361-2.639,3.75-3.75
			c-1.318,0.432-4.406-0.906-4.5,0.75C194.665,54.652,193.327,55.123,194.283,57z M201.033,60c2.37-1.033,4.526,1.856,5.25,0
			c-1.249-2.868-2.619-7.504-6.75-5.25c-0.168-0.582-0.021-1.479-0.75-1.5C199.164,55.869,202.241,55.792,201.033,60z
			 M248.283,57.75c-2.445,0.195-3.609-0.891-3.75-3c1.862-0.976,3.112,2.2,3.75,0c-3.199-1.469-9.427-0.773-8.25,2.25
			c2.04-2.473,2.364,3.085,4.5,3c0.529-2.339-4.193-3.227-1.5-5.25C244.326,56.065,246.99,61.057,248.283,57.75z M201.783,63
			c2.15,0.387,5.023,3.927,6.75,2.25c-1.854-0.956-6.878-2.239-3.75-3.75c-1.709,1.03-2.819-1.934-3,0
			C202.689,61.659,202.244,62.333,201.783,63z M247.533,74.25c5.18,0.93,6.52-1.98,9-3.75c-4.597-2.95-11.995-7.169-3-0.75
			c-2.578-0.945-7.522-3.447-9-3C246.206,68.824,248.369,71.843,247.533,74.25z M219.783,71.25c-1.742-0.508-2.008-2.492-3.75-3
			C215.897,70.195,218.139,73.565,219.783,71.25z M234.783,85.5c-2.177-1.802-1.859,3.693-3.75,4.5
			c3.245,2.755,3.349,8.651,6.75,11.25c0.692-3.787,2.195,2.175,3.75-0.75c-3.567-0.151,1.302-1.934,1.5-3
			c0.168,0.582,0.021,1.479,0.75,1.5c-1.804-7.196-6.124-11.875-9-18c5.465,3.785,6.099,12.401,11.25,16.5
			c-1.711-7.426-5.966-18.993-12.75-16.5C234.593,81.69,234.938,83.345,234.783,85.5z M251.283,109.5c0.359-1.467-1.068-4.786-1.5-3
			c0.582,1.468,1.892,6.041,3.75,3.75c-1.819-8.224-7.082-20.86-9.75-23.25C247.289,99.104,251.283,101.36,251.283,109.5z
			 M214.533,92.25c0.168-0.582,0.021-1.479,0.75-1.5c-0.084-1.916-1.375-2.625-2.25-3.75c-0.717,1.397,2.246,2.507,0,3
			c-0.753-0.997-0.709-2.791-2.25-3C210.88,89.903,213.264,90.519,214.533,92.25z M219.033,94.5c1.052-2.185,2.584,1.33,4.5,0.75
			c0.658-4.408-0.701-6.799-3.75-7.5c-0.677,2.486,4.167,3.253,2.25,4.5c-0.917-1.083-2.862-1.138-3.75-2.25
			c-0.334,1.916-1.052,3.448-2.25,4.5c-0.609-1.701,1.4-5.02,0-3c-1.018,1.732-2.156,3.344-2.25,6
			C215.888,95.478,220.319,90.414,219.033,94.5z M223.533,105.75c-1.738-1.518-1.724,0.306-0.75,1.5
			c-0.666-0.418-3.283-2.256-1.5-0.75c0.18,1.07,1.235,1.265,1.5,2.25c-2.466-0.546-1.148,1.49,0,1.5
			c0.189-2.56,1.896-3.604,1.5-6.75c-2.065-1.615-3.815-2.759-5.25-2.25C220.531,102.752,222.843,103.441,223.533,105.75z
			 M219.033,220.5c-1.285-0.964-2.949-1.551-3-3.75c-1.418-0.168-1.655,0.845-3,0.75c0.729,1.564,2.133,6.309,3.75,4.5
			C212.679,217.25,217.979,220.078,219.033,220.5z M225.033,225c-1.632-1.644-2.959-7.507-5.25-6
			C222.338,219.721,223.077,226.172,225.033,225z M234.783,234c-2.697,1.7-4.795,1.092-6,3c3.399-0.601,6.986-1.014,7.5-4.5
			c-1.71,1.03-2.819-1.934-3,0C234.125,232.659,234.451,233.333,234.783,234z M198.783,239.25c0.462,2.038,1.488,3.513,3,4.5
			C202.146,241.337,199.132,238.469,198.783,239.25z"/>
		<path fill-rule="evenodd" clip-rule="evenodd" fill="#FFFFFF" d="M0.783,0c100.75,0,201.5,0,302.25,0c0,124,0,248,0,372
			c-101,0-202,0-303,0c0-123.25,0-246.5,0-369.75C-0.031,1.186-0.091,0.126,0.783,0z M226.533,22.5
			c-5.38,0.879-6.24,10.249-7.5,12.75c1.08,0.4,1.83-2.923,2.25-0.75c-1.294,1.942,1.103,2.356-2.25,1.5
			c-0.663,5.305,0.375,9.843-3.75,12.75c-1.179-0.571-1.121-2.379-3-2.25c0.047,2.49,6.232,2.718,3,6
			c0.575-2.68-3.131-4.343-3.75-1.5c4.164-3.132,4.382,6.62,4.5,5.25c2.167-0.333-0.667-5.667,1.5-6
			c0.718,3.128-0.358,3.7,0.75,6.75c-3.716,1.948-1.172,1.61,0,1.5c-0.598,2.897-4.379,2.456-5.25,0
			c1.006-3.046-2.873-11.289-1.5-15.75c-1.987,1.013-4.812,1.188-6,3c0-1.5,0-3,0-4.5c0.619-0.718,4.851-1.532,3-2.25
			c-2.765,2.178-1.46-1.126-2.25-1.5c-0.784,2.466-3.388,3.112-4.5,5.25c-0.754-1.826-3.316,1.47-3-2.25
			c3.263-0.661,4.151,0.649,5.25-1.5c-2.863-0.669-4.787,1.225-6,0c-0.128,1.122,0.268,2.768-0.75,3
			c-0.944-1.572-3.761-0.511-6.75-0.75c1.728,1.547,6.013,4.453,5.25,6c-2.153-0.127-3.022-4.737-3-3c-0.076,0.841,1.09,1.167,0,1.5
			c-1.122-0.878-3.067-0.933-3.75-2.25c-3.25,0-6.5,0-9.75,0c-4.283,3.013,9.85-1.476,11.25,2.25c-4.012-0.012-8.301-0.301-10.5,1.5
			c8.625-1.68,18.295-0.457,21,6c-2.555,0.505-4.055-3.878-4.5-3c-0.296,1.29,1.113,1.923,0,2.25c-1.646-1.657-3.064,0.742-6,0
			c-1.839-0.999,1.352-2.264-0.75-3c-0.18,0.815-1.235,1.801-1.5,0.75c-0.4-1.08,2.923-1.83,0.75-2.25
			c-2.338,0.412-0.442,5.058-3.75,4.5c0.002-0.752-0.607-0.893-0.75-1.5c0.886,0.108,1.7,1.335,2.25,0
			c-2.071,0.321-0.704-2.796-2.25-3c0.408,4.516-1.884,2.429-3.75,3.75c3.365,0.513-3.021,0.909,0.75,3
			c-0.997,0.11-2.791-2.522-3-0.75c4.322,1.158-2.908,2.158-0.75,3c6.846-1.643,10.432,2.817,12.75,5.25
			c-3.666,1.229,2.153,6.346,3.75,10.5c-1.25,0-2.5,0-3.75,0c-4.053,6.95-11.074,14.921-11.25,23.25
			c4.012-8.241,6.636-21.86,16.5-21.75c-1.974,0.776-2.526,2.974-4.5,3.75c0.021,2.521-1.033,3.967-2.25,5.25
			c-0.525,4.283,1.275,4.283,0.75,0c1.375-4.778,9.186-12.911,12-9c0.042-0.458,0.112-0.888,0.75-0.75
			c0.458-0.042,0.888-0.112,0.75-0.75c-2.581-1.791-8.456-1.681-5.25-4.5c0.117,0.883-0.129,2.129,0.75,2.25
			c1.336-1.218-1.355-5.207-2.25-2.25c0.615-4.986,2.641-0.008,4.5-3.75c-1.532,3.095,2.382,6.39,3.75,9
			c-5.602,1.398-6.671,7.329-10.5,10.5c-0.296-1.29,1.113-1.923,0-2.25c-0.957,1.95-1.646,2.262-0.75,4.5
			c-1.739-1.518-1.724,0.306-0.75,1.5c-3.803,0.082-4.41,1.685-8.25,3c-0.11-0.997,2.522-2.791,0.75-3c-0.01,1.49-2.046,0.954-1.5,3
			c0.009,0.991,1.314,0.686,1.5,1.5c-1.12,1.173-4.857,3.585-3,5.25c0.166-0.584,0.628-0.872,1.5-0.75
			c-2.491,0.781,0.458,6.312,0.75,6c0.071-1.179-0.101-2.601,1.5-2.25c0.076,0.841-1.09,1.167,0,1.5c-0.321-2.105,2.796,1.88,3-0.75
			c-3.391-0.093,0.129-0.859,0-1.5c-0.14-0.698-4.086,0.06-0.75-1.5c-0.582-0.168-1.479-0.021-1.5-0.75c2.825-0.79,3.416,3.25,4.5,0
			c-0.886-0.364-1.7-0.8-2.25-1.5c3.898-2.573,3.624-1.212,6-4.5c0.579,1.921,0.748,4.252,2.25,5.25
			c0.95-2.287-2.564-3.819-0.75-4.5c2.676,2.296,6.731,6.012,6,7.5c0.168-0.582,0.021-1.479,0.75-1.5c0.753,2.117,1.099,1.88,1.5,3
			c-0.002-0.417,0.607-0.852,0.75,0c0.168,0.582,0.021,1.479,0.75,1.5c0.376-5.916,1.59-7.41,3-11.25
			c0.379,3.501,1.418,1.479,2.25,0c1.017,3.638-0.405,7.112,1.5,6.75c-0.096,2.85-3.337,5.836-6.75,7.5
			c-0.019,3.98-1.646,10.131,1.5,14.25c0.364-0.886,0.8-1.7,1.5-2.25c0.956,2.319,2.346,4.65,2.25,6c0.221-2.646,2.029,2.646,2.25,0
			c-1.054-0.196-0.855-1.645-1.5-2.25c1.742,0.329,2.008,3.312,3.75,1.5c-0.094-2.075-1.432-2.575,0.75-1.5
			c-0.012-2.238-1.95-2.55-2.25-4.5c1.761,0.239,1.679,2.321,3,3c2.038-2.41-2.905-4.627-0.75-6.75c0.921,0.416,0.547,5.836,2.25,3
			c-0.796-0.312-1.741-4.112-0.75-3.75c0.18,1.07,1.235,1.265,1.5,2.25c-7.166,19.47-15.672,46.056-14.25,65.25
			c-4.991,6.834-0.5,28.48-4.5,36c1.113,3.171,0.876,4.73,3,3.75c-0.798,2.478-4.08,6.386-5.25,6c3.156-1.584,4.083,2.822,2.25,3.75
			c-1.713-0.337-3.789-4.144-5.25-2.25c0.815,0.18,1.801,1.235,0.75,1.5c-1.554-2.446-5.968-2.032-7.5-4.5
			c0.513,5.2-1.349,0.521-3,2.25c-0.99,1.877,2.965,2.348,0.75,3c-0.42-1.08-1.17-1.83-2.25-2.25c-1.248,2.355,2.79,3.064,0.75,3.75
			c-0.751-0.924-3.027-0.76-4.5,0.75c0.936,2.808,6.124,8.251,6,5.25c1.621,3.023,2.366,2.259,4.5,4.5
			c-0.669-2.634,0.144-2.467-1.5-4.5c3.396,0.559-1.146-2.059,2.25-1.5c-1.442,3.276,3.442,9.131,5.25,9
			c-0.911-2.346,1.689,1.38,1.5-3c-0.546,2.046,1.49,1.51,1.5,3c-2.328,1.172-4.775,2.226-6.75,3.75
			c0.785,4.308-3.164,7.806-0.75,11.25c0.765-4.985,0.693-10.807,4.5-12.75c-1.085,1.165-1,3.5-2.25,4.5c0,2.5,0,5,0,7.5
			c1.702-0.798,0.286-4.715,0.75-6.75c1.762-2.737,2.28-6.72,6-7.5c-1.484,6.516-2.427,13.573-3.75,20.25
			c-0.195-1.376-1.627-5.277-2.25-3.75c1.172,1.857,2.922,7.04,4.5,6c-1.633-4.15-0.547-12.034,1.5-15
			c-3.511,36.009,0.925,83.057-4.5,119.25c4.75,0,9.5,0,14.25,0c2.329-28.851,1.03-69.011,0.75-102.75
			c-0.859,1.539,1.178,3.575,1.5,1.5c-1.825-1.34-0.397-2.768,1.5-1.5c0.95-2.286-2.564-3.818-0.75-4.5
			c0.908,2.906,4.115,2.812,6,2.25c-3.114-3.136-4.803-7.697-9-9.75c3.894-1.856,4.253-7.247,8.25-9
			c12.329,33.243,17.535,79.524,19.5,123.75c1.793-0.457,5.441,0.941,6-0.75c-2.741-39.153-9.18-82.123-15-113.25
			c-0.41,1.09,0.876,3.876-0.75,3.75c-1.41-6.753-1.11-12.452-0.75-16.5c2.875,4.625,1.116,13.884,5.25,17.25
			c-1.047-4.367-4.269-13.634,0-12.75c-1.637,0.065-2.339-4.565-1.5-4.5c1.737,2.763,3.66,5.34,6,7.5
			c0.128-1.122-0.268-2.768,0.75-3c1.174,2.052,4.905,8.785,4.5,7.5c-1.549-4.189-1.463-9.235,1.5-11.25
			c2.855,0.107,4.682,0.08,5.25,0.75c0.057,4.943,3.367,6.633,6,9c0.99-1.877-2.965-2.348-0.75-3c0.869,2.143,0.869-1.211,0-1.5
			c1.375-0.039,2.539,3.844,3.75,1.5c-1.322-0.678-2.322-1.678-3-3c3.286,0.546-0.604-1.49,1.5-1.5
			c-0.059,1.426,1.802,6.432,3.75,5.25c-1.035-0.072-2.927-2.928-1.5-3c0.18,0.814,1.235,1.801,1.5,0.75
			c-0.666-0.221-3.283-2.029-1.5-2.25c3.272,0.42,9.715,6.972,9,2.25c-0.748,2.311-2.027-0.836-2.25-1.5
			c0.886,0.108,1.7,1.336,2.25,0c-3.092-3.79-7.076-3.25-8.25-6c-2.315,1.261-7.102,1.206-6.75,3c-5.822-1.749-14.555-3.002-12-9
			c0.363,1.335,0.8-0.325,1.5-0.75c0.168,0.582,0.021,1.479,0.75,1.5c-0.04-1.403,0.577-1.588,1.5-0.75
			c0.99-1.877-2.965-2.348-0.75-3c0.656,0.906,3.287,5.926,2.25,3.75c-0.199-4.333-1.975-4.666-3-6.75
			c4.127-0.377,2.684,4.816,4.5,6.75c0.529,12.939,1.419-4.281-1.5-6.75c2.195,0.304,3.039,1.961,4.5,3c0.717-1.397-2.246-2.507,0-3
			c1.303,3.155,8.202,13.222,6,8.25c-0.57-1.286-1.77-3.294-3.75-6.75c1.816,0.233,3.316,4.616,4.5,3
			c-0.445-3.124-1.478-0.236-0.75-3.75c-1.473-1.572-3.748-1.805-4.5-2.25c2.455-2.295,5.295,4.393,7.5,2.25
			c-0.584-1.916-3.729-1.271-3.75-3.75c2.164,1.307,4.451,1.888,6,0.75c0.078-0.508-1.734-2.492-0.75-3
			c0.083,0.597,2.479,2.273,2.25,0.75c-0.508-1.742-3.406-1.094-3.75-3c2.653-1.316,3.864,2.519,4.5,0.75
			c-0.281-1.719-3-1-3.75-2.25c3.394,0.487,3.402-0.505,3.75-1.5c0.734,0.836,4.328,2.576,5.25,0.75
			c-2.996-1.508-4.119-3.437-9.75-5.25c1.051,0.056,2.868-0.167,1.5-0.75c-2.939,0.941-2.324,0.573-3-0.75
			c-1.779,4.507-5.395,2.569-8.25,6c0.501,2.902,0.002,2.668,0.75,4.5c-1.764-0.51-6.609,5.696-9,4.5
			c2.228-1.522,5.18-2.32,6.75-4.5c-2.398-0.787-8.773-4.012-9.75-0.75c-1.877,0.127-2.348-1.152-3-2.25
			c1.29-0.296,1.923,1.113,2.25,0c-0.271-2.029-2.187-0.025,0-3c-1.032-0.032-1.646,0.353-2.25,0.75
			c-0.322-1.428-1.615-1.884-1.5-3.75c0.999,0.976,2.264,0.461,3-0.75c-1.854-0.896-2.933-2.568-3.75-4.5
			c1.08,0.4,1.83-2.923,2.25-0.75c-0.009,0.991-1.314,0.686-1.5,1.5c1.744,0.549,3.398,5.044,4.5,3.75
			c-0.416,0.002-0.852-0.607,0-0.75c0.883-0.117,2.129,0.129,2.25-0.75c-1.86,0.11-3.64,0.14-3.75-1.5c0.886,0.108,1.7,1.335,2.25,0
			c-2.416-2.084-3.119-5.88-8.25-5.25c-0.09,2.91-2.21,3.79-3.75,5.25c0.874,0.126,0.814,1.186,0.75,2.25
			c1.29,0.296,1.923-1.113,2.25,0c-1.949,1.972,1.212,0.59,0.75,3c-3.028-1.965-1.59-2.257-3.75-0.75
			c0.11-2.058,0.14-3.867-1.5-2.25c1.445-1.66-3.555-6.295,0-6c-2.164-1.679-4.451-1.568-6-2.25c0.789-0.041,0.59-0.961-0.75-0.75
			c-0.188,2.188,1.412,2.588,2.25,3.75c-1.807,0.307-1.63-1.37-3.75-0.75c-0.274,3.476-1.781,5.719-4.5,6.75
			c0.815-3.065-0.802-3.698-2.25-4.5c0.705-19.576,1.103-41.648,5.25-61.5c3.939-18.859,16.077-35.113,15-54.75
			c3.313,5.271,4.305,7.896,3.75,13.5c-0.35,3.529-0.391,10.283,2.25,18.75c0.117-0.883-0.129-2.129,0.75-2.25
			c0.911,2.089,1.542,4.458,3,6c0.974-1.86-1.673-3.64,0-3.75c0.751,0.999,1.236,2.264,2.25,3c0.448-1.335-2.198-3.115,0-3.75
			c-0.112,1.862,0.388,3.112,1.5,3.75c0.043-0.458,0.112-0.888,0.75-0.75c-0.002,0.417,0.607,0.852,0.75,0
			c-1.083-1.787-1.138-1.841-2.25-2.25c0.991-0.009,0.686-1.314,1.5-1.5c0.104,1.397,0.493,2.507,1.5,3
			c0.95-2.287-2.564-3.819-0.75-4.5c1.977,1.052,3.273,2.035,5.25,1.5c-2.435-3.172,2.532,0.644,2.25-0.75
			c-1.187-1.563-2.445-3.055-3-5.25c1.473,0.336,3.748,3.672,4.5,2.25c-1.703-0.546-2.243-2.257-3-3.75
			c1.368,0.203,4.204,2.7,5.25,0.75c-3.49-1.01-6.379-2.621-8.25-5.25c1.42,0.631,4.316,3.616,5.25,2.25
			c-1.381-1.119-2.631-2.369-3.75-3.75c2.339-0.032,3.227,1.52,5.25,0c-5.395-2.861-6.107-14.385-7.5-18.75
			c0.581,2.418,1.568,4.432,3,6c2.405-1.26,6.723,12.741,6.75,9c-0.872-3.877-3.702-5.798-4.5-9.75
			c-1.998-0.751-2.473-3.027-3.75-4.5c2.065,1.369,3.815,4.022,5.25,2.25c-1.08-1.66-1.83,0.944-2.25-0.75
			c3.097-2.108-0.284,0.121-0.75-2.25c5.139-0.992,6.85,6.332,12,9c-0.168-1.028-0.616-3.088-2.25-4.5
			c1.742,0.508,2.008,2.492,3.75,3c-0.341-3.159-3.547-3.453-4.5-6c2.292,0.708,2.351,3.649,5.25,3.75
			c4.851,4.917-2.189-2.582-3.75-4.5c1.584,1.19,6.908,5.715,6,4.5c-1.615-2.065-2.759-3.815-2.25-5.25
			c2.344,1.389,6.083,5.983,9,2.25c-2.11-0.89-2.789-3.211-4.5-4.5c2.688,0.232,6.654,6.36,3.75,1.5c0.46,0.219,2.887,1.866,3,0
			c-2.771-0.084-2.17-1.375-0.75-2.25c-1.29,0.04-1.923-0.577-2.25-1.5c1.109,0.39,1.891,1.11,3,1.5
			c1.659-1.08-0.944-1.83,0.75-2.25c0.206,0.681,2.794,2.519,3,0.75c-2.765-0.985-5.008-2.493-6.75-4.5c2.81,0.713,6.782,4.188,9,3
			c-2.688-1.313-5.274-2.726-7.5-4.5c1.99-0.428,6.61,2.602,5.25,0.75c-0.887-0.364-1.7-0.8-2.25-1.5c1.467-0.375,4.786,1.635,3,0
			c-0.887-0.364-1.7-0.8-2.25-1.5c1.032,0.032,1.646-0.353,2.25-0.75c-0.164,0.942-1.168,1.533,0.75,1.5
			c1.892-1.88-1.434-2.373-2.25-3.75c0.883-0.117,2.129,0.129,2.25-0.75c-0.997-0.753-2.791-0.709-3-2.25
			c2.354,0.849,1.981-0.216,3.75,0.75c-0.396-2.604-4.013-1.987-5.25-3.75c1.417-0.333,4.521,1.02,3.75-1.5
			c-1.318-0.432-4.406,0.906-4.5-0.75c0.999-1.839,2.264,1.352,3-0.75c-2.314-0.751,1.627-1.236,1.5-2.25
			c-3.141,0.695-7.349,2.694-9.75,0c3.473-1.028,2.186-2.055,3-3.75c-1.997,1.421-5.617,2.047-5.25,3.75
			c-0.941-3.309-6.285-2.215-6.75-6c2.594-0.594,3.166,0.834,4.5,1.5c-0.972-2.304-3.053-3.943-3-5.25
			c-2.656,2.847-3.344-6.597-6-3.75c2.071,0.239,1.299,2.321,0,3c-0.18-1.07-1.235-1.265-1.5-2.25c0.886,0.108,1.7,1.335,2.25,0
			c-2.438-0.875,0.023-1.96-2.25-3c3.186-2.107,2.851,3.099,7.5,1.5c-2.767-1.49-1.06-3.548-1.5-4.5
			c-0.679,0.658-4.233,2.15-4.5,0.75c1.993-0.507,3.819-1.181,5.25-2.25c-2.521,0.021-3.967-1.033-5.25-2.25
			c1.862-0.976,3.112,2.2,3.75,0c-1.167-0.196-0.521-1.645,0-2.25c-3.099,0.652-5.151,2.348-8.25,3
			c1.992-1.932-0.103-3.604,2.25-4.5c0.002,0.752-0.607,0.893-0.75,1.5c1.032,0.032,1.646-0.353,2.25-0.75
			c0.229,1.729-2.167,0.833-2.25,2.25c1.805-0.978,7.866-1.59,6-3.75c0.123,1.231-4.623,1.231-4.5,0
			c0.915-0.085,1.775-0.224,1.5-1.5c-4.391-1.313-10.678-0.172-10.5-3.75c-1.075,4.244-4.436,9.575-6,9
			c0.915,0.085,1.775,0.224,1.5,1.5c-2.814-1.472-1.635,0.708-3.75,1.5c-0.043-0.458-0.112-0.888-0.75-0.75
			c1.359-1.04,1.695-2.125,0.75-3c-0.225,1.112-3.155,3.228-3.75,1.5c-0.708-1.387,4.293-0.46,1.5-1.5
			c-2.634,0.899-2.467,1.096-4.5,1.5c1.071-1.658-0.71-1.877-0.75-3c-0.009,0.756-1.314,0.943-1.5,0c3.932-1.047,5.611-0.22,9-2.25
			c0.765,0.123,0.735,4.578,1.5,2.25c-2.003-3.747-4.035-7.465-8.25-9c-0.452,2.261,4.866,2.555,2.25,4.5
			c-1.05-2.394-5.078-5.182-6-1.5c1.09,0.41,3.876-0.876,3.75,0.75c-1.554-0.446-4.927,0.927-5.25-0.75
			c0.272-2.307,0.031-0.505-1.5,0.75c-1.244-3.756,4.641-2.639,2.25-5.25c-3.286-0.546,0.604,1.49-1.5,1.5
			c-0.158-0.906-0.832-0.461-1.5,0c0.643-2.393-1.181-2.319-1.5-3.75c1.703,1.443,2.243,1.717,3-0.75
			c-1.08-1.66-1.83,0.944-2.25-0.75c-0.002-0.752,0.607-0.893,0.75-1.5c-3.049-0.299-2.308,3.192-4.5,3.75
			C222.24,24.707,226.448,25.665,226.533,22.5z M175.533,87.75c0,2,0,4,0,6c1.691-0.559,0.293-4.207,0.75-6
			c1.135-5.865,3.304-10.696,8.25-12.75c-1.568,1.182-1.319,4.181-3,5.25c0.245,11.646,0.813-4.869,4.5-5.25
			c0.861-0.247,4.953-0.901,3-1.5C180.262,73.979,176.823,79.79,175.533,87.75z M255.783,106.5c-0.312-3.189-1.312-5.689-3-7.5
			C253.68,101.604,253.958,104.826,255.783,106.5z M240.033,30.75c0.043-0.458,0.112-0.888,0.75-0.75
			c-0.799,2.038-0.476,3.513,1.5,4.5c0.375-2.359-1.635-2.932,0-4.5C241.615,28.373,238.005,30.091,240.033,30.75z M74.283,142.5
			c-0.737-1.7,0.258-2.725-3-3c0.546,3.286-1.49-0.604-1.5,1.5c0.841,0.159,1.167,0.833,1.5,1.5c-0.888,1.847-2.833-1.536-3.75,0.75
			c2.075,0.322,0.039,2.359-1.5,1.5c0.642,2.605-0.021,2.847,1.5,5.25c-2.769,1.994-1.813,2.384-2.25,6
			c-0.807-1.943-2.712-2.788-3-5.25c1.07,0.18,1.265,1.235,2.25,1.5c0.226-1.976-1.039-2.461-3-2.25
			c-0.698-2.052-2.302-3.198-3-5.25c-1.841-0.283,2.518,5.208,3,7.5c-3.006-2.914-10.025-9.371-13.5-3
			c5.468,0.791,15.246,1.242,12.75,7.5c-4.927-1.792-1.988-4.434-4.5,1.5c-0.602-3.835-2.157-6.19-4.5-6
			c0.597,0.083,2.273,2.479,0.75,2.25c-0.931-2.601-2.181-1.381-3.75-2.25c0.068,3.367,2.254,5.584,0.75,6.75
			c-0.18-1.407-1.235,0.426-1.5-0.75c-0.076-0.841,1.09-1.167,0-1.5c-0.678,2.032-1.678-1.715-3-1.5c-0.353,2.628-1.065,5.667-3,3
			c-2.993,5.427-4.002,4.066-4.5,8.25c-0.18-0.815-1.235-1.801-1.5-0.75c1.118,0.225-0.812,3.155,1.5,3.75
			c0.117-0.883-0.129-2.129,0.75-2.25c0.009,0.991,1.314,0.686,1.5,1.5c-4.206,1.303,2.779,2.791,2.25,5.25
			c-2.593,3.407-5.239,6.761-6.75,11.25c-0.382-6.345,7.161-12.802,3.75-10.5c-3.422,2.309-7.125,13.859-4.5,16.5
			c0.434-7.75,7.422-12.327,9-16.5c1.06,2.516,3.244,5.063,4.5,5.25c-3.137,2.755-3.826,12.896-5.25,12.75
			c0.128,1.122-0.268,2.768,0.75,3c1.441-2.195,0.735-3.687,1.5-5.25c0.168,0.582,0.021,1.479,0.75,1.5c1.43-4.07,3.08-7.92,6-10.5
			c-0.11,1.86-0.14,3.64,1.5,3.75c0.41-1.09-0.876-3.876,0.75-3.75c1.288,0.962,0.015,4.485,2.25,4.5
			c0.273-1.235,0.694-3.677,2.25-2.25c-4.622,4.128-5.775,11.725-12,14.25c-0.225,1.475,1.013,1.487,1.5,2.25
			c-1.127,1.123-3.158,1.342-3.75,3c0.906,0.159,0.461,0.833,0,1.5c1.122,2.081,3.067-1.302,3.75,0.75
			c-0.886,0.364-1.7,0.8-2.25,1.5c3.727,2.478,5.527-3.645,7.5-3c-0.75-0.245-2.368,8.294-4.5,3c-2.133,4.118,0.031,5.525,0.75,7.5
			c2.43-2.881,2.43-3.487,0-3c1.742-0.508,2.008-2.492,3.75-3c-2.056,1.795,0.029,4.386-3,6c2.782-0.973,2.688,4.733,4.5,2.25
			c-1.932-1.261,0.637-4.304,1.5-5.25c-0.395,1.916-0.995,2.625,0.75,3.75c0.432-1.318-0.906-4.406,0.75-4.5
			c0.979,3.179-2.287,5.941,0.75,6.75c0.753-3.675-0.933-5.329,1.5-6.75c-0.654,2.404,1.154,2.346,2.25,3
			c-0.806-3.28-2.709-4.715-1.5-6.75c1.12,0.88,0.883,3.117,3,3c1.897-0.329-2.711-3.312,0.75-1.5
			c0.032-1.032-0.353-1.647-0.75-2.25c2.43,2.09,0.735-2.025,3-1.5c3.117,0.723,4.416,9.549,3.75,0.75
			c0.009,0.991,1.314,0.686,1.5,1.5c-2.646,0.418,2.646,2.256,0,0.75c1.139-3.149-4.798-5.012-5.25-9
			c2.238,1.037,3.533,3.463,3.75,4.5c1.66-2.173-0.944,1.15,0.75,0.75c0.221-2.646,2.029,2.646,2.25,0
			c-2.478-1.046-2.555-3.081-0.75-3c-1.644-1.606-4.166-2.334-5.25-4.5c2.131-2.119,1.55-6.95,5.25-7.5
			c-0.155,3.01,0.19,3.355,1.5,1.5c-0.355,2.355,0.936,3.064,2.25,3.75c-1.844-3.45,0.282-2.922-0.75-6
			c0.18,1.07,1.235,1.265,1.5,2.25c-1.265,2.462,0.398,3.307,1.5,5.25c-1.772,6.939,1.625,12.563,3,18.75
			c4.03,18.137,11.122,37.178,15,54c1.486,6.444,4.243,14.536,1.5,21c0.976-4.479-0.042-1.074-1.5-3.75
			c-0.11-0.997,2.522-2.791,0.75-3c-0.364,1.335-0.8-0.325-1.5-0.75c0,0.5,0,1,0,1.5c-2.173,1.659,1.15-0.944,0.75,0.75
			c-0.364,0.886-0.8,1.7-1.5,2.25c-0.168-0.582-0.021-1.479-0.75-1.5c-0.168,0.582-0.021,1.479-0.75,1.5
			c-0.62-2.286-0.089-3.818-0.75-4.5c-1.646,2.818-3.074-0.14-5.25-0.75c-1.128,2.122-3.305,3.195-3.75,6
			c2.194,1.483,2.434,0.264,3.75,2.25c-3.22-1.892-0.619,2.682-2.25,3.75c-0.625-2.375-2.188-3.813-3.75-5.25
			c-0.037,2.536,1.747,3.254,3,4.5c-1.115,0.636-1.085,2.415-1.5,3.75c1.877,0.99,2.348-2.965,3-0.75c-1.972-0.223-0.59,2.91-3,2.25
			c-0.678-2.958-2.859-1.563-5.25-1.5c-1.733-2.065-0.302-0.867-0.75-3c-1.117,2.471-2.117-1.275-3-1.5
			c-0.128,1.122,0.268,2.768-0.75,3c0.794-1.901-1.579-4.275-2.25-2.25c1.75,0.221,1.75,2.029,0,2.25c-0.076-0.842,1.09-1.168,0-1.5
			c-4.272,2.415-7.526,10.787-7.5,13.5c0.753-0.997,0.709-2.791,2.25-3c3.034,1.966,3.466,6.534,6,9c0.103-1.396,0.493-2.507,1.5-3
			c0.896,2.946-3.794,4.139-1.5,6c0.713-2.537,2.559-3.941,3.75-6c0.678,1.322,1.678,2.322,3,3c0.642-1.749-2.623-3.231-0.75-3.75
			c0.593,3.515,2.723,1.59,3.75,3.75c-2.621,0.629-3.312,3.188-5.25,4.5c4.311-1.689,5.936-6.064,10.5-7.5
			c-0.769,0.627,0.999,7.226,2.25,3.75c-1.436,23.969,11.381,40.095,18.75,57.75c1.75,0,3.5,0,5.25,0
			c-5.608-17.293-20.91-31.528-18-52.5c1.569,0.002,2.819,4.086,3.75,2.25c-0.841-0.158-1.167-0.832-1.5-1.5
			c1.29-0.296,1.923,1.113,2.25,0c-0.841-0.158-1.167-0.832-1.5-1.5c2.467,1.563,2.193,0.024,0.75-1.5
			c0.883-0.117,2.129,0.129,2.25-0.75c-1.279-0.308,0.158-0.967,0-2.25c-1.905,0.334-2.985-3.919-1.5-4.5
			c1.318,4.346,0.807,1.974,1.5,0c0.958,2.792,3.626,3.874,5.25,6c3.426,21.124,7.52,36.97,12.75,56.25
			c2.28-0.471,6.46,0.96,7.5-0.75c-4.565-17.437-10.204-37.795-12-55.5c2.871,1.413,6.129,7.744,9,4.5
			c-0.154-1.043-1.111-2.595-3-3.75c1.866-0.116,2.322,1.179,3.75,1.5c-0.636-3.864-5.882-3.118-7.5-6
			c1.918,0.777,4.099,2.243,5.25,0c-3.045,0.211-1.692-0.273-1.5-2.25c-3.67-1.521-5.231,1.322-6.75,0.75
			c1.295-0.455-0.058-3.558,1.5-3.75c0.012,0.982,2.081,0.955,2.25,0c-1.039-2.888-1.928-7.605-4.5-6.75
			c1.014-0.236,1.433-1.067,3-0.75c0.582,1.668,0.433,4.066,2.25,4.5c0.171-1.329-0.756-3.756,1.5-3
			c-0.228,1.749-1.601,3.231,0.75,3.75c-0.965-3.396,0.771-2.1,1.5-5.25c-1.916,0.395-2.625,0.995-3.75-0.75
			c1.032-0.032,1.647,0.354,2.25,0.75c-0.957-1.877,0.381-2.348-0.75-3c-1.879-0.162-5.821,1.502-8.25,3
			c0.112-3.144-0.388-1.806-1.5-0.75c0.322-3.559,0.821-2.075-0.75-3c0.62-2.12-1.057-1.943-0.75-3.75
			c0.752-0.002,0.893,0.607,1.5,0.75c-0.17-4.335-1.13-3.997-1.5-1.5c-4.47-10.813-4.547-22.679-7.5-33.75
			c-5.515-20.674-15.787-41.06-15.75-62.25c1.88,1.955,2.373,1.099,3.75-0.75c4.341,3.717,0.782,15.699,3.75,9
			c0.413-0.931-0.234-2.967,1.5-4.5c-0.99,2.075,2.965,2.575,0.75,1.5c0.559-2.309-2.059-1.441-1.5-3.75
			c2.367,0.633,2.133,3.867,4.5,4.5c2.096-2.479-0.688-3.772-1.5-3.75c2.066-2.481,3.816,4.242,5.25,2.25
			c-0.942-0.308-1.533-0.967-1.5-2.25c1.375-0.039,2.54,3.844,3.75,1.5c-1.569-0.931-2.819-2.181-3.75-3.75
			c1.165,0.171,3.5,2.883,4.5,0.75c-0.667-0.221-3.284-2.029-1.5-2.25c1.769,0.562-3.534-3.663-4.5-5.25
			c5.029,0.385,2.509,3.869,6.75,5.25c-1.498-2.899-1.48-4.407-3-6c3.034,1.126,4.529,3.035,6.75,2.25
			c-0.696-2.054-2.851-2.649-3.75-4.5c1.122,0.878,3.067,0.933,3.75,2.25c1.597,3.995,1.285,9.352,1.5,12
			c0.711,8.776,1.684-10.917-0.75-12.75c2.597-0.097,1.701,3.299,3.75,3.75c1.547-0.844,0.656,0.047,1.5-1.5
			c6.288,0.702,5.414,10.024,6,14.25c1.251-2.749,0.958-7.042,2.25-9.75c4.983,12.381-1.089,1.192-0.75-3.75
			c0.024-0.35,1.672,0.172,1.5-0.75c-0.648-3.476-3.268-4.521-1.5-6.75c3.833,5.417,5.166,13.334,5.25,22.5
			c1.559,0.839,1.589,0.809,0.75-0.75c0.783-8.539-2.74-16.752-3.75-21c2.408-0.658,1.555,1.945,3,2.25
			c0.957-1.877-0.381-2.348,0.75-3c0.85,0.721,4.948,1.956,5.25,0.75c-1.33-0.92-2.173-2.327-3.75-3c1.709,0.209,2.819-0.181,3-1.5
			c-1.054-0.196-0.855-1.645-1.5-2.25c-1.86-0.973-3.64,1.673-3.75,0c2.219-1.031,5.705-0.795,6.75-3
			c-3.153-0.954-6.27,1.958-6.75-0.75c1.003,0.116,4.135-1.178,2.25-1.5c-1.195,0.974-3.018,0.989-1.5-0.75
			c-1.866-0.116-2.322,1.178-3.75,1.5c0.032-1.032-0.353-1.647-0.75-2.25c1.734,2.149,6.864-1.193,5.25-2.25
			c-7.097,3.902-7.876,4.765-15.75,2.25c12.903,4.562-7.39,11.063-6.75,2.25c2.708,1.22,7.01,2.523,6.75,4.5
			c0.042-0.458,0.112-0.888,0.75-0.75c0.458-0.042,0.888-0.112,0.75-0.75c-3.457-1.043-5.398-3.602-6.75-6.75
			c5.393-0.961,10.44,3.077,13.5,0.75c-5.444,0.444-7.055-2.945-12.75-2.25c0.032-1.032-0.353-1.647-0.75-2.25
			c2.283-0.941,2.917-0.573,4.5,0.75c0.367-2.176-3.106-4.314-1.5-5.25c1.238,2.93,2.664,5.103,3,1.5
			c1.008,0.563,1.43,5.475,2.25,3.75c-0.52-5.66-0.403-2.074-3-6.75c-0.239,2.071-2.321,1.298-3,0
			c1.567-2.514,6.641-6.993,0.75-5.25c0.815-0.18,1.801-1.235,0.75-1.5c-1.531,1.709-1.897-2.106-3.75,0.75
			c2.239-1.235,0.499-3.677-0.75-2.25c0.917,0.633-1.878,3.867-1.5,4.5c-1.173-1.265,0.903-3.371-1.5-4.5
			c0.228,2.521-4.076,4.367-2.25,6c0.291-2.457,3.534-1.068,4.5,0c-3.811-0.509-5.752,1.301-6.75,0c0.274-0.077-1.196-6.053-3-3
			c1.29-2.486-0.452-3.253-2.25-4.5c-1.539,0.711-2.079,2.421-3,3.75c-1.86,0.11-3.64,0.14-3.75-1.5
			c3.403,1.581-1.296-0.988,0.75-2.25c-5.209-1.9-6.722,0.313-9.75-4.5c1.467-0.041,3.558-0.814,1.5-3
			c-0.085,0.915-0.224,1.776-1.5,1.5c1.025-0.066,1.025-5.395,0-3C80.353,142.446,73.098,139.075,74.283,142.5z M66.033,144
			c-2.826-0.288-5.027,3.923-3.75,5.25C62.901,146.868,64.677,145.644,66.033,144z M117.783,294c-1.329-0.171-3.756,0.756-3-1.5
			c-1.575-0.238-6.497-0.113-3.75,1.5C112.658,291.527,117.029,297.735,117.783,294z M129.783,189c-0.923-2.325,2.878-5.704-0.75-6
			C129.49,184.793,128.092,188.441,129.783,189z M104.283,146.25c-3.134-1.263-5.273-0.614-7.5-1.5
			c-1.705,3.935,3.561,5.421,5.25,8.25c0.406-2.656-2.656-1.844-2.25-4.5C100.268,145.349,103.19,147.485,104.283,146.25z
			 M253.533,238.5c-0.921-0.416-0.547-5.836-2.25-3C253.057,238.051,253.312,248.684,253.533,238.5z M189.783,261.75
			c-0.33-4.348,2.729-9.246,2.25-11.25C190.886,253.372,187.895,258.337,189.783,261.75z M74.283,318.75
			c-1.9-4.432-3.934,2.727-6.75,2.25c0.352,5.163,0.73,6.743,2.25,11.25c0.166-0.584,0.628-0.872,1.5-0.75
			c0.168,0.582,0.021,1.479,0.75,1.5c0.62-2.12-1.057-1.943-0.75-3.75c1.475,0.225,1.487-1.013,2.25-1.5
			c-0.239,0.919,0.121,4.632,0.75,2.25c-0.032-2.782,2.813-2.688,3.75-4.5c0.39,0.289,1.11,3.643,1.5,1.5
			c-0.041-0.959-0.961-1.039-0.75-2.25c1.07,0.18,1.265,1.235,2.25,1.5c2.637-4.856-2.733-9.588-6.75-9
			C75.04,317.259,75.227,318.564,74.283,318.75z"/>
		<path fill-rule="evenodd" clip-rule="evenodd" d="M189.033,73.5c1.953,0.599-2.139,1.253-3,1.5
			c-3.688,0.381-4.255,16.896-4.5,5.25c1.681-1.069,1.432-4.068,3-5.25c-4.946,2.054-7.115,6.885-8.25,12.75
			c-0.457,1.793,0.941,5.441-0.75,6c0-2,0-4,0-6C176.823,79.79,180.262,73.979,189.033,73.5z"/>
		<path fill-rule="evenodd" clip-rule="evenodd" d="M252.783,99c1.688,1.811,2.688,4.311,3,7.5
			C253.958,104.826,253.68,101.604,252.783,99z"/>
		<path fill-rule="evenodd" clip-rule="evenodd" fill="#FFFFFF" d="M263.283,60.75c-0.083,1.417-2.479,0.521-2.25,2.25
			c-1.445-0.305-0.593-2.908-3-2.25C260.171,60.606,260.817,60.43,263.283,60.75z"/>
		<path fill-rule="evenodd" clip-rule="evenodd" fill="#FFFFFF" d="M256.533,63.75c3.119-0.56,7.73-0.871,13.5,1.5
			c0.138,0.638-0.293,0.708-0.75,0.75c-0.638-0.138-0.707,0.292-0.75,0.75c-1.694-0.42,0.909-1.17-0.75-2.25
			C263.321,65.618,259.447,66.281,256.533,63.75z"/>
		<path fill-rule="evenodd" clip-rule="evenodd" fill="#FFFFFF" d="M241.533,246c1.331-2.001,0.547,4.395,0.75,6
			c-1.537-1.213-1.891-3.609-3-5.25c-0.985,0.9-1.18,0.292-2.25,0C235.051,245.6,241.372,247.938,241.533,246z"/>
		<path fill-rule="evenodd" clip-rule="evenodd" fill="#FFFFFF" d="M210.783,78.75c1.609-1.125-0.537-1.834,0.75-3.75
			c1.739-0.239,2.879,0.121,3.75,0.75c-3.55,2.2-5.251,6.249-12,5.25c0.55,0.7,1.364,1.136,2.25,1.5
			c-0.862,0.525-5.017,0.018-2.25,3c-1.01,1.203-3.187-2.77-6-2.25c0.638,1.112,1.888,1.612,3.75,1.5
			c-0.425,0.7-2.085,1.136-0.75,1.5c-1.084,1.989-1.675-2.754-4.5-1.5c3.175-5.575,5.37-12.13,15.75-10.5
			C210.994,75.782,209.182,77.218,210.783,78.75z"/>
		<path fill-rule="evenodd" clip-rule="evenodd" fill="#FFFFFF" d="M192.783,67.5c-0.079-3.063,2.857,3.511,5.25,4.5
			C194.919,74.454,192.517,66.634,192.783,67.5z"/>
		<path fill-rule="evenodd" clip-rule="evenodd" fill="#FFFFFF" d="M207.783,44.25c1.25,0,2.5,0,3.75,0
			c-0.583,0.667-0.806,1.694-0.75,3c-0.673-1.32-2.08-3.71-3-0.75C206.67,46.173,208.079,45.54,207.783,44.25z"/>
		<path fill-rule="evenodd" clip-rule="evenodd" d="M242.283,30c-1.635,1.568,0.375,2.141,0,4.5c-1.976-0.987-2.299-2.462-1.5-4.5
			c-0.638-0.138-0.707,0.292-0.75,0.75C238.005,30.091,241.615,28.373,242.283,30z"/>
		<path fill-rule="evenodd" clip-rule="evenodd" fill="#FFFFFF" d="M255.783,47.25c0.143-0.852,0.752-0.417,0.75,0
			c0.879-0.121,0.633-1.367,0.75-2.25c2.602-0.602,2.883,1.117,5.25,0.75C258.033,45.581,259.276,47.975,255.783,47.25z"/>
		<path fill-rule="evenodd" clip-rule="evenodd" fill="#FFFFFF" d="M220.533,54c1.722,0.589,0.729,4.643-1.5,3.75
			c0.203-3.109-0.985-2.922,0-5.25c1.656,0.094,0.318,3.182,0.75,4.5C220.801,56.768,220.405,55.122,220.533,54z"/>
		<path fill-rule="evenodd" clip-rule="evenodd" fill="#FFFFFF" d="M198.783,53.25c0.729,0.021,0.582,0.918,0.75,1.5
			c4.131-2.254,5.501,2.382,6.75,5.25c-0.724,1.856-2.88-1.033-5.25,0C202.241,55.792,199.164,55.869,198.783,53.25z"/>
		<path fill-rule="evenodd" clip-rule="evenodd" fill="#FFFFFF" d="M243.033,54.75c-2.693,2.023,2.029,2.911,1.5,5.25
			c-2.136,0.085-2.46-5.473-4.5-3c-1.177-3.023,5.051-3.719,8.25-2.25c-0.638,2.2-1.888-0.976-3.75,0
			c0.141,2.109,1.305,3.195,3.75,3C246.99,61.057,244.326,56.065,243.033,54.75z"/>
		<path fill-rule="evenodd" clip-rule="evenodd" fill="#FFFFFF" d="M201.783,61.5c0.181-1.934,1.291,1.03,3,0
			c-3.128,1.511,1.896,2.794,3.75,3.75c-1.727,1.677-4.6-1.863-6.75-2.25C202.244,62.333,202.689,61.659,201.783,61.5z"/>
		<path fill-rule="evenodd" clip-rule="evenodd" fill="#FFFFFF" d="M244.533,66.75c1.478-0.447,6.422,2.055,9,3
			c-8.995-6.419-1.597-2.2,3,0.75c-2.48,1.77-3.82,4.68-9,3.75C248.369,71.843,246.206,68.824,244.533,66.75z"/>
		<path fill-rule="evenodd" clip-rule="evenodd" fill="#FFFFFF" d="M233.283,81c6.784-2.493,11.039,9.074,12.75,16.5
			c-5.151-4.099-5.785-12.715-11.25-16.5c2.876,6.125,7.196,10.804,9,18c-0.729-0.021-0.582-0.918-0.75-1.5
			c-0.198,1.066-5.067,2.849-1.5,3c-1.555,2.925-3.058-3.037-3.75,0.75c-3.401-2.599-3.505-8.495-6.75-11.25
			c1.891-0.807,1.573-6.302,3.75-4.5C234.938,83.345,234.593,81.69,233.283,81z"/>
		<path fill-rule="evenodd" clip-rule="evenodd" fill="#FFFFFF" d="M243.783,87c2.668,2.39,7.931,15.026,9.75,23.25
			c-1.858,2.291-3.168-2.282-3.75-3.75c0.432-1.786,1.859,1.533,1.5,3C251.283,101.36,247.289,99.104,243.783,87z"/>
		<path fill-rule="evenodd" clip-rule="evenodd" fill="#FFFFFF" d="M210.783,87c1.541,0.209,1.497,2.003,2.25,3
			c2.246-0.493-0.717-1.603,0-3c0.875,1.125,2.166,1.834,2.25,3.75c-0.729,0.021-0.582,0.918-0.75,1.5
			C213.264,90.519,210.88,89.903,210.783,87z"/>
		<path fill-rule="evenodd" clip-rule="evenodd" fill="#FFFFFF" d="M213.783,97.5c0.094-2.656,1.232-4.268,2.25-6
			c1.4-2.02-0.609,1.299,0,3c1.198-1.052,1.916-2.584,2.25-4.5c0.888,1.112,2.833,1.167,3.75,2.25c1.917-1.247-2.927-2.014-2.25-4.5
			c3.049,0.701,4.408,3.092,3.75,7.5c-1.916,0.58-3.448-2.935-4.5-0.75C220.319,90.414,215.888,95.478,213.783,97.5z"/>
		<path fill-rule="evenodd" clip-rule="evenodd" fill="#FFFFFF" d="M219.033,101.25c1.435-0.509,3.185,0.635,5.25,2.25
			c0.396,3.146-1.311,4.19-1.5,6.75c-1.148-0.01-2.466-2.046,0-1.5c-0.265-0.985-1.32-1.18-1.5-2.25
			c-1.783-1.506,0.834,0.332,1.5,0.75c-0.974-1.194-0.988-3.018,0.75-1.5C222.843,103.441,220.531,102.752,219.033,101.25z"/>
		<path fill-rule="evenodd" clip-rule="evenodd" d="M79.533,138.75c1.025-2.395,1.025,2.934,0,3c1.276,0.276,1.415-0.585,1.5-1.5
			c2.058,2.186-0.033,2.959-1.5,3c3.028,4.813,4.541,2.6,9.75,4.5c-2.046,1.262,2.653,3.831-0.75,2.25c0.11,1.64,1.89,1.61,3.75,1.5
			c0.921-1.329,1.461-3.039,3-3.75c1.798,1.247,3.54,2.014,2.25,4.5c1.804-3.053,3.274,2.923,3,3c0.998,1.301,2.939-0.509,6.75,0
			c-0.966-1.068-4.209-2.457-4.5,0c-1.826-1.633,2.478-3.479,2.25-6c2.403,1.129,0.327,3.235,1.5,4.5
			c-0.378-0.633,2.417-3.867,1.5-4.5c1.249-1.427,2.989,1.015,0.75,2.25c1.853-2.856,2.219,0.959,3.75-0.75
			c1.051,0.265,0.065,1.32-0.75,1.5c5.891-1.743,0.817,2.736-0.75,5.25c0.679,1.298,2.761,2.071,3,0c2.597,4.676,2.48,1.09,3,6.75
			c-0.82,1.725-1.242-3.187-2.25-3.75c-0.336,3.603-1.762,1.43-3-1.5c-1.606,0.936,1.867,3.074,1.5,5.25
			c-1.583-1.323-2.217-1.691-4.5-0.75c0.397,0.603,0.782,1.218,0.75,2.25c5.695-0.695,7.306,2.694,12.75,2.25
			c-3.06,2.327-8.107-1.711-13.5-0.75c1.352,3.148,3.293,5.707,6.75,6.75c0.138,0.638-0.292,0.708-0.75,0.75
			c-0.638-0.138-0.708,0.292-0.75,0.75c0.26-1.977-4.042-3.28-6.75-4.5c-0.64,8.813,19.653,2.312,6.75-2.25
			c7.874,2.515,8.653,1.652,15.75-2.25c1.614,1.057-3.516,4.399-5.25,2.25c0.397,0.603,0.782,1.218,0.75,2.25
			c1.428-0.322,1.884-1.616,3.75-1.5c-1.518,1.739,0.305,1.724,1.5,0.75c1.885,0.322-1.247,1.616-2.25,1.5
			c0.48,2.708,3.597-0.204,6.75,0.75c-1.045,2.205-4.531,1.969-6.75,3c0.11,1.673,1.89-0.973,3.75,0
			c0.645,0.605,0.446,2.054,1.5,2.25c-0.181,1.319-1.291,1.709-3,1.5c1.577,0.673,2.42,2.08,3.75,3
			c-0.302,1.206-4.4-0.029-5.25-0.75c-1.131,0.652,0.207,1.123-0.75,3c-1.445-0.305-0.592-2.908-3-2.25
			c1.01,4.248,4.533,12.461,3.75,21c0.839,1.559,0.809,1.589-0.75,0.75c-0.084-9.166-1.417-17.083-5.25-22.5
			c-1.768,2.229,0.852,3.274,1.5,6.75c0.172,0.922-1.476,0.4-1.5,0.75c-0.339,4.942,5.733,16.131,0.75,3.75
			c-1.292,2.708-0.999,7.001-2.25,9.75c-0.586-4.226,0.288-13.548-6-14.25c-0.844,1.547,0.047,0.656-1.5,1.5
			c-2.049-0.451-1.153-3.847-3.75-3.75c2.434,1.833,1.461,21.526,0.75,12.75c-0.215-2.648,0.097-8.005-1.5-12
			c-0.683-1.317-2.628-1.372-3.75-2.25c0.899,1.851,3.054,2.446,3.75,4.5c-2.221,0.785-3.716-1.124-6.75-2.25
			c1.52,1.593,1.502,3.101,3,6c-4.241-1.381-1.721-4.865-6.75-5.25c0.966,1.587,6.269,5.812,4.5,5.25
			c-1.784,0.221,0.833,2.029,1.5,2.25c-1,2.133-3.335-0.579-4.5-0.75c0.931,1.569,2.181,2.819,3.75,3.75
			c-1.21,2.344-2.375-1.539-3.75-1.5c-0.033,1.283,0.558,1.942,1.5,2.25c-1.434,1.992-3.184-4.731-5.25-2.25
			c0.812-0.022,3.596,1.271,1.5,3.75c-2.367-0.633-2.133-3.867-4.5-4.5c-0.559,2.309,2.059,1.441,1.5,3.75
			c2.215,1.075-1.74,0.575-0.75-1.5c-1.734,1.533-1.087,3.569-1.5,4.5c-2.968,6.699,0.591-5.283-3.75-9
			c-1.377,1.849-1.87,2.705-3.75,0.75c-0.037,21.19,10.235,41.576,15.75,62.25c2.953,11.071,3.03,22.937,7.5,33.75
			c0.37-2.497,1.33-2.835,1.5,1.5c-0.607-0.143-0.748-0.752-1.5-0.75c-0.307,1.807,1.37,1.63,0.75,3.75
			c1.571,0.925,1.072-0.559,0.75,3c1.112-1.056,1.612-2.394,1.5,0.75c2.429-1.498,6.371-3.162,8.25-3
			c1.131,0.652-0.207,1.123,0.75,3c-0.603-0.396-1.218-0.782-2.25-0.75c1.125,1.745,1.834,1.145,3.75,0.75
			c-0.729,3.15-2.465,1.854-1.5,5.25c-2.351-0.519-0.978-2.001-0.75-3.75c-2.256-0.756-1.329,1.671-1.5,3
			c-1.817-0.434-1.668-2.832-2.25-4.5c-1.567-0.317-1.986,0.514-3,0.75c2.572-0.855,3.461,3.862,4.5,6.75
			c-0.169,0.955-2.238,0.982-2.25,0c-1.558,0.192-0.205,3.295-1.5,3.75c1.519,0.572,3.08-2.271,6.75-0.75
			c-0.192,1.977-1.545,2.461,1.5,2.25c-1.151,2.243-3.332,0.777-5.25,0c1.618,2.882,6.864,2.136,7.5,6
			c-1.428-0.321-1.884-1.616-3.75-1.5c1.889,1.155,2.846,2.707,3,3.75c-2.871,3.244-6.129-3.087-9-4.5
			c1.796,17.705,7.435,38.063,12,55.5c-1.04,1.71-5.22,0.279-7.5,0.75c-5.23-19.28-9.324-35.126-12.75-56.25
			c-1.624-2.126-4.292-3.208-5.25-6c-0.693,1.974-0.182,4.346-1.5,0c-1.485,0.581-0.405,4.834,1.5,4.5
			c0.158,1.283-1.279,1.942,0,2.25c-0.121,0.879-1.367,0.633-2.25,0.75c1.443,1.524,1.717,3.063-0.75,1.5
			c0.333,0.668,0.659,1.342,1.5,1.5c-0.327,1.113-0.96-0.296-2.25,0c0.333,0.668,0.659,1.342,1.5,1.5
			c-0.931,1.836-2.181-2.248-3.75-2.25c-2.91,20.972,12.392,35.207,18,52.5c-1.75,0-3.5,0-5.25,0
			c-7.369-17.655-20.186-33.781-18.75-57.75c-1.251,3.476-3.019-3.123-2.25-3.75c-4.564,1.436-6.189,5.811-10.5,7.5
			c1.938-1.312,2.629-3.871,5.25-4.5c-1.027-2.16-3.157-0.235-3.75-3.75c-1.873,0.519,1.392,2.001,0.75,3.75
			c-1.322-0.678-2.322-1.678-3-3c-1.191,2.059-3.037,3.463-3.75,6c-2.294-1.861,2.396-3.054,1.5-6c-1.007,0.493-1.397,1.604-1.5,3
			c-2.534-2.466-2.966-7.034-6-9c-1.541,0.209-1.497,2.003-2.25,3c-0.026-2.713,3.228-11.085,7.5-13.5c1.09,0.332-0.076,0.658,0,1.5
			c1.75-0.221,1.75-2.029,0-2.25c0.671-2.025,3.044,0.349,2.25,2.25c1.018-0.232,0.622-1.878,0.75-3c0.883,0.225,1.883,3.971,3,1.5
			c0.448,2.133-0.983,0.935,0.75,3c2.391-0.063,4.572-1.458,5.25,1.5c2.41,0.66,1.028-2.473,3-2.25c-0.652-2.215-1.123,1.74-3,0.75
			c0.415-1.335,0.385-3.114,1.5-3.75c-1.253-1.246-3.037-1.964-3-4.5c1.563,1.438,3.125,2.875,3.75,5.25
			c1.631-1.068-0.97-5.642,2.25-3.75c-1.316-1.986-1.556-0.767-3.75-2.25c0.445-2.805,2.622-3.878,3.75-6
			c2.176,0.61,3.604,3.568,5.25,0.75c0.661,0.682,0.13,2.214,0.75,4.5c0.729-0.021,0.582-0.918,0.75-1.5
			c0.729,0.021,0.582,0.918,0.75,1.5c0.7-0.55,1.136-1.364,1.5-2.25c0.4-1.694-2.923,0.909-0.75-0.75c0-0.5,0-1,0-1.5
			c0.7,0.425,1.136,2.085,1.5,0.75c1.772,0.209-0.86,2.003-0.75,3c1.458,2.676,2.476-0.729,1.5,3.75
			c2.743-6.464-0.014-14.556-1.5-21c-3.878-16.822-10.97-35.863-15-54c-1.375-6.187-4.772-11.811-3-18.75
			c-1.102-1.943-2.765-2.788-1.5-5.25c-0.265-0.985-1.32-1.18-1.5-2.25c1.032,3.078-1.094,2.55,0.75,6
			c-1.314-0.686-2.605-1.395-2.25-3.75c-1.31,1.855-1.655,1.51-1.5-1.5c-3.7,0.55-3.119,5.381-5.25,7.5
			c1.084,2.166,3.606,2.894,5.25,4.5c-1.805-0.081-1.728,1.954,0.75,3c-0.221,2.646-2.029-2.646-2.25,0
			c-1.694,0.4,0.91-2.923-0.75-0.75c-0.217-1.037-1.512-3.463-3.75-4.5c0.452,3.988,6.389,5.851,5.25,9
			c2.646,1.506-2.646-0.332,0-0.75c-0.186-0.814-1.491-0.509-1.5-1.5c0.666,8.799-0.633-0.027-3.75-0.75
			c-2.265-0.525-0.57,3.59-3,1.5c0.397,0.603,0.782,1.218,0.75,2.25c-3.461-1.812,1.147,1.171-0.75,1.5c-2.117,0.117-1.88-2.12-3-3
			c-1.209,2.035,0.694,3.47,1.5,6.75c-1.096-0.654-2.904-0.596-2.25-3c-2.433,1.421-0.747,3.075-1.5,6.75
			c-3.037-0.809,0.229-3.571-0.75-6.75c-1.656,0.094-0.318,3.182-0.75,4.5c-1.745-1.125-1.145-1.834-0.75-3.75
			c-0.863,0.946-3.432,3.989-1.5,5.25c-1.813,2.483-1.718-3.223-4.5-2.25c3.029-1.614,0.944-4.205,3-6
			c-1.742,0.508-2.008,2.492-3.75,3c2.43-0.487,2.43,0.119,0,3c-0.719-1.975-2.883-3.382-0.75-7.5c2.132,5.294,3.75-3.245,4.5-3
			c-1.973-0.645-3.773,5.478-7.5,3c0.55-0.7,1.364-1.136,2.25-1.5c-0.683-2.052-2.628,1.331-3.75-0.75
			c0.461-0.667,0.906-1.341,0-1.5c0.592-1.658,2.623-1.877,3.75-3c-0.487-0.763-1.725-0.775-1.5-2.25
			c6.225-2.525,7.378-10.122,12-14.25c-1.556-1.427-1.977,1.015-2.25,2.25c-2.235-0.015-0.962-3.538-2.25-4.5
			c-1.626-0.126-0.34,2.66-0.75,3.75c-1.64-0.11-1.61-1.89-1.5-3.75c-2.92,2.58-4.57,6.43-6,10.5c-0.729-0.021-0.582-0.918-0.75-1.5
			c-0.765,1.563-0.059,3.055-1.5,5.25c-1.018-0.232-0.622-1.878-0.75-3c1.424,0.146,2.113-9.995,5.25-12.75
			c-1.256-0.187-3.44-2.734-4.5-5.25c-1.578,4.173-8.566,8.75-9,16.5c-2.625-2.641,1.078-14.191,4.5-16.5
			c3.411-2.302-4.132,4.155-3.75,10.5c1.511-4.489,4.157-7.843,6.75-11.25c0.529-2.459-6.456-3.947-2.25-5.25
			c-0.186-0.814-1.491-0.509-1.5-1.5c-0.879,0.121-0.633,1.367-0.75,2.25c-2.312-0.595-0.382-3.525-1.5-3.75
			c0.265-1.051,1.32-0.065,1.5,0.75c0.498-4.184,1.507-2.823,4.5-8.25c1.935,2.667,2.647-0.372,3-3c1.322-0.215,2.322,3.532,3,1.5
			c1.09,0.333-0.076,0.659,0,1.5c0.265,1.176,1.32-0.657,1.5,0.75c1.504-1.166-0.682-3.383-0.75-6.75
			c1.569,0.869,2.819-0.351,3.75,2.25c1.523,0.229-0.153-2.167-0.75-2.25c2.343-0.19,3.898,2.165,4.5,6
			c2.512-5.934-0.427-3.292,4.5-1.5c2.496-6.258-7.282-6.709-12.75-7.5c3.475-6.371,10.494,0.086,13.5,3
			c-0.482-2.292-4.841-7.783-3-7.5c0.698,2.052,2.302,3.198,3,5.25c1.961-0.211,3.226,0.274,3,2.25c-0.985-0.265-1.18-1.32-2.25-1.5
			c0.288,2.462,2.193,3.307,3,5.25c0.438-3.616-0.519-4.006,2.25-6c-1.521-2.403-0.858-2.645-1.5-5.25
			c1.539,0.859,3.575-1.178,1.5-1.5c0.917-2.286,2.862,1.097,3.75-0.75c-0.333-0.667-0.659-1.341-1.5-1.5
			c0.01-2.104,2.046,1.786,1.5-1.5c3.258,0.275,2.263,1.3,3,3C73.098,139.075,80.353,142.446,79.533,138.75z M75.033,147
			c1.302,1.863,1.938,1.226,0.75-0.75c1.418,0.168,1.655-0.845,3-0.75c-1.03-1.709,1.934-2.819,0-3
			C78.528,144.995,75.942,145.159,75.033,147z M82.533,310.5c-1.729,0.229-0.833-2.167-2.25-2.25c0.296,1.29-1.113,1.923,0,2.25
			c0.042-0.457,0.112-0.888,0.75-0.75c0.364,0.886,0.8,1.7,1.5,2.25c0.866-1.127,2.632-3.158,0-3.75
			C82.237,309.54,83.646,310.173,82.533,310.5z M64.533,195.75c0.196-1.167,1.645-0.52,2.25,0c0.631-1.419,3.616-4.317,2.25-5.25
			C68.18,192.429,63.12,194.043,64.533,195.75z M66.783,179.25c-6.692,3.188-11.638,10.262-16.5,17.25
			c10.969,0.465,10.617-14.378,17.25-15.75c-2.81,2.94-4.882,6.618-6,11.25c3.476,3.081,1.755,0.902,3.75-0.75
			c2.265-1.875,10.638-5.917,5.25-10.5c-1.842,3.158-2.988,7.012-5.25,9.75C65.395,186.389,71.682,181.536,66.783,179.25z
			 M48.783,180.75c-1.193,2.33-4.255,6.714-3,9C46.185,185.858,50.714,182.625,48.783,180.75z M47.283,176.25
			c-0.273-1.235-0.694-3.677-2.25-2.25c1.017,0.237-0.448,5.423,3.75,4.5c-0.669-1.934,1.225-6.691,0-4.5
			C47.545,174.012,48.363,176.081,47.283,176.25z M88.533,154.5c-0.032-1.032,0.353-1.647,0.75-2.25c-2.765-0.141-1.46-2.447-2.25-3
			c-0.042,0.458-0.112,0.888-0.75,0.75c0.002-0.417-0.607-0.852-0.75,0C87.215,150.818,86.852,153.682,88.533,154.5z M93.033,161.25
			c0.379-1.43,4.576-2.844,2.25-4.5c-0.084,3.504-1.375-0.533-2.25-0.75C94.972,158.195,91.094,159.687,93.033,161.25z
			 M69.033,160.5c-2.53,2.232-6.483-4.469-9-2.25c-1.123,3.3,7.657,5.262,6,9c2.083,0.555,4.901,1.813,2.25,3
			c4.602,0.511,5.043,4.387,6.75,6c-0.133-4.212,2.533,2.606,3,0c-0.333-3.864-10.005-6.308-6-7.5c-1.413-1.087-3.897-1.103-4.5-3
			C66.675,164.595,70.288,161.587,69.033,160.5z M93.033,188.25c1.75,0,3.5,0,5.25,0c-0.128-1.122,0.268-2.768-0.75-3
			c-1.81,3.276-1.383-1.757-1.5-2.25c0.097,1.736-3.299-3.034-3.75-0.75C92.63,183.1,92.664,185.574,93.033,188.25z M94.533,297
			c0.751-0.999,1.236-2.264,2.25-3c0.117,0.883-0.129,2.129,0.75,2.25c1.04-0.46,0.113-2.887,1.5-3
			c0.117,0.883-0.129,2.129,0.75,2.25c0-1,0-2,0-3c-1.25,0-2.5,0-3.75,0C96.5,294.538,92.641,296.013,94.533,297z M85.533,309.75
			c0.166-0.584,0.628-0.872,1.5-0.75c-0.462-3.793,2.11-4.862-0.75-6.75C88.526,304.968,82.402,306.499,85.533,309.75z
			 M49.533,148.5c2.559-0.266,6.184,2.258,7.5,0.75C55.754,148.236,51.29,146.551,49.533,148.5z"/>
		<path fill-rule="evenodd" clip-rule="evenodd" d="M62.283,149.25c-1.277-1.327,0.924-5.538,3.75-5.25
			C64.677,145.644,62.901,146.868,62.283,149.25z"/>
		<path fill-rule="evenodd" clip-rule="evenodd" d="M111.033,294c-2.747-1.613,2.175-1.738,3.75-1.5c-0.756,2.256,1.671,1.329,3,1.5
			C117.029,297.735,112.658,291.527,111.033,294z"/>
		<path fill-rule="evenodd" clip-rule="evenodd" d="M99.783,148.5c-0.406,2.656,2.656,1.844,2.25,4.5
			c-1.689-2.829-6.955-4.315-5.25-8.25c2.227,0.886,4.366,0.237,7.5,1.5C103.19,147.485,100.268,145.349,99.783,148.5z"/>
		<path fill-rule="evenodd" clip-rule="evenodd" fill="#FFFFFF" d="M78.783,142.5c1.934,0.181-1.03,1.291,0,3
			c-1.345-0.095-1.582,0.918-3,0.75c1.188,1.976,0.552,2.613-0.75,0.75C75.942,145.159,78.528,144.995,78.783,142.5z"/>
		<path fill-rule="evenodd" clip-rule="evenodd" fill="#FFFFFF" d="M82.533,308.25c2.632,0.592,0.866,2.623,0,3.75
			c-0.7-0.55-1.136-1.364-1.5-2.25c-0.638-0.138-0.708,0.293-0.75,0.75c-1.113-0.327,0.296-0.96,0-2.25
			c1.417,0.083,0.521,2.479,2.25,2.25C83.646,310.173,82.237,309.54,82.533,308.25z"/>
		<path fill-rule="evenodd" clip-rule="evenodd" fill="#FFFFFF" d="M69.033,190.5c1.366,0.933-1.619,3.831-2.25,5.25
			c-0.605-0.52-2.054-1.167-2.25,0C63.12,194.043,68.18,192.429,69.033,190.5z"/>
		<path fill-rule="evenodd" clip-rule="evenodd" fill="#FFFFFF" d="M65.283,190.5c2.262-2.738,3.408-6.592,5.25-9.75
			c5.388,4.583-2.985,8.625-5.25,10.5c-1.995,1.652-0.274,3.831-3.75,0.75c1.118-4.632,3.19-8.31,6-11.25
			c-6.633,1.372-6.281,16.215-17.25,15.75c4.862-6.988,9.808-14.062,16.5-17.25C71.682,181.536,65.395,186.389,65.283,190.5z"/>
		<path fill-rule="evenodd" clip-rule="evenodd" fill="#FFFFFF" d="M45.783,189.75c-1.255-2.286,1.807-6.67,3-9
			C50.714,182.625,46.185,185.858,45.783,189.75z"/>
		<path fill-rule="evenodd" clip-rule="evenodd" fill="#FFFFFF" d="M48.783,174c1.225-2.191-0.669,2.566,0,4.5
			c-4.198,0.923-2.733-4.263-3.75-4.5c1.556-1.427,1.977,1.015,2.25,2.25C48.363,176.081,47.545,174.012,48.783,174z"/>
		<path fill-rule="evenodd" clip-rule="evenodd" fill="#FFFFFF" d="M85.533,150c0.143-0.852,0.752-0.417,0.75,0
			c0.638,0.138,0.708-0.292,0.75-0.75c0.79,0.553-0.515,2.859,2.25,3c-0.397,0.603-0.782,1.218-0.75,2.25
			C86.852,153.682,87.215,150.818,85.533,150z"/>
		<path fill-rule="evenodd" clip-rule="evenodd" fill="#FFFFFF" d="M93.033,156c0.875,0.217,2.166,4.254,2.25,0.75
			c2.326,1.656-1.871,3.07-2.25,4.5C91.094,159.687,94.972,158.195,93.033,156z"/>
		<path fill-rule="evenodd" clip-rule="evenodd" fill="#FFFFFF" d="M67.533,165.75c0.603,1.897,3.087,1.913,4.5,3
			c-4.005,1.192,5.667,3.636,6,7.5c-0.467,2.606-3.133-4.212-3,0c-1.707-1.613-2.148-5.489-6.75-6c2.651-1.187-0.167-2.445-2.25-3
			c1.657-3.738-7.123-5.7-6-9c2.517-2.219,6.47,4.482,9,2.25C70.288,161.587,66.675,164.595,67.533,165.75z"/>
		<path fill-rule="evenodd" clip-rule="evenodd" fill="#FFFFFF" d="M92.283,182.25c0.451-2.284,3.847,2.486,3.75,0.75
			c0.117,0.493-0.31,5.526,1.5,2.25c1.018,0.232,0.622,1.878,0.75,3c-1.75,0-3.5,0-5.25,0C92.664,185.574,92.63,183.1,92.283,182.25
			z"/>
		<path fill-rule="evenodd" clip-rule="evenodd" fill="#FFFFFF" d="M216.783,222c-1.617,1.809-3.021-2.936-3.75-4.5
			c1.345,0.095,1.582-0.918,3-0.75c0.051,2.199,1.715,2.786,3,3.75C217.979,220.078,212.679,217.25,216.783,222z"/>
		<path fill-rule="evenodd" clip-rule="evenodd" fill="#FFFFFF" d="M219.783,219c2.291-1.507,3.618,4.356,5.25,6
			C223.077,226.172,222.338,219.721,219.783,219z"/>
		<path fill-rule="evenodd" clip-rule="evenodd" fill="#FFFFFF" d="M233.283,232.5c0.181-1.934,1.29,1.03,3,0
			c-0.514,3.486-4.101,3.899-7.5,4.5c1.205-1.908,3.303-1.3,6-3C234.451,233.333,234.125,232.659,233.283,232.5z"/>
		<path fill-rule="evenodd" clip-rule="evenodd" d="M192.033,250.5c0.479,2.004-2.58,6.902-2.25,11.25
			C187.895,258.337,190.886,253.372,192.033,250.5z"/>
		<path fill-rule="evenodd" clip-rule="evenodd" fill="#FFFFFF" d="M96.033,292.5c1.25,0,2.5,0,3.75,0c0,1,0,2,0,3
			c-0.879-0.121-0.633-1.367-0.75-2.25c-1.387,0.113-0.46,2.54-1.5,3c-0.879-0.121-0.633-1.367-0.75-2.25
			c-1.014,0.736-1.499,2.001-2.25,3C92.641,296.013,96.5,294.538,96.033,292.5z"/>
		<path fill-rule="evenodd" clip-rule="evenodd" fill="#FFFFFF" d="M86.283,302.25c2.86,1.888,0.288,2.957,0.75,6.75
			c-0.872-0.122-1.334,0.166-1.5,0.75C82.402,306.499,88.526,304.968,86.283,302.25z"/>
		<path fill-rule="evenodd" clip-rule="evenodd" d="M74.283,317.25c4.017-0.588,9.387,4.144,6.75,9c-0.985-0.265-1.18-1.32-2.25-1.5
			c-0.211,1.211,0.709,1.291,0.75,2.25c-0.39,2.143-1.11-1.211-1.5-1.5c-0.938,1.813-3.782,1.718-3.75,4.5
			c-0.629,2.382-0.989-1.331-0.75-2.25c-0.763,0.487-0.775,1.725-2.25,1.5c-0.307,1.807,1.37,1.63,0.75,3.75
			c-0.729-0.021-0.582-0.918-0.75-1.5c-0.872-0.122-1.334,0.166-1.5,0.75c-1.52-4.507-1.898-6.087-2.25-11.25
			c2.816,0.477,4.85-6.682,6.75-2.25C75.227,318.564,75.04,317.259,74.283,317.25z"/>
		<path fill-rule="evenodd" clip-rule="evenodd" fill="#FFFFFF" d="M193.533,54c0.094-1.656,3.182-0.318,4.5-0.75
			c-1.389,1.111-1.124,3.876-3.75,3.75C193.327,55.123,194.665,54.652,193.533,54z"/>
	</g>
</g>
</svg>
