<?xml version="1.0" encoding="utf-8"?>
<!-- Generator: Adobe Illustrator 12.0.0, SVG Export Plug-In . SVG Version: 6.00 Build 51448)  -->
<!DOCTYPE svg PUBLIC "-//W3C//DTD SVG 1.1//EN" "http://www.w3.org/Graphics/SVG/1.1/DTD/svg11.dtd" [
	<!ENTITY ns_svg "http://www.w3.org/2000/svg">
	<!ENTITY ns_xlink "http://www.w3.org/1999/xlink">
]>
<svg  version="1.1" id="Layer_1" xmlns="&ns_svg;" xmlns:xlink="&ns_xlink;" width="354.75" height="249.75"
	 viewBox="0 0 354.75 249.75" overflow="visible" enable-background="new 0 0 354.75 249.75" xml:space="preserve">
<g>
	<g>
		<path fill-rule="evenodd" clip-rule="evenodd" fill="#FFFFFF" d="M90.75,2.25c3.199,1.726,0.456,4.868,2.25,7.5
			C90.859,11.598,90.643,5.14,90.75,2.25z"/>
		<path fill-rule="evenodd" clip-rule="evenodd" fill="#FFFFFF" d="M209.25,96c-0.852,0.143-0.416,0.752,0,0.75
			c-0.645,1.549-5.221,0.792-6,0c1.129-2.725,3.887,0.064,6.75-1.5C210.211,96.59,209.291,96.789,209.25,96z"/>
		<path fill-rule="evenodd" clip-rule="evenodd" fill="#FFFFFF" d="M213.75,104.25c1.346-0.095,1.582,0.918,3,0.75
			c-1.566,3.649,0.391,2.236,2.25,3c-0.391,1.11-1.109,1.89-1.5,3C215.3,109.7,214.28,107.22,213.75,104.25z"/>
		<path fill-rule="evenodd" clip-rule="evenodd" d="M243.75,168.75c1.051-0.265,0.064-1.32-0.75-1.5c1.354-1.396,2.752-2.748,6-2.25
			c0.567,2.683,2.361,4.139,5.25,4.5c-2.17,1.754-0.82,1.813-0.75,5.25c-1.275-1.475-2.301-3.199-4.5-3.75
			c-1.77,1.099,2.954,1.987,1.5,5.25c-1.127-1.123-3.158-1.342-3.75-3c-1.626-0.126-0.34,2.66-0.75,3.75
			C240.593,174.935,238.661,165.307,243.75,168.75z"/>
		<path fill-rule="evenodd" clip-rule="evenodd" fill="#FFFFFF" d="M259.5,165c1.529,0.221,1.471,2.029,3,2.25
			c0.536,2.036-3.536-0.536-3,1.5C257.3,168.112,260.476,166.862,259.5,165z"/>
		<path fill-rule="evenodd" clip-rule="evenodd" d="M81,0c3.5,0,7,0,10.5,0c3.001,4.056,4.861,9.581,3,16.5
			c1.064,0.064,2.124,0.124,2.25-0.75c2.398,2.023-2.083,2.911,0,5.25c0.943-0.186,0.756-1.491,0-1.5c0.696-1.128,4.696,0.753,6,1.5
			c-0.917,2.271-2.862-0.53-3.75-0.75c0.838,0.923,0.653,1.54-0.75,1.5c1.056,1.112,2.394,1.612-0.75,1.5
			c0.418,1.529,2.256,1.471,0.75,3c1.276,0.276,1.415-0.585,1.5-1.5c1.19-2.262,1.097,3.689-1.5,2.25
			c1.276,1.974,3.563,2.937,6,3.75c-1.084-1.416-1.675-3.325-4.5-3c0.736-1.211,2.001-1.726,3-0.75c-1.04-0.46-0.113-2.887-1.5-3
			c1.541,0.198,0.636-1.708,3-2.25c-1.165-1.085-2.008-2.491-3.75-3c0.186-0.943,1.491-0.756,1.5,0c1.113-0.327-0.296-0.96,0-2.25
			c2.902-0.652,2.668,1.832,4.5,2.25c-0.172-2.578-2.232-3.268-4.5-3.75c0.469-1.602,4.616-0.703,5.25,0c0,1.25,0,2.5,0,3.75
			c1.974-1.304,0.268-5.208-1.5-5.25c1.646-2.819,3.074,0.14,5.25,0.75c-0.297-3.455,2.16,2.155,3-1.5
			c3.11,4.483-2.837,11.218-4.5,15.75c1.761-0.239,1.679-2.321,3-3c0.412,1.956-5.625,5.887-9,8.25c-1.09-0.333,0.076-0.659,0-1.5
			c-3.341-0.841-2.697,2.303-3.75,3.75c-0.985-0.265-1.18-1.32-2.25-1.5c0.91,7.125,7.999-2.466,11.25-2.25
			c-1.361-0.275,0.454,6.806,3.75,8.25c-1.252,0.408-6.05-1.631-7.5,0c0.327,0.923,0.96,1.54,2.25,1.5
			c-0.09,2.13-3.198,1.441-3-0.75c-0.844,0.558-4.533,4.049-1.5,3.75c-0.493,1.007-1.603,1.397-3,1.5
			c1.606-4.144,4.286-7.214,6-11.25c-3.021,2.479-4.217,6.783-6.75,9.75c-0.033,1.283,0.558,1.942,1.5,2.25
			c2.228-2.304,6.855,0.214,7.5-2.25c2.503,3.082,8.903-2.841,10.5,0c-0.226-0.776,2.705-2.974,0-3.75c0.113-1.866,2.54-0.219,3,0
			c0.211-1.211-0.709-1.291-0.75-2.25c0.39-2.143,1.11,1.21,1.5,1.5c0.923-0.327,1.54-0.96,1.5-2.25
			c0.638-0.138,0.708,0.292,0.75,0.75c-0.138,0.638,0.292,0.708,0.75,0.75c-0.333,1.09-0.659-0.076-1.5,0
			c0.143,0.607,0.752,0.748,0.75,1.5c2.656,0.406,1.844-2.656,4.5-2.25c-0.297,1.797,3.416-0.416,2.25,2.25
			c1.075-1.175,3.909-0.591,3.75-3c2.267,0.913-0.397,2.995-1.5,3c0.533,0.672,4.944-0.594,3.75,3.75
			c-2.404-0.654-2.346,1.154-3,2.25c-4.58-0.58-7.018,0.982-11.25,0.75c2.398,2.733,1.389,4.214,3,7.5
			c-1.418-1.488-3.543-0.364-5.25,0c2.059,2.792-2.778,3.874-3.75,6c-2.032-0.678,1.715-1.678,1.5-3c-2.033,0.467-1.867,3.133-4.5,3
			c0.678-1.322,1.678-2.322,3-3c-0.143-0.607-0.752-0.748-0.75-1.5c-2.701,1.049-3.338,4.162-6.75,4.5
			c0.424-1.561,2.143-2.424,0.75-3.75c-1.283-0.033-1.942,0.558-2.25,1.5c3.099-0.491,1.307-0.064-0.75,3
			c-1.441-0.964,1.77-1.551,0-3.75c-3.091,1.404-2.504,0.442-7.5,0c0.232,1.018,1.878,0.622,3,0.75c-0.652,2.182-1.123,0.844-3,0.75
			c0.583,0.667,0.806,1.694,0.75,3c1.528,1.222,3.925,1.575,5.25,3c-2.612-0.028-0.861,2.797,3,2.25c1.395,1.65-0.036,5.589,0.75,6
			c-3.693,0.307-2.438,5.563-3.75,8.25c-1.934-2.122-4.918,2.946-7.5,2.25c-1.523,0.229,0.153-2.167,0.75-2.25
			c-0.652-2.215-1.123,1.74-3,0.75c-1.294-1.942,1.103-2.356-2.25-1.5c1.547-1.322,0.656-2.322,1.5-3
			c-0.327-1.113-0.96,0.296-2.25,0c1.309-1.529-0.559-1.471,0.75-3c-0.678-2.047-1.678,2.281-3,0c0.645-0.605,0.446-2.054,1.5-2.25
			c-0.652-2.215-1.123,1.74-3,0.75c0.42-1.08,1.17-1.83,2.25-2.25c-0.652-2.215-1.123,1.74-3,0.75c0.654-1.096,0.596-2.904,3-2.25
			c-1.98-0.406-1.141-4.479,0.75-5.25c-0.015-1.327-3.538,1.195-4.5-0.75c2.025-1.475,2.909-4.091,6-4.5
			c-0.057-1.449-3.494,1.297-1.5-1.5c-2.343,1.556-1.261-0.799,0-1.5c-7.154-0.931-1.691-3.602,3.75-5.25
			c-1.275-1.889,0.443-3.608,0.75-0.75c0.607-0.143,0.748-0.752,1.5-0.75c-0.931-2.601-2.181-1.381-3.75-2.25
			c-0.529,0.334-3.301,2.086-3.75,2.25c-1.174,0.428-0.738-0.81-1.5-0.75c-4.671,0.365-7.994,6.708-12,6
			c0.956,1.977-0.784,1.585-0.75,3.75c-3.621-1.57-0.041,1.652-5.25,0.75c0.333,0.667,0.659,1.341,1.5,1.5
			c0.82,0.587-7.147-0.627-8.25,2.25c2.085,2.395-2.46,2.48,0,4.5c-0.652,2.215-1.123-1.74-3-0.75
			c-0.212,4.681-8.863,2.891-5.25,6.75c-1.738,0.184-2.333,1.941-4.5,0.75c-0.366,3.264-2.094,3.629-6.75,6
			c1.915,0.955-0.695,3.674,0.75,3.75C43.189,85.607,41.366,88.031,39,87c-1.649,1.688-1.96,1.728-1.5,4.5
			c-1.211,0.211-1.291-0.709-2.25-0.75c0.582,3.27-3.266,3.692-5.25,5.25c0.856,2.02,0.442,3.605-1.5,2.25
			c0.143-0.852,0.752-0.417,0.75,0c1.09-0.333-0.076-0.659,0-1.5c-0.607,0.143-0.748,0.752-1.5,0.75
			c-0.095,1.345,0.918,1.582,0.75,3c-3.951-2.596-5.954,4.85-11.25,2.25c2.576,2.786-0.959,3.81-3,3.75c2.368,3.931-3.766,0.467,0,3
			c-0.113,1.866-2.54,0.219-3,0c1.04,0.46,0.113,2.887,1.5,3c-0.748,2.311-2.027-0.836-2.25-1.5c-0.607,0.143-0.748,0.752-1.5,0.75
			c0.487,0.763,1.725,0.775,1.5,2.25c-1.122-0.878-3.067-0.933-3.75-2.25c-1.529,1.34-0.21,2.768-3,1.5
			c0.487,0.763,1.725,0.775,1.5,2.25c-1.211,0.211-1.291-0.709-2.25-0.75c0.579,2.391-0.752,4.299-3,5.25c0-2.75,0-5.5,0-8.25
			c2.131-0.869,4.452-1.548,4.5-4.5c20.609-9.141,36.685-26.814,51-39.75c4.746-1.243,11.617-6.209,15.75-10.5
			c-0.094-1.656-3.182-0.318-4.5-0.75c0.686-1.314,1.395-2.605,3.75-2.25c-1.686-0.814-2.964-2.036-3-4.5c1,0,2,0,3,0
			c-0.55-0.7-1.364-1.136-2.25-1.5c0.634-1.767,3.29,0.624,4.5,0.75c-0.181-1.319-1.291-1.709-3-1.5
			c5.543-1.049,6.246-2.582,10.5-1.5c-0.838-0.923-0.653-1.54,0.75-1.5c-0.127-1.803-6.193-4.209-2.25-5.25
			c-4.677-0.368-3.037,1.902-7.5,0.75c0.42-1.694,1.17,0.91,2.25-0.75c-2.479-0.129-5.809-4.455-6.75-1.5
			c-1.498-1.082,1.173-3.02-3-2.25c0.255-1.505-0.153-2.347-1.5-2.25c0.327-0.923,0.96-1.54,2.25-1.5
			c0.126-1.626-2.66-0.34-3.75-0.75c1.249-1.49-0.068-0.954,0-3c0.729,0.021,0.582,0.918,0.75,1.5c1.318-0.432,4.406,0.906,4.5-0.75
			c-3.894,0.6,1.311-2.635-3-3.75c1.052-1.528,2.584,0.737,4.5-0.75c-0.583-0.667-0.806-1.694-0.75-3c2.244,0.453,6.775,1.1,5.25,3
			c3.586-0.338,3.164-0.338,6.75,0c0.244,2.756,1.85,4.15,2.25,6.75c2.271-0.229,2.68-2.32,6-1.5c0.684-0.858-1.906-3.944,2.25-2.25
			c-1.068-2.326-4.36,0.25-2.25-3c-2.544-0.201-2.57,4.091-5.25,1.5c1.381,0.125,4.096-3.176,2.25-4.5c0.181-1.934,1.291,1.03,3,0
			c-4.95-1.742,0.788-6.195-6.75-4.5c-1.381,2.04-0.09-1.998,2.25-0.75c-0.886-1.076-3.978-1.421,0-1.5
			c-0.323-1.677-3.696-0.304-5.25-0.75c-0.117-2.101,2.12-2.446,3-1.5c-0.143-0.607-0.752-0.748-0.75-1.5
			c-0.872-0.122-1.334,0.166-1.5,0.75c-2.292-1.634,2.593-5.75,0-6c0.843-1.646,2.907-1.646,3.75,0c1.176-0.265-0.657-1.32,0.75-1.5
			c-0.8-0.902-2.275-0.523-4.5,0c1.633-2.241,3.479-2.292,6-0.75C83.928,1.072,81.072,1.928,81,0z M99,52.5
			c-1.779-2.493,3.478,2.29,3.75,0c-3.224,0.354-0.96-2.019-2.25-2.25c-0.166,0.584-0.628,0.872-1.5,0.75
			c-0.042-0.458-0.112-0.888-0.75-0.75C96.79,50.751,97.735,55.134,99,52.5z M83.25,37.5c-1.279,0.308,0.158,0.967,0,2.25
			c-2.399,1.482-1.415,1.482-2.25,0c-0.012,1.238-2.08,0.42-2.25,1.5c1.807-0.307,1.63,1.37,3.75,0.75
			C84.008,40.591,84.104,35.891,83.25,37.5z M93,9.75c-1.794-2.632,0.949-5.774-2.25-7.5C90.643,5.14,90.859,11.598,93,9.75z
			 M96.75,44.25c0.106-3.103,1.292-4.295,0-6c-1.409,3.242-0.091-6.242-1.5-3C95.041,40.127,96.252,41.618,96.75,44.25z M88.5,39.75
			c2.331,0.919,3.013,3.487,6.75,3c-0.911-1.339-0.137-4.363-1.5-5.25C93.185,39.435,88.203,36.953,88.5,39.75z"/>
		<path fill-rule="evenodd" clip-rule="evenodd" fill="#FFFFFF" d="M0,111.75C0,74.5,0,37.25,0,0c27,0,54,0,81,0
			c0.072,1.928,2.928,1.072,3,3c-2.521-1.542-4.367-1.491-6,0.75c2.225-0.523,3.7-0.902,4.5,0c-1.407,0.18,0.426,1.235-0.75,1.5
			c-0.843-1.646-2.907-1.646-3.75,0c2.593,0.25-2.292,4.366,0,6c0.166-0.584,0.628-0.872,1.5-0.75
			c-0.002,0.752,0.607,0.893,0.75,1.5c-0.88-0.946-3.117-0.601-3,1.5c1.554,0.446,4.927-0.927,5.25,0.75
			c-3.978,0.079-0.886,0.424,0,1.5c-2.34-1.248-3.631,2.79-2.25,0.75c7.538-1.695,1.8,2.758,6.75,4.5c-1.709,1.03-2.819-1.934-3,0
			c1.846,1.324-0.869,4.625-2.25,4.5c2.68,2.591,2.706-1.701,5.25-1.5c-2.11,3.25,1.182,0.674,2.25,3
			c-4.156-1.694-1.566,1.392-2.25,2.25c-3.32-0.82-3.729,1.271-6,1.5c-0.4-2.6-2.006-3.994-2.25-6.75
			c-3.586-0.338-3.164-0.338-6.75,0c1.525-1.9-3.006-2.547-5.25-3c-0.056,1.306,0.167,2.333,0.75,3
			c-1.916,1.487-3.448-0.778-4.5,0.75c4.311,1.115-0.894,4.35,3,3.75c-0.094,1.656-3.182,0.318-4.5,0.75
			c-0.168-0.582-0.021-1.479-0.75-1.5c-0.068,2.046,1.249,1.51,0,3c1.09,0.41,3.876-0.876,3.75,0.75
			c-1.29-0.04-1.923,0.577-2.25,1.5c1.347-0.097,1.755,0.745,1.5,2.25c4.173-0.77,1.502,1.168,3,2.25
			c0.941-2.955,4.271,1.371,6.75,1.5c-1.08,1.66-1.83-0.944-2.25,0.75c4.463,1.152,2.823-1.118,7.5-0.75
			c-3.943,1.041,2.123,3.447,2.25,5.25c-1.403-0.04-1.588,0.577-0.75,1.5c-4.254-1.082-4.957,0.451-10.5,1.5
			c1.709-0.209,2.819,0.181,3,1.5c-1.21-0.126-3.866-2.517-4.5-0.75c0.886,0.364,1.7,0.8,2.25,1.5c-1,0-2,0-3,0
			c0.036,2.464,1.314,3.686,3,4.5c-2.355-0.355-3.064,0.936-3.75,2.25c1.318,0.432,4.406-0.906,4.5,0.75
			c-4.133,4.291-11.004,9.257-15.75,10.5c-14.315,12.936-30.391,30.609-51,39.75C4.452,110.202,2.131,110.881,0,111.75z"/>
		<path fill-rule="evenodd" clip-rule="evenodd" fill="#FFFFFF" d="M91.5,0C179.25,0,267,0,354.75,0c0,83.25,0,166.5,0,249.75
			c-118.25,0-236.5,0-354.75,0C0,206.5,0,163.25,0,120c2.248-0.951,3.579-2.859,3-5.25c0.959,0.041,1.039,0.961,2.25,0.75
			c0.225-1.475-1.013-1.487-1.5-2.25c2.79,1.268,1.471-0.16,3-1.5c0.683,1.317,2.628,1.372,3.75,2.25
			c0.225-1.475-1.013-1.487-1.5-2.25c0.752,0.002,0.893-0.607,1.5-0.75c0.223,0.664,1.502,3.811,2.25,1.5
			c-1.387-0.113-0.46-2.54-1.5-3c0.46,0.219,2.887,1.866,3,0c-3.766-2.533,2.368,0.931,0-3c2.041,0.06,5.576-0.964,3-3.75
			c5.296,2.6,7.299-4.846,11.25-2.25c0.168-1.418-0.845-1.655-0.75-3c0.752,0.002,0.893-0.607,1.5-0.75
			c-0.076,0.841,1.09,1.167,0,1.5c0.002-0.417-0.607-0.852-0.75,0c1.942,1.355,2.356-0.23,1.5-2.25
			c1.984-1.558,5.832-1.98,5.25-5.25c0.959,0.041,1.039,0.961,2.25,0.75c-0.46-2.772-0.149-2.813,1.5-4.5
			c2.366,1.031,4.189-1.393,6.75-2.25C44.305,84.674,46.915,81.955,45,81c4.656-2.371,6.384-2.736,6.75-6
			c2.167,1.191,2.762-0.566,4.5-0.75c-3.613-3.859,5.038-2.069,5.25-6.75c1.877-0.99,2.348,2.965,3,0.75
			c-2.46-2.02,2.085-2.105,0-4.5c1.103-2.877,9.07-1.663,8.25-2.25c-0.841-0.159-1.167-0.833-1.5-1.5
			c5.209,0.902,1.629-2.32,5.25-0.75c-0.034-2.165,1.706-1.773,0.75-3.75c4.006,0.708,7.329-5.635,12-6
			c0.762-0.06,0.326,1.178,1.5,0.75c0.449-0.164,3.221-1.916,3.75-2.25c1.569,0.869,2.819-0.351,3.75,2.25
			c-0.752-0.002-0.893,0.607-1.5,0.75c-0.307-2.858-2.025-1.139-0.75,0.75c-5.441,1.648-10.904,4.319-3.75,5.25
			c-1.261,0.701-2.343,3.056,0,1.5c-1.994,2.797,1.443,0.051,1.5,1.5c-3.091,0.409-3.975,3.025-6,4.5
			c0.962,1.945,4.485-0.577,4.5,0.75c-1.891,0.771-2.73,4.844-0.75,5.25c-2.404-0.654-2.346,1.154-3,2.25
			c1.877,0.99,2.348-2.965,3-0.75c-1.08,0.42-1.83,1.17-2.25,2.25c1.877,0.99,2.348-2.965,3-0.75c-1.054,0.196-0.855,1.645-1.5,2.25
			c1.322,2.281,2.322-2.047,3,0c-1.309,1.529,0.559,1.471-0.75,3c1.29,0.296,1.923-1.113,2.25,0c-0.844,0.678,0.047,1.678-1.5,3
			c3.353-0.856,0.956-0.442,2.25,1.5c1.877,0.99,2.348-2.965,3-0.75c-0.597,0.083-2.273,2.479-0.75,2.25
			c2.582,0.696,5.566-4.372,7.5-2.25c1.313-2.688,0.057-7.943,3.75-8.25c-0.786-0.411,0.645-4.35-0.75-6
			c-3.861,0.547-5.612-2.278-3-2.25c-1.325-1.425-3.722-1.778-5.25-3c0.056-1.306-0.167-2.333-0.75-3
			c1.877,0.094,2.348,1.432,3-0.75c-1.122-0.128-2.768,0.268-3-0.75c4.996,0.442,4.409,1.404,7.5,0c1.77,2.199-1.441,2.786,0,3.75
			c2.057-3.064,3.849-3.491,0.75-3c0.308-0.942,0.967-1.533,2.25-1.5c1.393,1.326-0.326,2.189-0.75,3.75
			c3.412-0.338,4.049-3.451,6.75-4.5c-0.002,0.752,0.607,0.893,0.75,1.5c-1.322,0.678-2.322,1.678-3,3
			c2.633,0.133,2.467-2.533,4.5-3c0.215,1.322-3.532,2.322-1.5,3c0.972-2.126,5.809-3.208,3.75-6c1.707-0.364,3.832-1.488,5.25,0
			c-1.611-3.286-0.602-4.767-3-7.5c4.232,0.232,6.67-1.33,11.25-0.75c0.654-1.096,0.596-2.904,3-2.25
			c1.194-4.344-3.217-3.078-3.75-3.75c1.103-0.005,3.767-2.087,1.5-3c0.159,2.409-2.675,1.825-3.75,3
			c1.166-2.666-2.547-0.453-2.25-2.25c-2.656-0.406-1.844,2.656-4.5,2.25c0.002-0.752-0.607-0.893-0.75-1.5
			c0.841-0.076,1.167,1.09,1.5,0c-0.458-0.042-0.888-0.112-0.75-0.75c-0.042-0.458-0.112-0.888-0.75-0.75
			c0.04,1.29-0.577,1.923-1.5,2.25c-0.39-0.29-1.11-3.643-1.5-1.5c0.041,0.959,0.961,1.039,0.75,2.25c-0.46-0.219-2.887-1.866-3,0
			c2.705,0.776-0.226,2.974,0,3.75c-1.597-2.841-7.997,3.082-10.5,0c-0.645,2.464-5.272-0.054-7.5,2.25
			c-0.942-0.308-1.533-0.967-1.5-2.25c2.533-2.967,3.729-7.271,6.75-9.75c-1.714,4.036-4.394,7.106-6,11.25
			c1.397-0.103,2.507-0.493,3-1.5c-3.033,0.299,0.656-3.192,1.5-3.75c-0.198,2.191,2.91,2.88,3,0.75
			c-1.29,0.04-1.923-0.577-2.25-1.5c1.45-1.631,6.248,0.408,7.5,0c-3.296-1.444-5.111-8.525-3.75-8.25
			c-3.251-0.216-10.34,9.375-11.25,2.25c1.07,0.18,1.265,1.235,2.25,1.5c1.053-1.447,0.409-4.591,3.75-3.75
			c0.076,0.841-1.09,1.167,0,1.5c3.375-2.363,9.412-6.294,9-8.25c-1.321,0.679-1.239,2.761-3,3c1.663-4.532,7.61-11.267,4.5-15.75
			c-0.84,3.655-3.297-1.955-3,1.5c-2.176-0.61-3.604-3.569-5.25-0.75c1.768,0.042,3.474,3.946,1.5,5.25c0-1.25,0-2.5,0-3.75
			c-0.634-0.703-4.781-1.602-5.25,0c2.268,0.482,4.328,1.172,4.5,3.75c-1.832-0.418-1.598-2.902-4.5-2.25
			c-0.296,1.29,1.113,1.923,0,2.25c-0.009-0.756-1.314-0.943-1.5,0c1.742,0.509,2.585,1.915,3.75,3c-2.364,0.542-1.459,2.448-3,2.25
			c1.387,0.113,0.46,2.54,1.5,3c-0.999-0.976-2.264-0.461-3,0.75c2.825-0.325,3.416,1.584,4.5,3c-2.437-0.813-4.724-1.776-6-3.75
			c2.597,1.439,2.69-4.512,1.5-2.25c-0.085,0.915-0.224,1.776-1.5,1.5c1.506-1.529-0.332-1.471-0.75-3
			c3.144,0.112,1.806-0.388,0.75-1.5c1.403,0.04,1.588-0.577,0.75-1.5c0.888,0.22,2.833,3.021,3.75,0.75
			c-1.304-0.747-5.304-2.628-6-1.5c0.756,0.009,0.943,1.314,0,1.5c-2.083-2.339,2.398-3.227,0-5.25
			c-0.126,0.874-1.186,0.814-2.25,0.75C96.361,9.581,94.501,4.056,91.5,0z M156.75,55.5c-0.009-0.991-1.314-0.686-1.5-1.5
			c1.877,0.127,2.348-1.152,3-2.25c-1.825-0.276-1.263-5.206-0.75-7.5c-1.02-1.98-4.8-1.2-4.5-4.5c-2.853-1.103-0.147,3.353-3,2.25
			c-0.076-0.841,1.09-1.167,0-1.5c-0.159,0.906-0.833,0.461-1.5,0c-0.264,2.951-2.247-0.211-3.75,1.5
			c0.767,3.263,0.852,1.365-2.25,1.5c0.032,1.032-0.353,1.647-0.75,2.25c0.886,0.364,1.7,0.8,2.25,1.5c-4.224-0.488,0.109,6.155,3,6
			c-0.829,0.508-3.891,2.492-2.25,3c0.126-0.874,1.186-0.814,2.25-0.75c-1.828,2.964,0.837-0.556,1.5,1.5
			c-0.829,0.508-3.891,2.492-2.25,3c1.536-1.969,3.685,1.765,4.5,3c0.46-2.936,3.328,0.349,4.5,0c-3.901,1.402,0.086,6.032-1.5,9.75
			c-0.988-1.062-3.512-4.421-4.5-3c0.841,0.159,1.167,0.833,1.5,1.5c-1.86,0.973-3.64-1.673-3.75,0
			c-0.055,2.548-3.828,5.185-5.25,7.5c1.335,0.448,3.115-2.198,3.75,0c-2.522-0.522-2.458,1.542-3.75,2.25
			c0.874,0.126,0.814,1.186,0.75,2.25c2.853,1.103,0.147-3.353,3-2.25c-1.557,3.639,0.831,1.795,2.25,3
			c0.225,1.475-1.013,1.487-1.5,2.25c0.906,0.159,0.461,0.833,0,1.5c1.877-0.094,2.348-1.432,3,0.75
			c-7.588,15.759-12.271,27.993-17.25,45c-6.357,7.143-9.674,17.325-12.75,27.75c-6.479,2.021-4.514,12.486-9.75,15.75
			c0.25,2.48-0.37,8.612-4.5,9c-1.514,6.736-3.406,13.095-7.5,17.25c1.347-0.097,1.755,0.745,1.5,2.25
			c-10.183,14.103-13.798,28.163-22.5,42.75c8.922,0.499,20.365-0.875,22.5-0.75c-0.768-0.732-1.518-1.482-2.25-2.25
			c1.29,0.04,1.923-0.577,2.25-1.5c-1.592-1.032,0.571-3.738-0.75-4.5c-0.18,1.07-1.235,1.265-1.5,2.25
			c0.582,0.168,1.479,0.021,1.5,0.75c-0.75,0-1.5,0-2.25,0c-0.056-1.307,0.167-2.333,0.75-3c-4.237,2.212-1.915,0.268-1.5-1.5
			c0.841-0.076,1.167,1.09,1.5,0c-2.173-0.42,1.15-1.17,0.75-2.25c-1.877-0.956-2.348,0.382-3-0.75
			c0.752,0.002,0.893-0.607,1.5-0.75c3.362,0.274,2.208,2.214,3,3.75c-0.555-2.555,2.764-1.236,3-3
			c-1.75-0.251-3.231-0.769-3.75-2.25c0.906-0.158,0.461-0.832,0-1.5c1.807,0.307,1.63-1.37,3.75-0.75
			c-0.899-2.57-1.096,0.065-1.5-3c1.07,0.18,1.265,1.235,2.25,1.5c1.845-3.05-0.729-3.622-0.75-6.75
			c0.955,1.021,3.674,1.158,3.75-0.75c-1.016-0.734-0.972-2.528-2.25-3c4.041-0.282,2.686-3.814,3.75,0c-0.37-2.37,3.722-0.278,3-3
			c-4.118,0.123-1.979-1.658-4.5-1.5c0.991-0.009,0.686-1.314,1.5-1.5c0.88,0.946,3.117,0.602,3-1.5c-1.397-0.717-2.507,2.246-3,0
			c1.014-1.82,1.499-0.468,2.25-1.5c-2.632-2.84,1.839-3.647,1.5-3.75c-3.101-2.354,2.69-4.642,0.75-6
			c3.144,0.112,1.806-0.388,0.75-1.5c2.046,0.546,1.51-1.49,3-1.5c-0.48-3.992,1.306-6.142,1.5-10.5c2.037-0.536-0.537,3.536,1.5,3
			c-0.321-2.104,2.796,1.88,3-0.75c-1.932-0.817-3.604-1.896-4.5-3.75c4.272,1.95-0.554-6.91,3.75-3.75
			c1.115-2.47-0.219-4.426-1.5-4.5c2.528-1.238,2.646-3.18,0.75-4.5c6.229-0.716,3.227-6.172,7.5-9c-2.199-2.517,1.378-3.894,0-6
			c0.75,0,1.5,0,2.25,0c-1.169-3.807,2.882-3.833,0-5.25c1.407-0.18-0.426-1.235,0.75-1.5c0.841-0.076,1.167,1.09,1.5,0
			c-1.039-0.068-0.788-1.913,0.75-1.5c-1.171-2.753-0.628-2.874-2.25-4.5c1.314-0.207,3.742,2.111,4.5,0
			c-2.017,0.517-1.45-1.551-2.25-2.25c0.999,0.977,2.264,0.461,3-0.75c-1.29,0.04-1.923-0.577-2.25-1.5
			c2.155,0.155,3.81-0.19,4.5-1.5c-1.167-0.195-0.52-1.645,0-2.25c-0.915-0.085-1.776-0.225-1.5-1.5c0.886,0.108,1.7,1.336,2.25,0
			c-0.841-0.158-1.167-0.832-1.5-1.5c1.403,0.04,1.588-0.577,0.75-1.5c2.478,1.615,2.555-1.987,0.75-1.5
			c1.662-1.395,4.306-6.193,1.5-7.5c1.539-1.611,2.463-3.832,3.75-3.75c-0.619-2.391-1.119-8.559,3.75-9
			c-3.492-4.147,1.802-4.59,0-9c5.528-2.686,2.589-10.75,6.75-11.25c-2.938-1.88,1.899-7.107,3.75-9
			c-0.23-2.278,2.75-8.891,4.5-9.75c-2.915-2.028-0.204-0.13,0.75-1.5c1.149-4.505,2.587-10.783,6.75-15
			c0.128,1.122-0.268,2.768,0.75,3c0.751-2.28,1.236-0.957,2.25,0c0.364-0.886,0.8-1.7,1.5-2.25c-0.225,1.475,1.013,1.487,1.5,2.25
			c-4.245,1.682-7.549,1.301-7.5,6c0.968-3.299,7.226-5.252,9-5.25c-0.58,0.513-1.953,4.468,0.75,3.75
			c1.449-0.072-1.297-2.928,1.5-3c0.425,2.575,1.412,4.588,3,6c0.158-0.906,0.832-0.461,1.5,0c0.875-3.953,4.547-1.353,6-3.75
			c-1.684-3.13,2.37-6.781,1.5-9.75c-1.957,1.829-0.639-2.354-1.5-3c-3.94,1.709-3.07-1.337-6-2.25c-0.104,1.397-0.493,2.507-1.5,3
			c-1.027-4.379-2.976-1.772-6.75-3c0.961-3.831-2.185-0.793-2.25-2.25c1.131-0.652-0.207-1.123,0.75-3
			c-3.538-0.005-0.55,3.013-2.25,3.75c-1.167-2.679,0.774-4.116-2.25-5.25c-0.425,2.271-3.915,0.889-5.25,2.25
			c2.225,0.523,1.188,3.415,0.75,3.75c-1.486-2.456-6.223,2.322-7.5,3c4.597,1.483,3.929,2.42,6.75,3.75
			c-2.017-0.517-1.45,1.55-2.25,2.25c1.347-0.097,1.755,0.745,1.5,2.25c1.877,0.99,2.348-2.965,3-0.75
			c-0.274,6.588-10.726,3.764-6-1.5c-2.669,1.087-3.902,1.656-1.5-0.75C156.81,53.217,157.426,54.833,156.75,55.5z M168,63.75
			c0.773,3.67-2.177,3.587-1.5,5.25c0.308-1.279,0.967,0.158,2.25,0C168.4,66.047,170.322,65.105,168,63.75z M176.25,77.25
			c3.844-3.881-1.533-8.104,0.75-11.25c-2.792,1.167-5.555,1.208-7.5,1.5c0.584,0.166,0.872,0.628,0.75,1.5
			c-2.434,0.449-6.55,0.328-5.25,3c0.009-0.756,1.314-0.943,1.5,0c-1.322,0.678-2.322,1.678-3,3c1.329,0.171,3.756-0.756,3,1.5
			c-1.709,1.03-2.819-1.934-3,0c1.335,0.364-0.325,0.8-0.75,1.5c0.622,1.628,2.831,1.669,3,3.75c3.551-0.407,6.341-3.235,6.75-0.75
			c0.166-0.584,0.628-0.872,1.5-0.75c-0.99-2.325,0.667-4.916,3-6C177.11,75.247,174.478,77.041,176.25,77.25z M214.5,73.5
			c-4.441,0.691-2.417,3.186-5.25,5.25c1.694,0.42-0.909,1.17,0.75,2.25c1.335,0.448,3.114-2.198,3.75,0
			c-3.69,0.275,1.936,1.3,1.5,3c-0.231,2.224-3.273,6.341-4.5,3c1.949,0.449,2.699-0.301,2.25-2.25
			c-3.455,1.414-7.944-5.16-11.25-3.75c1.335,0.364-0.325,0.8-0.75,1.5c0.842,0.159,1.168,0.833,1.5,1.5
			c-1.49-0.01-0.954-2.046-3-1.5c0.359,2.359-1.068,2.932-1.5,4.5c2.299,0.277-0.291,2.174-0.75,4.5
			c1.749,0.25,3.231,0.769,3.75,2.25c-2.265,0.225-1.398,3.155,0,3.75c0.126-0.874,1.186-0.814,2.25-0.75
			c0.508,1.742,2.492,2.008,3,3.75c-2.615-1.362-4.41,0.565-5.25,3c2.666,1.166,0.453-2.547,2.25-2.25c2.525,3-2.953,5.178-2.25,6
			c1.86-0.39,2.672-1.829,3.75-3c0.307,1.807-1.37,1.63-0.75,3.75c-3.559-0.652-2.075,1.832-3,2.25
			c0.229-2.344-2.167,1.906-2.25-0.75c2.466,0.546,1.148-1.49,0-1.5c-1.395,2.633,0.569,2.467,1.5,4.5c-1.49-0.01-0.954-2.046-3-1.5
			c0.205,4.792-4.833,4.898-4.5,9c0.937-1.221,0.815,2.666-0.75,3c1.29-0.04,1.923,0.577,2.25,1.5
			c-2.151,0.311,0.074,3.652,0.75,3.75c0.002-0.752-0.607-0.893-0.75-1.5c1.08,1.659,1.83-0.944,2.25,0.75
			c-0.863,0.244-2.582,3.271-0.75,3.75c0.01-1.763,2.046,0.274,1.5,1.5c1.807,0.307,1.63-1.37,3.75-0.75
			c0.41-1.09-0.876-3.876,0.75-3.75c0.128,1.122-0.268,2.768,0.75,3c0.547-0.617,2.257-0.906,3.75,0
			c-0.67-3.918,2.362-4.156,3.75-2.25c-0.228-1.734-1.601-3.798,0.75-2.25c-0.128-1.122,0.268-2.768-0.75-3
			c-0.168,0.582-0.021,1.479-0.75,1.5c0.178-3.5,2.087-0.61,3-3c0.736,1.211,2.001,1.726,3,0.75c0.849,1.462-0.216,3.835,0.75,2.25
			c1.491-0.508-0.741-2.492,0.75-3c1.544,0.206,0.706,2.794,2.25,3c0.117-0.883-0.129-2.129,0.75-2.25
			c0.148,4.957-0.266,2.742,2.25,1.5c-2.345,2.729,2.025,2.436,2.25,3c3.313,17.557,7.086,34.578,5.25,50.25
			c0.166-0.584,0.628-0.872,1.5-0.75c-0.676,16.166,3.114,30.289,2.25,47.25c4.792,4.708,1.527,17.473,4.5,24
			c4.012-0.488,9.984,0.984,12.75-0.75c-3.587-1.561-3.646-10.15-3-13.5c-2.848-1.551-3.845-7.582-0.75-9.75
			c-1.032-0.032-1.646,0.354-2.25,0.75c0.18-6.307-2.5-11.053-3.75-18.75c1.71-1.03,2.819,1.934,3,0c-1.322-1.547-2.322-0.656-3-1.5
			c0.999-0.751,2.264-1.236,3-2.25c-4.167-0.083-3.435-5.065-5.25-7.5c2.362-0.521,1.312-5.171,0-4.5c1.507-0.836,0.86-5.801,0-6.75
			c1.71-1.03,2.819,1.934,3,0c-1.322-1.547-2.322-0.656-3-1.5c-1.593-1.405,0.589-9.873,0.75-8.25
			c-0.089-0.897-2.25-1.733-2.25-3.75c-0.001-3.676-0.882-3.071-1.5-6c-2.126-10.071,0.461-21.251-4.5-27
			c1.007-0.493,1.396-1.604,1.5-3c-0.887-0.363-1.7-0.8-2.25-1.5c2.374-6.566-6.047-13.453-2.25-21.75
			c-2.364,0.114-1.459-3.041-3-3.75c2.219,1.811,2.812-0.594,0.75-1.5c2.536,1.141,3.254-0.556,4.5,1.5
			c0.009-0.991,1.314-0.686,1.5-1.5c-0.906-0.159-0.461-0.833,0-1.5c-3.143,1.718-3.679-6.62-6.75-4.5c1.52-3.23,3.415-6.085,5.25-9
			c-1.787-0.276-2.97-5.171,0-6c-2.684-1.648-3.832-1.277-6.75-0.75c-0.076,2.825,1.187,3.416,0,4.5
			c-0.204-1.546-3.321-0.179-3-2.25c1.71-1.03,2.819,1.934,3,0c-0.874-0.126-0.814-1.186-0.75-2.25
			c-1.475-0.225-1.487,1.013-2.25,1.5c0.627-1.385-1.206-7.45,0.75-7.5c0.274-0.007-0.21,6.634,0.75,2.25
			c1.05-4.796-1.103-5.349,0.75-7.5c-1.587-0.913-2.178-2.822-4.5-3c-0.104,1.397-0.493,2.507-1.5,3c-0.296-1.29,1.113-1.923,0-2.25
			C216.393,73.364,210.882,71.082,214.5,73.5z M230.25,114c0.236-1.014,1.067-1.433,0.75-3c-2.407,0.658-1.555-1.945-3-2.25
			c-1.59,1.678,1.315,3.092,2.25,4.5C229.834,113.248,229.398,113.857,230.25,114z M240.75,90.75c1.763,1.249-0.274-0.068-1.5,0
			c0.036,2.107-0.682,4.638-2.25,3c0.259,3.508-0.337,6.163-2.25,7.5c0.584,0.166,0.872,0.628,0.75,1.5
			c2.309-0.525,1.441-0.525,3.75,0c1.851-2.899,6.221-3.28,8.25-6c-0.139-1.596-2.361-3.096,0.75-4.5
			c-2.188,0.209-2.578-0.181-1.5-1.5C242.354,91.368,244.445,90.14,240.75,90.75z M237.75,111.75c-0.982-0.012-0.955-2.08,0-2.25
			c0.334,3.309,1.052-1.768,2.25,1.5c-0.347-3.649-0.501-2.823,0.75-5.25c-1.877,0.127-2.348-1.152-3-2.25
			c-5.296,0.616-4.939,2.292-6.75,6c5.642-0.717,2.844,2.479,5.25,4.5C235.607,110.523,237.431,113.214,237.75,111.75z
			 M233.25,129.75c0.117-0.883-0.129-2.129,0.75-2.25c1.048,2.155-2.044,3.81,0,4.5c0.751-0.999,1.236-2.264,2.25-3
			c0.168,0.582,0.021,1.479,0.75,1.5c0.168-0.582,0.021-1.479,0.75-1.5c-0.894,2.09-0.858,4.563,0.75,6
			c0.432-1.318-0.906-4.406,0.75-4.5c-0.21,1.71,0.181,2.819,1.5,3c-0.21-1.71,0.181-2.819,1.5-3c-0.652,1.988,1.832,4.551,2.25,3
			c-0.597-0.083-2.273-2.479-0.75-2.25c0.158,0.842,0.832,1.168,1.5,1.5c0.99-1.877-2.965-2.348-0.75-3
			c0.751,0.999,1.236,2.264,2.25,3c0.484-1.887-3.438-5.145,0-5.25c-1.567,0.838,1.682,5.239,2.25,3.75
			c-1.747-1.651-1.838-4.976,0-4.5c-1.864-1.386-4.232-2.268-5.25-4.5c0.842-0.076,1.168,1.09,1.5,0
			c-2.592-4.542-2.479-4.79-6.75-8.25c-0.968,2.782-2.922,4.578-5.25,6c-0.584-2.444-4.051-5.911-5.25-5.25
			C232.082,117.604,228.856,123.305,233.25,129.75z M272.25,135c-1.877-0.99-2.348,2.965-3,0.75c1.443-1.663-1.941-3.047-0.75-6.75
			c-3.299-0.187-3.429,1.175-6,3c-0.608,6.58,1.719,5.208-0.75,10.5c0.886,0.363,1.7,0.8,2.25,1.5
			c-0.618,1.954-0.409,1.099-2.25-0.75c0.229,1.979-1.565,1.935-3,2.25c-1.249-1.49,0.067-0.954,0-3
			c-3.089-0.354,0.722,2.019-2.25,2.25c-0.168-0.582-0.021-1.479-0.75-1.5c1.162,3.419,3.005,6.423,1.5,9
			c-0.104-3.115-0.493-0.151-1.5,0c-1.487-1.544-1.487-0.706,0-2.25c-3.464,0.594-2.145-0.834-3-1.5
			c-2.927,2.187-11.104-1.588-15.75-0.75c0.965,3.996,6.957,6.775,7.5,6.75c0.701,2.832,0.042,3.521,0.75,5.25
			c3.927-1.132,5.243,0.311,7.5,0c-0.842,1.908-1.842,3.658-3,5.25c2.543,1.973,6.851,6.129,7.5,7.5
			c-1.289-3.099,3.399-4.021,4.5-2.25c-2.099,2.751-1.177,7.639,0.75,12c1.125-1.609,1.834,0.537,3.75-0.75
			c3.359,7.129,5.406,13.251,9,20.25c3.721,7.247,9.642,14.497,9.75,18.75c0.012,0.477-1.807,0.432,0.75,1.5
			c-0.085,0.915-0.225,1.775-1.5,1.5c0.164-0.942,1.168-1.533-0.75-1.5c0.066,3.066-2.054,3.946-3.75,5.25
			c3.321-1.119,4.809,2.926,7.5,1.5c-2.422,1.3-0.859,6.603,0.75,8.25c-0.083-2.521-1.5-3.967,0.75-5.25
			c3.932,4.818,6.722,10.778,9.75,16.5c2.279-0.471,6.46,0.96,7.5-0.75c-8.839-20.361-25.742-43.624-35.25-71.25
			c2.561,1.063,1.339-7.186-0.75-7.5c-0.168,0.582-0.021,1.479-0.75,1.5c0.002-0.752-0.607-0.893-0.75-1.5
			c3.823-1.427,6.542-3.958,11.25-4.5c-1.538,1.496,1.524,7.627,2.25,6.75c-0.417-1.393-2.046-5.374-0.75-6
			c2.178,2.572,2.855,6.645,4.5,9.75c-0.112-3.144,0.388-1.806,1.5-0.75c-0.093-2.593,1.465-3.535,2.25-5.25
			c2.497,3.252,1.145-0.058,1.5-0.75c2.824-0.076,3.416,1.187,4.5,0c-1.014-1.82-1.499-0.468-2.25-1.5c1.322-2.281,2.322,2.047,3,0
			c-1.302-0.683-1.938-2.628-0.75-3.75c-0.999-1.839-2.264,1.352-3-0.75c1.039-2.273,2.125,0.188,3-2.25
			c-3.965,0.652-0.105-1.832-3-2.25c-1.838,0.393-3.396,1.011-6,2.25c0.072-1.928,2.928-1.072,3-3c-1.406-0.18,0.426-1.235-0.75-1.5
			c-0.629-0.373-2.947,2.678-4.5,0.75c1.314,0.156,4.022-3.18,2.25-1.5c-3.472,1.472-1.043-0.708-2.25-1.5
			c-3.426,2.974-2.736-1.738-3.75,3c-1.417-0.083-0.521-2.479-2.25-2.25c-0.166,0.584-0.628,0.872-1.5,0.75
			c0.129,1.942-0.646,5.965,1.5,3.75c-1.835,1.769,1.12,1.396,0.75,3.75c-4.233-0.35-2.063,4.032-7.5,3.75
			c-1.819-1.493,1.266-3.203-1.5-3.75c-0.18,0.814-1.235,1.801-1.5,0.75c2.793-1.04-2.207-0.113-1.5-1.5
			c-0.22-3.966,2.31-6.619,4.5-6c-1.007-0.493-1.396-1.604-1.5-3c3-0.25,3.396-3.104,6.75-3c1.274-4.654-2.994-4.844,0.75-8.25
			c-3.159-0.489-3.453-0.752-6,0c-0.559,3.396,2.059-1.146,1.5,2.25c-1.636,0.136-2.386-0.614-2.25-2.25
			C273.928,139.184,268.881,137.15,272.25,135z M246,177c0.41-1.09-0.876-3.876,0.75-3.75c0.592,1.658,2.623,1.877,3.75,3
			c1.454-3.263-3.27-4.151-1.5-5.25c2.199,0.551,3.225,2.275,4.5,3.75c-0.07-3.438-1.42-3.496,0.75-5.25
			c-2.889-0.361-4.683-1.817-5.25-4.5c-3.248-0.498-4.646,0.854-6,2.25c0.814,0.18,1.801,1.235,0.75,1.5
			C238.661,165.307,240.593,174.935,246,177z M308.25,181.5c-0.01,1.49-2.046,0.954-1.5,3c0.789,3.895,8.407,3.648,4.5,6
			c1.71,0.21,2.819-0.181,3-1.5c-1.749-5.229,0.591-14.237-1.5-15.75c-0.14,1.11-1.813,0.688-3,0.75
			c0.387,2.778,1.278,1.887-1.5,1.5c-0.2,2.737,2.99,5.96,1.5,7.5c-0.084-1.916-1.375-2.625-2.25-3.75
			C305.5,182.602,307.09,181.309,308.25,181.5z M323.25,180c-3.458,1.053-5.437,4.59-3,8.25c-3.403-2.203-5.738,5.813-9.75,3
			c2.665,3.979-0.383,4.866,3,4.5c-0.719,2.528,2.297,5.123,0,6.75c0.4-1.08-2.923-1.83-0.75-2.25c0.041,0.789,0.961,0.59,0.75-0.75
			c-5.33-3.557-5.161-11.548-11.25-15.75c-0.855,4.783,0.625,4.813,2.25,7.5c-1.929,2.769-1.516,2.122-2.25,0
			c-0.652,1.098-1.123,2.377-3,2.25c-1.748-4.752-5.28-7.72-9-10.5c-0.594,2.594,0.834,3.166,1.5,4.5
			c-1.109-0.391-1.891-1.109-3-1.5c-0.66,2.41,2.473,1.027,2.25,3c-1.71,1.03-2.819-1.934-3,0c0.906,0.158,0.461,0.832,0,1.5
			c5.502,2.75-1.151,0.4,3,4.5c-0.949-0.86-5.914-1.507-6.75,0c2.017-0.517,1.449,1.551,2.25,2.25c-1.25,0-2.5,0-3.75,0
			c0.296,1.29-1.113,1.923,0,2.25c0.204-1.767,3.321-0.458,3,0.75c-1.29,0.296-1.923-1.113-2.25,0c0.906,0.158,0.461,0.832,0,1.5
			c3.377-0.522,2.004,1.542,0.75,2.25c4.267,0.054,4.221,0.229,4.5,2.25c1.582-0.311,11.117-4.369,9,1.5
			c2.41,0.66,1.027-2.473,3-2.25c2.354,3.614,0.767,5.304-1.5,9c-0.091-9.59-0.936-0.575-0.75,1.5c-1.057-4.712-4.787-3.052-7.5-3
			c2.089,5.911,3.912,12.088,7.5,16.5c-0.57-2.257-3.176-6.114,0.75-6.75c0.813,1.921-2.278,3.575,0,4.5
			c0.158-0.842,0.832-1.168,1.5-1.5c3.186,6.142,1.184,2.873,4.5,0c-1.043,1.264,0.827,4.16,2.25,5.25
			c-0.247-1.753-0.901-3.099-1.5-4.5c2.121,0.981,2.553,0.697,3.75-1.5c0.012,1.988-0.416,4.416,1.5,4.5
			c2.728-1.127-0.79-4.613,1.5-6.75c2.656,0.083-1.594,2.479,0.75,2.25c1.771-2.701-1.646-5.543-3.75-6.75
			c0.8-1.7,2.274-2.726,4.5-3c0.921,7.579,1.708,15.292,9.75,15.75c2.713,6.037,5.771,11.729,9,17.25c2,0,4,0,6,0
			c-2.038-4.56-7.515-9.354-6.75-14.25c-4.7-1.3-4.603-7.397-7.5-10.5c2.107-1.738,0.147-3.194,1.5-6
			c-2.876,0.136-0.272-0.614-0.75-2.25c-3.816-1.656-2.321,0.471-5.25-1.5c-0.168,0.582-0.021,1.479-0.75,1.5
			c-0.067-2.046,1.249-1.51,0-3c0.752-0.002,0.893,0.607,1.5,0.75c0.642-1.749-2.623-3.231-0.75-3.75c1.67,3.244,3.947-1.379,6-2.25
			c2.53,2.699,4.774-1.561,7.5,2.25c-0.225-1.475,1.013-1.487,1.5-2.25c-3.472,0.159,0.737-2.675-1.5-3.75
			c2.814-1.611,4.092-0.734,6-3.75c-2.391,0.641-2.847-0.653-3.75-1.5c-2.295,1.024-3.776,3.86-6.75,6
			c0.674-1.326,1.811-2.189,2.25-3.75c-2.939-0.033-2.324,1.584-3,2.25c-1.032-0.032-1.646,0.354-2.25,0.75
			c-0.128-1.122,0.268-2.768-0.75-3c-0.902,4.076-2.132-0.945-6.75,2.25c-0.165-2.415,1.326-3.174,0.75-6c0.46,0.22,2.887,1.865,3,0
			c-2.146-1.472,3.329-5.595,2.25-6c-0.959,0.041-1.039,0.961-2.25,0.75c-0.875-2.928,0.51-4.963,1.5-9.75
			C328.761,187.088,325.507,179.313,323.25,180z"/>
		<path fill-rule="evenodd" clip-rule="evenodd" fill="#FFFFFF" d="M98.25,50.25c0.638-0.138,0.708,0.292,0.75,0.75
			c0.872,0.122,1.334-0.166,1.5-0.75c1.29,0.231-0.974,2.604,2.25,2.25c-0.272,2.29-5.529-2.493-3.75,0
			C97.735,55.134,96.79,50.751,98.25,50.25z"/>
		<path fill-rule="evenodd" clip-rule="evenodd" fill="#FFFFFF" d="M82.5,42c-2.12,0.62-1.943-1.057-3.75-0.75
			c0.17-1.08,2.238-0.262,2.25-1.5c0.835,1.482-0.149,1.482,2.25,0c0.158-1.283-1.279-1.942,0-2.25
			C84.104,35.891,84.008,40.591,82.5,42z"/>
		<path fill-rule="evenodd" clip-rule="evenodd" fill="#FFFFFF" d="M95.25,35.25c1.409-3.242,0.091,6.242,1.5,3
			c1.292,1.705,0.106,2.897,0,6C96.252,41.618,95.041,40.127,95.25,35.25z"/>
		<path fill-rule="evenodd" clip-rule="evenodd" d="M159.75,53.25c-2.402,2.406-1.169,1.837,1.5,0.75
			c-4.726,5.264,5.726,8.088,6,1.5c-0.652-2.215-1.123,1.74-3,0.75c0.255-1.505-0.153-2.347-1.5-2.25c0.8-0.7,0.233-2.767,2.25-2.25
			c-2.821-1.33-2.153-2.267-6.75-3.75c1.277-0.678,6.014-5.456,7.5-3c0.438-0.335,1.475-3.227-0.75-3.75
			c1.335-1.361,4.825,0.021,5.25-2.25c3.024,1.134,1.083,2.571,2.25,5.25c1.7-0.737-1.288-3.755,2.25-3.75
			c-0.957,1.877,0.381,2.348-0.75,3c0.065,1.457,3.211-1.581,2.25,2.25c3.774,1.228,5.723-1.379,6.75,3
			c1.007-0.493,1.396-1.603,1.5-3c2.93,0.913,2.06,3.959,6,2.25c0.861,0.646-0.457,4.829,1.5,3c0.87,2.969-3.184,6.62-1.5,9.75
			c-1.453,2.397-5.125-0.203-6,3.75c-0.668-0.461-1.342-0.906-1.5,0c-1.588-1.412-2.575-3.425-3-6c-2.797,0.072-0.051,2.928-1.5,3
			c-2.703,0.718-1.33-3.237-0.75-3.75c-1.774-0.002-8.032,1.951-9,5.25c-0.049-4.699,3.255-4.318,7.5-6
			c-0.487-0.763-1.725-0.775-1.5-2.25c-0.7,0.55-1.136,1.364-1.5,2.25c-1.014-0.957-1.499-2.28-2.25,0
			c-1.018-0.232-0.622-1.878-0.75-3c-4.163,4.217-5.601,10.495-6.75,15c-0.954,1.37-3.665-0.528-0.75,1.5
			c-1.75,0.859-4.73,7.472-4.5,9.75c-1.851,1.893-6.688,7.12-3.75,9c-4.161,0.5-1.222,8.564-6.75,11.25c1.802,4.41-3.492,4.853,0,9
			c-4.869,0.441-4.369,6.609-3.75,9c-1.287-0.082-2.211,2.139-3.75,3.75c2.806,1.307,0.162,6.105-1.5,7.5
			c1.805-0.487,1.728,3.115-0.75,1.5c0.838,0.923,0.653,1.54-0.75,1.5c0.333,0.668,0.659,1.342,1.5,1.5
			c-0.55,1.336-1.364,0.108-2.25,0c-0.276,1.275,0.585,1.415,1.5,1.5c-0.52,0.605-1.167,2.055,0,2.25
			c-0.69,1.31-2.345,1.655-4.5,1.5c0.327,0.923,0.96,1.54,2.25,1.5c-0.736,1.211-2.001,1.727-3,0.75
			c0.8,0.699,0.233,2.767,2.25,2.25c-0.758,2.111-3.186-0.207-4.5,0c1.622,1.626,1.079,1.747,2.25,4.5
			c-1.538-0.413-1.789,1.432-0.75,1.5c-0.333,1.09-0.659-0.076-1.5,0c-1.176,0.265,0.657,1.32-0.75,1.5
			c2.882,1.417-1.169,1.443,0,5.25c-0.75,0-1.5,0-2.25,0c1.378,2.106-2.199,3.483,0,6c-4.273,2.828-1.271,8.284-7.5,9
			c1.896,1.32,1.778,3.262-0.75,4.5c1.281,0.074,2.615,2.03,1.5,4.5c-4.304-3.16,0.522,5.7-3.75,3.75
			c0.896,1.854,2.568,2.933,4.5,3.75c-0.204,2.63-3.321-1.354-3,0.75c-2.037,0.536,0.537-3.536-1.5-3
			c-0.194,4.358-1.98,6.508-1.5,10.5c-1.49,0.01-0.954,2.046-3,1.5c1.056,1.112,2.394,1.612-0.75,1.5c1.94,1.358-3.851,3.646-0.75,6
			c0.339,0.103-4.132,0.91-1.5,3.75c-0.751,1.032-1.236-0.32-2.25,1.5c0.493,2.246,1.603-0.717,3,0c0.117,2.102-2.12,2.446-3,1.5
			c-0.814,0.186-0.509,1.491-1.5,1.5c2.521-0.158,0.382,1.623,4.5,1.5c0.722,2.722-3.37,0.63-3,3c-1.064-3.814,0.291-0.282-3.75,0
			c1.278,0.472,1.234,2.266,2.25,3c-0.076,1.908-2.795,1.771-3.75,0.75c0.021,3.128,2.595,3.7,0.75,6.75
			c-0.985-0.265-1.18-1.32-2.25-1.5c0.404,3.065,0.601,0.43,1.5,3c-2.12-0.62-1.943,1.057-3.75,0.75c0.461,0.668,0.906,1.342,0,1.5
			c0.519,1.481,2,1.999,3.75,2.25c-0.236,1.764-3.555,0.445-3,3c-0.792-1.536,0.362-3.476-3-3.75c-0.607,0.143-0.748,0.752-1.5,0.75
			c0.652,1.132,1.123-0.206,3,0.75c0.4,1.08-2.923,1.83-0.75,2.25c-0.333,1.09-0.659-0.076-1.5,0c-0.415,1.768-2.737,3.712,1.5,1.5
			c-0.583,0.667-0.806,1.693-0.75,3c0.75,0,1.5,0,2.25,0c-0.021-0.729-0.918-0.582-1.5-0.75c0.265-0.985,1.32-1.18,1.5-2.25
			c1.321,0.762-0.842,3.468,0.75,4.5c-0.327,0.923-0.96,1.54-2.25,1.5c0.732,0.768,1.482,1.518,2.25,2.25
			c-2.135-0.125-13.578,1.249-22.5,0.75c8.702-14.587,12.317-28.647,22.5-42.75c0.255-1.505-0.153-2.347-1.5-2.25
			c4.094-4.155,5.986-10.514,7.5-17.25c4.13-0.388,4.75-6.52,4.5-9c5.236-3.264,3.271-13.729,9.75-15.75
			c3.076-10.425,6.393-20.607,12.75-27.75c4.979-17.007,9.662-29.241,17.25-45c-0.652-2.182-1.123-0.844-3-0.75
			c0.461-0.667,0.906-1.341,0-1.5c0.487-0.763,1.725-0.775,1.5-2.25c-1.419-1.205-3.807,0.639-2.25-3
			c-2.853-1.103-0.147,3.353-3,2.25c0.064-1.064,0.124-2.124-0.75-2.25c1.292-0.708,1.228-2.772,3.75-2.25
			c-0.635-2.198-2.415,0.448-3.75,0c1.422-2.315,5.195-4.952,5.25-7.5c0.11-1.673,1.89,0.973,3.75,0
			c-0.333-0.667-0.659-1.341-1.5-1.5c0.988-1.421,3.512,1.938,4.5,3c1.586-3.718-2.401-8.348,1.5-9.75
			c-1.172,0.349-4.04-2.936-4.5,0c-0.815-1.235-2.964-4.969-4.5-3c-1.641-0.508,1.421-2.492,2.25-3
			c-0.663-2.056-3.328,1.464-1.5-1.5c-1.064-0.064-2.124-0.124-2.25,0.75c-1.641-0.508,1.421-2.492,2.25-3
			c-2.891,0.155-7.224-6.488-3-6c-0.55-0.7-1.364-1.136-2.25-1.5c0.397-0.603,0.782-1.218,0.75-2.25
			c3.102-0.135,3.017,1.763,2.25-1.5c1.503-1.711,3.486,1.451,3.75-1.5c0.667,0.461,1.341,0.906,1.5,0c1.09,0.333-0.076,0.659,0,1.5
			c2.853,1.103,0.147-3.353,3-2.25c-0.3,3.3,3.48,2.52,4.5,4.5c-0.513,2.294-1.075,7.224,0.75,7.5c-0.652,1.098-1.123,2.377-3,2.25
			c0.186,0.814,1.491,0.509,1.5,1.5C157.426,54.833,156.81,53.217,159.75,53.25z"/>
		<path fill-rule="evenodd" clip-rule="evenodd" d="M168.75,69c-1.283,0.158-1.942-1.279-2.25,0c-0.677-1.663,2.273-1.58,1.5-5.25
			C170.322,65.105,168.4,66.047,168.75,69z"/>
		<path fill-rule="evenodd" clip-rule="evenodd" d="M177,74.25c-2.333,1.084-3.99,3.675-3,6c-0.872-0.122-1.334,0.166-1.5,0.75
			c-0.409-2.485-3.199,0.343-6.75,0.75c-0.169-2.081-2.378-2.122-3-3.75c0.425-0.7,2.085-1.136,0.75-1.5c0.181-1.934,1.291,1.03,3,0
			c0.756-2.256-1.671-1.329-3-1.5c0.678-1.322,1.678-2.322,3-3c-0.186-0.943-1.491-0.756-1.5,0c-1.3-2.672,2.816-2.551,5.25-3
			c0.122-0.872-0.166-1.334-0.75-1.5c1.945-0.292,4.708-0.333,7.5-1.5c-2.283,3.146,3.094,7.369-0.75,11.25
			C174.478,77.041,177.11,75.247,177,74.25z M170.25,70.5c1.388,3.144,4.224,2.417,6.75,3c-0.084-1.916-1.375-2.625-2.25-3.75
			C174.656,71.406,171.568,70.068,170.25,70.5z"/>
		<path fill-rule="evenodd" clip-rule="evenodd" d="M216.75,70.5c1.113,0.327-0.296,0.96,0,2.25c1.007-0.493,1.396-1.603,1.5-3
			c2.322,0.178,2.913,2.087,4.5,3c-1.853,2.151,0.3,2.704-0.75,7.5c-0.96,4.384-0.476-2.257-0.75-2.25
			c-1.956,0.05-0.123,6.115-0.75,7.5c0.763-0.487,0.775-1.725,2.25-1.5c-0.064,1.064-0.124,2.124,0.75,2.25
			c-0.181,1.934-1.29-1.03-3,0c-0.321,2.071,2.796,0.704,3,2.25c1.187-1.084-0.076-1.675,0-4.5c2.918-0.527,4.066-0.898,6.75,0.75
			c-2.97,0.829-1.787,5.724,0,6c-1.835,2.915-3.73,5.77-5.25,9c3.071-2.12,3.607,6.218,6.75,4.5c-0.461,0.667-0.906,1.341,0,1.5
			c-0.186,0.814-1.491,0.509-1.5,1.5c-1.246-2.056-1.964-0.359-4.5-1.5c2.062,0.906,1.469,3.311-0.75,1.5
			c1.541,0.709,0.636,3.864,3,3.75c-3.797,8.297,4.624,15.184,2.25,21.75c0.55,0.7,1.363,1.137,2.25,1.5
			c-0.104,1.396-0.493,2.507-1.5,3c4.961,5.749,2.374,16.929,4.5,27c0.618,2.929,1.499,2.324,1.5,6c0,2.017,2.161,2.853,2.25,3.75
			c-0.161-1.623-2.343,6.845-0.75,8.25c0.678,0.844,1.678-0.047,3,1.5c-0.181,1.934-1.29-1.03-3,0c0.86,0.949,1.507,5.914,0,6.75
			c1.312-0.671,2.362,3.979,0,4.5c1.815,2.435,1.083,7.417,5.25,7.5c-0.736,1.014-2.001,1.499-3,2.25c0.678,0.844,1.678-0.047,3,1.5
			c-0.181,1.934-1.29-1.03-3,0c1.25,7.697,3.93,12.443,3.75,18.75c0.604-0.396,1.218-0.782,2.25-0.75
			c-3.095,2.168-2.098,8.199,0.75,9.75c-0.646,3.35-0.587,11.939,3,13.5c-2.766,1.734-8.738,0.262-12.75,0.75
			c-2.973-6.527,0.292-19.292-4.5-24c0.864-16.961-2.926-31.084-2.25-47.25c-0.872-0.122-1.334,0.166-1.5,0.75
			c1.836-15.672-1.938-32.693-5.25-50.25c-0.225-0.564-4.595-0.271-2.25-3c-2.516,1.242-2.102,3.457-2.25-1.5
			c-0.879,0.121-0.633,1.367-0.75,2.25c-1.544-0.206-0.706-2.794-2.25-3c-1.491,0.508,0.741,2.492-0.75,3
			c-0.966,1.585,0.099-0.788-0.75-2.25c-0.999,0.976-2.264,0.461-3-0.75c-0.913,2.39-2.822-0.5-3,3
			c0.729-0.021,0.582-0.918,0.75-1.5c1.018,0.232,0.622,1.878,0.75,3c-2.351-1.548-0.978,0.516-0.75,2.25
			c-1.388-1.906-4.42-1.668-3.75,2.25c-1.493-0.906-3.203-0.617-3.75,0c-1.018-0.232-0.622-1.878-0.75-3
			c-1.626-0.126-0.34,2.66-0.75,3.75c-2.12-0.62-1.943,1.057-3.75,0.75c0.546-1.226-1.49-3.263-1.5-1.5
			c-1.832-0.479-0.113-3.506,0.75-3.75c-0.42-1.694-1.17,0.909-2.25-0.75c0.143,0.607,0.752,0.748,0.75,1.5
			c-0.676-0.098-2.901-3.439-0.75-3.75c-0.327-0.923-0.96-1.54-2.25-1.5c1.565-0.334,1.687-4.221,0.75-3
			c-0.333-4.102,4.705-4.208,4.5-9c2.046-0.546,1.51,1.49,3,1.5c-0.931-2.033-2.895-1.867-1.5-4.5c1.148,0.01,2.466,2.046,0,1.5
			c0.083,2.656,2.479-1.594,2.25,0.75c0.925-0.418-0.559-2.902,3-2.25c-0.62-2.12,1.057-1.943,0.75-3.75
			c-1.078,1.171-1.89,2.61-3.75,3c-0.703-0.822,4.775-3,2.25-6c-1.797-0.297,0.416,3.416-2.25,2.25c0.84-2.435,2.635-4.362,5.25-3
			c-0.508-1.742-2.492-2.008-3-3.75c-1.064-0.064-2.124-0.124-2.25,0.75c-1.398-0.595-2.265-3.525,0-3.75
			c-0.519-1.481-2.001-2-3.75-2.25c0.459-2.326,3.049-4.223,0.75-4.5c0.432-1.568,1.859-2.141,1.5-4.5c2.046-0.546,1.51,1.49,3,1.5
			c-0.332-0.667-0.658-1.341-1.5-1.5c0.425-0.7,2.085-1.136,0.75-1.5c3.306-1.41,7.795,5.164,11.25,3.75
			c0.449,1.949-0.301,2.699-2.25,2.25c1.227,3.341,4.269-0.776,4.5-3c0.436-1.7-5.19-2.725-1.5-3c-0.636-2.198-2.415,0.448-3.75,0
			c-1.659-1.08,0.944-1.83-0.75-2.25c2.833-2.064,0.809-4.559,5.25-5.25C210.882,71.082,216.393,73.364,216.75,70.5z M211.5,114.75
			c-0.012,1.238-2.08,0.42-2.25,1.5c1.492,1.553,1.682,3.872,2.25,4.5c1.123-2.256,1.342,2.572,3,2.25
			C212.193,119.938,213.366,117.384,211.5,114.75z M210,95.25c-2.863,1.564-5.621-1.225-6.75,1.5c0.779,0.792,5.355,1.549,6,0
			c-0.416,0.002-0.852-0.607,0-0.75C209.291,96.789,210.211,96.59,210,95.25z M215.25,88.5c0,0.75,0,1.5,0,2.25
			c2.447,0.197,2.167-2.333,3.75-3C217.193,87.443,217.37,89.12,215.25,88.5z M217.5,100.5c3.495,0.658-1.033-1.945,1.5-2.25
			c0.223,0.664,1.502,3.811,2.25,1.5c-1.694-0.42,0.909-1.17-0.75-2.25c-0.75,0-1.5,0-2.25,0
			C218.014,98.514,217.183,98.933,217.5,100.5z M217.5,111c0.391-1.11,1.109-1.89,1.5-3c-1.859-0.764-3.816,0.649-2.25-3
			c-1.418,0.168-1.654-0.845-3-0.75C214.28,107.22,215.3,109.7,217.5,111z M210,108c-1.729,1.488-0.833-0.188-2.25-0.75
			c0.039,1.375-3.844,2.54-1.5,3.75c0.009-0.756,1.314-0.943,1.5,0c-0.915,0.085-1.775,0.224-1.5,1.5
			c2.879,0.129,1.621-3.879,4.5-3.75c0.546-1.226-1.49-3.263-1.5-1.5C209.707,107.292,210.138,107.362,210,108z"/>
		<path fill-rule="evenodd" clip-rule="evenodd" d="M230.25,113.25c-0.935-1.408-3.84-2.822-2.25-4.5
			c1.445,0.305,0.593,2.908,3,2.25c0.317,1.567-0.514,1.986-0.75,3C229.398,113.857,229.834,113.248,230.25,113.25z"/>
		<path fill-rule="evenodd" clip-rule="evenodd" fill="#FFFFFF" d="M214.5,123c-1.658,0.322-1.877-4.506-3-2.25
			c-0.568-0.628-0.758-2.947-2.25-4.5c0.17-1.08,2.238-0.262,2.25-1.5C213.366,117.384,212.193,119.938,214.5,123z"/>
		<path fill-rule="evenodd" clip-rule="evenodd" fill="#FFFFFF" d="M219,87.75c-1.583,0.667-1.303,3.197-3.75,3c0-0.75,0-1.5,0-2.25
			C217.37,89.12,217.193,87.443,219,87.75z"/>
		<path fill-rule="evenodd" clip-rule="evenodd" d="M246.75,90.75c-1.078,1.319-0.688,1.709,1.5,1.5
			c-3.111,1.404-0.889,2.904-0.75,4.5c-2.029,2.72-6.399,3.101-8.25,6c-2.309-0.525-1.441-0.525-3.75,0
			c0.122-0.872-0.166-1.334-0.75-1.5c1.913-1.337,2.509-3.992,2.25-7.5c1.568,1.638,2.286-0.893,2.25-3
			c1.226-0.068,3.263,1.249,1.5,0C244.445,90.14,242.354,91.368,246.75,90.75z"/>
		<path fill-rule="evenodd" clip-rule="evenodd" fill="#FFFFFF" d="M218.25,97.5c0.75,0,1.5,0,2.25,0
			c1.659,1.08-0.944,1.83,0.75,2.25c-0.748,2.311-2.027-0.836-2.25-1.5c-2.533,0.305,1.995,2.908-1.5,2.25
			C217.183,98.933,218.014,98.514,218.25,97.5z"/>
		<path fill-rule="evenodd" clip-rule="evenodd" d="M236.25,114c-2.406-2.021,0.392-5.217-5.25-4.5c1.811-3.708,1.454-5.384,6.75-6
			c0.652,1.098,1.123,2.377,3,2.25c-1.251,2.427-1.097,1.601-0.75,5.25c-1.198-3.268-1.916,1.809-2.25-1.5
			c-0.955,0.17-0.982,2.238,0,2.25C237.431,113.214,235.607,110.523,236.25,114z"/>
		<path fill-rule="evenodd" clip-rule="evenodd" fill="#FFFFFF" d="M209.25,107.25c0.01-1.763,2.046,0.274,1.5,1.5
			c-2.879-0.129-1.621,3.879-4.5,3.75c-0.275-1.276,0.585-1.415,1.5-1.5c-0.186-0.943-1.491-0.756-1.5,0
			c-2.344-1.21,1.539-2.375,1.5-3.75c1.417,0.562,0.521,2.238,2.25,0.75C210.138,107.362,209.707,107.292,209.25,107.25z"/>
		<path fill-rule="evenodd" clip-rule="evenodd" d="M228,114.75c1.199-0.661,4.666,2.806,5.25,5.25c2.328-1.422,4.282-3.218,5.25-6
			c4.271,3.46,4.158,3.708,6.75,8.25c-0.332,1.09-0.658-0.076-1.5,0c1.018,2.232,3.386,3.114,5.25,4.5
			c-1.838-0.476-1.747,2.849,0,4.5c-0.568,1.489-3.817-2.912-2.25-3.75c-3.438,0.105,0.484,3.363,0,5.25
			c-1.014-0.736-1.499-2.001-2.25-3c-2.215,0.652,1.74,1.123,0.75,3c-0.668-0.332-1.342-0.658-1.5-1.5
			c-1.523-0.229,0.153,2.167,0.75,2.25c-0.418,1.551-2.902-1.012-2.25-3c-1.319,0.181-1.71,1.29-1.5,3c-1.319-0.181-1.71-1.29-1.5-3
			c-1.656,0.094-0.318,3.182-0.75,4.5c-1.608-1.437-1.644-3.91-0.75-6c-0.729,0.021-0.582,0.918-0.75,1.5
			c-0.729-0.021-0.582-0.918-0.75-1.5c-1.014,0.736-1.499,2.001-2.25,3c-2.044-0.69,1.048-2.345,0-4.5
			c-0.879,0.121-0.633,1.367-0.75,2.25C228.856,123.305,232.082,117.604,228,114.75z"/>
		<path fill-rule="evenodd" clip-rule="evenodd" d="M270.75,141c-0.136,1.636,0.614,2.386,2.25,2.25
			c0.559-3.396-2.059,1.146-1.5-2.25c2.547-0.752,2.841-0.489,6,0c-3.744,3.406,0.524,3.596-0.75,8.25
			c-3.354-0.104-3.75,2.75-6.75,3c0.104,1.396,0.493,2.507,1.5,3c-2.19-0.619-4.72,2.034-4.5,6c-0.707,1.387,4.293,0.46,1.5,1.5
			c0.265,1.051,1.32,0.064,1.5-0.75c2.766,0.547-0.319,2.257,1.5,3.75c5.437,0.282,3.267-4.1,7.5-3.75
			c0.37-2.354-2.585-1.981-0.75-3.75c-2.146,2.215-1.371-1.808-1.5-3.75c0.872,0.122,1.334-0.166,1.5-0.75
			c1.729-0.229,0.833,2.167,2.25,2.25c1.014-4.738,0.324-0.026,3.75-3c1.207,0.792-1.222,2.972,2.25,1.5
			c1.772-1.68-0.936,1.656-2.25,1.5c1.553,1.928,3.871-1.123,4.5-0.75c1.176,0.265-0.656,1.32,0.75,1.5
			c-0.072,1.928-2.928,1.072-3,3c2.604-1.239,4.162-1.857,6-2.25c2.895,0.418-0.965,2.902,3,2.25c-0.875,2.438-1.961-0.023-3,2.25
			c0.736,2.102,2.001-1.089,3,0.75c-1.188,1.122-0.552,3.067,0.75,3.75c-0.678,2.047-1.678-2.281-3,0
			c0.751,1.032,1.236-0.32,2.25,1.5c-1.084,1.187-1.676-0.076-4.5,0c-0.355,0.692,0.997,4.002-1.5,0.75
			c-0.785,1.715-2.343,2.657-2.25,5.25c-1.112-1.056-1.612-2.394-1.5,0.75c-1.645-3.105-2.322-7.178-4.5-9.75
			c-1.296,0.626,0.333,4.607,0.75,6c-0.726,0.877-3.788-5.254-2.25-6.75c-4.708,0.542-7.427,3.073-11.25,4.5
			c0.143,0.607,0.752,0.748,0.75,1.5c0.729-0.021,0.582-0.918,0.75-1.5c2.089,0.314,3.311,8.563,0.75,7.5
			c9.508,27.626,26.411,50.889,35.25,71.25c-1.04,1.71-5.221,0.279-7.5,0.75c-3.028-5.722-5.818-11.682-9.75-16.5
			c-2.25,1.283-0.833,2.729-0.75,5.25c-1.609-1.647-3.172-6.95-0.75-8.25c-2.691,1.426-4.179-2.619-7.5-1.5
			c1.696-1.304,3.816-2.184,3.75-5.25c1.918-0.033,0.914,0.558,0.75,1.5c1.275,0.275,1.415-0.585,1.5-1.5
			c-2.557-1.068-0.738-1.023-0.75-1.5c-0.108-4.253-6.029-11.503-9.75-18.75c-3.594-6.999-5.641-13.121-9-20.25
			c-1.916,1.287-2.625-0.859-3.75,0.75c-1.927-4.361-2.849-9.249-0.75-12c-1.101-1.771-5.789-0.849-4.5,2.25
			c-0.649-1.371-4.957-5.527-7.5-7.5c1.158-1.592,2.158-3.342,3-5.25c-2.257,0.311-3.573-1.132-7.5,0
			c-0.708-1.729-0.049-2.418-0.75-5.25c-0.543,0.025-6.535-2.754-7.5-6.75c4.646-0.838,12.823,2.937,15.75,0.75
			c0.855,0.666-0.464,2.094,3,1.5c-1.487,1.544-1.487,0.706,0,2.25c1.007-0.151,1.396-3.115,1.5,0c1.505-2.577-0.338-5.581-1.5-9
			c0.729,0.021,0.582,0.918,0.75,1.5c2.972-0.231-0.839-2.604,2.25-2.25c0.067,2.046-1.249,1.51,0,3c1.435-0.315,3.229-0.271,3-2.25
			c1.841,1.849,1.632,2.704,2.25,0.75c-0.55-0.7-1.364-1.137-2.25-1.5c2.469-5.292,0.142-3.92,0.75-10.5
			c2.571-1.825,2.701-3.187,6-3c-1.191,3.703,2.193,5.087,0.75,6.75c0.652,2.215,1.123-1.74,3-0.75
			C268.881,137.15,273.928,139.184,270.75,141z M264.75,159.75c0.222-2.859-0.916-5.799-2.25-3c-0.168-0.582-0.021-1.479-0.75-1.5
			C262.41,157.09,262.425,159.575,264.75,159.75z M259.5,168.75c-0.536-2.036,3.536,0.536,3-1.5c-1.529-0.221-1.471-2.029-3-2.25
			C260.476,166.862,257.3,168.112,259.5,168.75z"/>
		<path fill-rule="evenodd" clip-rule="evenodd" fill="#FFFFFF" d="M261.75,155.25c0.729,0.021,0.582,0.918,0.75,1.5
			c1.334-2.799,2.472,0.141,2.25,3C262.425,159.575,262.41,157.09,261.75,155.25z"/>
		<path fill-rule="evenodd" clip-rule="evenodd" d="M307.5,179.25c0.875,1.125,2.166,1.834,2.25,3.75c1.49-1.54-1.7-4.763-1.5-7.5
			c2.778,0.387,1.887,1.278,1.5-1.5c1.188-0.063,2.86,0.36,3-0.75c2.091,1.513-0.249,10.521,1.5,15.75c-0.181,1.319-1.29,1.71-3,1.5
			c3.907-2.352-3.711-2.105-4.5-6c-0.546-2.046,1.49-1.51,1.5-3C307.09,181.309,305.5,182.602,307.5,179.25z"/>
		<path fill-rule="evenodd" clip-rule="evenodd" d="M324,181.5c-0.99,4.787-2.375,6.822-1.5,9.75c1.211,0.211,1.291-0.709,2.25-0.75
			c1.079,0.405-4.396,4.528-2.25,6c-0.113,1.865-2.54,0.22-3,0c0.576,2.826-0.915,3.585-0.75,6c4.618-3.195,5.848,1.826,6.75-2.25
			c1.018,0.232,0.622,1.878,0.75,3c0.604-0.396,1.218-0.782,2.25-0.75c0.676-0.666,0.061-2.283,3-2.25
			c-0.439,1.561-1.576,2.424-2.25,3.75c2.974-2.14,4.455-4.976,6.75-6c0.903,0.847,1.359,2.141,3.75,1.5
			c-1.908,3.016-3.186,2.139-6,3.75c2.237,1.075-1.972,3.909,1.5,3.75c-0.487,0.763-1.725,0.775-1.5,2.25
			c-2.726-3.811-4.97,0.449-7.5-2.25c-2.053,0.871-4.33,5.494-6,2.25c-1.873,0.519,1.392,2.001,0.75,3.75
			c-0.607-0.143-0.748-0.752-1.5-0.75c1.249,1.49-0.067,0.954,0,3c0.729-0.021,0.582-0.918,0.75-1.5
			c2.929,1.971,1.434-0.156,5.25,1.5c0.478,1.636-2.126,2.386,0.75,2.25c-1.353,2.806,0.607,4.262-1.5,6
			c2.897,3.103,2.8,9.2,7.5,10.5c-0.765,4.896,4.712,9.69,6.75,14.25c-2,0-4,0-6,0c-3.229-5.521-6.287-11.213-9-17.25
			c-8.042-0.458-8.829-8.171-9.75-15.75c-2.226,0.274-3.7,1.3-4.5,3c2.104,1.207,5.521,4.049,3.75,6.75
			c-2.344,0.229,1.906-2.167-0.75-2.25c-2.29,2.137,1.228,5.623-1.5,6.75c-1.916-0.084-1.488-2.512-1.5-4.5
			c-1.197,2.197-1.629,2.481-3.75,1.5c0.599,1.401,1.253,2.747,1.5,4.5c-1.423-1.09-3.293-3.986-2.25-5.25
			c-3.316,2.873-1.314,6.142-4.5,0c-0.668,0.332-1.342,0.658-1.5,1.5c-2.278-0.925,0.813-2.579,0-4.5
			c-3.926,0.636-1.32,4.493-0.75,6.75c-3.588-4.412-5.411-10.589-7.5-16.5c2.713-0.052,6.443-1.712,7.5,3
			c-0.186-2.075,0.659-11.09,0.75-1.5c2.267-3.696,3.854-5.386,1.5-9c-1.973-0.223-0.59,2.91-3,2.25c2.117-5.869-7.418-1.811-9-1.5
			c-0.279-2.021-0.233-2.196-4.5-2.25c1.254-0.708,2.627-2.772-0.75-2.25c0.461-0.668,0.906-1.342,0-1.5
			c0.327-1.113,0.96,0.296,2.25,0c0.321-1.208-2.796-2.517-3-0.75c-1.113-0.327,0.296-0.96,0-2.25c1.25,0,2.5,0,3.75,0
			c-0.801-0.699-0.233-2.767-2.25-2.25c0.836-1.507,5.801-0.86,6.75,0c-4.151-4.1,2.502-1.75-3-4.5c0.461-0.668,0.906-1.342,0-1.5
			c0.181-1.934,1.29,1.03,3,0c0.223-1.973-2.91-0.59-2.25-3c1.109,0.391,1.891,1.109,3,1.5c-0.666-1.334-2.094-1.906-1.5-4.5
			c3.72,2.78,7.252,5.748,9,10.5c1.877,0.127,2.348-1.152,3-2.25c0.734,2.122,0.321,2.769,2.25,0c-1.625-2.688-3.105-2.717-2.25-7.5
			c6.089,4.202,5.92,12.193,11.25,15.75c0.211,1.34-0.709,1.539-0.75,0.75c-2.173,0.42,1.15,1.17,0.75,2.25
			c2.297-1.627-0.719-4.222,0-6.75c-3.383,0.366-0.335-0.521-3-4.5c4.012,2.813,6.347-5.203,9.75-3c-2.437-3.66-0.458-7.197,3-8.25
			C325.507,179.313,328.761,187.088,324,181.5z M316.5,200.25c-2.712,2.226-0.804,8.881,1.5,12c-2.984-5.993,1.385-10.251-1.5-15
			c-0.221,2.646-2.029-2.646-2.25,0C315.264,197.986,315.749,199.251,316.5,200.25z M307.5,214.5c-1.952-3.156-1.238-4.917-2.25-7.5
			c-0.221,2.613-2.029-0.063-2.25,1.5C304.902,210.098,304.072,214.428,307.5,214.5z M308.25,214.5c2.653,0.393,4.666,0.902,6-1.5
			c-1.617-0.92-4.372-4.578-6-3C310.528,210.925,307.437,212.579,308.25,214.5z"/>
		<path fill-rule="evenodd" clip-rule="evenodd" fill="#FFFFFF" d="M314.25,197.25c0.221-2.646,2.029,2.646,2.25,0
			c2.885,4.749-1.484,9.007,1.5,15c-2.304-3.119-4.212-9.774-1.5-12C315.749,199.251,315.264,197.986,314.25,197.25z"/>
		<path fill-rule="evenodd" clip-rule="evenodd" fill="#FFFFFF" d="M303,208.5c0.221-1.563,2.029,1.113,2.25-1.5
			c1.012,2.583,0.298,4.344,2.25,7.5C304.072,214.428,304.902,210.098,303,208.5z"/>
		<path fill-rule="evenodd" clip-rule="evenodd" fill="#FFFFFF" d="M308.25,210c1.628-1.578,4.383,2.08,6,3
			c-1.334,2.402-3.347,1.893-6,1.5C307.437,212.579,310.528,210.925,308.25,210z"/>
		<path fill-rule="evenodd" clip-rule="evenodd" fill="#FFFFFF" d="M93.75,37.5c1.363,0.887,0.589,3.911,1.5,5.25
			c-3.737,0.487-4.419-2.081-6.75-3C88.203,36.953,93.185,39.435,93.75,37.5z"/>
		<path fill-rule="evenodd" clip-rule="evenodd" fill="#FFFFFF" d="M174.75,69.75c0.875,1.125,2.166,1.834,2.25,3.75
			c-2.526-0.583-5.362,0.144-6.75-3C171.568,70.068,174.656,71.406,174.75,69.75z"/>
	</g>
</g>
</svg>
